<svg width="23" height="20" viewBox="0 0 23 20" fill="none" xmlns="http://www.w3.org/2000/svg">
<path d="M11.7316 0C5.67793 0 0.724915 4.5 0.724915 10V20H22.7383V10C22.7383 4.5 17.7853 0 11.7316 0ZM11.7316 2C14.9236 2 17.7193 3.56 19.2602 5.88C18.7869 5.95 18.2916 6 17.7853 6C14.5934 6 11.7977 4.44 10.2567 2.12C10.73 2.05 11.2253 2 11.7316 2ZM7.41699 3.03C6.72248 4.91056 5.28785 6.49175 3.38854 7.47C4.08305 5.58945 5.51769 4.00825 7.41699 3.03ZM2.92626 9.86C5.788 8.88 8.0884 6.87 9.24411 4.31C10.2764 5.46312 11.5787 6.39266 13.0562 7.03097C14.5337 7.66928 16.1493 8.00032 17.7853 8C18.6108 8 19.4033 7.91 20.1738 7.76C20.4049 8.47 20.537 9.22 20.537 10C20.537 14.41 16.5856 18 11.7316 18C6.87767 18 2.92626 14.41 2.92626 10V9.86ZM2.92626 18V16C3.55364 16.75 4.3021 17.43 5.1276 18H2.92626ZM20.537 18H18.3357C19.1612 17.43 19.9096 16.75 20.537 16V18ZM13.6578 11C13.6578 10.6685 13.8028 10.3505 14.0608 10.1161C14.3188 9.8817 14.6687 9.75 15.0336 9.75C15.3985 9.75 15.7485 9.8817 16.0065 10.1161C16.2645 10.3505 16.4095 10.6685 16.4095 11C16.4095 11.3315 16.2645 11.6495 16.0065 11.8839C15.7485 12.1183 15.3985 12.25 15.0336 12.25C14.6687 12.25 14.3188 12.1183 14.0608 11.8839C13.8028 11.6495 13.6578 11.3315 13.6578 11ZM7.05377 11C7.05377 10.6685 7.19873 10.3505 7.45675 10.1161C7.71477 9.8817 8.06472 9.75 8.42961 9.75C8.79451 9.75 9.14446 9.8817 9.40248 10.1161C9.6605 10.3505 9.80545 10.6685 9.80545 11C9.80545 11.3315 9.6605 11.6495 9.40248 11.8839C9.14446 12.1183 8.79451 12.25 8.42961 12.25C8.06472 12.25 7.71477 12.1183 7.45675 11.8839C7.19873 11.6495 7.05377 11.3315 7.05377 11Z" fill="#BA78B9"/>
</svg>
