<svg width="46" height="32" viewBox="0 0 46 32" fill="none" xmlns="http://www.w3.org/2000/svg">
<path d="M34.3783 3.60888L37.707 10.4717C38.0358 10.9649 38.4467 11.0882 38.8988 10.8005C39.3508 10.5128 39.4741 10.0608 39.2275 9.44437L34.9126 0.608942C34.7482 0.239087 34.5016 0.074707 34.1729 0.074707C33.8852 0.074707 33.6386 0.280182 33.5153 0.608942L25.6662 27.1152L23.4471 14.2525C22.995 13.6361 22.4608 13.6361 21.8855 14.2525L18.5568 20.6633L17.0773 9.56765C16.9951 9.23889 16.7486 9.07451 16.3376 9.07451C15.9678 9.07451 15.6801 9.23889 15.5157 9.56765L11.8994 17.951H1.37904C1.00919 17.951 0.76262 18.1565 0.68043 18.5264C0.639335 19.0195 0.84481 19.3072 1.29685 19.3483H12.8035L15.8856 13.2251L17.3239 23.992C17.4061 24.3208 17.6116 24.4851 17.9814 24.4851C18.3513 24.4851 18.6389 24.3208 18.8033 23.992L22.2964 17.2113L24.5977 30.9781C24.6799 31.4302 24.9265 31.6357 25.3374 31.5946C25.7073 31.5946 25.995 31.3891 26.2004 30.9781L34.3783 3.60888ZM43.8713 13.6361C42.022 12.8963 40.5837 13.3484 39.4741 14.9511C38.4878 13.5128 37.255 13.0607 35.6934 13.6361C33.8852 14.458 33.4331 16.0196 34.255 18.3209C35.6934 20.6633 37.4605 22.5537 39.5152 23.992C41.5289 22.5126 43.1727 20.7866 44.4877 18.7318C45.5973 16.636 45.3918 14.9511 43.8713 13.6361Z" fill="white"/>
</svg>
