<svg width="349" height="204" viewBox="0 0 349 204" fill="none" xmlns="http://www.w3.org/2000/svg">
<path d="M22.8878 20.542V24H21.0678V20.57L17.2177 14.2H19.1638L22.0338 18.974L24.9318 14.2H26.7238L22.8878 20.542ZM30.2736 24.098C29.5176 24.098 28.8363 23.9347 28.2296 23.608C27.623 23.2813 27.147 22.8287 26.8016 22.25C26.4656 21.662 26.2976 20.9993 26.2976 20.262C26.2976 19.5247 26.4656 18.8667 26.8016 18.288C27.147 17.7093 27.623 17.2567 28.2296 16.93C28.8363 16.6033 29.5176 16.44 30.2736 16.44C31.039 16.44 31.725 16.6033 32.3316 16.93C32.9383 17.2567 33.4096 17.7093 33.7456 18.288C34.091 18.8667 34.2636 19.5247 34.2636 20.262C34.2636 20.9993 34.091 21.662 33.7456 22.25C33.4096 22.8287 32.9383 23.2813 32.3316 23.608C31.725 23.9347 31.039 24.098 30.2736 24.098ZM30.2736 22.6C30.9176 22.6 31.4496 22.3853 31.8696 21.956C32.2896 21.5267 32.4996 20.962 32.4996 20.262C32.4996 19.562 32.2896 18.9973 31.8696 18.568C31.4496 18.1387 30.9176 17.924 30.2736 17.924C29.6296 17.924 29.0976 18.1387 28.6776 18.568C28.267 18.9973 28.0616 19.562 28.0616 20.262C28.0616 20.962 28.267 21.5267 28.6776 21.956C29.0976 22.3853 29.6296 22.6 30.2736 22.6ZM43.1751 16.524V24H41.5091V23.048C41.2291 23.384 40.8791 23.6453 40.4591 23.832C40.0391 24.0093 39.5864 24.098 39.1011 24.098C38.1024 24.098 37.3137 23.8227 36.7351 23.272C36.1657 22.712 35.8811 21.886 35.8811 20.794V16.524H37.6311V20.556C37.6311 21.228 37.7804 21.732 38.0791 22.068C38.3871 22.3947 38.8211 22.558 39.3811 22.558C40.0064 22.558 40.5011 22.3667 40.8651 21.984C41.2384 21.592 41.4251 21.032 41.4251 20.304V16.524H43.1751ZM47.1324 17.616C47.6364 16.832 48.523 16.44 49.7924 16.44V18.106C49.643 18.078 49.5077 18.064 49.3864 18.064C48.705 18.064 48.173 18.2647 47.7904 18.666C47.4077 19.058 47.2164 19.6273 47.2164 20.374V24H45.4664V16.524H47.1324V17.616ZM58.2524 14.928C57.5151 14.928 57.1464 15.3293 57.1464 16.132V16.58H59.2044V17.98H57.2024V24H55.4524V17.98H54.2204V16.58H55.4524V16.104C55.4524 15.3013 55.6857 14.6713 56.1524 14.214C56.6191 13.7473 57.2771 13.514 58.1264 13.514C58.7984 13.514 59.3257 13.6493 59.7084 13.92L59.2184 15.236C58.9197 15.0307 58.5977 14.928 58.2524 14.928ZM63.1017 16.44C64.203 16.44 65.043 16.706 65.6217 17.238C66.2097 17.7607 66.5037 18.554 66.5037 19.618V24H64.8517V23.09C64.637 23.4167 64.329 23.6687 63.9277 23.846C63.5357 24.014 63.0597 24.098 62.4997 24.098C61.9397 24.098 61.4497 24.0047 61.0297 23.818C60.6097 23.622 60.283 23.356 60.0497 23.02C59.8257 22.6747 59.7137 22.2873 59.7137 21.858C59.7137 21.186 59.961 20.6493 60.4557 20.248C60.9597 19.8373 61.7483 19.632 62.8217 19.632H64.7537V19.52C64.7537 18.9973 64.595 18.596 64.2777 18.316C63.9697 18.036 63.5077 17.896 62.8917 17.896C62.4717 17.896 62.0563 17.9613 61.6457 18.092C61.2443 18.2227 60.9037 18.4047 60.6237 18.638L59.9377 17.364C60.3297 17.0653 60.801 16.8367 61.3517 16.678C61.9023 16.5193 62.4857 16.44 63.1017 16.44ZM62.8637 22.824C63.3023 22.824 63.6897 22.726 64.0257 22.53C64.371 22.3247 64.6137 22.0353 64.7537 21.662V20.794H62.9477C61.9397 20.794 61.4357 21.1253 61.4357 21.788C61.4357 22.1053 61.5617 22.3573 61.8137 22.544C62.0657 22.7307 62.4157 22.824 62.8637 22.824ZM78.1856 16.44C79.1282 16.44 79.8749 16.7153 80.4256 17.266C80.9762 17.8073 81.2516 18.624 81.2516 19.716V24H79.5016V19.94C79.5016 19.2867 79.3569 18.7967 79.0676 18.47C78.7782 18.134 78.3629 17.966 77.8216 17.966C77.2336 17.966 76.7622 18.162 76.4076 18.554C76.0529 18.9367 75.8756 19.4873 75.8756 20.206V24H74.1256V19.94C74.1256 19.2867 73.9809 18.7967 73.6916 18.47C73.4022 18.134 72.9869 17.966 72.4456 17.966C71.8482 17.966 71.3722 18.1573 71.0176 18.54C70.6722 18.9227 70.4996 19.478 70.4996 20.206V24H68.7496V16.524H70.4156V17.476C70.6956 17.14 71.0456 16.8833 71.4656 16.706C71.8856 16.5287 72.3522 16.44 72.8656 16.44C73.4256 16.44 73.9202 16.5473 74.3496 16.762C74.7882 16.9673 75.1336 17.2753 75.3856 17.686C75.6936 17.294 76.0902 16.9907 76.5756 16.776C77.0609 16.552 77.5976 16.44 78.1856 16.44ZM83.4878 16.524H85.2378V24H83.4878V16.524ZM84.3698 15.292C84.0525 15.292 83.7865 15.194 83.5718 14.998C83.3572 14.7927 83.2498 14.5407 83.2498 14.242C83.2498 13.9433 83.3572 13.696 83.5718 13.5C83.7865 13.2947 84.0525 13.192 84.3698 13.192C84.6872 13.192 84.9532 13.29 85.1678 13.486C85.3825 13.6727 85.4898 13.9107 85.4898 14.2C85.4898 14.508 85.3825 14.7693 85.1678 14.984C84.9625 15.1893 84.6965 15.292 84.3698 15.292ZM87.5347 13.612H89.2847V24H87.5347V13.612ZM98.5816 16.524L95.0816 24.602C94.7549 25.414 94.3583 25.9833 93.8916 26.31C93.4249 26.646 92.8603 26.814 92.1976 26.814C91.8243 26.814 91.4556 26.7533 91.0916 26.632C90.7276 26.5107 90.4289 26.3427 90.1956 26.128L90.8956 24.84C91.0636 24.9987 91.2596 25.1247 91.4836 25.218C91.7169 25.3113 91.9503 25.358 92.1836 25.358C92.4916 25.358 92.7436 25.2787 92.9396 25.12C93.1449 24.9613 93.3316 24.6953 93.4996 24.322L93.6256 24.028L90.3636 16.524H92.1836L94.5356 22.054L96.9016 16.524H98.5816ZM112.98 16.44C113.923 16.44 114.67 16.7153 115.22 17.266C115.771 17.8073 116.046 18.624 116.046 19.716V24H114.296V19.94C114.296 19.2867 114.152 18.7967 113.862 18.47C113.573 18.134 113.158 17.966 112.616 17.966C112.028 17.966 111.557 18.162 111.202 18.554C110.848 18.9367 110.67 19.4873 110.67 20.206V24H108.92V19.94C108.92 19.2867 108.776 18.7967 108.486 18.47C108.197 18.134 107.782 17.966 107.24 17.966C106.643 17.966 106.167 18.1573 105.812 18.54C105.467 18.9227 105.294 19.478 105.294 20.206V24H103.544V16.524H105.21V17.476C105.49 17.14 105.84 16.8833 106.26 16.706C106.68 16.5287 107.147 16.44 107.66 16.44C108.22 16.44 108.715 16.5473 109.144 16.762C109.583 16.9673 109.928 17.2753 110.18 17.686C110.488 17.294 110.885 16.9907 111.37 16.776C111.856 16.552 112.392 16.44 112.98 16.44ZM125.379 20.304C125.379 20.4253 125.37 20.598 125.351 20.822H119.485C119.588 21.3727 119.854 21.8113 120.283 22.138C120.722 22.4553 121.263 22.614 121.907 22.614C122.728 22.614 123.405 22.3433 123.937 21.802L124.875 22.88C124.539 23.2813 124.114 23.5847 123.601 23.79C123.088 23.9953 122.509 24.098 121.865 24.098C121.044 24.098 120.32 23.9347 119.695 23.608C119.07 23.2813 118.584 22.8287 118.239 22.25C117.903 21.662 117.735 20.9993 117.735 20.262C117.735 19.534 117.898 18.8807 118.225 18.302C118.561 17.714 119.023 17.2567 119.611 16.93C120.199 16.6033 120.862 16.44 121.599 16.44C122.327 16.44 122.976 16.6033 123.545 16.93C124.124 17.2473 124.572 17.7 124.889 18.288C125.216 18.8667 125.379 19.5387 125.379 20.304ZM121.599 17.84C121.039 17.84 120.563 18.008 120.171 18.344C119.788 18.6707 119.555 19.1093 119.471 19.66H123.713C123.638 19.1187 123.41 18.68 123.027 18.344C122.644 18.008 122.168 17.84 121.599 17.84ZM136.496 16.44C137.439 16.44 138.185 16.7153 138.736 17.266C139.287 17.8073 139.562 18.624 139.562 19.716V24H137.812V19.94C137.812 19.2867 137.667 18.7967 137.378 18.47C137.089 18.134 136.673 17.966 136.132 17.966C135.544 17.966 135.073 18.162 134.718 18.554C134.363 18.9367 134.186 19.4873 134.186 20.206V24H132.436V19.94C132.436 19.2867 132.291 18.7967 132.002 18.47C131.713 18.134 131.297 17.966 130.756 17.966C130.159 17.966 129.683 18.1573 129.328 18.54C128.983 18.9227 128.81 19.478 128.81 20.206V24H127.06V16.524H128.726V17.476C129.006 17.14 129.356 16.8833 129.776 16.706C130.196 16.5287 130.663 16.44 131.176 16.44C131.736 16.44 132.231 16.5473 132.66 16.762C133.099 16.9673 133.444 17.2753 133.696 17.686C134.004 17.294 134.401 16.9907 134.886 16.776C135.371 16.552 135.908 16.44 136.496 16.44ZM145.942 16.44C146.67 16.44 147.319 16.5987 147.888 16.916C148.467 17.2333 148.92 17.6813 149.246 18.26C149.573 18.8387 149.736 19.506 149.736 20.262C149.736 21.018 149.573 21.69 149.246 22.278C148.92 22.8567 148.467 23.3047 147.888 23.622C147.319 23.9393 146.67 24.098 145.942 24.098C145.429 24.098 144.958 24.0093 144.528 23.832C144.108 23.6547 143.754 23.3887 143.464 23.034V24H141.798V13.612H143.548V17.434C143.847 17.1073 144.197 16.86 144.598 16.692C145.009 16.524 145.457 16.44 145.942 16.44ZM145.746 22.6C146.39 22.6 146.918 22.3853 147.328 21.956C147.748 21.5267 147.958 20.962 147.958 20.262C147.958 19.562 147.748 18.9973 147.328 18.568C146.918 18.1387 146.39 17.924 145.746 17.924C145.326 17.924 144.948 18.022 144.612 18.218C144.276 18.4047 144.01 18.6753 143.814 19.03C143.618 19.3847 143.52 19.7953 143.52 20.262C143.52 20.7287 143.618 21.1393 143.814 21.494C144.01 21.8487 144.276 22.124 144.612 22.32C144.948 22.5067 145.326 22.6 145.746 22.6ZM158.424 20.304C158.424 20.4253 158.415 20.598 158.396 20.822H152.53C152.633 21.3727 152.899 21.8113 153.328 22.138C153.767 22.4553 154.308 22.614 154.952 22.614C155.773 22.614 156.45 22.3433 156.982 21.802L157.92 22.88C157.584 23.2813 157.159 23.5847 156.646 23.79C156.133 23.9953 155.554 24.098 154.91 24.098C154.089 24.098 153.365 23.9347 152.74 23.608C152.115 23.2813 151.629 22.8287 151.284 22.25C150.948 21.662 150.78 20.9993 150.78 20.262C150.78 19.534 150.943 18.8807 151.27 18.302C151.606 17.714 152.068 17.2567 152.656 16.93C153.244 16.6033 153.907 16.44 154.644 16.44C155.372 16.44 156.021 16.6033 156.59 16.93C157.169 17.2473 157.617 17.7 157.934 18.288C158.261 18.8667 158.424 19.5387 158.424 20.304ZM154.644 17.84C154.084 17.84 153.608 18.008 153.216 18.344C152.833 18.6707 152.6 19.1093 152.516 19.66H156.758C156.683 19.1187 156.455 18.68 156.072 18.344C155.689 18.008 155.213 17.84 154.644 17.84ZM161.771 17.616C162.275 16.832 163.162 16.44 164.431 16.44V18.106C164.282 18.078 164.146 18.064 164.025 18.064C163.344 18.064 162.812 18.2647 162.429 18.666C162.046 19.058 161.855 19.6273 161.855 20.374V24H160.105V16.524H161.771V17.616ZM168.253 24.098C167.646 24.098 167.054 24.0187 166.475 23.86C165.896 23.7013 165.434 23.5007 165.089 23.258L165.761 21.928C166.097 22.152 166.498 22.334 166.965 22.474C167.441 22.6047 167.908 22.67 168.365 22.67C169.41 22.67 169.933 22.3947 169.933 21.844C169.933 21.5827 169.798 21.4007 169.527 21.298C169.266 21.1953 168.841 21.0973 168.253 21.004C167.637 20.9107 167.133 20.8033 166.741 20.682C166.358 20.5607 166.022 20.3507 165.733 20.052C165.453 19.744 165.313 19.3193 165.313 18.778C165.313 18.0687 165.607 17.504 166.195 17.084C166.792 16.6547 167.595 16.44 168.603 16.44C169.116 16.44 169.63 16.5007 170.143 16.622C170.656 16.734 171.076 16.888 171.403 17.084L170.731 18.414C170.096 18.0407 169.382 17.854 168.589 17.854C168.076 17.854 167.684 17.9333 167.413 18.092C167.152 18.2413 167.021 18.442 167.021 18.694C167.021 18.974 167.161 19.1747 167.441 19.296C167.73 19.408 168.174 19.5153 168.771 19.618C169.368 19.7113 169.858 19.8187 170.241 19.94C170.624 20.0613 170.95 20.2667 171.221 20.556C171.501 20.8453 171.641 21.256 171.641 21.788C171.641 22.488 171.338 23.048 170.731 23.468C170.124 23.888 169.298 24.098 168.253 24.098ZM144.988 38.228C144.988 38.984 144.708 39.628 144.148 40.16C143.597 40.6827 142.795 41 141.74 41.112V42.68H140.592V41.126C139.901 41.0793 139.248 40.9533 138.632 40.748C138.016 40.5427 137.526 40.2813 137.162 39.964L137.792 38.55C138.137 38.83 138.557 39.068 139.052 39.264C139.547 39.4507 140.06 39.5673 140.592 39.614V36.814C139.929 36.6553 139.374 36.4827 138.926 36.296C138.487 36.1 138.119 35.82 137.82 35.456C137.521 35.0827 137.372 34.5927 137.372 33.986C137.372 33.23 137.647 32.586 138.198 32.054C138.749 31.522 139.547 31.2047 140.592 31.102V29.52H141.74V31.074C142.263 31.102 142.771 31.1907 143.266 31.34C143.77 31.4893 144.209 31.6853 144.582 31.928L144.008 33.342C143.299 32.9313 142.543 32.6793 141.74 32.586V35.414C142.412 35.5727 142.967 35.7453 143.406 35.932C143.854 36.1187 144.227 36.3987 144.526 36.772C144.834 37.136 144.988 37.6213 144.988 38.228ZM139.178 33.902C139.178 34.21 139.299 34.4573 139.542 34.644C139.785 34.8307 140.135 34.9893 140.592 35.12V32.628C140.116 32.7027 139.761 32.852 139.528 33.076C139.295 33.3 139.178 33.5753 139.178 33.902ZM141.74 39.586C142.235 39.5113 142.599 39.3667 142.832 39.152C143.075 38.9373 143.196 38.6713 143.196 38.354C143.196 38.0367 143.07 37.7847 142.818 37.598C142.566 37.402 142.207 37.2387 141.74 37.108V39.586ZM152.449 35.848C152.962 36.0813 153.354 36.3987 153.625 36.8C153.905 37.192 154.045 37.654 154.045 38.186C154.045 38.7833 153.877 39.306 153.541 39.754C153.214 40.202 152.747 40.5473 152.141 40.79C151.534 41.0233 150.829 41.14 150.027 41.14C149.224 41.14 148.519 41.0233 147.913 40.79C147.315 40.5473 146.853 40.202 146.527 39.754C146.2 39.306 146.037 38.7833 146.037 38.186C146.037 37.654 146.172 37.192 146.443 36.8C146.713 36.3987 147.101 36.0813 147.605 35.848C147.213 35.6333 146.909 35.3533 146.695 35.008C146.489 34.6533 146.387 34.2473 146.387 33.79C146.387 33.2393 146.536 32.7587 146.835 32.348C147.143 31.9373 147.572 31.62 148.123 31.396C148.673 31.172 149.308 31.06 150.027 31.06C150.755 31.06 151.394 31.172 151.945 31.396C152.495 31.62 152.925 31.9373 153.233 32.348C153.541 32.7587 153.695 33.2393 153.695 33.79C153.695 34.2473 153.587 34.6487 153.373 34.994C153.158 35.3393 152.85 35.624 152.449 35.848ZM150.027 32.488C149.457 32.488 149.005 32.6093 148.669 32.852C148.342 33.0947 148.179 33.4353 148.179 33.874C148.179 34.294 148.342 34.63 148.669 34.882C149.005 35.1247 149.457 35.246 150.027 35.246C150.605 35.246 151.063 35.1247 151.399 34.882C151.735 34.63 151.903 34.294 151.903 33.874C151.903 33.4353 151.73 33.0947 151.385 32.852C151.049 32.6093 150.596 32.488 150.027 32.488ZM150.027 39.712C150.699 39.712 151.231 39.572 151.623 39.292C152.015 39.012 152.211 38.6247 152.211 38.13C152.211 37.6447 152.015 37.262 151.623 36.982C151.231 36.702 150.699 36.562 150.027 36.562C149.355 36.562 148.827 36.702 148.445 36.982C148.062 37.262 147.871 37.6447 147.871 38.13C147.871 38.6247 148.062 39.012 148.445 39.292C148.827 39.572 149.355 39.712 150.027 39.712ZM163.961 38.774H162.225V41H160.461V38.774H155.085V37.514L159.915 31.2H161.861L157.311 37.234H160.517V35.26H162.225V37.234H163.961V38.774ZM171.49 31.2V32.418L167.682 41H165.736L169.418 32.74H165.568V34.406H163.874V31.2H171.49Z" fill="#3C3C3C"/>
<path d="M107.909 64.2V74H106.411L101.007 67.364V74H99.2008V64.2H100.699L106.103 70.836V64.2H107.909ZM110.367 66.524H112.117V74H110.367V66.524ZM111.249 65.292C110.931 65.292 110.665 65.194 110.451 64.998C110.236 64.7927 110.129 64.5407 110.129 64.242C110.129 63.9433 110.236 63.696 110.451 63.5C110.665 63.2947 110.931 63.192 111.249 63.192C111.566 63.192 111.832 63.29 112.047 63.486C112.261 63.6727 112.369 63.9107 112.369 64.2C112.369 64.508 112.261 64.7693 112.047 64.984C111.841 65.1893 111.575 65.292 111.249 65.292ZM117.844 74.098C117.069 74.098 116.374 73.9347 115.758 73.608C115.142 73.2813 114.661 72.8287 114.316 72.25C113.97 71.662 113.798 70.9993 113.798 70.262C113.798 69.5247 113.97 68.8667 114.316 68.288C114.661 67.7093 115.137 67.2567 115.744 66.93C116.36 66.6033 117.06 66.44 117.844 66.44C118.581 66.44 119.225 66.5893 119.776 66.888C120.336 67.1867 120.756 67.616 121.036 68.176L119.692 68.96C119.477 68.6147 119.206 68.358 118.88 68.19C118.562 68.0127 118.212 67.924 117.83 67.924C117.176 67.924 116.635 68.1387 116.206 68.568C115.776 68.988 115.562 69.5527 115.562 70.262C115.562 70.9713 115.772 71.5407 116.192 71.97C116.621 72.39 117.167 72.6 117.83 72.6C118.212 72.6 118.562 72.516 118.88 72.348C119.206 72.1707 119.477 71.9093 119.692 71.564L121.036 72.348C120.746 72.908 120.322 73.342 119.762 73.65C119.211 73.9487 118.572 74.098 117.844 74.098ZM125.404 66.44C126.506 66.44 127.346 66.706 127.924 67.238C128.512 67.7607 128.806 68.554 128.806 69.618V74H127.154V73.09C126.94 73.4167 126.632 73.6687 126.23 73.846C125.838 74.014 125.362 74.098 124.802 74.098C124.242 74.098 123.752 74.0047 123.332 73.818C122.912 73.622 122.586 73.356 122.352 73.02C122.128 72.6747 122.016 72.2873 122.016 71.858C122.016 71.186 122.264 70.6493 122.758 70.248C123.262 69.8373 124.051 69.632 125.124 69.632H127.056V69.52C127.056 68.9973 126.898 68.596 126.58 68.316C126.272 68.036 125.81 67.896 125.194 67.896C124.774 67.896 124.359 67.9613 123.948 68.092C123.547 68.2227 123.206 68.4047 122.926 68.638L122.24 67.364C122.632 67.0653 123.104 66.8367 123.654 66.678C124.205 66.5193 124.788 66.44 125.404 66.44ZM125.166 72.824C125.605 72.824 125.992 72.726 126.328 72.53C126.674 72.3247 126.916 72.0353 127.056 71.662V70.794H125.25C124.242 70.794 123.738 71.1253 123.738 71.788C123.738 72.1053 123.864 72.3573 124.116 72.544C124.368 72.7307 124.718 72.824 125.166 72.824ZM132.718 67.616C133.222 66.832 134.109 66.44 135.378 66.44V68.106C135.229 68.078 135.094 68.064 134.972 68.064C134.291 68.064 133.759 68.2647 133.376 68.666C132.994 69.058 132.802 69.6273 132.802 70.374V74H131.052V66.524H132.718V67.616ZM139.678 66.44C140.779 66.44 141.619 66.706 142.198 67.238C142.786 67.7607 143.08 68.554 143.08 69.618V74H141.428V73.09C141.213 73.4167 140.905 73.6687 140.504 73.846C140.112 74.014 139.636 74.098 139.076 74.098C138.516 74.098 138.026 74.0047 137.606 73.818C137.186 73.622 136.859 73.356 136.626 73.02C136.402 72.6747 136.29 72.2873 136.29 71.858C136.29 71.186 136.537 70.6493 137.032 70.248C137.536 69.8373 138.324 69.632 139.398 69.632H141.33V69.52C141.33 68.9973 141.171 68.596 140.854 68.316C140.546 68.036 140.084 67.896 139.468 67.896C139.048 67.896 138.632 67.9613 138.222 68.092C137.82 68.2227 137.48 68.4047 137.2 68.638L136.514 67.364C136.906 67.0653 137.377 66.8367 137.928 66.678C138.478 66.5193 139.062 66.44 139.678 66.44ZM139.44 72.824C139.878 72.824 140.266 72.726 140.602 72.53C140.947 72.3247 141.19 72.0353 141.33 71.662V70.794H139.524C138.516 70.794 138.012 71.1253 138.012 71.788C138.012 72.1053 138.138 72.3573 138.39 72.544C138.642 72.7307 138.992 72.824 139.44 72.824ZM152.814 66.524V72.866C152.814 75.498 151.47 76.814 148.782 76.814C148.063 76.814 147.382 76.7207 146.738 76.534C146.094 76.3567 145.562 76.0953 145.142 75.75L145.926 74.434C146.253 74.7047 146.663 74.9193 147.158 75.078C147.662 75.246 148.171 75.33 148.684 75.33C149.505 75.33 150.107 75.1433 150.49 74.77C150.873 74.3967 151.064 73.8273 151.064 73.062V72.67C150.765 72.9967 150.401 73.244 149.972 73.412C149.543 73.58 149.071 73.664 148.558 73.664C147.849 73.664 147.205 73.5147 146.626 73.216C146.057 72.908 145.604 72.4787 145.268 71.928C144.941 71.3773 144.778 70.7473 144.778 70.038C144.778 69.3287 144.941 68.7033 145.268 68.162C145.604 67.6113 146.057 67.1867 146.626 66.888C147.205 66.5893 147.849 66.44 148.558 66.44C149.099 66.44 149.589 66.5287 150.028 66.706C150.476 66.8833 150.849 67.154 151.148 67.518V66.524H152.814ZM148.824 72.18C149.487 72.18 150.028 71.984 150.448 71.592C150.877 71.1907 151.092 70.6727 151.092 70.038C151.092 69.4127 150.877 68.904 150.448 68.512C150.028 68.12 149.487 67.924 148.824 67.924C148.152 67.924 147.601 68.12 147.172 68.512C146.752 68.904 146.542 69.4127 146.542 70.038C146.542 70.6727 146.752 71.1907 147.172 71.592C147.601 71.984 148.152 72.18 148.824 72.18ZM162.353 66.524V74H160.687V73.048C160.407 73.384 160.057 73.6453 159.637 73.832C159.217 74.0093 158.764 74.098 158.279 74.098C157.28 74.098 156.491 73.8227 155.913 73.272C155.343 72.712 155.059 71.886 155.059 70.794V66.524H156.809V70.556C156.809 71.228 156.958 71.732 157.257 72.068C157.565 72.3947 157.999 72.558 158.559 72.558C159.184 72.558 159.679 72.3667 160.043 71.984C160.416 71.592 160.603 71.032 160.603 70.304V66.524H162.353ZM167.5 66.44C168.601 66.44 169.441 66.706 170.02 67.238C170.608 67.7607 170.902 68.554 170.902 69.618V74H169.25V73.09C169.035 73.4167 168.727 73.6687 168.326 73.846C167.934 74.014 167.458 74.098 166.898 74.098C166.338 74.098 165.848 74.0047 165.428 73.818C165.008 73.622 164.681 73.356 164.448 73.02C164.224 72.6747 164.112 72.2873 164.112 71.858C164.112 71.186 164.359 70.6493 164.854 70.248C165.358 69.8373 166.147 69.632 167.22 69.632H169.152V69.52C169.152 68.9973 168.993 68.596 168.676 68.316C168.368 68.036 167.906 67.896 167.29 67.896C166.87 67.896 166.455 67.9613 166.044 68.092C165.643 68.2227 165.302 68.4047 165.022 68.638L164.336 67.364C164.728 67.0653 165.199 66.8367 165.75 66.678C166.301 66.5193 166.884 66.44 167.5 66.44ZM167.262 72.824C167.701 72.824 168.088 72.726 168.424 72.53C168.769 72.3247 169.012 72.0353 169.152 71.662V70.794H167.346C166.338 70.794 165.834 71.1253 165.834 71.788C165.834 72.1053 165.96 72.3573 166.212 72.544C166.464 72.7307 166.814 72.824 167.262 72.824ZM138.439 88.228C138.439 88.984 138.159 89.628 137.599 90.16C137.048 90.6827 136.246 91 135.191 91.112V92.68H134.043V91.126C133.352 91.0793 132.699 90.9533 132.083 90.748C131.467 90.5427 130.977 90.2813 130.613 89.964L131.243 88.55C131.588 88.83 132.008 89.068 132.503 89.264C132.998 89.4507 133.511 89.5673 134.043 89.614V86.814C133.38 86.6553 132.825 86.4827 132.377 86.296C131.938 86.1 131.57 85.82 131.271 85.456C130.972 85.0827 130.823 84.5927 130.823 83.986C130.823 83.23 131.098 82.586 131.649 82.054C132.2 81.522 132.998 81.2047 134.043 81.102V79.52H135.191V81.074C135.714 81.102 136.222 81.1907 136.717 81.34C137.221 81.4893 137.66 81.6853 138.033 81.928L137.459 83.342C136.75 82.9313 135.994 82.6793 135.191 82.586V85.414C135.863 85.5727 136.418 85.7453 136.857 85.932C137.305 86.1187 137.678 86.3987 137.977 86.772C138.285 87.136 138.439 87.6213 138.439 88.228ZM132.629 83.902C132.629 84.21 132.75 84.4573 132.993 84.644C133.236 84.8307 133.586 84.9893 134.043 85.12V82.628C133.567 82.7027 133.212 82.852 132.979 83.076C132.746 83.3 132.629 83.5753 132.629 83.902ZM135.191 89.586C135.686 89.5113 136.05 89.3667 136.283 89.152C136.526 88.9373 136.647 88.6713 136.647 88.354C136.647 88.0367 136.521 87.7847 136.269 87.598C136.017 87.402 135.658 87.2387 135.191 87.108V89.586ZM142.711 81.06C144.055 81.06 145.096 81.48 145.833 82.32C146.58 83.16 146.953 84.364 146.953 85.932C146.953 87.0333 146.752 87.976 146.351 88.76C145.95 89.5347 145.385 90.1273 144.657 90.538C143.938 90.9393 143.103 91.14 142.151 91.14C141.647 91.14 141.171 91.0887 140.723 90.986C140.284 90.874 139.902 90.7153 139.575 90.51L140.247 89.138C140.732 89.4553 141.353 89.614 142.109 89.614C143.052 89.614 143.789 89.3247 144.321 88.746C144.853 88.1673 145.119 87.332 145.119 86.24V86.226C144.83 86.562 144.461 86.8187 144.013 86.996C143.565 87.164 143.061 87.248 142.501 87.248C141.857 87.248 141.278 87.1267 140.765 86.884C140.252 86.632 139.85 86.2773 139.561 85.82C139.272 85.3627 139.127 84.8353 139.127 84.238C139.127 83.6033 139.286 83.048 139.603 82.572C139.92 82.0867 140.35 81.7133 140.891 81.452C141.432 81.1907 142.039 81.06 142.711 81.06ZM142.851 85.82C143.439 85.82 143.915 85.6613 144.279 85.344C144.652 85.0267 144.839 84.6253 144.839 84.14C144.839 83.664 144.657 83.272 144.293 82.964C143.938 82.6467 143.444 82.488 142.809 82.488C142.24 82.488 141.778 82.642 141.423 82.95C141.068 83.2487 140.891 83.65 140.891 84.154C140.891 84.6673 141.068 85.0733 141.423 85.372C141.778 85.6707 142.254 85.82 142.851 85.82ZM152.22 85.246C153.125 85.358 153.816 85.666 154.292 86.17C154.768 86.674 155.006 87.304 155.006 88.06C155.006 88.6293 154.861 89.1473 154.572 89.614C154.282 90.0807 153.844 90.454 153.256 90.734C152.677 91.0047 151.968 91.14 151.128 91.14C150.428 91.14 149.751 91.042 149.098 90.846C148.454 90.6407 147.903 90.3607 147.446 90.006L148.23 88.592C148.584 88.8907 149.014 89.1287 149.518 89.306C150.031 89.474 150.558 89.558 151.1 89.558C151.744 89.558 152.248 89.4273 152.612 89.166C152.985 88.8953 153.172 88.5313 153.172 88.074C153.172 87.6167 152.994 87.262 152.64 87.01C152.294 86.7487 151.762 86.618 151.044 86.618H150.148V85.372L152.374 82.726H147.922V81.2H154.6V82.418L152.22 85.246ZM163.451 81.2V82.418L159.643 91H157.697L161.379 82.74H157.529V84.406H155.835V81.2H163.451ZM168.64 85.246C169.545 85.358 170.236 85.666 170.712 86.17C171.188 86.674 171.426 87.304 171.426 88.06C171.426 88.6293 171.281 89.1473 170.992 89.614C170.702 90.0807 170.264 90.454 169.676 90.734C169.097 91.0047 168.388 91.14 167.548 91.14C166.848 91.14 166.171 91.042 165.518 90.846C164.874 90.6407 164.323 90.3607 163.866 90.006L164.65 88.592C165.004 88.8907 165.434 89.1287 165.938 89.306C166.451 89.474 166.978 89.558 167.52 89.558C168.164 89.558 168.668 89.4273 169.032 89.166C169.405 88.8953 169.592 88.5313 169.592 88.074C169.592 87.6167 169.414 87.262 169.06 87.01C168.714 86.7487 168.182 86.618 167.464 86.618H166.568V85.372L168.794 82.726H164.342V81.2H171.02V82.418L168.64 85.246Z" fill="#3C3C3C"/>
<path d="M137.031 114.2H138.851V124H137.031V114.2ZM145.576 116.44C146.518 116.44 147.274 116.715 147.844 117.266C148.413 117.817 148.698 118.633 148.698 119.716V124H146.948V119.94C146.948 119.287 146.794 118.797 146.486 118.47C146.178 118.134 145.739 117.966 145.17 117.966C144.526 117.966 144.017 118.162 143.644 118.554C143.27 118.937 143.084 119.492 143.084 120.22V124H141.334V116.524H143V117.49C143.289 117.145 143.653 116.883 144.092 116.706C144.53 116.529 145.025 116.44 145.576 116.44ZM158.308 113.612V124H156.628V123.034C156.339 123.389 155.979 123.655 155.55 123.832C155.13 124.009 154.663 124.098 154.15 124.098C153.431 124.098 152.783 123.939 152.204 123.622C151.635 123.305 151.187 122.857 150.86 122.278C150.533 121.69 150.37 121.018 150.37 120.262C150.37 119.506 150.533 118.839 150.86 118.26C151.187 117.681 151.635 117.233 152.204 116.916C152.783 116.599 153.431 116.44 154.15 116.44C154.645 116.44 155.097 116.524 155.508 116.692C155.919 116.86 156.269 117.112 156.558 117.448V113.612H158.308ZM154.36 122.6C154.78 122.6 155.158 122.507 155.494 122.32C155.83 122.124 156.096 121.849 156.292 121.494C156.488 121.139 156.586 120.729 156.586 120.262C156.586 119.795 156.488 119.385 156.292 119.03C156.096 118.675 155.83 118.405 155.494 118.218C155.158 118.022 154.78 117.924 154.36 117.924C153.94 117.924 153.562 118.022 153.226 118.218C152.89 118.405 152.624 118.675 152.428 119.03C152.232 119.385 152.134 119.795 152.134 120.262C152.134 120.729 152.232 121.139 152.428 121.494C152.624 121.849 152.89 122.124 153.226 122.32C153.562 122.507 153.94 122.6 154.36 122.6ZM160.597 116.524H162.347V124H160.597V116.524ZM161.479 115.292C161.162 115.292 160.896 115.194 160.681 114.998C160.467 114.793 160.359 114.541 160.359 114.242C160.359 113.943 160.467 113.696 160.681 113.5C160.896 113.295 161.162 113.192 161.479 113.192C161.797 113.192 162.063 113.29 162.277 113.486C162.492 113.673 162.599 113.911 162.599 114.2C162.599 114.508 162.492 114.769 162.277 114.984C162.072 115.189 161.806 115.292 161.479 115.292ZM167.5 116.44C168.601 116.44 169.441 116.706 170.02 117.238C170.608 117.761 170.902 118.554 170.902 119.618V124H169.25V123.09C169.035 123.417 168.727 123.669 168.326 123.846C167.934 124.014 167.458 124.098 166.898 124.098C166.338 124.098 165.848 124.005 165.428 123.818C165.008 123.622 164.681 123.356 164.448 123.02C164.224 122.675 164.112 122.287 164.112 121.858C164.112 121.186 164.359 120.649 164.854 120.248C165.358 119.837 166.147 119.632 167.22 119.632H169.152V119.52C169.152 118.997 168.993 118.596 168.676 118.316C168.368 118.036 167.906 117.896 167.29 117.896C166.87 117.896 166.455 117.961 166.044 118.092C165.643 118.223 165.302 118.405 165.022 118.638L164.336 117.364C164.728 117.065 165.199 116.837 165.75 116.678C166.301 116.519 166.884 116.44 167.5 116.44ZM167.262 122.824C167.701 122.824 168.088 122.726 168.424 122.53C168.769 122.325 169.012 122.035 169.152 121.662V120.794H167.346C166.338 120.794 165.834 121.125 165.834 121.788C165.834 122.105 165.96 122.357 166.212 122.544C166.464 122.731 166.814 122.824 167.262 122.824ZM135.048 138.228C135.048 138.984 134.768 139.628 134.208 140.16C133.658 140.683 132.855 141 131.8 141.112V142.68H130.652V141.126C129.962 141.079 129.308 140.953 128.692 140.748C128.076 140.543 127.586 140.281 127.222 139.964L127.852 138.55C128.198 138.83 128.618 139.068 129.112 139.264C129.607 139.451 130.12 139.567 130.652 139.614V136.814C129.99 136.655 129.434 136.483 128.986 136.296C128.548 136.1 128.179 135.82 127.88 135.456C127.582 135.083 127.432 134.593 127.432 133.986C127.432 133.23 127.708 132.586 128.258 132.054C128.809 131.522 129.607 131.205 130.652 131.102V129.52H131.8V131.074C132.323 131.102 132.832 131.191 133.326 131.34C133.83 131.489 134.269 131.685 134.642 131.928L134.068 133.342C133.359 132.931 132.603 132.679 131.8 132.586V135.414C132.472 135.573 133.028 135.745 133.466 135.932C133.914 136.119 134.288 136.399 134.586 136.772C134.894 137.136 135.048 137.621 135.048 138.228ZM129.238 133.902C129.238 134.21 129.36 134.457 129.602 134.644C129.845 134.831 130.195 134.989 130.652 135.12V132.628C130.176 132.703 129.822 132.852 129.588 133.076C129.355 133.3 129.238 133.575 129.238 133.902ZM131.8 139.586C132.295 139.511 132.659 139.367 132.892 139.152C133.135 138.937 133.256 138.671 133.256 138.354C133.256 138.037 133.13 137.785 132.878 137.598C132.626 137.402 132.267 137.239 131.8 137.108V139.586ZM142.509 135.848C143.022 136.081 143.414 136.399 143.685 136.8C143.965 137.192 144.105 137.654 144.105 138.186C144.105 138.783 143.937 139.306 143.601 139.754C143.274 140.202 142.808 140.547 142.201 140.79C141.594 141.023 140.89 141.14 140.087 141.14C139.284 141.14 138.58 141.023 137.973 140.79C137.376 140.547 136.914 140.202 136.587 139.754C136.26 139.306 136.097 138.783 136.097 138.186C136.097 137.654 136.232 137.192 136.503 136.8C136.774 136.399 137.161 136.081 137.665 135.848C137.273 135.633 136.97 135.353 136.755 135.008C136.55 134.653 136.447 134.247 136.447 133.79C136.447 133.239 136.596 132.759 136.895 132.348C137.203 131.937 137.632 131.62 138.183 131.396C138.734 131.172 139.368 131.06 140.087 131.06C140.815 131.06 141.454 131.172 142.005 131.396C142.556 131.62 142.985 131.937 143.293 132.348C143.601 132.759 143.755 133.239 143.755 133.79C143.755 134.247 143.648 134.649 143.433 134.994C143.218 135.339 142.91 135.624 142.509 135.848ZM140.087 132.488C139.518 132.488 139.065 132.609 138.729 132.852C138.402 133.095 138.239 133.435 138.239 133.874C138.239 134.294 138.402 134.63 138.729 134.882C139.065 135.125 139.518 135.246 140.087 135.246C140.666 135.246 141.123 135.125 141.459 134.882C141.795 134.63 141.963 134.294 141.963 133.874C141.963 133.435 141.79 133.095 141.445 132.852C141.109 132.609 140.656 132.488 140.087 132.488ZM140.087 139.712C140.759 139.712 141.291 139.572 141.683 139.292C142.075 139.012 142.271 138.625 142.271 138.13C142.271 137.645 142.075 137.262 141.683 136.982C141.291 136.702 140.759 136.562 140.087 136.562C139.415 136.562 138.888 136.702 138.505 136.982C138.122 137.262 137.931 137.645 137.931 138.13C137.931 138.625 138.122 139.012 138.505 139.292C138.888 139.572 139.415 139.712 140.087 139.712ZM151.642 135.848C152.155 136.081 152.547 136.399 152.818 136.8C153.098 137.192 153.238 137.654 153.238 138.186C153.238 138.783 153.07 139.306 152.734 139.754C152.407 140.202 151.941 140.547 151.334 140.79C150.727 141.023 150.023 141.14 149.22 141.14C148.417 141.14 147.713 141.023 147.106 140.79C146.509 140.547 146.047 140.202 145.72 139.754C145.393 139.306 145.23 138.783 145.23 138.186C145.23 137.654 145.365 137.192 145.636 136.8C145.907 136.399 146.294 136.081 146.798 135.848C146.406 135.633 146.103 135.353 145.888 135.008C145.683 134.653 145.58 134.247 145.58 133.79C145.58 133.239 145.729 132.759 146.028 132.348C146.336 131.937 146.765 131.62 147.316 131.396C147.867 131.172 148.501 131.06 149.22 131.06C149.948 131.06 150.587 131.172 151.138 131.396C151.689 131.62 152.118 131.937 152.426 132.348C152.734 132.759 152.888 133.239 152.888 133.79C152.888 134.247 152.781 134.649 152.566 134.994C152.351 135.339 152.043 135.624 151.642 135.848ZM149.22 132.488C148.651 132.488 148.198 132.609 147.862 132.852C147.535 133.095 147.372 133.435 147.372 133.874C147.372 134.294 147.535 134.63 147.862 134.882C148.198 135.125 148.651 135.246 149.22 135.246C149.799 135.246 150.256 135.125 150.592 134.882C150.928 134.63 151.096 134.294 151.096 133.874C151.096 133.435 150.923 133.095 150.578 132.852C150.242 132.609 149.789 132.488 149.22 132.488ZM149.22 139.712C149.892 139.712 150.424 139.572 150.816 139.292C151.208 139.012 151.404 138.625 151.404 138.13C151.404 137.645 151.208 137.262 150.816 136.982C150.424 136.702 149.892 136.562 149.22 136.562C148.548 136.562 148.021 136.702 147.638 136.982C147.255 137.262 147.064 137.645 147.064 138.13C147.064 138.625 147.255 139.012 147.638 139.292C148.021 139.572 148.548 139.712 149.22 139.712ZM158.507 141.14C157.723 141.14 157.023 140.944 156.407 140.552C155.791 140.151 155.305 139.572 154.951 138.816C154.596 138.051 154.419 137.145 154.419 136.1C154.419 135.055 154.596 134.154 154.951 133.398C155.305 132.633 155.791 132.054 156.407 131.662C157.023 131.261 157.723 131.06 158.507 131.06C159.291 131.06 159.991 131.261 160.607 131.662C161.232 132.054 161.722 132.633 162.077 133.398C162.431 134.154 162.609 135.055 162.609 136.1C162.609 137.145 162.431 138.051 162.077 138.816C161.722 139.572 161.232 140.151 160.607 140.552C159.991 140.944 159.291 141.14 158.507 141.14ZM158.507 139.558C159.207 139.558 159.757 139.269 160.159 138.69C160.569 138.111 160.775 137.248 160.775 136.1C160.775 134.952 160.569 134.089 160.159 133.51C159.757 132.931 159.207 132.642 158.507 132.642C157.816 132.642 157.265 132.931 156.855 133.51C156.453 134.089 156.253 134.952 156.253 136.1C156.253 137.248 156.453 138.111 156.855 138.69C157.265 139.269 157.816 139.558 158.507 139.558ZM168.291 134.952C168.935 134.952 169.513 135.078 170.027 135.33C170.54 135.573 170.941 135.923 171.231 136.38C171.52 136.837 171.665 137.365 171.665 137.962C171.665 138.597 171.506 139.157 171.189 139.642C170.871 140.118 170.442 140.487 169.901 140.748C169.359 141.009 168.753 141.14 168.081 141.14C166.737 141.14 165.691 140.72 164.945 139.88C164.207 139.04 163.839 137.836 163.839 136.268C163.839 135.167 164.039 134.229 164.441 133.454C164.842 132.67 165.402 132.077 166.121 131.676C166.849 131.265 167.689 131.06 168.641 131.06C169.145 131.06 169.616 131.116 170.055 131.228C170.503 131.331 170.89 131.485 171.217 131.69L170.545 133.062C170.059 132.745 169.439 132.586 168.683 132.586C167.74 132.586 167.003 132.875 166.471 133.454C165.939 134.033 165.673 134.868 165.673 135.96V135.974C165.962 135.638 166.331 135.386 166.779 135.218C167.227 135.041 167.731 134.952 168.291 134.952ZM167.983 139.712C168.552 139.712 169.014 139.563 169.369 139.264C169.723 138.956 169.901 138.55 169.901 138.046C169.901 137.533 169.723 137.127 169.369 136.828C169.014 136.529 168.538 136.38 167.941 136.38C167.353 136.38 166.872 136.539 166.499 136.856C166.135 137.173 165.953 137.575 165.953 138.06C165.953 138.536 166.13 138.933 166.485 139.25C166.849 139.558 167.348 139.712 167.983 139.712Z" fill="#3C3C3C"/>
<path d="M143.902 164.2L140.654 174H138.722L136.3 166.748L133.836 174H131.89L128.642 164.2H130.532L132.968 171.648L135.502 164.2H137.182L139.66 171.69L142.166 164.2H143.902ZM148.016 174.098C147.26 174.098 146.578 173.935 145.972 173.608C145.365 173.281 144.889 172.829 144.544 172.25C144.208 171.662 144.04 170.999 144.04 170.262C144.04 169.525 144.208 168.867 144.544 168.288C144.889 167.709 145.365 167.257 145.972 166.93C146.578 166.603 147.26 166.44 148.016 166.44C148.781 166.44 149.467 166.603 150.074 166.93C150.68 167.257 151.152 167.709 151.488 168.288C151.833 168.867 152.006 169.525 152.006 170.262C152.006 170.999 151.833 171.662 151.488 172.25C151.152 172.829 150.68 173.281 150.074 173.608C149.467 173.935 148.781 174.098 148.016 174.098ZM148.016 172.6C148.66 172.6 149.192 172.385 149.612 171.956C150.032 171.527 150.242 170.962 150.242 170.262C150.242 169.562 150.032 168.997 149.612 168.568C149.192 168.139 148.66 167.924 148.016 167.924C147.372 167.924 146.84 168.139 146.42 168.568C146.009 168.997 145.804 169.562 145.804 170.262C145.804 170.962 146.009 171.527 146.42 171.956C146.84 172.385 147.372 172.6 148.016 172.6ZM155.345 167.616C155.849 166.832 156.736 166.44 158.005 166.44V168.106C157.856 168.078 157.721 168.064 157.599 168.064C156.918 168.064 156.386 168.265 156.003 168.666C155.621 169.058 155.429 169.627 155.429 170.374V174H153.679V166.524H155.345V167.616ZM159.49 163.612H161.24V174H159.49V163.612ZM170.859 163.612V174H169.179V173.034C168.889 173.389 168.53 173.655 168.101 173.832C167.681 174.009 167.214 174.098 166.701 174.098C165.982 174.098 165.333 173.939 164.755 173.622C164.185 173.305 163.737 172.857 163.411 172.278C163.084 171.69 162.921 171.018 162.921 170.262C162.921 169.506 163.084 168.839 163.411 168.26C163.737 167.681 164.185 167.233 164.755 166.916C165.333 166.599 165.982 166.44 166.701 166.44C167.195 166.44 167.648 166.524 168.059 166.692C168.469 166.86 168.819 167.112 169.109 167.448V163.612H170.859ZM166.911 172.6C167.331 172.6 167.709 172.507 168.045 172.32C168.381 172.124 168.647 171.849 168.843 171.494C169.039 171.139 169.137 170.729 169.137 170.262C169.137 169.795 169.039 169.385 168.843 169.03C168.647 168.675 168.381 168.405 168.045 168.218C167.709 168.022 167.331 167.924 166.911 167.924C166.491 167.924 166.113 168.022 165.777 168.218C165.441 168.405 165.175 168.675 164.979 169.03C164.783 169.385 164.685 169.795 164.685 170.262C164.685 170.729 164.783 171.139 164.979 171.494C165.175 171.849 165.441 172.124 165.777 172.32C166.113 172.507 166.491 172.6 166.911 172.6ZM128.636 188.228C128.636 188.984 128.356 189.628 127.796 190.16C127.246 190.683 126.443 191 125.388 191.112V192.68H124.24V191.126C123.55 191.079 122.896 190.953 122.28 190.748C121.664 190.543 121.174 190.281 120.81 189.964L121.44 188.55C121.786 188.83 122.206 189.068 122.7 189.264C123.195 189.451 123.708 189.567 124.24 189.614V186.814C123.578 186.655 123.022 186.483 122.574 186.296C122.136 186.1 121.767 185.82 121.468 185.456C121.17 185.083 121.02 184.593 121.02 183.986C121.02 183.23 121.296 182.586 121.846 182.054C122.397 181.522 123.195 181.205 124.24 181.102V179.52H125.388V181.074C125.911 181.102 126.42 181.191 126.914 181.34C127.418 181.489 127.857 181.685 128.23 181.928L127.656 183.342C126.947 182.931 126.191 182.679 125.388 182.586V185.414C126.06 185.573 126.616 185.745 127.054 185.932C127.502 186.119 127.876 186.399 128.174 186.772C128.482 187.136 128.636 187.621 128.636 188.228ZM122.826 183.902C122.826 184.21 122.948 184.457 123.19 184.644C123.433 184.831 123.783 184.989 124.24 185.12V182.628C123.764 182.703 123.41 182.852 123.176 183.076C122.943 183.3 122.826 183.575 122.826 183.902ZM125.388 189.586C125.883 189.511 126.247 189.367 126.48 189.152C126.723 188.937 126.844 188.671 126.844 188.354C126.844 188.037 126.718 187.785 126.466 187.598C126.214 187.402 125.855 187.239 125.388 187.108V189.586ZM132.992 181.2V191H131.172V182.726H129.1V181.2H132.992ZM139.024 191.14C138.24 191.14 137.54 190.944 136.924 190.552C136.308 190.151 135.823 189.572 135.468 188.816C135.114 188.051 134.936 187.145 134.936 186.1C134.936 185.055 135.114 184.154 135.468 183.398C135.823 182.633 136.308 182.054 136.924 181.662C137.54 181.261 138.24 181.06 139.024 181.06C139.808 181.06 140.508 181.261 141.124 181.662C141.75 182.054 142.24 182.633 142.594 183.398C142.949 184.154 143.126 185.055 143.126 186.1C143.126 187.145 142.949 188.051 142.594 188.816C142.24 189.572 141.75 190.151 141.124 190.552C140.508 190.944 139.808 191.14 139.024 191.14ZM139.024 189.558C139.724 189.558 140.275 189.269 140.676 188.69C141.087 188.111 141.292 187.248 141.292 186.1C141.292 184.952 141.087 184.089 140.676 183.51C140.275 182.931 139.724 182.642 139.024 182.642C138.334 182.642 137.783 182.931 137.372 183.51C136.971 184.089 136.77 184.952 136.77 186.1C136.77 187.248 136.971 188.111 137.372 188.69C137.783 189.269 138.334 189.558 139.024 189.558ZM148.444 191.14C147.66 191.14 146.96 190.944 146.344 190.552C145.728 190.151 145.243 189.572 144.888 188.816C144.534 188.051 144.356 187.145 144.356 186.1C144.356 185.055 144.534 184.154 144.888 183.398C145.243 182.633 145.728 182.054 146.344 181.662C146.96 181.261 147.66 181.06 148.444 181.06C149.228 181.06 149.928 181.261 150.544 181.662C151.17 182.054 151.66 182.633 152.014 183.398C152.369 184.154 152.546 185.055 152.546 186.1C152.546 187.145 152.369 188.051 152.014 188.816C151.66 189.572 151.17 190.151 150.544 190.552C149.928 190.944 149.228 191.14 148.444 191.14ZM148.444 189.558C149.144 189.558 149.695 189.269 150.096 188.69C150.507 188.111 150.712 187.248 150.712 186.1C150.712 184.952 150.507 184.089 150.096 183.51C149.695 182.931 149.144 182.642 148.444 182.642C147.754 182.642 147.203 182.931 146.792 183.51C146.391 184.089 146.19 184.952 146.19 186.1C146.19 187.248 146.391 188.111 146.792 188.69C147.203 189.269 147.754 189.558 148.444 189.558ZM157.864 191.14C157.08 191.14 156.38 190.944 155.764 190.552C155.148 190.151 154.663 189.572 154.308 188.816C153.953 188.051 153.776 187.145 153.776 186.1C153.776 185.055 153.953 184.154 154.308 183.398C154.663 182.633 155.148 182.054 155.764 181.662C156.38 181.261 157.08 181.06 157.864 181.06C158.648 181.06 159.348 181.261 159.964 181.662C160.589 182.054 161.079 182.633 161.434 183.398C161.789 184.154 161.966 185.055 161.966 186.1C161.966 187.145 161.789 188.051 161.434 188.816C161.079 189.572 160.589 190.151 159.964 190.552C159.348 190.944 158.648 191.14 157.864 191.14ZM157.864 189.558C158.564 189.558 159.115 189.269 159.516 188.69C159.927 188.111 160.132 187.248 160.132 186.1C160.132 184.952 159.927 184.089 159.516 183.51C159.115 182.931 158.564 182.642 157.864 182.642C157.173 182.642 156.623 182.931 156.212 183.51C155.811 184.089 155.61 184.952 155.61 186.1C155.61 187.248 155.811 188.111 156.212 188.69C156.623 189.269 157.173 189.558 157.864 189.558ZM167.284 191.14C166.5 191.14 165.8 190.944 165.184 190.552C164.568 190.151 164.083 189.572 163.728 188.816C163.373 188.051 163.196 187.145 163.196 186.1C163.196 185.055 163.373 184.154 163.728 183.398C164.083 182.633 164.568 182.054 165.184 181.662C165.8 181.261 166.5 181.06 167.284 181.06C168.068 181.06 168.768 181.261 169.384 181.662C170.009 182.054 170.499 182.633 170.854 183.398C171.209 184.154 171.386 185.055 171.386 186.1C171.386 187.145 171.209 188.051 170.854 188.816C170.499 189.572 170.009 190.151 169.384 190.552C168.768 190.944 168.068 191.14 167.284 191.14ZM167.284 189.558C167.984 189.558 168.535 189.269 168.936 188.69C169.347 188.111 169.552 187.248 169.552 186.1C169.552 184.952 169.347 184.089 168.936 183.51C168.535 182.931 167.984 182.642 167.284 182.642C166.593 182.642 166.043 182.931 165.632 183.51C165.231 184.089 165.03 184.952 165.03 186.1C165.03 187.248 165.231 188.111 165.632 188.69C166.043 189.269 166.593 189.558 167.284 189.558Z" fill="#3C3C3C"/>
<path d="M185 7H192C195.314 7 198 9.68629 198 13V41C198 44.3137 195.314 47 192 47H185V7Z" fill="url(#paint0_linear_1_13287)"/>
<path d="M185 57H330C333.314 57 336 59.6863 336 63V91C336 94.3137 333.314 97 330 97H185V57Z" fill="url(#paint1_linear_1_13287)"/>
<path d="M185 107H317C320.314 107 323 109.686 323 113V141C323 144.314 320.314 147 317 147H185V107Z" fill="url(#paint2_linear_1_13287)"/>
<path d="M185 157H343C346.314 157 349 159.686 349 163V191C349 194.314 346.314 197 343 197H185V157Z" fill="url(#paint3_linear_1_13287)"/>
<defs>
<linearGradient id="paint0_linear_1_13287" x1="185" y1="7" x2="198" y2="7" gradientUnits="userSpaceOnUse">
<stop stop-color="#04E0FF"/>
<stop offset="1" stop-color="#0D7684"/>
</linearGradient>
<linearGradient id="paint1_linear_1_13287" x1="185" y1="57" x2="336" y2="57" gradientUnits="userSpaceOnUse">
<stop stop-color="#04E0FF"/>
<stop offset="1" stop-color="#0D7684"/>
</linearGradient>
<linearGradient id="paint2_linear_1_13287" x1="185" y1="107" x2="323" y2="107" gradientUnits="userSpaceOnUse">
<stop stop-color="#04E0FF"/>
<stop offset="1" stop-color="#0D7684"/>
</linearGradient>
<linearGradient id="paint3_linear_1_13287" x1="185" y1="157" x2="349" y2="157" gradientUnits="userSpaceOnUse">
<stop stop-color="#04E0FF"/>
<stop offset="1" stop-color="#0D7684"/>
</linearGradient>
</defs>
</svg>
