<svg width="23" height="20" viewBox="0 0 23 20" fill="none" xmlns="http://www.w3.org/2000/svg">
<path d="M7.9128 9.75C7.5479 9.75 7.19795 9.8817 6.93993 10.1161C6.68191 10.3505 6.53696 10.6685 6.53696 11C6.53696 11.3315 6.68191 11.6495 6.93993 11.8839C7.19795 12.1183 7.5479 12.25 7.9128 12.25C8.09347 12.25 8.27238 12.2177 8.43931 12.1548C8.60623 12.092 8.7579 12 8.88566 11.8839C9.01342 11.7678 9.11476 11.63 9.18391 11.4784C9.25305 11.3267 9.28864 11.1642 9.28864 11C9.28864 10.8358 9.25305 10.6733 9.18391 10.5216C9.11476 10.37 9.01342 10.2322 8.88566 10.1161C8.7579 10 8.60623 9.90797 8.43931 9.84515C8.27238 9.78233 8.09347 9.75 7.9128 9.75ZM14.5168 9.75C14.1519 9.75 13.802 9.8817 13.544 10.1161C13.2859 10.3505 13.141 10.6685 13.141 11C13.141 11.3315 13.2859 11.6495 13.544 11.8839C13.802 12.1183 14.1519 12.25 14.5168 12.25C14.8817 12.25 15.2317 12.1183 15.4897 11.8839C15.7477 11.6495 15.8927 11.3315 15.8927 11C15.8927 10.6685 15.7477 10.3505 15.4897 10.1161C15.2317 9.8817 14.8817 9.75 14.5168 9.75ZM11.2148 0C9.76939 0 8.33812 0.258658 7.00272 0.761205C5.66733 1.26375 4.45396 2.00035 3.43189 2.92893C1.36773 4.8043 0.208099 7.34784 0.208099 10C0.208099 12.6522 1.36773 15.1957 3.43189 17.0711C4.45396 17.9997 5.66733 18.7362 7.00272 19.2388C8.33812 19.7413 9.76939 20 11.2148 20C14.134 20 16.9336 18.9464 18.9977 17.0711C21.0619 15.1957 22.2215 12.6522 22.2215 10C22.2215 8.68678 21.9368 7.38642 21.3837 6.17317C20.8305 4.95991 20.0198 3.85752 18.9977 2.92893C17.9757 2.00035 16.7623 1.26375 15.4269 0.761205C14.0915 0.258658 12.6602 0 11.2148 0ZM11.2148 18C6.36085 18 2.40944 14.41 2.40944 10C2.40944 9.71 2.40944 9.42 2.46448 9.14C5.06206 8.09 7.12031 6.16 8.19897 3.77C9.45732 5.39238 11.2198 6.63679 13.261 7.34401C15.3021 8.05124 17.5291 8.18911 19.657 7.74C19.8881 8.45 20.0202 9.21 20.0202 10C20.0202 14.41 16.0688 18 11.2148 18Z" fill="#78A6BA"/>
</svg>
