<svg width="24" height="24" viewBox="0 0 24 24" fill="none" xmlns="http://www.w3.org/2000/svg">
<g clip-path="url(#clip0_6_137)">
<path d="M9.23357 12.0131L4.22576 10.5821C4.04334 10.5316 3.85053 10.6358 3.79792 10.8203C3.74565 11.0038 3.85192 11.1955 4.03607 11.2481L9.04388 12.6791C9.07538 12.6878 9.10723 12.6923 9.13873 12.6923C9.2893 12.6923 9.42776 12.5933 9.47138 12.441C9.52399 12.2575 9.41738 12.0658 9.23357 12.0131Z" fill="#231F20" stroke="#0C6D7A" stroke-width="0.3"/>
<path d="M9.23357 14.4359L4.22576 13.0052C4.04334 12.9547 3.85053 13.0589 3.79792 13.2434C3.74565 13.4272 3.85192 13.6186 4.03607 13.6712L9.04388 15.1019C9.07538 15.1105 9.10723 15.115 9.13873 15.115C9.2893 15.115 9.42776 15.016 9.47138 14.8637C9.52399 14.6799 9.41738 14.4885 9.23357 14.4359Z" fill="#231F20" stroke="#0C6D7A" stroke-width="0.3"/>
<path d="M9.23363 9.59043L4.22582 8.15943C4.0434 8.1089 3.85059 8.21309 3.79798 8.39759C3.74571 8.58105 3.85198 8.77282 4.03613 8.82543L9.04394 10.2564C9.07544 10.2651 9.10729 10.2696 9.13879 10.2696C9.28936 10.2696 9.42783 10.1706 9.47144 10.0183C9.52406 9.83482 9.41744 9.64305 9.23363 9.59043Z" fill="#231F20" stroke="#0C6D7A" stroke-width="0.3"/>
<path d="M9.23363 7.16661L4.22582 5.73561C4.0434 5.68507 3.85059 5.78926 3.79798 5.97376C3.74571 6.15722 3.85198 6.34899 4.03613 6.40161L9.04394 7.83261C9.07544 7.84126 9.10729 7.84576 9.13879 7.84576C9.28936 7.84576 9.42783 7.74676 9.47144 7.59445C9.52406 7.41099 9.41744 7.21922 9.23363 7.16661Z" fill="#231F20" stroke="#0C6D7A" stroke-width="0.3"/>
<path d="M14.7564 12.6785C14.7883 12.6785 14.8201 12.674 14.8516 12.6653L19.8594 11.2343C20.0433 11.1817 20.1499 10.99 20.0976 10.8065C20.045 10.6223 19.8525 10.5185 19.6698 10.5683L14.6616 11.9993C14.4778 12.052 14.3712 12.2437 14.4234 12.4272C14.4674 12.5795 14.6059 12.6785 14.7564 12.6785Z" fill="#231F20" stroke="#0C6D7A" stroke-width="0.3"/>
<path d="M19.7743 13.0049L14.7665 14.4356C14.5826 14.4882 14.476 14.6796 14.5283 14.8634C14.5723 15.0158 14.7107 15.1148 14.8613 15.1148C14.8931 15.1148 14.925 15.1103 14.9565 15.1016L19.9643 13.6709C20.1481 13.6183 20.2547 13.4269 20.2025 13.2431C20.1495 13.0589 19.957 12.9551 19.7743 13.0049Z" fill="#231F20" stroke="#0C6D7A" stroke-width="0.3"/>
<path d="M19.7743 8.15941L14.7665 9.59041C14.5826 9.64303 14.476 9.83479 14.5283 10.0183C14.5723 10.1706 14.7107 10.2696 14.8613 10.2696C14.8931 10.2696 14.925 10.2651 14.9565 10.2564L19.9643 8.82541C20.1481 8.77279 20.2547 8.58102 20.2025 8.39756C20.1495 8.21341 19.957 8.10887 19.7743 8.15941Z" fill="#231F20" stroke="#0C6D7A" stroke-width="0.3"/>
<path d="M19.7743 5.73534L14.7665 7.16634C14.5826 7.21895 14.476 7.41072 14.5283 7.59418C14.5723 7.74649 14.7107 7.84549 14.8613 7.84549C14.8931 7.84549 14.925 7.84099 14.9565 7.83234L19.9643 6.40134C20.1481 6.34872 20.2547 6.15695 20.2025 5.97349C20.1495 5.78934 19.957 5.68549 19.7743 5.73534Z" fill="#231F20" stroke="#0C6D7A" stroke-width="0.3"/>
<path d="M22.8066 1.06604C22.6841 0.97223 22.5352 0.923077 22.3839 0.923077C22.3244 0.923077 22.2645 0.930692 22.206 0.945923L12 3.66773L1.79402 0.945923C1.73517 0.930346 1.67529 0.923077 1.61575 0.923077C1.46448 0.923077 1.31598 0.97223 1.19344 1.06604C1.02313 1.19723 0.923096 1.40008 0.923096 1.61504V18.9224C0.923096 19.236 1.1339 19.5105 1.43679 19.5915L10.3928 21.9796C10.6462 22.6214 11.2686 23.0766 12 23.0766C12.7314 23.0766 13.3538 22.6214 13.6072 21.9796L22.5632 19.5915C22.8661 19.5105 23.0769 19.236 23.0769 18.9224V1.61504C23.0769 1.40008 22.9769 1.19723 22.8066 1.06604ZM12 19.615C12.0599 19.615 12.1201 19.6074 12.1786 19.5918L22.3846 16.87V17.5464L12 20.2952L1.6154 17.5464V16.87L11.8214 19.5915C11.8799 19.6074 11.9401 19.615 12 19.615ZM1.61471 1.61538C1.61471 1.61538 1.61506 1.61538 1.61575 1.61538L11.6539 4.29185V18.8303L1.6154 16.1535L1.61471 1.61538ZM13.0312 21.4168C13.0039 21.8124 12.7595 22.1475 12.4123 22.2981L12.1783 22.3607C12.1198 22.3763 12.0596 22.3839 11.9997 22.3839C11.9398 22.3839 11.8796 22.3763 11.8211 22.3607L11.5871 22.2981C11.2399 22.1475 10.9955 21.8124 10.9681 21.4168L1.6154 18.9224V18.2626L11.9114 20.9882C11.9405 20.9958 11.9702 20.9997 12 20.9997C12.0298 20.9997 12.0596 20.9958 12.0886 20.9882L22.3846 18.2626V18.9224L13.0312 21.4168ZM12.3462 18.8303V4.29185L22.3846 1.61504V16.1535L12.3462 18.8303Z" fill="#0C6D7A" stroke="#0C6D7A" stroke-width="0.3"/>
</g>
<defs>
<clipPath id="clip0_6_137">
<rect width="24" height="24" fill="white"/>
</clipPath>
</defs>
</svg>
