<svg width="26" height="26" viewBox="0 0 26 26" fill="none" xmlns="http://www.w3.org/2000/svg">
<path d="M0.999939 1.45186V8.63621C1.00043 8.74166 1.04263 8.84262 1.11732 8.91709C1.19201 8.99157 1.29314 9.03351 1.39865 9.03375H4.5994C4.65195 9.03412 4.70406 9.02412 4.75274 9.00433C4.80143 8.98453 4.84573 8.95533 4.88311 8.9184C4.92049 8.88147 4.95021 8.83754 4.97058 8.78912C4.99094 8.74069 5.00154 8.68874 5.00179 8.63621V7.7987C5.84286 8.32289 6.80921 8.61211 7.80014 8.63621H11.3996C11.6126 8.64133 11.8244 8.60383 12.0226 8.52591C12.2209 8.448 12.4015 8.33124 12.554 8.18252C12.7064 8.03379 12.8276 7.8561 12.9103 7.6599C12.993 7.46369 13.0356 7.25295 13.0356 7.04005C13.0356 6.82715 12.993 6.61639 12.9103 6.42019C12.8276 6.22399 12.7064 6.0463 12.554 5.89757C12.4015 5.74885 12.2209 5.6321 12.0226 5.55419C11.8244 5.47627 11.6126 5.43876 11.3996 5.44387H8.99994V5.04449C8.99892 4.99169 9.00864 4.93924 9.0285 4.8903C9.04837 4.84137 9.07796 4.79696 9.11549 4.75979C9.15303 4.72262 9.19774 4.69346 9.24689 4.67407C9.29603 4.65467 9.3486 4.64544 9.40142 4.64695H16.6003C16.6532 4.64544 16.7058 4.65467 16.755 4.67405C16.8042 4.69344 16.8489 4.7226 16.8866 4.75975C16.9242 4.79691 16.9538 4.84129 16.9738 4.89023C16.9938 4.93917 17.0036 4.99164 17.0027 5.04449V15.4175H16.2016V7.04143C16.2017 6.98875 16.1914 6.93656 16.1713 6.88788C16.1511 6.8392 16.1216 6.79497 16.0843 6.75776C16.0469 6.72055 16.0026 6.6911 15.9538 6.67108C15.9051 6.65106 15.8529 6.64087 15.8001 6.64112C15.6949 6.6421 15.5906 6.62215 15.4932 6.58243C15.3958 6.5427 15.3073 6.48399 15.2328 6.40973C15.1583 6.33548 15.0994 6.24715 15.0594 6.1499C15.0194 6.05264 14.9992 5.94841 15 5.84327C14.9995 5.73783 14.9573 5.63685 14.8826 5.56238C14.8079 5.4879 14.7067 5.44597 14.6012 5.44573H13.7752C13.6722 5.4526 13.5759 5.49902 13.5064 5.57529C13.4369 5.65155 13.3996 5.75172 13.4023 5.85484C13.4051 5.95796 13.4476 6.05603 13.5211 6.12849C13.5946 6.20095 13.6932 6.24219 13.7964 6.24357H14.2459C14.3187 6.51915 14.4637 6.77034 14.666 6.97123C14.8683 7.17211 15.1206 7.31543 15.3968 7.38639V15.4175H10.5976V9.82607C10.5976 9.72002 10.5554 9.61831 10.4804 9.54333C10.4053 9.46834 10.3036 9.42622 10.1975 9.42622C10.0913 9.42622 9.98957 9.46834 9.91454 9.54333C9.83951 9.61831 9.79736 9.72002 9.79736 9.82607V15.4175H8.99718V9.82607C8.99718 9.72002 8.95503 9.61831 8.88 9.54333C8.80497 9.46834 8.7032 9.42622 8.59709 9.42622C8.49098 9.42622 8.38921 9.46834 8.31418 9.54333C8.23915 9.61831 8.19699 9.72002 8.19699 9.82607V15.4175H6.99718C6.89463 15.4224 6.79792 15.4666 6.72709 15.5409C6.65626 15.6151 6.61674 15.7138 6.61674 15.8164C6.61674 15.919 6.65626 16.0177 6.72709 16.0919C6.79792 16.1662 6.89463 16.2104 6.99718 16.2153H18.9954C19.0979 16.2104 19.1946 16.1662 19.2654 16.0919C19.3363 16.0177 19.3758 15.919 19.3758 15.8164C19.3758 15.7138 19.3363 15.6151 19.2654 15.5409C19.1946 15.4666 19.0979 15.4224 18.9954 15.4175H17.7955V5.04449C17.7938 4.72699 17.6669 4.42299 17.4422 4.19848C17.2176 3.97398 16.9134 3.84711 16.5957 3.84542H16.3234L13.6285 1.92504C12.9615 1.49043 12.2107 1.20024 11.4247 1.07315C10.6386 0.946063 9.83468 0.98489 9.06456 1.18714L5.00363 2.1464V1.44725C5.00339 1.39472 4.99279 1.34275 4.97242 1.29433C4.95206 1.2459 4.92233 1.20197 4.88495 1.16504C4.84758 1.12811 4.80327 1.09893 4.75459 1.07913C4.7059 1.05934 4.6538 1.04934 4.60124 1.0497H1.38204C1.28008 1.05533 1.1841 1.09958 1.11363 1.17343C1.04316 1.24728 1.0035 1.3452 1.00271 1.44725L0.999939 1.45186ZM11.3987 6.24082C11.5058 6.23717 11.6127 6.25513 11.7128 6.29361C11.8129 6.33209 11.9042 6.3903 11.9813 6.46479C12.0584 6.53928 12.1197 6.62851 12.1616 6.72718C12.2035 6.82585 12.2251 6.93194 12.2251 7.03912C12.2251 7.1463 12.2035 7.25239 12.1616 7.35106C12.1197 7.44973 12.0584 7.53896 11.9813 7.61345C11.9042 7.68794 11.8129 7.74616 11.7128 7.78464C11.6127 7.82312 11.5058 7.84107 11.3987 7.83743H7.79921C6.78689 7.79533 5.81115 7.44734 5.00087 6.83942V2.96547L9.25745 1.96377C9.91703 1.79998 10.6027 1.76979 11.2742 1.87498C11.9456 1.98016 12.5892 2.2186 13.167 2.57623L14.9501 3.8491H9.39957C9.08181 3.85056 8.77748 3.97736 8.55278 4.20192C8.32809 4.42647 8.20122 4.73062 8.19977 5.04819V5.84603C8.19767 5.8992 8.20663 5.95222 8.22609 6.00175C8.24555 6.05128 8.27508 6.09623 8.31281 6.13377C8.35054 6.1713 8.39567 6.20061 8.44532 6.21983C8.49496 6.23905 8.54805 6.24776 8.60124 6.24542L11.3987 6.24082ZM1.80013 1.85216H4.19977V8.23406H1.80013V1.85216ZM12.9972 9.82975C12.6813 9.8303 12.3727 9.9244 12.1103 10.1002C11.848 10.2759 11.6437 10.5255 11.5232 10.8173C11.4027 11.1091 11.3714 11.43 11.4334 11.7396C11.4953 12.0491 11.6477 12.3333 11.8712 12.5563C12.0948 12.7794 12.3795 12.9312 12.6893 12.9925C12.9991 13.0539 13.3202 13.0221 13.612 12.9012C13.9037 12.7803 14.1531 12.5756 14.3285 12.3131C14.5039 12.0506 14.5975 11.742 14.5975 11.4264C14.5954 11.0034 14.4261 10.5983 14.1265 10.2995C13.8269 10.0006 13.4214 9.83214 12.9981 9.83068L12.9972 9.82975ZM12.9972 10.6285C13.155 10.6289 13.3092 10.676 13.4402 10.7639C13.5713 10.8518 13.6733 10.9765 13.7334 11.1223C13.7936 11.2682 13.8091 11.4285 13.7781 11.5832C13.7471 11.7378 13.6709 11.8798 13.5592 11.9912C13.4475 12.1026 13.3052 12.1784 13.1504 12.209C12.9956 12.2397 12.8352 12.2238 12.6894 12.1633C12.5436 12.1029 12.4191 12.0006 12.3314 11.8694C12.2438 11.7383 12.197 11.5841 12.197 11.4264C12.1965 11.3213 12.2169 11.2171 12.257 11.12C12.2972 11.0228 12.3562 10.9346 12.4308 10.8605C12.5053 10.7863 12.5938 10.7277 12.6912 10.688C12.7886 10.6484 12.8929 10.6285 12.9981 10.6295L12.9972 10.6285ZM2.19884 13.0267C2.04128 13.0267 1.88525 13.0577 1.73968 13.118C1.59412 13.1782 1.46185 13.2665 1.35043 13.3779C1.23902 13.4892 1.15065 13.6214 1.09035 13.7669C1.03005 13.9124 0.999023 14.0683 0.999023 14.2258V23.8009C1.00048 24.1185 1.12736 24.4226 1.35205 24.6472C1.57675 24.8717 1.88108 24.9985 2.19884 25H23.7955C24.1133 24.9985 24.4176 24.8717 24.6423 24.6472C24.867 24.4226 24.9939 24.1185 24.9953 23.8009V19.8135C24.9953 19.7074 24.9532 19.6058 24.8782 19.5308C24.8031 19.4558 24.7014 19.4136 24.5952 19.4136C24.4891 19.4136 24.3874 19.4558 24.3123 19.5308C24.2373 19.6058 24.1952 19.7074 24.1952 19.8135V23.8009C24.1966 23.8537 24.1872 23.9062 24.1677 23.9553C24.1482 24.0044 24.1189 24.049 24.0816 24.0864C24.0443 24.1238 23.9998 24.1533 23.9508 24.1731C23.9018 24.1928 23.8493 24.2024 23.7965 24.2012H2.19976C2.14693 24.2024 2.09442 24.1928 2.04541 24.1731C1.9964 24.1533 1.9519 24.1238 1.91462 24.0864C1.87734 24.049 1.84806 24.0044 1.82853 23.9553C1.80901 23.9062 1.79967 23.8537 1.80106 23.8009V18.6144H24.5975C24.65 18.6147 24.7021 18.6046 24.7506 18.5847C24.7992 18.5649 24.8434 18.5357 24.8807 18.4988C24.918 18.4618 24.9476 18.4179 24.9679 18.3696C24.9882 18.3212 24.9988 18.2693 24.999 18.2169V14.2267C24.999 13.9087 24.8726 13.6037 24.6476 13.3788C24.4226 13.1539 24.1174 13.0276 23.7992 13.0276H18.9999C18.894 13.0276 18.7923 13.0697 18.7174 13.1446C18.6424 13.2195 18.6003 13.3211 18.6003 13.427C18.6003 13.5329 18.6424 13.6345 18.7174 13.7094C18.7923 13.7843 18.894 13.8264 18.9999 13.8264H23.7992C23.8519 13.8249 23.9044 13.8341 23.9534 13.8535C24.0024 13.8729 24.0469 13.9022 24.0842 13.9394C24.1215 13.9766 24.1509 14.021 24.1704 14.07C24.19 14.1189 24.1993 14.1713 24.1979 14.2239V17.8138H1.80013V14.2239C1.79873 14.1713 1.80808 14.1189 1.82763 14.07C1.84718 14.021 1.87653 13.9766 1.91385 13.9394C1.95117 13.9022 1.99569 13.8729 2.04469 13.8535C2.09369 13.8341 2.14615 13.8249 2.19884 13.8264H6.9981C7.10409 13.8264 7.20573 13.7843 7.28068 13.7094C7.35562 13.6345 7.39773 13.5329 7.39773 13.427C7.39773 13.3211 7.35562 13.2195 7.28068 13.1446C7.20573 13.0697 7.10409 13.0276 6.9981 13.0276L2.19884 13.0267Z" fill="#0C6D7A" stroke="#0C6D7A" stroke-width="0.3"/>
</svg>
