<svg width="24" height="24" viewBox="0 0 24 24" fill="none" xmlns="http://www.w3.org/2000/svg">
<g clip-path="url(#clip0_1257_1453)">
<path d="M11.9724 22.9603H1.43706C1.04781 22.951 0.677972 22.781 0.408642 22.4876C0.139312 22.1941 -0.00753424 21.8013 0.000297965 21.3952V1.56909C-0.00753424 1.16288 0.139312 0.770011 0.408642 0.476609C0.677972 0.183207 1.04781 0.013216 1.43706 0.00390625H11.9724V22.9603ZM1.43666 1.04778C1.30674 1.05062 1.1832 1.10717 1.09321 1.205C1.00321 1.30282 0.954101 1.43393 0.956674 1.5695V21.3952C0.954101 21.5307 1.00321 21.6618 1.09321 21.7596C1.1832 21.8574 1.30674 21.914 1.43666 21.9168H11.0148V1.04778H1.43666Z" fill="#0C6D7A"/>
<path d="M5.74755 9.99585C5.62063 9.99563 5.49895 9.94296 5.40916 9.84936L4.31118 8.70364L3.21321 9.84936C3.14605 9.9187 3.06078 9.96581 2.96807 9.9848C2.87536 10.0038 2.77934 9.99381 2.69205 9.95611C2.60475 9.91841 2.53006 9.85466 2.47733 9.77286C2.4246 9.69105 2.39618 9.59483 2.39563 9.49626V0.500856C2.39563 0.36802 2.4462 0.240626 2.53622 0.146697C2.62623 0.0527684 2.74832 0 2.87562 0H5.74875C5.87605 0 5.99813 0.0527684 6.08815 0.146697C6.17816 0.240626 6.22874 0.36802 6.22874 0.500856V9.49542C6.22874 9.62826 6.17816 9.75565 6.08815 9.84958C5.99813 9.9435 5.87605 9.99627 5.74875 9.99627L5.74755 9.99585ZM4.31078 7.49699C4.37365 7.49695 4.43592 7.50987 4.49399 7.53501C4.55206 7.56015 4.6048 7.59702 4.64918 7.6435L5.26836 8.2896V1.00171H3.35281V8.29043L3.97199 7.64433C4.01642 7.59783 4.06923 7.56094 4.12738 7.53579C4.18552 7.51065 4.24785 7.49692 4.31078 7.49699Z" fill="#0C6D7A"/>
<path d="M22.5634 22.9579H12.0277V0.00195312H22.563C22.9523 0.0112629 23.3221 0.18125 23.5914 0.474653C23.8608 0.768056 24.0076 1.16093 23.9998 1.56713V21.3927C24.0076 21.7989 23.8608 22.1918 23.5914 22.4852C23.3221 22.7787 22.9527 22.9486 22.5634 22.9579ZM12.9857 21.9144H22.5634C22.6933 21.9116 22.8169 21.8551 22.9069 21.7572C22.9969 21.6594 23.046 21.5284 23.0434 21.3927V1.56713C23.046 1.43155 22.9969 1.30045 22.9069 1.20262C22.8169 1.1048 22.6933 1.04825 22.5634 1.0454H12.9857V21.9144Z" fill="#0C6D7A"/>
<path d="M2.39514 12.5488H3.35273V13.548H2.39514V12.5488Z" fill="#0C6D7A"/>
<path d="M5.05579 12.5488H9.84447V13.548H5.05579V12.5488Z" fill="#0C6D7A"/>
<path d="M5.05579 15.6855H9.84447V16.6848H5.05579V15.6855Z" fill="#0C6D7A"/>
<path d="M5.05579 18.9609H9.84447V19.9602H5.05579V18.9609Z" fill="#0C6D7A"/>
<path d="M2.39514 15.6855H3.35273V16.6848H2.39514V15.6855Z" fill="#0C6D7A"/>
<path d="M2.39514 18.9609H3.35273V19.9602H2.39514V18.9609Z" fill="#0C6D7A"/>
<path d="M20.6483 12.5488H21.6043V13.548H20.6483V12.5488Z" fill="#0C6D7A"/>
<path d="M14.1559 12.5488H18.9446V13.548H14.1559V12.5488Z" fill="#0C6D7A"/>
<path d="M20.6483 9.41211H21.6043V10.4113H20.6483V9.41211Z" fill="#0C6D7A"/>
<path d="M14.1559 9.41211H18.9446V10.4113H14.1559V9.41211Z" fill="#0C6D7A"/>
<path d="M20.6483 6.27539H21.6043V7.27459H20.6483V6.27539Z" fill="#0C6D7A"/>
<path d="M14.1559 6.27539H18.9446V7.27459H14.1559V6.27539Z" fill="#0C6D7A"/>
<path d="M14.1559 15.6855H18.9446V16.6848H14.1559V15.6855Z" fill="#0C6D7A"/>
<path d="M14.1559 18.9609H18.9446V19.9602H14.1559V18.9609Z" fill="#0C6D7A"/>
<path d="M20.6483 15.6855H21.6043V16.6848H20.6483V15.6855Z" fill="#0C6D7A"/>
<path d="M20.6483 18.9609H21.6043V19.9602H20.6483V18.9609Z" fill="#0C6D7A"/>
<path d="M14.4229 3H21.6059V3.9992H14.4229V3Z" fill="#0C6D7A"/>
</g>
<defs>
<clipPath id="clip0_1257_1453">
<rect width="24" height="24" fill="white"/>
</clipPath>
</defs>
</svg>
