<svg width="26" height="26" viewBox="0 0 26 26" fill="none" xmlns="http://www.w3.org/2000/svg">
<path d="M23.4712 7.197H22.705C22.705 7.29861 22.6646 7.39607 22.5927 7.46792C22.5209 7.53977 22.4234 7.58013 22.3218 7.58013V8.34636C22.6266 8.34612 22.9188 8.22496 23.1343 8.00947C23.3498 7.79397 23.4709 7.50176 23.4712 7.197Z" fill="#0C6D7A"/>
<path d="M5.37589 6.95699C5.26922 7.17092 5.2136 7.40663 5.2134 7.64566C5.21312 7.81101 5.23963 7.97531 5.29187 8.13219L5.57621 8.98522L4.84966 9.22802L4.56533 8.37499C4.37227 7.79469 4.41743 7.16152 4.69088 6.61449L4.87089 6.25444L5.5559 6.59694L5.37589 6.95699Z" fill="#0C6D7A"/>
<path fill-rule="evenodd" clip-rule="evenodd" d="M11.8539 18.8015V18.0353H11.0876C10.8845 18.035 10.6897 17.9542 10.5461 17.8106C10.4024 17.6669 10.3216 17.4722 10.3214 17.269V16.5028C10.3216 16.2996 10.4024 16.1049 10.5461 15.9612C10.6897 15.8176 10.8845 15.7367 11.0876 15.7365H11.8539V14.9703C11.8541 14.7672 11.9349 14.5724 12.0786 14.4288C12.2222 14.2851 12.417 14.2043 12.6201 14.204H13.3863C13.5895 14.2043 13.7842 14.2851 13.9279 14.4288C14.0715 14.5724 14.1523 14.7672 14.1526 14.9703V15.7365H14.9188C15.122 15.7367 15.3167 15.8176 15.4604 15.9612C15.604 16.1049 15.6848 16.2996 15.6851 16.5028V17.269C15.6848 17.4722 15.604 17.6669 15.4604 17.8106C15.3167 17.9542 15.122 18.035 14.9188 18.0353H14.1526V18.8015C14.1526 19.0047 14.0718 19.1996 13.9281 19.3433C13.7844 19.487 13.5896 19.5677 13.3863 19.5677H12.6201C12.4169 19.5677 12.222 19.487 12.0783 19.3433C11.9346 19.1996 11.8539 19.0047 11.8539 18.8015ZM12.6192 16.5037H11.0876L11.0885 17.2681H12.6192V18.7997H13.3854V17.2681H14.917V16.5019H13.3854V14.9703H12.6192V16.5037Z" fill="#0C6D7A"/>
<path fill-rule="evenodd" clip-rule="evenodd" d="M16.792 14.9371H23.8386C24.1465 14.9376 24.4416 15.0601 24.6593 15.2778C24.877 15.4955 24.9995 15.7906 25 16.0984V16.8721C24.9993 17.1115 24.9244 17.3449 24.7858 17.5401C24.6471 17.7354 24.4513 17.8829 24.2254 17.9624V21.5175C24.2242 22.4404 23.8574 23.3252 23.2053 23.9782C22.5531 24.6312 21.6688 24.9992 20.746 25.0016H5.25864C4.3349 25.0007 3.44928 24.6333 2.7961 23.9801C2.14291 23.3269 1.77553 22.4413 1.77455 21.5175V17.9642C1.54866 17.8847 1.35293 17.7372 1.21425 17.542C1.07556 17.3468 1.00072 17.1134 1 16.8739V16.0994C1.00049 15.7915 1.123 15.4964 1.34069 15.2787C1.55839 15.061 1.8535 14.9385 2.16136 14.938H9.21356C9.3567 14.6573 9.53039 14.3932 9.73147 14.1505L6.73574 11.153C6.52917 11.3207 6.27734 11.4233 6.01232 11.4474C5.74729 11.4716 5.48107 11.4163 5.24757 11.2887L2.27768 9.66386C1.9081 9.46235 1.59681 9.16882 1.37396 8.81169C1.15111 8.45457 1.02426 8.04595 1.00569 7.6254C0.98712 7.20486 1.07746 6.78665 1.26796 6.41127C1.45846 6.03589 1.74266 5.71606 2.09305 5.48276L2.27768 5.35721L1.71639 5.08025C1.501 4.97351 1.31981 4.80857 1.19335 4.60412C1.0669 4.39968 1.00024 4.1639 1.00092 3.92351C1.00119 3.7226 1.04795 3.52449 1.13755 3.34467L1.20402 3.21173C1.30307 3.01181 1.45616 2.84364 1.64594 2.72632C1.83571 2.60899 2.05457 2.5472 2.27768 2.54796C2.53757 2.54842 2.79039 2.63259 2.99869 2.78799L3.71047 3.32251V2.9357C3.71047 2.62769 3.83282 2.33229 4.05062 2.11449C4.26842 1.89669 4.56382 1.77433 4.87183 1.77433C5.17984 1.77433 5.47524 1.89669 5.69304 2.11449C5.91084 2.33229 6.0332 2.62769 6.0332 2.9357V4.09706L6.74589 3.56346C6.88657 3.45779 7.04876 3.38435 7.22098 3.34832C7.3932 3.3123 7.57123 3.31459 7.74247 3.35502C7.9137 3.39545 8.07396 3.47304 8.21187 3.58229C8.34979 3.69153 8.462 3.82977 8.54056 3.9872L8.60703 4.11922C8.69663 4.29904 8.7434 4.49715 8.74366 4.69806C8.74385 4.89177 8.70018 5.08302 8.61592 5.25745C8.53166 5.43188 8.409 5.58498 8.25714 5.70525C8.56319 6.153 8.73203 6.68028 8.74302 7.22252C8.75401 7.76476 8.60665 8.29843 8.319 8.75822L7.21118 10.5326L10.2817 13.6022C10.9437 13.0494 11.7584 12.7116 12.6173 12.6337V8.1166C12.3431 8.25507 12.0771 8.40919 11.8206 8.5782C11.6729 8.67679 11.5011 8.73343 11.3237 8.74207C11.1463 8.75071 10.9698 8.71103 10.8132 8.62726C10.6565 8.54348 10.5256 8.41876 10.4342 8.2664C10.3429 8.11404 10.2946 7.93974 10.2946 7.7621V5.9979C10.2918 5.25192 10.5297 4.52493 10.9729 3.92489C11.4162 3.32484 12.0411 2.88373 12.7549 2.66705L14.4397 2.14915C15.1752 1.92325 15.8739 1.59176 16.5141 1.16503C16.6619 1.06644 16.8336 1.0098 17.011 1.00116C17.1885 0.992522 17.3649 1.0322 17.5216 1.11597C17.6782 1.19974 17.8092 1.32446 17.9005 1.47683C17.9918 1.62919 18.0401 1.80349 18.0401 1.98113V3.74533C18.0425 4.49201 17.8038 5.21953 17.3596 5.81966C16.9153 6.4198 16.2891 6.86048 15.5743 7.07618L13.8895 7.59408C13.7196 7.64578 13.5525 7.70579 13.3873 7.76856V12.6337C14.2463 12.7113 15.0611 13.0491 15.7229 13.6022L20.2991 9.02594C19.8378 8.52755 19.5813 7.87351 19.5809 7.19434C19.5809 5.56308 21.7356 2.64397 21.9812 2.31624L22.2905 1.90358L22.5997 2.31624C22.8453 2.64397 25 5.564 25 7.19434C25.001 7.67362 24.8746 8.14455 24.6338 8.55892C24.3929 8.97328 24.0463 9.31619 23.6293 9.55251C23.2124 9.78884 22.7401 9.9101 22.2609 9.90388C21.7816 9.89765 21.3127 9.76416 20.902 9.51707L16.2741 14.1505C16.4751 14.3929 16.6488 14.6566 16.792 14.9371ZM16.9397 1.80757C16.2377 2.27574 15.4715 2.63958 14.665 2.88769L13.3097 3.3059C14.5031 3.86154 15.4499 4.83731 15.9694 6.04683C16.3648 5.80673 16.6915 5.46865 16.9179 5.06529C17.1443 4.66194 17.2628 4.20697 17.2619 3.74441V1.9802C17.2616 1.92543 17.2398 1.87298 17.201 1.83425C17.1623 1.79552 17.1099 1.77365 17.0551 1.77341C17.0141 1.77338 16.974 1.78524 16.9397 1.80757ZM11.289 7.96228C11.3257 7.96157 11.3615 7.95145 11.3932 7.93289V7.93381C12.0941 7.46582 12.859 7.10169 13.6642 6.85277L15.2613 6.36163C14.9943 5.73351 14.5906 5.17283 14.0795 4.7204C13.5685 4.26798 12.963 3.93519 12.3071 3.74625L12.2878 3.74072C11.9132 3.98588 11.6058 4.32062 11.3934 4.7146C11.1809 5.10858 11.0701 5.54935 11.071 5.99697V7.76025C11.0731 7.79689 11.0845 7.83238 11.1043 7.86331C11.124 7.89425 11.1513 7.9196 11.1837 7.93693C11.216 7.95426 11.2523 7.96299 11.289 7.96228ZM24.2365 7.19342C24.2365 6.18992 23.0308 4.2577 22.2978 3.20896L22.2941 3.20988C21.5621 4.25862 20.3592 6.19177 20.3647 7.19342C20.3912 7.68895 20.6067 8.15545 20.9669 8.49684C21.327 8.83823 21.8044 9.02852 22.3006 9.02852C22.7968 9.02852 23.2742 8.83823 23.6343 8.49684C23.9945 8.15545 24.21 7.68895 24.2365 7.19342ZM7.38136 4.10889C7.32055 4.12046 7.26287 4.14474 7.2121 4.18015L6.6785 4.58266C7.06565 4.68605 7.42591 4.87185 7.73462 5.12734C7.80698 5.08118 7.86662 5.01762 7.90806 4.94246C7.94951 4.86731 7.97145 4.78296 7.97188 4.69713C7.97172 4.61634 7.95275 4.53669 7.91649 4.46449L7.85002 4.33155C7.82058 4.2771 7.77996 4.22949 7.73084 4.19183C7.68171 4.15417 7.62519 4.12732 7.56496 4.11302C7.50473 4.09873 7.44217 4.09732 7.38136 4.10889ZM5.14693 2.65968C5.07444 2.58719 4.97619 2.54636 4.87368 2.54612V2.54796C4.77084 2.54796 4.67222 2.58881 4.59951 2.66153C4.52679 2.73424 4.48594 2.83286 4.48594 2.9357V4.48111H5.26049V2.93293C5.26025 2.83042 5.21942 2.73217 5.14693 2.65968ZM1.83086 3.68902C1.79502 3.76133 1.77637 3.84095 1.7764 3.92166V3.92351C1.77656 4.01954 1.80353 4.11362 1.85425 4.19517C1.90497 4.27672 1.97744 4.34249 2.06351 4.3851L2.83806 4.77283C3.09403 4.59127 3.39856 4.49062 3.71231 4.48388V4.28816L2.53525 3.4056C2.48454 3.37015 2.42691 3.34582 2.36615 3.33418C2.30538 3.32255 2.24284 3.32387 2.18262 3.33808C2.1224 3.35228 2.06586 3.37905 2.0167 3.41661C1.96753 3.45418 1.92686 3.50171 1.89733 3.55608L1.83086 3.68902ZM2.64603 8.98532L5.61869 10.6064H5.61499C5.74316 10.6732 5.89158 10.6898 6.03135 10.6532C6.17113 10.6165 6.29223 10.529 6.37108 10.4079L7.66354 8.34648C7.72241 8.25061 7.77306 8.14993 7.81494 8.04552C7.40195 8.24779 6.94818 8.35294 6.48832 8.35294H6.42185V7.57839H6.48832C7.02298 7.57951 7.54039 7.38925 7.94695 7.04202C7.89056 6.55083 7.65558 6.09752 7.28671 5.76831C6.91784 5.43911 6.44083 5.25698 5.94642 5.25658H3.74647C3.56424 5.2568 3.38741 5.31848 3.24458 5.43166C3.10176 5.54484 3.00129 5.70289 2.95943 5.88025C2.91758 6.05761 2.93678 6.2439 3.01393 6.40899C3.09108 6.57408 3.22168 6.70832 3.38458 6.78999L3.49721 6.8463L3.15102 7.53869L3.03839 7.48238C2.82683 7.37748 2.64157 7.22636 2.49631 7.04019C2.35106 6.85403 2.24952 6.63758 2.19921 6.40687C2.03183 6.59468 1.90901 6.81787 1.83992 7.05977C1.77083 7.30168 1.75726 7.55607 1.80022 7.80395C1.84317 8.05184 1.94155 8.28682 2.088 8.49138C2.23446 8.69593 2.42521 8.86478 2.64603 8.98532ZM14.9398 13.9733C14.3669 13.5905 13.6932 13.3861 13.0042 13.3861L13.0032 13.388C12.08 13.3894 11.1951 13.7568 10.5422 14.4095C9.88932 15.0622 9.52177 15.947 9.52006 16.8702C9.52006 17.5593 9.7244 18.2329 10.1072 18.8059C10.4901 19.3788 11.0342 19.8254 11.6708 20.0891C12.3075 20.3528 13.008 20.4218 13.6839 20.2874C14.3597 20.1529 14.9805 19.8211 15.4678 19.3339C15.955 18.8466 16.2869 18.2258 16.4213 17.5499C16.5557 16.8741 16.4867 16.1736 16.223 15.5369C15.9593 14.9003 15.5128 14.3561 14.9398 13.9733ZM1.88931 15.8249C1.81722 15.8974 1.77664 15.9953 1.7764 16.0975L1.77455 16.8721C1.77479 16.9746 1.81563 17.0728 1.88811 17.1453C1.9606 17.2178 2.05885 17.2586 2.16136 17.2589H8.76397C8.75289 17.1315 8.74458 17.0032 8.74458 16.8721C8.74568 16.4792 8.80129 16.0883 8.90983 15.7107H2.16136C2.05917 15.7114 1.9614 15.7525 1.88931 15.8249ZM5.26049 24.2271H20.746C21.4644 24.2261 22.1532 23.9411 22.6612 23.433C23.1691 22.9249 23.4548 22.236 23.4555 21.5175V18.0334H17.0966C16.8445 18.9248 16.3082 19.7095 15.5694 20.2683C14.8306 20.8271 13.9296 21.1295 13.0032 21.1295C12.0769 21.1295 11.1758 20.8271 10.437 20.2683C9.69821 19.7095 9.16199 18.9248 8.90983 18.0334H2.55095V21.5175C2.55193 22.2358 2.83771 22.9245 3.34563 23.4324C3.85356 23.9403 4.54218 24.2261 5.26049 24.2271ZM24.1165 17.1444C24.189 17.0719 24.2298 16.9737 24.2301 16.8712V16.0966C24.2298 15.9941 24.189 15.8958 24.1165 15.8234C24.044 15.7509 23.9458 15.71 23.8432 15.7098H17.0966C17.2052 16.0874 17.2608 16.4782 17.2619 16.8712C17.2619 17.0013 17.2545 17.1306 17.2425 17.258H23.8432C23.9458 17.2577 24.044 17.2169 24.1165 17.1444Z" fill="#0C6D7A"/>
<path d="M23.4712 7.197H22.705C22.705 7.29861 22.6646 7.39607 22.5927 7.46792C22.5209 7.53977 22.4234 7.58013 22.3218 7.58013V8.34636C22.6266 8.34612 22.9188 8.22496 23.1343 8.00947C23.3498 7.79397 23.4709 7.50176 23.4712 7.197Z" stroke="#0C6D7A" stroke-width="0.3"/>
<path d="M5.37589 6.95699C5.26922 7.17092 5.2136 7.40663 5.2134 7.64566C5.21312 7.81101 5.23963 7.97531 5.29187 8.13219L5.57621 8.98522L4.84966 9.22802L4.56533 8.37499C4.37227 7.79469 4.41743 7.16152 4.69088 6.61449L4.87089 6.25444L5.5559 6.59694L5.37589 6.95699Z" stroke="#0C6D7A" stroke-width="0.3"/>
<path fill-rule="evenodd" clip-rule="evenodd" d="M11.8539 18.8015V18.0353H11.0876C10.8845 18.035 10.6897 17.9542 10.5461 17.8106C10.4024 17.6669 10.3216 17.4722 10.3214 17.269V16.5028C10.3216 16.2996 10.4024 16.1049 10.5461 15.9612C10.6897 15.8176 10.8845 15.7367 11.0876 15.7365H11.8539V14.9703C11.8541 14.7672 11.9349 14.5724 12.0786 14.4288C12.2222 14.2851 12.417 14.2043 12.6201 14.204H13.3863C13.5895 14.2043 13.7842 14.2851 13.9279 14.4288C14.0715 14.5724 14.1523 14.7672 14.1526 14.9703V15.7365H14.9188C15.122 15.7367 15.3167 15.8176 15.4604 15.9612C15.604 16.1049 15.6848 16.2996 15.6851 16.5028V17.269C15.6848 17.4722 15.604 17.6669 15.4604 17.8106C15.3167 17.9542 15.122 18.035 14.9188 18.0353H14.1526V18.8015C14.1526 19.0047 14.0718 19.1996 13.9281 19.3433C13.7844 19.487 13.5896 19.5677 13.3863 19.5677H12.6201C12.4169 19.5677 12.222 19.487 12.0783 19.3433C11.9346 19.1996 11.8539 19.0047 11.8539 18.8015ZM12.6192 16.5037H11.0876L11.0885 17.2681H12.6192V18.7997H13.3854V17.2681H14.917V16.5019H13.3854V14.9703H12.6192V16.5037Z" stroke="#0C6D7A" stroke-width="0.3"/>
<path fill-rule="evenodd" clip-rule="evenodd" d="M16.792 14.9371H23.8386C24.1465 14.9376 24.4416 15.0601 24.6593 15.2778C24.877 15.4955 24.9995 15.7906 25 16.0984V16.8721C24.9993 17.1115 24.9244 17.3449 24.7858 17.5401C24.6471 17.7354 24.4513 17.8829 24.2254 17.9624V21.5175C24.2242 22.4404 23.8574 23.3252 23.2053 23.9782C22.5531 24.6312 21.6688 24.9992 20.746 25.0016H5.25864C4.3349 25.0007 3.44928 24.6333 2.7961 23.9801C2.14291 23.3269 1.77553 22.4413 1.77455 21.5175V17.9642C1.54866 17.8847 1.35293 17.7372 1.21425 17.542C1.07556 17.3468 1.00072 17.1134 1 16.8739V16.0994C1.00049 15.7915 1.123 15.4964 1.34069 15.2787C1.55839 15.061 1.8535 14.9385 2.16136 14.938H9.21356C9.3567 14.6573 9.53039 14.3932 9.73147 14.1505L6.73574 11.153C6.52917 11.3207 6.27734 11.4233 6.01232 11.4474C5.74729 11.4716 5.48107 11.4163 5.24757 11.2887L2.27768 9.66386C1.9081 9.46235 1.59681 9.16882 1.37396 8.81169C1.15111 8.45457 1.02426 8.04595 1.00569 7.6254C0.98712 7.20486 1.07746 6.78665 1.26796 6.41127C1.45846 6.03589 1.74266 5.71606 2.09305 5.48276L2.27768 5.35721L1.71639 5.08025C1.501 4.97351 1.31981 4.80857 1.19335 4.60412C1.0669 4.39968 1.00024 4.1639 1.00092 3.92351C1.00119 3.7226 1.04795 3.52449 1.13755 3.34467L1.20402 3.21173C1.30307 3.01181 1.45616 2.84364 1.64594 2.72632C1.83571 2.60899 2.05457 2.5472 2.27768 2.54796C2.53757 2.54842 2.79039 2.63259 2.99869 2.78799L3.71047 3.32251V2.9357C3.71047 2.62769 3.83282 2.33229 4.05062 2.11449C4.26842 1.89669 4.56382 1.77433 4.87183 1.77433C5.17984 1.77433 5.47524 1.89669 5.69304 2.11449C5.91084 2.33229 6.0332 2.62769 6.0332 2.9357V4.09706L6.74589 3.56346C6.88657 3.45779 7.04876 3.38435 7.22098 3.34832C7.3932 3.3123 7.57123 3.31459 7.74247 3.35502C7.9137 3.39545 8.07396 3.47304 8.21187 3.58229C8.34979 3.69153 8.462 3.82977 8.54056 3.9872L8.60703 4.11922C8.69663 4.29904 8.7434 4.49715 8.74366 4.69806C8.74385 4.89177 8.70018 5.08302 8.61592 5.25745C8.53166 5.43188 8.409 5.58498 8.25714 5.70525C8.56319 6.153 8.73203 6.68028 8.74302 7.22252C8.75401 7.76476 8.60665 8.29843 8.319 8.75822L7.21118 10.5326L10.2817 13.6022C10.9437 13.0494 11.7584 12.7116 12.6173 12.6337V8.1166C12.3431 8.25507 12.0771 8.40919 11.8206 8.5782C11.6729 8.67679 11.5011 8.73343 11.3237 8.74207C11.1463 8.75071 10.9698 8.71103 10.8132 8.62726C10.6565 8.54348 10.5256 8.41876 10.4342 8.2664C10.3429 8.11404 10.2946 7.93974 10.2946 7.7621V5.9979C10.2918 5.25192 10.5297 4.52493 10.9729 3.92489C11.4162 3.32484 12.0411 2.88373 12.7549 2.66705L14.4397 2.14915C15.1752 1.92325 15.8739 1.59176 16.5141 1.16503C16.6619 1.06644 16.8336 1.0098 17.011 1.00116C17.1885 0.992522 17.3649 1.0322 17.5216 1.11597C17.6782 1.19974 17.8092 1.32446 17.9005 1.47683C17.9918 1.62919 18.0401 1.80349 18.0401 1.98113V3.74533C18.0425 4.49201 17.8038 5.21953 17.3596 5.81966C16.9153 6.4198 16.2891 6.86048 15.5743 7.07618L13.8895 7.59408C13.7196 7.64578 13.5525 7.70579 13.3873 7.76856V12.6337C14.2463 12.7113 15.0611 13.0491 15.7229 13.6022L20.2991 9.02594C19.8378 8.52755 19.5813 7.87351 19.5809 7.19434C19.5809 5.56308 21.7356 2.64397 21.9812 2.31624L22.2905 1.90358L22.5997 2.31624C22.8453 2.64397 25 5.564 25 7.19434C25.001 7.67362 24.8746 8.14455 24.6338 8.55892C24.3929 8.97328 24.0463 9.31619 23.6293 9.55251C23.2124 9.78884 22.7401 9.9101 22.2609 9.90388C21.7816 9.89765 21.3127 9.76416 20.902 9.51707L16.2741 14.1505C16.4751 14.3929 16.6488 14.6566 16.792 14.9371ZM16.9397 1.80757C16.2377 2.27574 15.4715 2.63958 14.665 2.88769L13.3097 3.3059C14.5031 3.86154 15.4499 4.83731 15.9694 6.04683C16.3648 5.80673 16.6915 5.46865 16.9179 5.06529C17.1443 4.66194 17.2628 4.20697 17.2619 3.74441V1.9802C17.2616 1.92543 17.2398 1.87298 17.201 1.83425C17.1623 1.79552 17.1099 1.77365 17.0551 1.77341C17.0141 1.77338 16.974 1.78524 16.9397 1.80757ZM11.289 7.96228C11.3257 7.96157 11.3615 7.95145 11.3932 7.93289V7.93381C12.0941 7.46582 12.859 7.10169 13.6642 6.85277L15.2613 6.36163C14.9943 5.73351 14.5906 5.17283 14.0795 4.7204C13.5685 4.26798 12.963 3.93519 12.3071 3.74625L12.2878 3.74072C11.9132 3.98588 11.6058 4.32062 11.3934 4.7146C11.1809 5.10858 11.0701 5.54935 11.071 5.99697V7.76025C11.0731 7.79689 11.0845 7.83238 11.1043 7.86331C11.124 7.89425 11.1513 7.9196 11.1837 7.93693C11.216 7.95426 11.2523 7.96299 11.289 7.96228ZM24.2365 7.19342C24.2365 6.18992 23.0308 4.2577 22.2978 3.20896L22.2941 3.20988C21.5621 4.25862 20.3592 6.19177 20.3647 7.19342C20.3912 7.68895 20.6067 8.15545 20.9669 8.49684C21.327 8.83823 21.8044 9.02852 22.3006 9.02852C22.7968 9.02852 23.2742 8.83823 23.6343 8.49684C23.9945 8.15545 24.21 7.68895 24.2365 7.19342ZM7.38136 4.10889C7.32055 4.12046 7.26287 4.14474 7.2121 4.18015L6.6785 4.58266C7.06565 4.68605 7.42591 4.87185 7.73462 5.12734C7.80698 5.08118 7.86662 5.01762 7.90806 4.94246C7.94951 4.86731 7.97145 4.78296 7.97188 4.69713C7.97172 4.61634 7.95275 4.53669 7.91649 4.46449L7.85002 4.33155C7.82058 4.2771 7.77996 4.22949 7.73084 4.19183C7.68171 4.15417 7.62519 4.12732 7.56496 4.11302C7.50473 4.09873 7.44217 4.09732 7.38136 4.10889ZM5.14693 2.65968C5.07444 2.58719 4.97619 2.54636 4.87368 2.54612V2.54796C4.77084 2.54796 4.67222 2.58881 4.59951 2.66153C4.52679 2.73424 4.48594 2.83286 4.48594 2.9357V4.48111H5.26049V2.93293C5.26025 2.83042 5.21942 2.73217 5.14693 2.65968ZM1.83086 3.68902C1.79502 3.76133 1.77637 3.84095 1.7764 3.92166V3.92351C1.77656 4.01954 1.80353 4.11362 1.85425 4.19517C1.90497 4.27672 1.97744 4.34249 2.06351 4.3851L2.83806 4.77283C3.09403 4.59127 3.39856 4.49062 3.71231 4.48388V4.28816L2.53525 3.4056C2.48454 3.37015 2.42691 3.34582 2.36615 3.33418C2.30538 3.32255 2.24284 3.32387 2.18262 3.33808C2.1224 3.35228 2.06586 3.37905 2.0167 3.41661C1.96753 3.45418 1.92686 3.50171 1.89733 3.55608L1.83086 3.68902ZM2.64603 8.98532L5.61869 10.6064H5.61499C5.74316 10.6732 5.89158 10.6898 6.03135 10.6532C6.17113 10.6165 6.29223 10.529 6.37108 10.4079L7.66354 8.34648C7.72241 8.25061 7.77306 8.14993 7.81494 8.04552C7.40195 8.24779 6.94818 8.35294 6.48832 8.35294H6.42185V7.57839H6.48832C7.02298 7.57951 7.54039 7.38925 7.94695 7.04202C7.89056 6.55083 7.65558 6.09752 7.28671 5.76831C6.91784 5.43911 6.44083 5.25698 5.94642 5.25658H3.74647C3.56424 5.2568 3.38741 5.31848 3.24458 5.43166C3.10176 5.54484 3.00129 5.70289 2.95943 5.88025C2.91758 6.05761 2.93678 6.2439 3.01393 6.40899C3.09108 6.57408 3.22168 6.70832 3.38458 6.78999L3.49721 6.8463L3.15102 7.53869L3.03839 7.48238C2.82683 7.37748 2.64157 7.22636 2.49631 7.04019C2.35106 6.85403 2.24952 6.63758 2.19921 6.40687C2.03183 6.59468 1.90901 6.81787 1.83992 7.05977C1.77083 7.30168 1.75726 7.55607 1.80022 7.80395C1.84317 8.05184 1.94155 8.28682 2.088 8.49138C2.23446 8.69593 2.42521 8.86478 2.64603 8.98532ZM14.9398 13.9733C14.3669 13.5905 13.6932 13.3861 13.0042 13.3861L13.0032 13.388C12.08 13.3894 11.1951 13.7568 10.5422 14.4095C9.88932 15.0622 9.52177 15.947 9.52006 16.8702C9.52006 17.5593 9.7244 18.2329 10.1072 18.8059C10.4901 19.3788 11.0342 19.8254 11.6708 20.0891C12.3075 20.3528 13.008 20.4218 13.6839 20.2874C14.3597 20.1529 14.9805 19.8211 15.4678 19.3339C15.955 18.8466 16.2869 18.2258 16.4213 17.5499C16.5557 16.8741 16.4867 16.1736 16.223 15.5369C15.9593 14.9003 15.5128 14.3561 14.9398 13.9733ZM1.88931 15.8249C1.81722 15.8974 1.77664 15.9953 1.7764 16.0975L1.77455 16.8721C1.77479 16.9746 1.81563 17.0728 1.88811 17.1453C1.9606 17.2178 2.05885 17.2586 2.16136 17.2589H8.76397C8.75289 17.1315 8.74458 17.0032 8.74458 16.8721C8.74568 16.4792 8.80129 16.0883 8.90983 15.7107H2.16136C2.05917 15.7114 1.9614 15.7525 1.88931 15.8249ZM5.26049 24.2271H20.746C21.4644 24.2261 22.1532 23.9411 22.6612 23.433C23.1691 22.9249 23.4548 22.236 23.4555 21.5175V18.0334H17.0966C16.8445 18.9248 16.3082 19.7095 15.5694 20.2683C14.8306 20.8271 13.9296 21.1295 13.0032 21.1295C12.0769 21.1295 11.1758 20.8271 10.437 20.2683C9.69821 19.7095 9.16199 18.9248 8.90983 18.0334H2.55095V21.5175C2.55193 22.2358 2.83771 22.9245 3.34563 23.4324C3.85356 23.9403 4.54218 24.2261 5.26049 24.2271ZM24.1165 17.1444C24.189 17.0719 24.2298 16.9737 24.2301 16.8712V16.0966C24.2298 15.9941 24.189 15.8958 24.1165 15.8234C24.044 15.7509 23.9458 15.71 23.8432 15.7098H17.0966C17.2052 16.0874 17.2608 16.4782 17.2619 16.8712C17.2619 17.0013 17.2545 17.1306 17.2425 17.258H23.8432C23.9458 17.2577 24.044 17.2169 24.1165 17.1444Z" stroke="#0C6D7A" stroke-width="0.3"/>
</svg>
