<svg width="26" height="26" viewBox="0 0 26 26" fill="none" xmlns="http://www.w3.org/2000/svg">
<path d="M3.90094 10.4086C3.82505 10.3579 3.73581 10.3308 3.64453 10.3308C3.52213 10.3308 3.40473 10.3795 3.31818 10.466C3.23162 10.5526 3.18301 10.6699 3.18301 10.7923C3.18301 10.8836 3.21007 10.9729 3.26078 11.0488C3.31149 11.1247 3.38358 11.1838 3.46791 11.2187C3.55224 11.2537 3.64503 11.2628 3.73456 11.245C3.82409 11.2272 3.90633 11.1832 3.97087 11.1187C4.03542 11.0541 4.07938 10.9719 4.09718 10.8824C4.11499 10.7929 4.10585 10.7 4.07092 10.6157C4.03598 10.5314 3.97684 10.4593 3.90094 10.4086Z" fill="#0C6D7A"/>
<path d="M7.67919 3.14943C7.77047 3.14943 7.85969 3.17651 7.93559 3.22722C8.01148 3.27793 8.07066 3.35001 8.10559 3.43435C8.14052 3.51868 8.14965 3.61147 8.13184 3.701C8.11403 3.79052 8.07008 3.87276 8.00553 3.93731C7.94099 4.00185 7.85875 4.04581 7.76922 4.06362C7.67969 4.08143 7.5869 4.07228 7.50257 4.03735C7.41824 4.00242 7.34615 3.94326 7.29544 3.86737C7.24473 3.79147 7.21766 3.70224 7.21766 3.61095C7.21766 3.48855 7.2663 3.37117 7.35285 3.28461C7.4394 3.19806 7.55679 3.14943 7.67919 3.14943Z" fill="#0C6D7A"/>
<path fill-rule="evenodd" clip-rule="evenodd" d="M9.18192 1.00067C8.49475 0.987876 7.81653 1.15799 7.21674 1.49359C6.68265 1.78888 6.26789 2.26075 6.04354 2.82832C5.99823 2.98194 5.90017 3.11465 5.76663 3.20307C5.58741 3.31168 5.399 3.40435 5.20357 3.47999C5.13044 3.51165 5.05601 3.5433 4.98159 3.57496C4.83899 3.63561 4.6964 3.69625 4.56297 3.7569C4.37271 3.8314 4.19425 3.93307 4.03314 4.05874C3.82701 4.23877 3.67006 4.46827 3.57705 4.72566C3.48404 4.98306 3.45803 5.25988 3.50146 5.53009C3.52573 5.78749 3.62787 6.03139 3.79426 6.22928C3.96066 6.42717 4.1834 6.56965 4.43282 6.63775L7.12998 7.21927C7.42338 7.28312 7.68463 7.44893 7.86732 7.68722C8.05001 7.92551 8.1423 8.22085 8.12779 8.52076C7.94608 9.99159 8.20839 11.4831 8.881 12.8037C9.08593 13.2554 9.2668 13.7175 9.42283 14.1883C8.69156 13.6615 7.89272 13.2356 7.04782 12.9219C6.93544 12.8822 6.83681 12.8111 6.76366 12.717C6.69051 12.6229 6.64593 12.5098 6.63522 12.3911C6.58699 12.0676 6.60235 11.7377 6.68045 11.4201C6.76644 10.6954 6.67717 9.96072 6.42017 9.27774C6.16317 8.59476 5.74594 7.98347 5.20357 7.49526C5.13133 7.42575 5.04258 7.3758 4.94567 7.35012C4.84877 7.32444 4.74692 7.32388 4.64974 7.3485C4.53668 7.37131 4.43381 7.42946 4.35599 7.51459C4.27817 7.59971 4.22943 7.70738 4.21683 7.82203C4.18099 7.76517 4.12958 7.71981 4.06871 7.69133C4.00783 7.66286 3.94006 7.65247 3.87345 7.6614C3.7853 7.67885 3.70148 7.71362 3.62685 7.76369C3.55222 7.81376 3.48827 7.87814 3.4387 7.9531C3.28724 8.24224 3.23998 8.57472 3.30485 8.89461C3.04072 8.9777 2.79617 9.11345 2.58596 9.29367C2.37575 9.4739 2.20425 9.69484 2.08181 9.94319C1.98597 10.2059 1.81284 10.4334 1.58521 10.5958C1.38098 10.6974 1.2121 10.8583 1.10061 11.0573C0.988335 11.3103 0.977106 11.5966 1.06922 11.8576C1.13699 12.1975 1.26618 12.5222 1.45044 12.8157C1.74409 13.1053 2.12967 13.2833 2.54057 13.3188C2.72419 13.3366 2.89712 13.4133 3.03348 13.5376C3.08332 13.6031 3.09901 13.6539 3.04732 13.8052C2.49674 14.8838 2.34567 16.1225 2.62087 17.3017C2.90553 18.2626 2.83442 19.2939 2.42057 20.2066C2.09677 20.3185 1.81684 20.5303 1.6211 20.8114C1.42536 21.0926 1.32391 21.4287 1.33137 21.7712C1.33076 21.8148 1.3388 21.858 1.35503 21.8985C1.37126 21.9389 1.39535 21.9758 1.42592 22.0068C1.45648 22.0379 1.4929 22.0626 1.53308 22.0795C1.57326 22.0964 1.61639 22.1052 1.65998 22.1053H9.7339C9.92453 22.1041 10.1123 22.0588 10.2825 21.973C10.4527 21.8871 10.6008 21.7631 10.7151 21.6105C10.8909 21.3535 11.0429 21.0811 11.1692 20.7964L12.5483 18.187C12.6658 18.6601 12.8864 19.1014 13.1944 19.4792C12.7184 19.6477 12.3056 19.9581 12.0116 20.3686C11.7176 20.7791 11.5567 21.27 11.5505 21.7749C11.5497 21.8186 11.5577 21.862 11.574 21.9025C11.5902 21.9431 11.6144 21.98 11.6451 22.0111C11.6757 22.0422 11.7123 22.0669 11.7527 22.0837C11.793 22.1005 11.8363 22.1091 11.88 22.109H18.2777C18.8102 22.0998 19.3286 21.9356 19.7693 21.6364C20.7565 21.9535 21.8289 21.8693 22.7545 21.4019C23.6994 21.0167 24.4664 20.2925 24.9052 19.3712C25.0234 19.0787 25.0325 18.7533 24.9309 18.4546C24.8292 18.1558 24.6235 17.9036 24.3513 17.7439C24.1093 17.6008 23.8253 17.5457 23.5474 17.5879C23.3973 17.6147 23.255 17.6745 23.131 17.7631C23.0069 17.8518 22.9041 17.9669 22.8301 18.1002C22.6752 18.4493 22.4479 18.7615 22.1632 19.0161C21.8785 19.2708 21.543 19.462 21.1788 19.5771C21.548 17.8307 21.6145 15.6717 20.3315 14.1265L14.867 7.5488C14.6103 7.2192 14.2837 6.95061 13.9107 6.76236C13.9428 6.66197 13.9669 6.55919 13.9827 6.45498C14.0154 6.13344 13.9839 5.8086 13.8901 5.49931C13.7963 5.19002 13.642 4.90242 13.4363 4.65319C13.2463 4.39772 13.0552 4.14198 12.864 3.88597C12.7023 3.66952 12.5399 3.45222 12.3784 3.23538C12.0609 2.64085 11.6565 2.09703 11.1785 1.62189C10.5946 1.21419 9.89671 1.00159 9.18469 1.01452L9.18192 1.00067ZM4.78081 8.01494C5.21201 8.43407 5.54797 8.94109 5.76585 9.50156C5.98373 10.062 6.07844 10.6628 6.04354 11.2632C5.92962 11.6785 5.91414 12.1146 5.99832 12.537C6.04251 12.7576 6.14007 12.9641 6.28247 13.1384C6.42487 13.3126 6.60778 13.4494 6.81522 13.5366C7.85659 13.8992 8.811 14.4748 9.6176 15.2267C9.6272 15.5002 9.60176 15.7738 9.54191 16.0409L8.70193 19.5595C8.28691 19.6835 7.91809 19.928 7.64227 20.262C7.40681 20.6094 7.26733 21.0128 7.23797 21.4315H5.01711C5.0101 21.2623 5.06443 21.0963 5.17009 20.964C5.27576 20.8317 5.42565 20.7421 5.59217 20.7115L6.07031 20.982C6.10953 21.0011 6.15213 21.0123 6.19569 21.015C6.23924 21.0177 6.28291 21.0118 6.32418 20.9976C6.36545 20.9834 6.40352 20.9613 6.43622 20.9324C6.46892 20.9035 6.49561 20.8684 6.51476 20.8292C6.53392 20.79 6.54516 20.7474 6.54784 20.7038C6.55053 20.6603 6.54461 20.6166 6.53043 20.5753C6.51624 20.5341 6.49407 20.496 6.46517 20.4633C6.43627 20.4306 6.40121 20.4039 6.362 20.3847C5.92784 20.2081 5.56324 19.8945 5.32365 19.4916C5.08406 19.0887 4.98259 18.6186 5.03465 18.1528C5.15926 17.3784 5.77309 16.7202 7.05059 16.7202C7.09577 16.7226 7.14095 16.7158 7.18339 16.7001C7.22584 16.6845 7.26465 16.6604 7.29746 16.6292C7.33028 16.5981 7.35642 16.5606 7.37428 16.519C7.39214 16.4775 7.40135 16.4327 7.40135 16.3875C7.40135 16.3422 7.39214 16.2975 7.37428 16.2559C7.35642 16.2143 7.33028 16.1769 7.29746 16.1457C7.26465 16.1146 7.22584 16.0905 7.18339 16.0748C7.14095 16.0592 7.09577 16.0523 7.05059 16.0547C6.43922 16.0022 5.82984 16.1761 5.33823 16.5433C4.84661 16.9105 4.507 17.4455 4.3839 18.0467C4.32985 18.4284 4.35966 18.8173 4.47125 19.1864C4.58284 19.5554 4.77353 19.8957 5.03003 20.1835C4.79016 20.3048 4.58235 20.4811 4.42354 20.698C4.26474 20.9149 4.15943 21.1662 4.11621 21.4315H2.23042C2.24702 21.3878 2.26297 21.3429 2.27895 21.298C2.37937 21.0158 2.48068 20.731 2.74825 20.7087C2.81226 20.7033 2.87327 20.6792 2.92378 20.6395C2.97429 20.5998 3.01209 20.5462 3.03255 20.4854C3.4891 19.4258 3.57019 18.242 3.26239 17.1301C3.08978 16.4424 2.94948 15.8738 3.66854 14.0286C3.67026 14.0253 3.6718 14.0219 3.67315 14.0185C3.72916 13.8704 3.74785 13.7109 3.72756 13.5539C3.70728 13.397 3.64864 13.2474 3.55685 13.1185C3.32751 12.8599 3.0105 12.6955 2.66702 12.657C2.2055 12.5693 2.04212 12.4779 1.9572 12.38C1.83722 12.1664 1.75479 11.9339 1.71351 11.6924C1.69068 11.6439 1.6781 11.5913 1.67656 11.5378C1.67502 11.4843 1.68456 11.431 1.70458 11.3813C1.72461 11.3317 1.75467 11.2867 1.7929 11.2492C1.83113 11.2117 1.8767 11.1825 1.92674 11.1635C2.27841 10.9246 2.54762 10.5829 2.69748 10.185C2.79282 9.98603 2.92974 9.80979 3.09901 9.66823C3.26828 9.52666 3.46596 9.42307 3.67869 9.36443C3.76357 9.34132 3.83582 9.28549 3.8796 9.20918C3.92338 9.13287 3.93511 9.04232 3.91222 8.95737C3.88528 8.8716 3.87596 8.78126 3.88484 8.69179C3.89373 8.60233 3.92063 8.51558 3.96391 8.43678L4.32575 8.79953C4.55928 9.14752 4.98481 8.89184 4.78727 8.52262C4.72709 8.45261 4.69347 8.36365 4.69229 8.27134C4.69111 8.17903 4.72244 8.08923 4.78081 8.0177V8.01494ZM9.17546 1.66988C9.74604 1.65804 10.3063 1.82278 10.7797 2.14156C11.1858 2.59899 11.5452 3.09591 11.8523 3.62491L12.9101 5.04087C13.0648 5.21853 13.1818 5.42572 13.2542 5.64989C13.3265 5.87407 13.3527 6.11058 13.331 6.34514C13.2764 6.68557 13.0934 6.99213 12.8197 7.20173C12.5971 7.38654 12.3161 7.48631 12.0268 7.48326C11.9263 7.48793 11.8279 7.45354 11.7522 7.3873C11.6765 7.32106 11.6293 7.2281 11.6206 7.12788L10.8286 3.92675C10.8195 3.88325 10.8016 3.84204 10.7762 3.80559C10.7507 3.76915 10.7182 3.73822 10.6805 3.71465C10.6428 3.69108 10.6007 3.67536 10.5568 3.66843C10.5129 3.6615 10.468 3.6635 10.4249 3.67431C10.3818 3.68512 10.3413 3.70452 10.3059 3.73135C10.2704 3.75818 10.2407 3.79188 10.2186 3.83045C10.1965 3.86901 10.1824 3.91164 10.1771 3.95578C10.1719 3.99993 10.1756 4.04468 10.188 4.08736L10.98 7.28665C11.0351 7.51495 11.1598 7.72045 11.337 7.87462C11.5141 8.02878 11.7349 8.12395 11.9686 8.14693C12.4256 8.1708 12.8745 8.02038 13.2249 7.72602C13.3662 7.61423 13.4928 7.48487 13.6015 7.34111C13.9004 7.4858 14.1608 7.69933 14.3612 7.96417L19.8238 14.5418C21.0136 15.9753 20.9314 18.2747 20.4828 19.9611C20.4688 20.0124 20.4673 20.0663 20.4784 20.1184C20.4896 20.1704 20.513 20.219 20.5469 20.26C20.5807 20.3011 20.6239 20.3334 20.6728 20.3543C20.7218 20.3752 20.775 20.3841 20.828 20.3801C21.3901 20.3002 21.9221 20.0771 22.3731 19.7323C22.824 19.3875 23.1788 18.9326 23.4034 18.4113C23.4264 18.3624 23.4616 18.3203 23.5055 18.289C23.5495 18.2576 23.6008 18.2381 23.6544 18.2322C23.7637 18.222 23.8738 18.2406 23.9736 18.286C24.0735 18.3315 24.1598 18.4023 24.2239 18.4914C24.288 18.5805 24.3277 18.6848 24.339 18.7939C24.3504 18.9031 24.333 19.0133 24.2886 19.1137C23.8993 19.8661 23.2579 20.4578 22.4766 20.7853C22.0808 20.9932 21.6471 21.1188 21.2014 21.1545C20.7558 21.1902 20.3076 21.1353 19.8838 20.993C19.8308 20.9701 19.7727 20.9617 19.7155 20.9687C19.6582 20.9757 19.6038 20.9978 19.5579 21.0327C19.1843 21.3009 18.7337 21.4405 18.274 21.4306H12.3415C12.4095 21.0829 12.5794 20.7633 12.8296 20.5124C13.0797 20.2616 13.3989 20.0909 13.7464 20.022C13.967 20.2001 14.2055 20.3548 14.4581 20.4835C14.4973 20.5028 14.5399 20.5141 14.5835 20.5169C14.6271 20.5197 14.6709 20.5139 14.7122 20.4998C14.7536 20.4857 14.7917 20.4636 14.8246 20.4348C14.8574 20.4059 14.8842 20.3709 14.9035 20.3317C14.9227 20.2925 14.9341 20.2498 14.9369 20.2062C14.9397 20.1626 14.9339 20.1189 14.9198 20.0775C14.9057 20.0362 14.8836 19.998 14.8547 19.9652C14.8259 19.9324 14.7908 19.9056 14.7516 19.8863C14.2265 19.663 13.7871 19.2768 13.4984 18.7846C13.2097 18.2924 13.0869 17.7204 13.1483 17.1531C13.1671 17.0399 13.1943 16.9282 13.2295 16.819C13.4064 16.3507 13.7356 15.9555 14.1641 15.6969C14.5927 15.4383 15.0958 15.3312 15.5925 15.3929C15.6809 15.3929 15.7656 15.3578 15.8281 15.2953C15.8906 15.2328 15.9257 15.148 15.9257 15.0597C15.9257 14.9713 15.8906 14.8865 15.8281 14.824C15.7656 14.7615 15.6809 14.7264 15.5925 14.7264C14.9412 14.6759 14.2915 14.8435 13.7459 15.2028C13.2002 15.5621 12.7896 16.0927 12.5787 16.711L10.5877 20.478C10.4733 20.7264 10.342 20.9667 10.1945 21.197C10.1479 21.2762 10.0798 21.3405 9.99809 21.3825C9.9164 21.4245 9.82447 21.4424 9.73298 21.4343H7.96718C7.98109 21.162 8.05284 20.8958 8.17764 20.6534C8.39839 20.3541 8.72007 20.1449 9.08315 20.0645C9.14097 20.0488 9.19347 20.0178 9.23508 19.9748C9.27669 19.9317 9.30584 19.8782 9.31945 19.8198L10.1871 16.1932C10.2751 15.7911 10.2982 15.3776 10.2554 14.9683C10.1366 14.1209 9.87836 13.2991 9.49114 12.536C8.8634 11.3313 8.61742 9.96388 8.78593 8.61585C8.83715 8.14467 8.70836 7.67154 8.42539 7.29133C8.14242 6.91112 7.72618 6.65194 7.26013 6.56575L4.57589 5.98423C4.45739 5.94689 4.35354 5.87342 4.27889 5.7741C4.20423 5.67479 4.16252 5.55461 4.1596 5.4304C4.13267 5.27297 4.14616 5.11129 4.19879 4.9605C4.25142 4.80971 4.34148 4.67475 4.46051 4.56827C4.57866 4.48797 4.70451 4.41964 4.83619 4.36427C4.94582 4.3144 5.06911 4.26289 5.19815 4.20898C5.28641 4.17211 5.37737 4.13411 5.46848 4.09474C5.68976 4.01018 5.90294 3.90575 6.10539 3.78275C6.35092 3.61752 6.52261 3.49752 6.59276 3.27138C6.74137 2.76372 7.08347 2.33477 7.54535 2.07695C8.04405 1.80225 8.60621 1.66347 9.17546 1.6745V1.66988Z" fill="#0C6D7A"/>
<path d="M20.9425 2.59032C20.9425 2.33543 20.7359 2.1288 20.481 2.1288C20.2261 2.1288 20.0194 2.33543 20.0194 2.59032V5.38337H17.3352C17.0803 5.38337 16.8737 5.59 16.8737 5.84489C16.8737 6.09978 17.0803 6.30642 17.3352 6.30642H20.0194V9.12645C20.0194 9.38134 20.2261 9.58798 20.481 9.58798C20.7359 9.58798 20.9425 9.38134 20.9425 9.12645V6.30642H23.6314C23.8862 6.30642 24.0929 6.09978 24.0929 5.84489C24.0929 5.59 23.8862 5.38337 23.6314 5.38337H20.9425V2.59032Z" fill="#0C6D7A"/>
<path d="M1.46153 24.0769H24.5258C24.7807 24.0769 24.9873 24.2836 24.9873 24.5385C24.9873 24.7934 24.7807 25 24.5258 25H1.46153C1.20663 25 1 24.7934 1 24.5385C1 24.2836 1.20663 24.0769 1.46153 24.0769Z" fill="#0C6D7A"/>
<path d="M3.90094 10.4086C3.82505 10.3579 3.73581 10.3308 3.64453 10.3308C3.52213 10.3308 3.40473 10.3795 3.31818 10.466C3.23162 10.5526 3.18301 10.6699 3.18301 10.7923C3.18301 10.8836 3.21007 10.9729 3.26078 11.0488C3.31149 11.1247 3.38358 11.1838 3.46791 11.2187C3.55224 11.2537 3.64503 11.2628 3.73456 11.245C3.82409 11.2272 3.90633 11.1832 3.97087 11.1187C4.03542 11.0541 4.07938 10.9719 4.09718 10.8824C4.11499 10.7929 4.10585 10.7 4.07092 10.6157C4.03598 10.5314 3.97684 10.4593 3.90094 10.4086Z" stroke="#0C6D7A" stroke-width="0.3"/>
<path d="M7.67919 3.14943C7.77047 3.14943 7.85969 3.17651 7.93559 3.22722C8.01148 3.27793 8.07066 3.35001 8.10559 3.43435C8.14052 3.51868 8.14965 3.61147 8.13184 3.701C8.11403 3.79052 8.07008 3.87276 8.00553 3.93731C7.94099 4.00185 7.85875 4.04581 7.76922 4.06362C7.67969 4.08143 7.5869 4.07228 7.50257 4.03735C7.41824 4.00242 7.34615 3.94326 7.29544 3.86737C7.24473 3.79147 7.21766 3.70224 7.21766 3.61095C7.21766 3.48855 7.2663 3.37117 7.35285 3.28461C7.4394 3.19806 7.55679 3.14943 7.67919 3.14943Z" stroke="#0C6D7A" stroke-width="0.3"/>
<path fill-rule="evenodd" clip-rule="evenodd" d="M9.18192 1.00067C8.49475 0.987876 7.81653 1.15799 7.21674 1.49359C6.68265 1.78888 6.26789 2.26075 6.04354 2.82832C5.99823 2.98194 5.90017 3.11465 5.76663 3.20307C5.58741 3.31168 5.399 3.40435 5.20357 3.47999C5.13044 3.51165 5.05601 3.5433 4.98159 3.57496C4.83899 3.63561 4.6964 3.69625 4.56297 3.7569C4.37271 3.8314 4.19425 3.93307 4.03314 4.05874C3.82701 4.23877 3.67006 4.46827 3.57705 4.72566C3.48404 4.98306 3.45803 5.25988 3.50146 5.53009C3.52573 5.78749 3.62787 6.03139 3.79426 6.22928C3.96066 6.42717 4.1834 6.56965 4.43282 6.63775L7.12998 7.21927C7.42338 7.28312 7.68463 7.44893 7.86732 7.68722C8.05001 7.92551 8.1423 8.22085 8.12779 8.52076C7.94608 9.99159 8.20839 11.4831 8.881 12.8037C9.08593 13.2554 9.2668 13.7175 9.42283 14.1883C8.69156 13.6615 7.89272 13.2356 7.04782 12.9219C6.93544 12.8822 6.83681 12.8111 6.76366 12.717C6.69051 12.6229 6.64593 12.5098 6.63522 12.3911C6.58699 12.0676 6.60235 11.7377 6.68045 11.4201C6.76644 10.6954 6.67717 9.96072 6.42017 9.27774C6.16317 8.59476 5.74594 7.98347 5.20357 7.49526C5.13133 7.42575 5.04258 7.3758 4.94567 7.35012C4.84877 7.32444 4.74692 7.32388 4.64974 7.3485C4.53668 7.37131 4.43381 7.42946 4.35599 7.51459C4.27817 7.59971 4.22943 7.70738 4.21683 7.82203C4.18099 7.76517 4.12958 7.71981 4.06871 7.69133C4.00783 7.66286 3.94006 7.65247 3.87345 7.6614C3.7853 7.67885 3.70148 7.71362 3.62685 7.76369C3.55222 7.81376 3.48827 7.87814 3.4387 7.9531C3.28724 8.24224 3.23998 8.57472 3.30485 8.89461C3.04072 8.9777 2.79617 9.11345 2.58596 9.29367C2.37575 9.4739 2.20425 9.69484 2.08181 9.94319C1.98597 10.2059 1.81284 10.4334 1.58521 10.5958C1.38098 10.6974 1.2121 10.8583 1.10061 11.0573C0.988335 11.3103 0.977106 11.5966 1.06922 11.8576C1.13699 12.1975 1.26618 12.5222 1.45044 12.8157C1.74409 13.1053 2.12967 13.2833 2.54057 13.3188C2.72419 13.3366 2.89712 13.4133 3.03348 13.5376C3.08332 13.6031 3.09901 13.6539 3.04732 13.8052C2.49674 14.8838 2.34567 16.1225 2.62087 17.3017C2.90553 18.2626 2.83442 19.2939 2.42057 20.2066C2.09677 20.3185 1.81684 20.5303 1.6211 20.8114C1.42536 21.0926 1.32391 21.4287 1.33137 21.7712C1.33076 21.8148 1.3388 21.858 1.35503 21.8985C1.37126 21.9389 1.39535 21.9758 1.42592 22.0068C1.45648 22.0379 1.4929 22.0626 1.53308 22.0795C1.57326 22.0964 1.61639 22.1052 1.65998 22.1053H9.7339C9.92453 22.1041 10.1123 22.0588 10.2825 21.973C10.4527 21.8871 10.6008 21.7631 10.7151 21.6105C10.8909 21.3535 11.0429 21.0811 11.1692 20.7964L12.5483 18.187C12.6658 18.6601 12.8864 19.1014 13.1944 19.4792C12.7184 19.6477 12.3056 19.9581 12.0116 20.3686C11.7176 20.7791 11.5567 21.27 11.5505 21.7749C11.5497 21.8186 11.5577 21.862 11.574 21.9025C11.5902 21.9431 11.6144 21.98 11.6451 22.0111C11.6757 22.0422 11.7123 22.0669 11.7527 22.0837C11.793 22.1005 11.8363 22.1091 11.88 22.109H18.2777C18.8102 22.0998 19.3286 21.9356 19.7693 21.6364C20.7565 21.9535 21.8289 21.8693 22.7545 21.4019C23.6994 21.0167 24.4664 20.2925 24.9052 19.3712C25.0234 19.0787 25.0325 18.7533 24.9309 18.4546C24.8292 18.1558 24.6235 17.9036 24.3513 17.7439C24.1093 17.6008 23.8253 17.5457 23.5474 17.5879C23.3973 17.6147 23.255 17.6745 23.131 17.7631C23.0069 17.8518 22.9041 17.9669 22.8301 18.1002C22.6752 18.4493 22.4479 18.7615 22.1632 19.0161C21.8785 19.2708 21.543 19.462 21.1788 19.5771C21.548 17.8307 21.6145 15.6717 20.3315 14.1265L14.867 7.5488C14.6103 7.2192 14.2837 6.95061 13.9107 6.76236C13.9428 6.66197 13.9669 6.55919 13.9827 6.45498C14.0154 6.13344 13.9839 5.8086 13.8901 5.49931C13.7963 5.19002 13.642 4.90242 13.4363 4.65319C13.2463 4.39772 13.0552 4.14198 12.864 3.88597C12.7023 3.66952 12.5399 3.45222 12.3784 3.23538C12.0609 2.64085 11.6565 2.09703 11.1785 1.62189C10.5946 1.21419 9.89671 1.00159 9.18469 1.01452L9.18192 1.00067ZM4.78081 8.01494C5.21201 8.43407 5.54797 8.94109 5.76585 9.50156C5.98373 10.062 6.07844 10.6628 6.04354 11.2632C5.92962 11.6785 5.91414 12.1146 5.99832 12.537C6.04251 12.7576 6.14007 12.9641 6.28247 13.1384C6.42487 13.3126 6.60778 13.4494 6.81522 13.5366C7.85659 13.8992 8.811 14.4748 9.6176 15.2267C9.6272 15.5002 9.60176 15.7738 9.54191 16.0409L8.70193 19.5595C8.28691 19.6835 7.91809 19.928 7.64227 20.262C7.40681 20.6094 7.26733 21.0128 7.23797 21.4315H5.01711C5.0101 21.2623 5.06443 21.0963 5.17009 20.964C5.27576 20.8317 5.42565 20.7421 5.59217 20.7115L6.07031 20.982C6.10953 21.0011 6.15213 21.0123 6.19569 21.015C6.23924 21.0177 6.28291 21.0118 6.32418 20.9976C6.36545 20.9834 6.40352 20.9613 6.43622 20.9324C6.46892 20.9035 6.49561 20.8684 6.51476 20.8292C6.53392 20.79 6.54516 20.7474 6.54784 20.7038C6.55053 20.6603 6.54461 20.6166 6.53043 20.5753C6.51624 20.5341 6.49407 20.496 6.46517 20.4633C6.43627 20.4306 6.40121 20.4039 6.362 20.3847C5.92784 20.2081 5.56324 19.8945 5.32365 19.4916C5.08406 19.0887 4.98259 18.6186 5.03465 18.1528C5.15926 17.3784 5.77309 16.7202 7.05059 16.7202C7.09577 16.7226 7.14095 16.7158 7.18339 16.7001C7.22584 16.6845 7.26465 16.6604 7.29746 16.6292C7.33028 16.5981 7.35642 16.5606 7.37428 16.519C7.39214 16.4775 7.40135 16.4327 7.40135 16.3875C7.40135 16.3422 7.39214 16.2975 7.37428 16.2559C7.35642 16.2143 7.33028 16.1769 7.29746 16.1457C7.26465 16.1146 7.22584 16.0905 7.18339 16.0748C7.14095 16.0592 7.09577 16.0523 7.05059 16.0547C6.43922 16.0022 5.82984 16.1761 5.33823 16.5433C4.84661 16.9105 4.507 17.4455 4.3839 18.0467C4.32985 18.4284 4.35966 18.8173 4.47125 19.1864C4.58284 19.5554 4.77353 19.8957 5.03003 20.1835C4.79016 20.3048 4.58235 20.4811 4.42354 20.698C4.26474 20.9149 4.15943 21.1662 4.11621 21.4315H2.23042C2.24702 21.3878 2.26297 21.3429 2.27895 21.298C2.37937 21.0158 2.48068 20.731 2.74825 20.7087C2.81226 20.7033 2.87327 20.6792 2.92378 20.6395C2.97429 20.5998 3.01209 20.5462 3.03255 20.4854C3.4891 19.4258 3.57019 18.242 3.26239 17.1301C3.08978 16.4424 2.94948 15.8738 3.66854 14.0286C3.67026 14.0253 3.6718 14.0219 3.67315 14.0185C3.72916 13.8704 3.74785 13.7109 3.72756 13.5539C3.70728 13.397 3.64864 13.2474 3.55685 13.1185C3.32751 12.8599 3.0105 12.6955 2.66702 12.657C2.2055 12.5693 2.04212 12.4779 1.9572 12.38C1.83722 12.1664 1.75479 11.9339 1.71351 11.6924C1.69068 11.6439 1.6781 11.5913 1.67656 11.5378C1.67502 11.4843 1.68456 11.431 1.70458 11.3813C1.72461 11.3317 1.75467 11.2867 1.7929 11.2492C1.83113 11.2117 1.8767 11.1825 1.92674 11.1635C2.27841 10.9246 2.54762 10.5829 2.69748 10.185C2.79282 9.98603 2.92974 9.80979 3.09901 9.66823C3.26828 9.52666 3.46596 9.42307 3.67869 9.36443C3.76357 9.34132 3.83582 9.28549 3.8796 9.20918C3.92338 9.13287 3.93511 9.04232 3.91222 8.95737C3.88528 8.8716 3.87596 8.78126 3.88484 8.69179C3.89373 8.60233 3.92063 8.51558 3.96391 8.43678L4.32575 8.79953C4.55928 9.14752 4.98481 8.89184 4.78727 8.52262C4.72709 8.45261 4.69347 8.36365 4.69229 8.27134C4.69111 8.17903 4.72244 8.08923 4.78081 8.0177V8.01494ZM9.17546 1.66988C9.74604 1.65804 10.3063 1.82278 10.7797 2.14156C11.1858 2.59899 11.5452 3.09591 11.8523 3.62491L12.9101 5.04087C13.0648 5.21853 13.1818 5.42572 13.2542 5.64989C13.3265 5.87407 13.3527 6.11058 13.331 6.34514C13.2764 6.68557 13.0934 6.99213 12.8197 7.20173C12.5971 7.38654 12.3161 7.48631 12.0268 7.48326C11.9263 7.48793 11.8279 7.45354 11.7522 7.3873C11.6765 7.32106 11.6293 7.2281 11.6206 7.12788L10.8286 3.92675C10.8195 3.88325 10.8016 3.84204 10.7762 3.80559C10.7507 3.76915 10.7182 3.73822 10.6805 3.71465C10.6428 3.69108 10.6007 3.67536 10.5568 3.66843C10.5129 3.6615 10.468 3.6635 10.4249 3.67431C10.3818 3.68512 10.3413 3.70452 10.3059 3.73135C10.2704 3.75818 10.2407 3.79188 10.2186 3.83045C10.1965 3.86901 10.1824 3.91164 10.1771 3.95578C10.1719 3.99993 10.1756 4.04468 10.188 4.08736L10.98 7.28665C11.0351 7.51495 11.1598 7.72045 11.337 7.87462C11.5141 8.02878 11.7349 8.12395 11.9686 8.14693C12.4256 8.1708 12.8745 8.02038 13.2249 7.72602C13.3662 7.61423 13.4928 7.48487 13.6015 7.34111C13.9004 7.4858 14.1608 7.69933 14.3612 7.96417L19.8238 14.5418C21.0136 15.9753 20.9314 18.2747 20.4828 19.9611C20.4688 20.0124 20.4673 20.0663 20.4784 20.1184C20.4896 20.1704 20.513 20.219 20.5469 20.26C20.5807 20.3011 20.6239 20.3334 20.6728 20.3543C20.7218 20.3752 20.775 20.3841 20.828 20.3801C21.3901 20.3002 21.9221 20.0771 22.3731 19.7323C22.824 19.3875 23.1788 18.9326 23.4034 18.4113C23.4264 18.3624 23.4616 18.3203 23.5055 18.289C23.5495 18.2576 23.6008 18.2381 23.6544 18.2322C23.7637 18.222 23.8738 18.2406 23.9736 18.286C24.0735 18.3315 24.1598 18.4023 24.2239 18.4914C24.288 18.5805 24.3277 18.6848 24.339 18.7939C24.3504 18.9031 24.333 19.0133 24.2886 19.1137C23.8993 19.8661 23.2579 20.4578 22.4766 20.7853C22.0808 20.9932 21.6471 21.1188 21.2014 21.1545C20.7558 21.1902 20.3076 21.1353 19.8838 20.993C19.8308 20.9701 19.7727 20.9617 19.7155 20.9687C19.6582 20.9757 19.6038 20.9978 19.5579 21.0327C19.1843 21.3009 18.7337 21.4405 18.274 21.4306H12.3415C12.4095 21.0829 12.5794 20.7633 12.8296 20.5124C13.0797 20.2616 13.3989 20.0909 13.7464 20.022C13.967 20.2001 14.2055 20.3548 14.4581 20.4835C14.4973 20.5028 14.5399 20.5141 14.5835 20.5169C14.6271 20.5197 14.6709 20.5139 14.7122 20.4998C14.7536 20.4857 14.7917 20.4636 14.8246 20.4348C14.8574 20.4059 14.8842 20.3709 14.9035 20.3317C14.9227 20.2925 14.9341 20.2498 14.9369 20.2062C14.9397 20.1626 14.9339 20.1189 14.9198 20.0775C14.9057 20.0362 14.8836 19.998 14.8547 19.9652C14.8259 19.9324 14.7908 19.9056 14.7516 19.8863C14.2265 19.663 13.7871 19.2768 13.4984 18.7846C13.2097 18.2924 13.0869 17.7204 13.1483 17.1531C13.1671 17.0399 13.1943 16.9282 13.2295 16.819C13.4064 16.3507 13.7356 15.9555 14.1641 15.6969C14.5927 15.4383 15.0958 15.3312 15.5925 15.3929C15.6809 15.3929 15.7656 15.3578 15.8281 15.2953C15.8906 15.2328 15.9257 15.148 15.9257 15.0597C15.9257 14.9713 15.8906 14.8865 15.8281 14.824C15.7656 14.7615 15.6809 14.7264 15.5925 14.7264C14.9412 14.6759 14.2915 14.8435 13.7459 15.2028C13.2002 15.5621 12.7896 16.0927 12.5787 16.711L10.5877 20.478C10.4733 20.7264 10.342 20.9667 10.1945 21.197C10.1479 21.2762 10.0798 21.3405 9.99809 21.3825C9.9164 21.4245 9.82447 21.4424 9.73298 21.4343H7.96718C7.98109 21.162 8.05284 20.8958 8.17764 20.6534C8.39839 20.3541 8.72007 20.1449 9.08315 20.0645C9.14097 20.0488 9.19347 20.0178 9.23508 19.9748C9.27669 19.9317 9.30584 19.8782 9.31945 19.8198L10.1871 16.1932C10.2751 15.7911 10.2982 15.3776 10.2554 14.9683C10.1366 14.1209 9.87836 13.2991 9.49114 12.536C8.8634 11.3313 8.61742 9.96388 8.78593 8.61585C8.83715 8.14467 8.70836 7.67154 8.42539 7.29133C8.14242 6.91112 7.72618 6.65194 7.26013 6.56575L4.57589 5.98423C4.45739 5.94689 4.35354 5.87342 4.27889 5.7741C4.20423 5.67479 4.16252 5.55461 4.1596 5.4304C4.13267 5.27297 4.14616 5.11129 4.19879 4.9605C4.25142 4.80971 4.34148 4.67475 4.46051 4.56827C4.57866 4.48797 4.70451 4.41964 4.83619 4.36427C4.94582 4.3144 5.06911 4.26289 5.19815 4.20898C5.28641 4.17211 5.37737 4.13411 5.46848 4.09474C5.68976 4.01018 5.90294 3.90575 6.10539 3.78275C6.35092 3.61752 6.52261 3.49752 6.59276 3.27138C6.74137 2.76372 7.08347 2.33477 7.54535 2.07695C8.04405 1.80225 8.60621 1.66347 9.17546 1.6745V1.66988Z" stroke="#0C6D7A" stroke-width="0.3"/>
<path d="M20.9425 2.59032C20.9425 2.33543 20.7359 2.1288 20.481 2.1288C20.2261 2.1288 20.0194 2.33543 20.0194 2.59032V5.38337H17.3352C17.0803 5.38337 16.8737 5.59 16.8737 5.84489C16.8737 6.09978 17.0803 6.30642 17.3352 6.30642H20.0194V9.12645C20.0194 9.38134 20.2261 9.58798 20.481 9.58798C20.7359 9.58798 20.9425 9.38134 20.9425 9.12645V6.30642H23.6314C23.8862 6.30642 24.0929 6.09978 24.0929 5.84489C24.0929 5.59 23.8862 5.38337 23.6314 5.38337H20.9425V2.59032Z" stroke="#0C6D7A" stroke-width="0.3"/>
<path d="M1.46153 24.0769H24.5258C24.7807 24.0769 24.9873 24.2836 24.9873 24.5385C24.9873 24.7934 24.7807 25 24.5258 25H1.46153C1.20663 25 1 24.7934 1 24.5385C1 24.2836 1.20663 24.0769 1.46153 24.0769Z" stroke="#0C6D7A" stroke-width="0.3"/>
</svg>
