<svg width="24" height="27" viewBox="0 0 24 27" fill="none" xmlns="http://www.w3.org/2000/svg">
<rect y="0.207031" width="24" height="24" rx="3" fill="url(#paint0_linear_1_204)"/>
<path d="M11.7292 5.20703C12.2562 5.21277 12.781 5.2738 13.2958 5.38868C13.4053 5.41312 13.5045 5.47117 13.5794 5.55472C13.6543 5.63826 13.7013 5.74312 13.7137 5.85464L13.8357 6.95098C13.853 7.10554 13.9062 7.25391 13.9913 7.38413C14.0763 7.51436 14.1907 7.6228 14.3253 7.70074C14.4599 7.77869 14.6109 7.82395 14.7661 7.83289C14.9214 7.84184 15.0766 7.81421 15.2193 7.75223L16.2244 7.31068C16.3265 7.2657 16.4401 7.25356 16.5494 7.27594C16.6588 7.29832 16.7584 7.35411 16.8347 7.43561C17.5615 8.21174 18.1027 9.1426 18.4178 10.1581C18.4507 10.2649 18.4496 10.3793 18.4146 10.4855C18.3797 10.5916 18.3125 10.6842 18.2225 10.7505L17.3315 11.4081C17.206 11.5001 17.1039 11.6204 17.0335 11.7593C16.9632 11.8981 16.9265 12.0516 16.9265 12.2072C16.9265 12.3629 16.9632 12.5163 17.0335 12.6552C17.1039 12.794 17.206 12.9143 17.3315 13.0063L18.224 13.6633C18.3141 13.7296 18.3813 13.8223 18.4163 13.9286C18.4513 14.0349 18.4523 14.1494 18.4192 14.2563C18.1043 15.2717 17.5633 16.2026 16.8368 16.9788C16.7607 17.0603 16.6612 17.1161 16.5521 17.1387C16.4429 17.1612 16.3294 17.1492 16.2273 17.1045L15.2178 16.6615C15.0754 16.599 14.9202 16.571 14.7649 16.5796C14.6096 16.5883 14.4585 16.6334 14.3239 16.7112C14.1892 16.7891 14.0748 16.8976 13.9899 17.0279C13.905 17.1582 13.8519 17.3067 13.835 17.4613L13.713 18.5569C13.7008 18.6672 13.6549 18.7709 13.5815 18.8541C13.5081 18.9372 13.4108 18.9957 13.303 19.0215C12.2631 19.2689 11.1796 19.2689 10.1396 19.0215C10.0316 18.9958 9.93423 18.9374 9.86072 18.8542C9.78721 18.7711 9.74118 18.6673 9.72895 18.5569L9.60761 17.4628C9.58999 17.3086 9.53646 17.1608 9.45134 17.031C9.36621 16.9013 9.25185 16.7934 9.11745 16.7159C8.98305 16.6384 8.83234 16.5935 8.67744 16.5848C8.52254 16.5761 8.36776 16.6038 8.22552 16.6658L7.21606 17.1081C7.11386 17.153 7.00024 17.165 6.8909 17.1425C6.78157 17.12 6.68194 17.064 6.60579 16.9824C5.87925 16.2053 5.33846 15.2734 5.0241 14.257C4.991 14.1501 4.99202 14.0356 5.02702 13.9293C5.06202 13.823 5.12925 13.7303 5.21939 13.664L6.11182 13.0063C6.23736 12.9143 6.33945 12.794 6.40982 12.6552C6.48019 12.5163 6.51686 12.3629 6.51686 12.2072C6.51686 12.0516 6.48019 11.8981 6.40982 11.7593C6.33945 11.6204 6.23736 11.5001 6.11182 11.4081L5.21939 10.7519C5.12925 10.6856 5.06202 10.5929 5.02702 10.4866C4.99202 10.3803 4.991 10.2657 5.0241 10.1589C5.33916 9.14332 5.88044 8.21246 6.60722 7.43632C6.68346 7.35483 6.78313 7.29904 6.89246 7.27666C7.00179 7.25428 7.11537 7.26642 7.21749 7.3114L8.22265 7.75295C8.36554 7.81489 8.52097 7.84245 8.67644 7.83342C8.83192 7.82439 8.98311 7.77903 9.11787 7.70096C9.25263 7.6229 9.3672 7.51432 9.45238 7.38394C9.53756 7.25356 9.59097 7.10503 9.60833 6.95026L9.73038 5.85464C9.7427 5.74289 9.78969 5.6378 9.86476 5.55411C9.93983 5.47041 10.0392 5.41232 10.149 5.38796C10.668 5.27324 11.1976 5.2126 11.7292 5.20703ZM11.7206 10.0533C11.1493 10.0533 10.6015 10.2802 10.1976 10.6842C9.79362 11.0881 9.56669 11.636 9.56669 12.2072C9.56669 12.7785 9.79362 13.3263 10.1976 13.7303C10.6015 14.1342 11.1493 14.3611 11.7206 14.3611C12.2918 14.3611 12.8397 14.1342 13.2436 13.7303C13.6476 13.3263 13.8745 12.7785 13.8745 12.2072C13.8745 11.636 13.6476 11.0881 13.2436 10.6842C12.8397 10.2802 12.2918 10.0533 11.7206 10.0533Z" fill="white"/>
<defs>
<linearGradient id="paint0_linear_1_204" x1="11.9999" y1="0.206931" x2="11.9999" y2="24.207" gradientUnits="userSpaceOnUse">
<stop stop-color="#04E0FF"/>
<stop offset="1" stop-color="#0D7684"/>
</linearGradient>
</defs>
</svg>
