<svg width="26" height="26" viewBox="0 0 26 26" fill="none" xmlns="http://www.w3.org/2000/svg">
<g clip-path="url(#clip0_2943_1563)">
<rect x="1" y="1" width="24" height="24" rx="3" fill="url(#paint0_linear_2943_1563)"/>
<path d="M14.1827 5.97815C13.9414 6.14973 13.8878 6.48487 14.0594 6.72617C14.2337 6.96749 14.5688 7.02106 14.8074 6.84949C16.4536 5.66979 18.6869 5.8521 20.124 7.28648C21.7326 8.89513 21.7326 11.5092 20.124 13.1178L13.2014 20.0377L6.2789 13.1178C4.67025 11.5092 4.67025 8.89513 6.2789 7.28648C7.88754 5.67783 10.5016 5.67783 12.1102 7.28648L12.8208 7.99699C13.0299 8.2061 13.3704 8.2061 13.5795 7.99699C13.7886 7.78788 13.7886 7.44732 13.5795 7.23822L12.869 6.52771C10.8448 4.50084 7.54707 4.50084 5.52285 6.52771C4.54153 7.50903 4 8.81467 4 10.2008C4 11.5869 4.54153 12.8926 5.52285 13.8739L12.8208 21.1718C12.9012 21.2522 12.9977 21.3005 13.1023 21.3193C13.1371 21.3246 13.172 21.33 13.2069 21.33C13.3436 21.33 13.4803 21.2764 13.5849 21.1719L20.8828 13.874C21.8642 12.8926 22.4057 11.587 22.4057 10.2009C22.4057 8.81478 21.8642 7.50908 20.8828 6.5278C19.073 4.72069 16.2553 4.49011 14.1828 5.97813L14.1827 5.97815Z" fill="white" stroke="white" stroke-width="0.2"/>
</g>
<rect x="0.5" y="0.5" width="25" height="25" rx="3.5" stroke="url(#paint1_linear_2943_1563)"/>
<defs>
<linearGradient id="paint0_linear_2943_1563" x1="12.9999" y1="0.9999" x2="12.9999" y2="24.9999" gradientUnits="userSpaceOnUse">
<stop stop-color="#0072E0"/>
<stop offset="1" stop-color="#00376C"/>
</linearGradient>
<linearGradient id="paint1_linear_2943_1563" x1="12.9999" y1="0.9999" x2="12.9999" y2="24.9999" gradientUnits="userSpaceOnUse">
<stop offset="0.258333" stop-color="#04E0FF"/>
<stop offset="1" stop-color="#0D7684"/>
</linearGradient>
<clipPath id="clip0_2943_1563">
<rect x="1" y="1" width="24" height="24" rx="3" fill="white"/>
</clipPath>
</defs>
</svg>
