<svg width="24" height="25" viewBox="0 0 24 25" fill="none" xmlns="http://www.w3.org/2000/svg">
<g clip-path="url(#clip0_299_3433)">
<rect y="0.441406" width="24" height="24" rx="3" fill="url(#paint0_linear_299_3433)"/>
<path d="M8 12.8414H10M10 12.8414H12M10 12.8414V14.8414M10 12.8414V10.8414M4 12.4414V13.2414C4 15.8714 4 17.1864 4.72637 18.0715C4.85934 18.2335 5.00791 18.382 5.16994 18.515C6.05502 19.2414 7.37002 19.2414 10 19.2414C12.63 19.2414 13.945 19.2414 14.8301 18.515C14.9921 18.382 15.1406 18.2335 15.2736 18.0715C16 17.1864 16 15.8714 16 13.2414V12.4414C16 9.81142 16 8.49643 15.2736 7.61135C15.1406 7.44932 14.9921 7.30075 14.8301 7.16777C13.945 6.44141 12.63 6.44141 10 6.44141C7.37002 6.44141 6.05502 6.44141 5.16994 7.16777C5.00791 7.30075 4.85934 7.44932 4.72637 7.61135C4.38411 8.02839 4.20312 8.54088 4.10742 9.24141M16 10.8416L16.5267 10.5782C18.0834 9.79986 18.8618 9.41069 19.4309 9.76242C20 10.1142 20 10.9844 20 12.7248V12.9583C20 14.6988 20 15.5689 19.4309 15.9207C18.8618 16.2724 18.0834 15.8832 16.5267 15.1049L16 14.8416V10.8416Z" stroke="white" stroke-linecap="round"/>
</g>
<rect x="0.5" y="0.941406" width="23" height="23" rx="2.5" stroke="url(#paint1_linear_299_3433)"/>
<defs>
<linearGradient id="paint0_linear_299_3433" x1="11.9999" y1="0.441306" x2="11.9999" y2="24.4413" gradientUnits="userSpaceOnUse">
<stop stop-color="#0072E0"/>
<stop offset="1" stop-color="#00376C"/>
</linearGradient>
<linearGradient id="paint1_linear_299_3433" x1="11.9999" y1="0.441306" x2="11.9999" y2="24.4413" gradientUnits="userSpaceOnUse">
<stop offset="0.305208" stop-color="#04E0FF"/>
<stop offset="1" stop-color="#0D7684"/>
</linearGradient>
<clipPath id="clip0_299_3433">
<rect y="0.441406" width="24" height="24" rx="3" fill="white"/>
</clipPath>
</defs>
</svg>
