<svg width="24" height="25" viewBox="0 0 24 25" fill="none" xmlns="http://www.w3.org/2000/svg">
<g clip-path="url(#clip0_299_3438)">
<rect y="0.441406" width="24" height="24" rx="3" fill="url(#paint0_linear_299_3438)"/>
<path d="M18.9452 11.078C19.0822 10.6665 19.152 10.2356 19.1521 9.8019C19.1521 9.08423 18.9609 8.37952 18.5983 7.76021C17.8696 6.49186 16.5179 5.7088 15.055 5.7088C14.7668 5.7088 14.4795 5.73924 14.1976 5.7996C13.8186 5.37255 13.3534 5.0307 12.8325 4.79658C12.3117 4.56247 11.7472 4.44142 11.1762 4.44141H11.1506L11.141 4.44146C9.36915 4.44146 7.79786 5.58476 7.25319 7.27023C6.68939 7.38571 6.15676 7.62029 5.69095 7.95828C5.22515 8.29627 4.83692 8.72987 4.55226 9.23005C4.19073 9.85309 4.00022 10.5606 4 11.2809C4.00014 12.2932 4.37592 13.2695 5.05458 14.0207C4.91759 14.4322 4.84772 14.8631 4.84766 15.2968C4.84773 16.0144 5.03889 16.7191 5.4015 17.3385C5.83272 18.0893 6.49124 18.6837 7.28211 19.0361C8.07298 19.3884 8.95532 19.4805 9.8019 19.299C10.181 19.7261 10.6463 20.0679 11.1671 20.302C11.688 20.5362 12.2525 20.6572 12.8235 20.6573H12.8492L12.8596 20.6572C14.6324 20.6572 16.2032 19.5139 16.7478 17.8269C17.3116 17.7113 17.8443 17.4767 18.3101 17.1387C18.7759 16.8007 19.1641 16.3672 19.4488 15.867C19.8099 15.2445 20.0001 14.5376 20 13.8179C19.9999 12.8056 19.6241 11.8294 18.9454 11.0782L18.9452 11.078ZM12.8502 19.5971H12.846C12.1367 19.5969 11.4498 19.348 10.9049 18.8938C10.9373 18.8764 10.9693 18.8583 11.0008 18.8395L14.2296 16.9745C14.3102 16.9286 14.3771 16.8623 14.4238 16.7821C14.4704 16.702 14.4949 16.6109 14.495 16.5182V11.9632L15.8597 12.7512C15.8668 12.7548 15.873 12.76 15.8777 12.7666C15.8823 12.7731 15.8852 12.7807 15.8862 12.7886V16.5582C15.8844 18.2342 14.5263 19.5937 12.8502 19.5971ZM6.32112 16.8086C6.05442 16.3474 5.91391 15.8242 5.91374 15.2915C5.91374 15.1177 5.92891 14.9435 5.95846 14.7723C5.98246 14.7867 6.02436 14.8123 6.05442 14.8296L9.28315 16.6946C9.36365 16.7415 9.45519 16.7663 9.5484 16.7663C9.64161 16.7663 9.73314 16.7415 9.81362 16.6944L13.7556 14.4183V15.9944L13.7556 15.9971C13.7556 16.0047 13.7539 16.0122 13.7505 16.0189C13.7471 16.0257 13.7422 16.0316 13.7361 16.0362L10.4721 17.9207C10.0103 18.1865 9.48681 18.3265 8.95395 18.3266C8.42053 18.3266 7.8965 18.1863 7.4344 17.9198C6.9723 17.6533 6.58838 17.27 6.32112 16.8084V16.8086ZM5.4717 9.75994C5.82632 9.144 6.38626 8.67238 7.05352 8.42762C7.05352 8.45542 7.05194 8.50467 7.05194 8.53887V12.2689L7.05188 12.272C7.05189 12.3646 7.07642 12.4555 7.12296 12.5356C7.16951 12.6157 7.23641 12.682 7.31688 12.7279L11.2588 15.0036L9.89418 15.7916C9.88744 15.7961 9.87972 15.7988 9.87169 15.7995C9.86366 15.8002 9.85557 15.799 9.84815 15.7958L6.58386 13.9097C6.1224 13.6424 5.73931 13.2585 5.47298 12.7965C5.20664 12.3344 5.06642 11.8105 5.06636 11.2772C5.06656 10.7448 5.20638 10.2217 5.47187 9.76011L5.4717 9.75994ZM16.6841 12.3692L12.7422 10.0931L14.1069 9.3054C14.1136 9.30096 14.1214 9.29825 14.1294 9.29752C14.1374 9.29679 14.1455 9.29806 14.1529 9.30121L17.4172 11.1857C17.879 11.4526 18.2625 11.8363 18.5291 12.2983C18.7958 12.7603 18.9362 13.2843 18.9364 13.8177C18.9364 15.0909 18.1419 16.2301 16.9474 16.6698V12.8282C16.9476 12.8268 16.9476 12.8254 16.9476 12.8239C16.9475 12.7317 16.9232 12.641 16.8769 12.5612C16.8307 12.4813 16.7642 12.4151 16.6841 12.3692ZM18.0424 10.3248C18.0107 10.3054 17.9787 10.2863 17.9465 10.2676L14.7178 8.4026C14.6373 8.35569 14.5458 8.33096 14.4526 8.33093C14.3595 8.33096 14.268 8.35569 14.1875 8.4026L10.2455 10.6787V9.10267L10.2454 9.09995C10.2454 9.08456 10.2527 9.07006 10.265 9.06083L13.5289 7.1779C13.9906 6.91173 14.5142 6.77161 15.0471 6.77159C16.7253 6.77159 18.0863 8.13256 18.0863 9.81078C18.0862 9.983 18.0715 10.1549 18.0424 10.3247V10.3248ZM9.50349 13.1338L8.1385 12.3458C8.13134 12.3423 8.12517 12.337 8.12054 12.3305C8.1159 12.3239 8.11296 12.3164 8.11195 12.3084V8.53875C8.11269 6.86143 9.47366 5.50159 11.1511 5.50159C11.8616 5.50174 12.5496 5.75063 13.0957 6.20506C13.0712 6.21848 13.0283 6.24214 12.9998 6.25941L9.7711 8.1244C9.69054 8.17024 9.62355 8.23658 9.57694 8.3167C9.53034 8.39682 9.50578 8.48785 9.50576 8.58053V8.58353L9.50349 13.1338ZM10.2448 11.5355L12.0005 10.5214L13.7562 11.5348V13.5622L12.0005 14.5756L10.2448 13.5622V11.5355Z" fill="white"/>
</g>
<rect x="0.5" y="0.941406" width="23" height="23" rx="2.5" stroke="url(#paint1_linear_299_3438)"/>
<defs>
<linearGradient id="paint0_linear_299_3438" x1="11.9999" y1="0.441306" x2="11.9999" y2="24.4413" gradientUnits="userSpaceOnUse">
<stop stop-color="#0072E0"/>
<stop offset="1" stop-color="#00376C"/>
</linearGradient>
<linearGradient id="paint1_linear_299_3438" x1="11.9999" y1="0.441306" x2="11.9999" y2="24.4413" gradientUnits="userSpaceOnUse">
<stop offset="0.320833" stop-color="#04E0FF"/>
<stop offset="1" stop-color="#0D7684"/>
</linearGradient>
<clipPath id="clip0_299_3438">
<rect y="0.441406" width="24" height="24" rx="3" fill="white"/>
</clipPath>
</defs>
</svg>
