<svg width="24" height="25" viewBox="0 0 24 25" fill="none" xmlns="http://www.w3.org/2000/svg">
<rect x="0.5" y="0.941406" width="23" height="23" rx="2.5" fill="url(#paint0_linear_299_3436)"/>
<path d="M19 7.363H5M6.89549 5.44141V7.363M8.79071 5.44141V7.363M10.6487 5.44141V7.363M13.6813 11.1512L10.1909 13.0934M10.3125 14.0819L13.964 15.4225M18.2432 5.44141H5.75676C5.3388 5.44141 5 5.78021 5 6.19816V18.6847C5 19.1026 5.3388 19.4414 5.75676 19.4414H18.2432C18.6612 19.4414 19 19.1026 19 18.6847V6.19816C19 5.78021 18.6612 5.44141 18.2432 5.44141ZM10.3581 13.7374C10.3581 14.4688 9.76515 15.0617 9.03374 15.0617C8.30234 15.0617 7.70942 14.4688 7.70942 13.7374C7.70942 13.0059 8.30234 12.413 9.03374 12.413C9.76515 12.413 10.3581 13.0059 10.3581 13.7374ZM16.1478 10.4809C16.1478 11.2123 15.5549 11.8052 14.8235 11.8052C14.0921 11.8052 13.4991 11.2123 13.4991 10.4809C13.4991 9.74947 14.0921 9.15655 14.8235 9.15655C15.5549 9.15655 16.1478 9.74947 16.1478 10.4809ZM16.5315 15.8789C16.5315 16.6103 15.9386 17.2032 15.2072 17.2032C14.4758 17.2032 13.8829 16.6103 13.8829 15.8789C13.8829 15.1475 14.4758 14.5545 15.2072 14.5545C15.9386 14.5545 16.5315 15.1475 16.5315 15.8789Z" stroke="white" stroke-linecap="round" stroke-linejoin="round"/>
<rect x="0.5" y="0.941406" width="23" height="23" rx="2.5" stroke="url(#paint1_linear_299_3436)"/>
<defs>
<linearGradient id="paint0_linear_299_3436" x1="11.9999" y1="0.441306" x2="11.9999" y2="24.4413" gradientUnits="userSpaceOnUse">
<stop stop-color="#0072E0"/>
<stop offset="1" stop-color="#00376C"/>
</linearGradient>
<linearGradient id="paint1_linear_299_3436" x1="11.9999" y1="0.441306" x2="11.9999" y2="24.4413" gradientUnits="userSpaceOnUse">
<stop offset="0.336458" stop-color="#04E0FF"/>
<stop offset="1" stop-color="#0D7684"/>
</linearGradient>
</defs>
</svg>
