<svg width="19" height="16" viewBox="0 0 19 16" fill="none" xmlns="http://www.w3.org/2000/svg">
<path fill-rule="evenodd" clip-rule="evenodd" d="M18.3214 0H10.8571L10.3821 0.202532L9.5 1.06667L8.61786 0.202532L8.14286 0H0.678571L0 0.675105V14.1772L0.678571 14.8523H7.85786L9.025 16H9.975L11.1421 14.8523H18.3214L19 14.1772V0.675105L18.3214 0ZM8.82143 13.9342L8.57714 13.7046L8.14286 13.5021H1.35714V1.35021H7.85786L8.86214 2.34937L8.82143 13.9342ZM17.6429 13.5021H10.8571L10.3821 13.7046L10.1921 13.8802V2.29536L11.1421 1.35021H17.6429V13.5021ZM6.78571 4.05063H2.71429V5.40084H6.78571V4.05063ZM6.78571 9.45148H2.71429V10.8017H6.78571V9.45148ZM2.71429 6.75105H6.78571V8.10126H2.71429V6.75105ZM16.2857 4.05063H12.2143V5.40084H16.2857V4.05063ZM12.2143 6.75105H16.2857V8.10126H12.2143V6.75105ZM12.2143 9.45148H16.2857V10.8017H12.2143V9.45148Z" fill="#00BBD6"/>
</svg>
