<svg width="42" height="42" viewBox="0 0 42 42" fill="none" xmlns="http://www.w3.org/2000/svg">
<path d="M38.5625 5.77829C38.5772 6.42933 38.462 7.07675 38.2237 7.68254C37.9855 8.28833 37.6289 8.84029 37.1751 9.30599C36.7212 9.7717 36.1791 10.1418 35.5806 10.3945C35.3019 10.5122 35.0136 10.6033 34.7195 10.6671H36.7831C37.9015 10.6671 38.9741 11.1126 39.7649 11.9057C40.5557 12.6988 41 13.7744 41 14.8959V22.8891C41 23.5374 40.7432 24.1592 40.2861 24.6176C39.8289 25.076 39.209 25.3336 38.5625 25.3336V40H28.8125V25.3336C28.166 25.3336 27.546 25.076 27.0889 24.6176C26.6318 24.1592 26.375 23.5374 26.375 22.8891V14.8959C26.375 13.7744 26.8193 12.6988 27.6101 11.9057C28.4009 11.1126 29.4735 10.6671 30.5919 10.6671H32.658C32.3647 10.6035 32.0771 10.5127 31.7991 10.3954C31.2005 10.143 30.6582 9.77322 30.2041 9.30774C29.75 8.84226 29.3932 8.29049 29.1546 7.68482C28.9161 7.07915 28.8006 6.43178 28.8149 5.78073C28.8431 4.50338 29.3688 3.28784 30.2795 2.39433C31.1902 1.50081 32.4135 1.00032 33.6875 1C34.9616 0.999681 36.1851 1.49955 37.0963 2.39262C38.0074 3.28568 38.5337 4.50095 38.5625 5.77829Z" stroke="#0353A3" stroke-linejoin="round"/>
<path d="M8.28299 13.1115H6.21687C5.82094 13.1115 5.43068 13.1675 5.05661 13.275C4.90274 13.3192 4.75121 13.3723 4.60277 13.434C4.09107 13.6467 3.62616 13.9584 3.23459 14.3513C2.95384 14.6329 2.71684 14.9502 2.5279 15.2925C2.45089 15.432 2.38165 15.576 2.32062 15.7239C2.10879 16.2372 1.99984 16.7873 2 17.3428L2 22.8891C2 23.5374 2.25681 24.1592 2.71393 24.6176C3.17105 25.076 3.79103 25.3336 4.4375 25.3336L2 32.6668H4.4375V40H14.1875V32.6668H16.625L14.1875 25.3336C14.834 25.3336 15.4539 25.076 15.9111 24.6176C16.3682 24.1592 16.625 23.5374 16.625 22.8891V17.3403C16.625 16.785 16.5159 16.2351 16.304 15.722C16.0921 15.209 15.7815 14.7428 15.3899 14.3501C14.9983 13.9574 14.5335 13.6459 14.0218 13.4334C13.5102 13.2209 12.9619 13.1115 12.4081 13.1115H10.3445C10.6386 13.0477 10.9269 12.9566 11.2056 12.8389C11.8041 12.5862 12.3462 12.2161 12.8001 11.7504C13.2539 11.2847 13.6105 10.7327 13.8487 10.127C14.087 9.52116 14.2022 8.87374 14.1875 8.2227C14.1587 6.94536 13.6324 5.73008 12.7213 4.83702C11.8101 3.94396 10.5866 3.44409 9.31252 3.44441C8.03846 3.44473 6.81516 3.94521 5.90447 4.83873C4.99379 5.73225 4.4681 6.94779 4.43993 8.22514C4.42557 8.87619 4.54106 9.52355 4.77962 10.1292C5.01818 10.7349 5.375 11.2867 5.82912 11.7521C6.28325 12.2176 6.82553 12.5874 7.42413 12.8398C7.70213 12.9571 7.98968 13.0479 8.28299 13.1115Z" stroke="#0353A3" stroke-linejoin="round"/>
<path d="M25.1563 19.2225C25.1559 20.1953 24.7703 21.1281 24.0841 21.8157C23.3991 22.5022 22.4706 22.8882 21.5023 22.8891H22.8162C23.7601 22.8891 24.6653 23.2651 25.3327 23.9344C26 24.6037 26.375 25.5115 26.375 26.458V30.2224C26.375 30.8707 26.1182 31.4924 25.6611 31.9508C25.2039 32.4092 24.5839 32.6668 23.9375 32.6668V40H19.0625V32.6668C18.416 32.6668 17.796 32.4092 17.3389 31.9508C16.8818 31.4924 16.625 30.8707 16.625 30.2224V26.458C16.625 25.5115 16.9999 24.6037 17.6673 23.9344C18.3347 23.2651 19.2399 22.8891 20.1837 22.8891H21.4953C20.5261 22.8882 19.5968 22.5015 18.9117 21.814C18.226 21.1259 17.841 20.1929 17.8413 19.2201C17.8416 18.2473 18.2273 17.3145 18.9134 16.6269C19.5996 15.9393 20.53 15.5532 21.5 15.5535C22.47 15.5538 23.4002 15.9405 24.0859 16.6286C24.7715 17.3167 25.1566 18.2498 25.1563 19.2225Z" stroke="#0353A3" stroke-linejoin="round"/>
</svg>
