<svg width="24" height="24" viewBox="0 0 24 24" fill="none" xmlns="http://www.w3.org/2000/svg">
<g clip-path="url(#clip0_289_584)">
<rect width="24" height="24" rx="3" fill="url(#paint0_linear_289_584)"/>
<path d="M11.9975 13.4527L11.3925 13.4527C11.05 13.4527 10.7214 13.5891 10.4789 13.8323C10.2364 14.0754 10.1 14.4055 10.1 14.7498V16.4872C10.1 16.694 10.1819 16.892 10.3273 17.0379C10.4728 17.1837 10.6698 17.2654 10.875 17.2654C11.0683 17.2654 11.225 17.4221 11.225 17.6154V20.65H12.775V17.6154C12.775 17.4221 12.9317 17.2654 13.125 17.2654C13.3302 17.2654 13.5272 17.1837 13.6727 17.0379C13.8181 16.892 13.9 16.694 13.9 16.4872V14.7498C13.9 14.4055 13.7636 14.0754 13.5211 13.8323C13.2786 13.5891 12.95 13.4527 12.6075 13.4527L12.0014 13.4527L12.0011 13.4527C12 13.4527 11.9989 13.4527 11.9978 13.4527C11.9977 13.4527 11.9976 13.4527 11.9975 13.4527V13.4527ZM11.9975 13.4527L11.9978 13.4527C11.9989 13.4527 12 13.4527 12.0011 13.4527C12.0012 13.4527 12.0013 13.4527 12.0014 13.4527L11.9975 13.4527ZM18.0271 7.1197C17.8523 7.15762 17.7342 7.32122 17.7533 7.49906C17.7724 7.67689 17.9224 7.81174 18.1013 7.81174H19.0538C19.4768 7.81174 19.8827 7.98026 20.1821 8.28054C20.4816 8.58085 20.65 8.98837 20.65 9.41351V13.1027C20.65 13.3094 20.5681 13.5074 20.4227 13.6533C20.2772 13.7991 20.0802 13.8809 19.875 13.8809C19.6817 13.8809 19.525 14.0376 19.525 14.2309V20.65H15.725V14.2309C15.725 14.0376 15.5683 13.8809 15.375 13.8809C15.1698 13.8809 14.9728 13.7991 14.8273 13.6533C14.6819 13.5074 14.6 13.3094 14.6 13.1027V9.41351C14.6 8.98837 14.7684 8.58085 15.0679 8.28054C15.3673 7.98026 15.7732 7.81174 16.1962 7.81174H17.1498C17.3287 7.81174 17.4788 7.67689 17.4979 7.49906C17.5169 7.32122 17.3988 7.15762 17.224 7.1197C17.1098 7.09491 16.9978 7.05953 16.8894 7.01385C16.6562 6.91551 16.4449 6.7714 16.2678 6.58993C16.0908 6.40846 15.9516 6.19329 15.8586 5.95704C15.7655 5.72078 15.7204 5.46822 15.726 5.21421C15.737 4.7158 15.9422 4.24171 16.2972 3.89337L16.055 3.64657L16.2972 3.89337C16.6522 3.54505 17.1289 3.35012 17.6251 3.35C18.1213 3.34988 18.5981 3.54457 18.9533 3.8927C19.3085 4.24086 19.5138 4.71485 19.5251 5.21325C19.5308 5.46727 19.4859 5.71984 19.3929 5.95615C19.3 6.19245 19.1609 6.40769 18.984 6.58925C18.807 6.7708 18.5958 6.91502 18.3626 7.01349C18.254 7.05934 18.1417 7.09484 18.0271 7.1197ZM8.29287 14.3413L9.26483 17.2654H8.625C8.4317 17.2654 8.275 17.4221 8.275 17.6154V20.65H4.475V17.6154C4.475 17.4221 4.3183 17.2654 4.125 17.2654H3.48517L4.45713 14.3413C4.4926 14.2346 4.47464 14.1173 4.40885 14.0261C4.34306 13.9349 4.23745 13.8809 4.125 13.8809C3.91978 13.8809 3.72276 13.7991 3.57734 13.6533C3.43189 13.5074 3.35 13.3094 3.35 13.1027L3.35 10.5428L3.35 10.5427C3.34994 10.3322 3.39124 10.1237 3.47151 9.92918L3.14981 9.79641L3.47151 9.92918C3.49464 9.87314 3.52087 9.81857 3.55004 9.76573L3.55008 9.76567C3.62166 9.63597 3.71139 9.51584 3.81765 9.40929L3.81772 9.40922C3.966 9.26043 4.142 9.14244 4.33564 9.06194C4.39181 9.03859 4.44915 9.01852 4.50737 9.0018L4.50744 9.00178C4.64896 8.9611 4.79654 8.93993 4.94625 8.93993H5.89984C6.0787 8.93993 6.22878 8.80508 6.24785 8.62724C6.26692 8.44941 6.14884 8.2858 5.97405 8.24788C5.85978 8.2231 5.74775 8.18772 5.63944 8.14204C5.40621 8.0437 5.19485 7.89958 5.01781 7.71812C4.84077 7.53665 4.70161 7.32148 4.60855 7.08522C4.5155 6.84896 4.47043 6.59641 4.47604 6.3424C4.48703 5.84399 4.69215 5.3699 5.04719 5.02155C5.40219 4.67324 5.87885 4.47831 6.3751 4.47819C6.87134 4.47806 7.3481 4.67275 7.70328 5.02089C8.05848 5.36905 8.26384 5.84304 8.27508 6.34144C8.28081 6.59545 8.23588 6.84803 8.14294 7.08434C8.05 7.32064 7.91095 7.53588 7.734 7.71743C7.55704 7.89899 7.34576 8.04321 7.11258 8.14167C7.00399 8.18753 6.89167 8.22303 6.7771 8.24789C6.6023 8.2858 6.48422 8.44941 6.50329 8.62724C6.52236 8.80508 6.67244 8.93993 6.8513 8.93993H7.80375C8.01323 8.93993 8.22069 8.98131 8.41428 9.06172C8.60788 9.14214 8.78385 9.26003 8.93212 9.40872L9.17995 9.16159L8.93212 9.40873C9.08039 9.55742 9.19806 9.734 9.27836 9.9284C9.35866 10.1228 9.4 10.3312 9.4 10.5417V13.1027C9.4 13.3094 9.31811 13.5074 9.17266 13.6533C9.02724 13.7991 8.83022 13.8809 8.625 13.8809C8.51255 13.8809 8.40694 13.9349 8.34115 14.0261C8.27536 14.1173 8.2574 14.2346 8.29287 14.3413ZM12.9449 12.36C12.6944 12.6111 12.3551 12.7521 12.0015 12.7527H11.9974C11.6434 12.7521 11.3039 12.6108 11.0533 12.3594C10.8024 12.1076 10.6613 11.7659 10.6614 11.4094C10.6615 11.0529 10.8028 10.7113 11.054 10.4596C11.305 10.208 11.6453 10.0669 11.9999 10.067C12.3544 10.0671 12.6946 10.2085 12.9456 10.4603C13.1965 10.7121 13.3376 11.0538 13.3375 11.4103C13.3374 11.7667 13.1961 12.1084 12.9449 12.36ZM12.0011 12.7527C12.001 12.7527 12.0008 12.7527 12.0007 12.7527C12.0003 12.7527 11.9999 12.7527 11.9994 12.7527C11.999 12.7527 11.9986 12.7527 11.9982 12.7527C11.998 12.7527 11.9979 12.7527 11.9978 12.7527H12.0011Z" stroke="white" stroke-width="0.7" stroke-linejoin="round"/>
</g>
<defs>
<linearGradient id="paint0_linear_289_584" x1="11.9999" y1="-0.000100467" x2="11.9999" y2="23.9999" gradientUnits="userSpaceOnUse">
<stop stop-color="#04E0FF"/>
<stop offset="1" stop-color="#0D7684"/>
</linearGradient>
<clipPath id="clip0_289_584">
<rect width="24" height="24" rx="3" fill="white"/>
</clipPath>
</defs>
</svg>
