<svg width="66" height="56" viewBox="0 0 66 56" fill="none" xmlns="http://www.w3.org/2000/svg">
<path d="M14.261 44.589C14.384 44.591 14.5062 44.5687 14.6206 44.5234C14.735 44.4781 14.8393 44.4108 14.9276 44.3251C15.016 44.2395 15.0865 44.1373 15.1353 44.0244C15.1841 43.9114 15.2102 43.79 15.212 43.667V32.61H18.065C18.188 32.612 18.3102 32.5897 18.4246 32.5444C18.539 32.4991 18.6433 32.4318 18.7316 32.3461C18.82 32.2605 18.8905 32.1583 18.9393 32.0454C18.9881 31.9324 19.0142 31.811 19.016 31.688V25.236C18.9949 23.9951 18.4827 22.8131 17.5915 21.9493C16.7003 21.0855 15.503 20.6103 14.262 20.628H13.748C14.6858 19.629 15.2094 18.3112 15.213 16.941C15.165 15.46 14.5429 14.0556 13.4782 13.025C12.4136 11.9943 10.9898 11.418 9.508 11.418C8.02619 11.418 6.60245 11.9943 5.5378 13.025C4.47315 14.0556 3.85104 15.46 3.803 16.941C3.80662 18.3112 4.33021 19.629 5.268 20.628H4.754C3.51302 20.6103 2.31567 21.0855 1.4245 21.9493C0.533326 22.8131 0.0210538 23.9951 0 25.236V31.688C0.00182403 31.811 0.0278806 31.9324 0.0766754 32.0454C0.12547 32.1583 0.196046 32.2605 0.28437 32.3461C0.372695 32.4318 0.477037 32.4991 0.591423 32.5444C0.705809 32.5897 0.828 32.612 0.951004 32.61H3.798V43.67C3.79983 43.793 3.82588 43.9144 3.87467 44.0274C3.92347 44.1403 3.99405 44.2425 4.08237 44.3281C4.1707 44.4138 4.27503 44.4811 4.38942 44.5264C4.50381 44.5717 4.626 44.594 4.749 44.592L14.261 44.589ZM5.704 16.94C5.6805 16.1826 5.88366 15.4355 6.28744 14.7943C6.69122 14.1532 7.27724 13.6472 7.97041 13.3411C8.66358 13.0351 9.43234 12.943 10.1782 13.0766C10.924 13.2102 11.613 13.5635 12.1568 14.0911C12.7006 14.6188 13.0745 15.2968 13.2306 16.0383C13.3867 16.7797 13.3178 17.5509 13.0328 18.253C12.7479 18.9551 12.2598 19.5561 11.6311 19.9791C11.0024 20.402 10.2617 20.6276 9.504 20.627C8.51163 20.6404 7.55443 20.2598 6.84215 19.5687C6.12986 18.8776 5.72059 17.9323 5.704 16.94ZM8.556 32.61V42.748H5.704V25.235H3.798V30.765H1.898V25.235C1.91063 24.4903 2.21807 23.781 2.7529 23.2627C3.28773 22.7444 4.00629 22.4593 4.751 22.47H14.26C15.0047 22.4593 15.7233 22.7444 16.2581 23.2627C16.7929 23.781 17.1004 24.4903 17.113 25.235V30.765H15.213V25.235H13.313V42.746H10.458V32.61H8.556Z" fill="#00616E"/>
<path d="M61.245 20.626H60.731C61.6688 19.627 62.1924 18.3092 62.196 16.939C62.148 15.458 61.5258 14.0536 60.4612 13.023C59.3965 11.9923 57.9728 11.416 56.491 11.416C55.0092 11.416 53.5854 11.9923 52.5208 13.023C51.4561 14.0536 50.834 15.458 50.786 16.939C50.7896 18.3092 51.3132 19.627 52.251 20.626H51.737C50.496 20.6083 49.2987 21.0835 48.4075 21.9473C47.5163 22.8111 47.0041 23.9931 46.983 25.234V31.686C46.9848 31.809 47.0109 31.9304 47.0597 32.0434C47.1085 32.1563 47.1791 32.2585 47.2674 32.3441C47.3557 32.4298 47.46 32.4971 47.5744 32.5424C47.6888 32.5877 47.811 32.61 47.934 32.608H50.781V43.668C50.7828 43.791 50.8089 43.9124 50.8577 44.0254C50.9065 44.1383 50.9771 44.2405 51.0654 44.3261C51.1537 44.4117 51.258 44.4791 51.3724 44.5244C51.4868 44.5697 51.609 44.592 51.732 44.59H61.241C61.364 44.592 61.4862 44.5697 61.6006 44.5244C61.715 44.4791 61.8193 44.4117 61.9076 44.3261C61.996 44.2405 62.0665 44.1383 62.1153 44.0254C62.1641 43.9124 62.1902 43.791 62.192 43.668V32.61H65.045C65.168 32.612 65.2902 32.5897 65.4046 32.5444C65.519 32.4991 65.6233 32.4318 65.7116 32.3461C65.7999 32.2605 65.8705 32.1583 65.9193 32.0454C65.9681 31.9324 65.9942 31.811 65.996 31.688V25.236C65.9755 23.9952 65.4638 22.8132 64.5733 21.9491C63.6827 21.0849 62.4858 20.6091 61.245 20.626ZM52.687 16.939C52.6635 16.1816 52.8666 15.4345 53.2704 14.7933C53.6742 14.1522 54.2602 13.6461 54.9534 13.3401C55.6466 13.0341 56.4153 12.942 57.1612 13.0756C57.907 13.2092 58.596 13.5625 59.1398 14.0901C59.6836 14.6178 60.0575 15.2958 60.2136 16.0372C60.3696 16.7787 60.3008 17.5499 60.0158 18.252C59.7309 18.9541 59.2428 19.5551 58.6141 19.9781C57.9854 20.401 57.2447 20.6266 56.487 20.626C55.4948 20.6394 54.5377 20.2589 53.8255 19.568C53.1132 18.8772 52.7038 17.9311 52.687 16.939ZM64.097 30.764H62.197V25.234H60.297V42.745H57.441V32.61H55.541V42.748H52.688V25.235H50.788V30.765H48.888V25.235C48.9006 24.4905 49.2079 23.7814 49.7425 23.2631C50.2772 22.7448 50.9955 22.4595 51.74 22.47H61.249C61.9935 22.4595 62.7118 22.7448 63.2464 23.2631C63.7811 23.7814 64.0884 24.4905 64.101 25.235L64.097 30.764Z" fill="#02DEFC"/>
<path d="M55.539 4.75401V6.26201L53.359 4.08202L52.015 5.42602L55.815 9.22602C55.9032 9.31431 56.008 9.38434 56.1233 9.43213C56.2386 9.47992 56.3622 9.50451 56.487 9.50451C56.6118 9.50451 56.7354 9.47992 56.8507 9.43213C56.966 9.38434 57.0708 9.31431 57.159 9.22602L60.959 5.42602L59.615 4.08202L57.434 6.26201V4.75401C57.4327 3.49358 56.9314 2.28515 56.0401 1.39389C55.1489 0.502631 53.9404 0.00133883 52.68 1.52588e-05L21.5 0V1.9L52.686 1.90001C53.4424 1.90081 54.1676 2.20165 54.7025 2.73652C55.2374 3.27139 55.5382 3.9976 55.539 4.75401Z" fill="#00616E"/>
<path d="M10.463 4.754C10.4635 3.99827 10.7636 3.27356 11.2974 2.73862C11.8312 2.20368 12.5553 1.90212 13.311 1.9H19.967V0H13.311C12.0506 0.00132357 10.8421 0.502616 9.95088 1.39388C9.05962 2.28514 8.55833 3.49357 8.55701 4.754V9.508H10.457L10.463 4.754Z" fill="#00616E"/>
<path d="M55.492 51.245V49.737L53.312 51.917L51.968 50.572L55.768 46.772C55.8562 46.6837 55.961 46.6137 56.0763 46.5659C56.1916 46.5181 56.3152 46.4935 56.44 46.4935C56.5648 46.4935 56.6884 46.5181 56.8037 46.5659C56.919 46.6137 57.0238 46.6837 57.112 46.772L60.912 50.572L59.568 51.917L57.387 49.737V51.245C57.3857 52.5055 56.8844 53.7139 55.9931 54.6052C55.1019 55.4964 53.8934 55.9977 52.633 55.999H24.573V54.099H52.639C53.3954 54.0982 54.1206 53.7974 54.6555 53.2625C55.1904 52.7276 55.4912 52.0025 55.492 51.246V51.245Z" fill="#00616E"/>
<path d="M23.307 54.098H21.407V55.998H23.307V54.098Z" fill="#00616E"/>
<path d="M10.415 51.245C10.4158 52.0014 10.7166 52.7267 11.2515 53.2615C11.7864 53.7964 12.5116 54.0972 13.268 54.098H19.924V55.998H13.263C12.0026 55.9967 10.7941 55.4954 9.90286 54.6042C9.0116 53.7129 8.51033 52.5045 8.509 51.244V46.491H10.409L10.415 51.245Z" fill="#00616E"/>
<path d="M21.2678 15.5455H23.5067L25.6626 19.6172H25.755L27.9109 15.5455H30.1499L26.7013 21.6577V25H24.7163V21.6577L21.2678 15.5455ZM32.9232 25.1385C32.2061 25.1385 31.586 24.9862 31.0628 24.6815C30.5426 24.3737 30.141 23.9459 29.8579 23.3981C29.5747 22.8472 29.4331 22.2086 29.4331 21.4822C29.4331 20.7498 29.5747 20.1096 29.8579 19.5618C30.141 19.0109 30.5426 18.5831 31.0628 18.2784C31.586 17.9706 32.2061 17.8168 32.9232 17.8168C33.6403 17.8168 34.2589 17.9706 34.779 18.2784C35.3022 18.5831 35.7054 19.0109 35.9885 19.5618C36.2717 20.1096 36.4133 20.7498 36.4133 21.4822C36.4133 22.2086 36.2717 22.8472 35.9885 23.3981C35.7054 23.9459 35.3022 24.3737 34.779 24.6815C34.2589 24.9862 33.6403 25.1385 32.9232 25.1385ZM32.9324 23.6151C33.2587 23.6151 33.531 23.5227 33.7496 23.3381C33.9681 23.1503 34.1327 22.8949 34.2435 22.5717C34.3574 22.2486 34.4143 21.8808 34.4143 21.4684C34.4143 21.056 34.3574 20.6882 34.2435 20.3651C34.1327 20.0419 33.9681 19.7865 33.7496 19.5987C33.531 19.411 33.2587 19.3171 32.9324 19.3171C32.6031 19.3171 32.3261 19.411 32.1015 19.5987C31.8799 19.7865 31.7122 20.0419 31.5983 20.3651C31.4875 20.6882 31.4321 21.056 31.4321 21.4684C31.4321 21.8808 31.4875 22.2486 31.5983 22.5717C31.7122 22.8949 31.8799 23.1503 32.1015 23.3381C32.3261 23.5227 32.6031 23.6151 32.9324 23.6151ZM42.2393 21.9808V17.9091H44.2059V25H42.3177V23.712H42.2439C42.0838 24.1275 41.8176 24.4614 41.4452 24.7138C41.0759 24.9661 40.625 25.0923 40.0926 25.0923C39.6186 25.0923 39.2016 24.9846 38.8415 24.7692C38.4814 24.5537 38.1998 24.2475 37.9967 23.8505C37.7967 23.4535 37.6951 22.978 37.692 22.424V17.9091H39.6586V22.0732C39.6617 22.4917 39.7741 22.8226 39.9956 23.0657C40.2172 23.3088 40.5142 23.4304 40.8866 23.4304C41.1236 23.4304 41.3452 23.3765 41.5514 23.2688C41.7576 23.158 41.9238 22.9949 42.05 22.7795C42.1792 22.564 42.2423 22.2978 42.2393 21.9808ZM23.4513 40H21.3093L24.5732 30.5455H27.1491L30.4084 40H28.2663L25.8981 32.706H25.8242L23.4513 40ZM23.3175 36.2837H28.3771V37.8441H23.3175V36.2837ZM31.5094 40V32.9091H33.416V34.1463H33.4899C33.6191 33.7062 33.8361 33.3738 34.1408 33.1491C34.4455 32.9214 34.7963 32.8075 35.1934 32.8075C35.2918 32.8075 35.398 32.8137 35.5119 32.826C35.6258 32.8383 35.7258 32.8552 35.812 32.8768V34.6218C35.7196 34.5941 35.5919 34.5695 35.4288 34.5479C35.2657 34.5264 35.1164 34.5156 34.981 34.5156C34.6917 34.5156 34.4332 34.5787 34.2054 34.7049C33.9808 34.828 33.8023 35.0004 33.6699 35.2219C33.5407 35.4435 33.476 35.699 33.476 35.9883V40H31.5094ZM39.7302 40.1385C39.0008 40.1385 38.373 39.9908 37.8467 39.6953C37.3235 39.3968 36.9203 38.9751 36.6372 38.4304C36.354 37.8826 36.2124 37.2347 36.2124 36.4869C36.2124 35.7575 36.354 35.1173 36.6372 34.5664C36.9203 34.0155 37.3189 33.5862 37.8328 33.2784C38.3499 32.9706 38.9562 32.8168 39.6517 32.8168C40.1195 32.8168 40.555 32.8922 40.9582 33.043C41.3644 33.1907 41.7184 33.4138 42.02 33.7124C42.3247 34.0109 42.5616 34.3864 42.7309 34.8388C42.9002 35.2881 42.9848 35.8144 42.9848 36.4176V36.9577H36.9972V35.739H41.1336C41.1336 35.4558 41.0721 35.205 40.949 34.9865C40.8258 34.768 40.655 34.5972 40.4365 34.4741C40.2211 34.3479 39.9703 34.2848 39.684 34.2848C39.3855 34.2848 39.1208 34.354 38.89 34.4925C38.6623 34.628 38.4838 34.8111 38.3545 35.0419C38.2252 35.2696 38.1591 35.5236 38.156 35.8036V36.9624C38.156 37.3132 38.2206 37.6164 38.3499 37.8718C38.4822 38.1272 38.6684 38.3242 38.9085 38.4627C39.1485 38.6012 39.4332 38.6705 39.7625 38.6705C39.981 38.6705 40.1811 38.6397 40.3627 38.5781C40.5442 38.5166 40.6997 38.4242 40.8289 38.3011C40.9582 38.178 41.0567 38.0272 41.1244 37.8487L42.9433 37.9688C42.8509 38.4058 42.6617 38.7874 42.3754 39.1136C42.0923 39.4368 41.7261 39.6892 41.2767 39.8707C40.8305 40.0492 40.315 40.1385 39.7302 40.1385Z" fill="#02DEFC"/>
</svg>
