<svg width="100" height="67" viewBox="0 0 100 67" fill="none" xmlns="http://www.w3.org/2000/svg">
<g clip-path="url(#clip0_1416_15)">
<path d="M100 66.6667H0V0H100V66.6667Z" fill="#D52B1E"/>
<path d="M33.3333 33.3333H100V0H0L33.3333 33.3333Z" fill="white"/>
<path d="M33.3333 33.3333H0V0H33.3333V33.3333Z" fill="#0039A6"/>
<path d="M16.667 8.33301L14.0919 16.2585L18.0546 17.546L16.667 8.33301Z" fill="white"/>
<path d="M16.667 8.33301L19.2421 16.2585L15.2794 17.546L16.667 8.33301Z" fill="white"/>
<path d="M24.5928 14.0908H16.2594V18.2575L24.5928 14.0908Z" fill="white"/>
<path d="M24.5928 14.0908L17.851 18.989L15.4019 15.6181L24.5928 14.0908Z" fill="white"/>
<path d="M8.74121 14.0918L15.483 18.99L17.9321 15.6191L8.74121 14.0918Z" fill="white"/>
<path d="M8.74121 14.0918H17.0745V18.2585L8.74121 14.0918Z" fill="white"/>
<path d="M21.5645 23.4082L18.9893 15.4827L15.0266 16.7703L21.5645 23.4082Z" fill="white"/>
<path d="M21.5645 23.4082L14.8226 18.51L17.2717 15.1391L21.5645 23.4082Z" fill="white"/>
<path d="M11.7676 23.4082L18.5094 18.51L16.0603 15.1391L11.7676 23.4082Z" fill="white"/>
<path d="M11.7676 23.4082L14.3427 15.4827L18.3055 16.7703L11.7676 23.4082Z" fill="white"/>
</g>
<defs>
<clipPath id="clip0_1416_15">
<rect width="100" height="66.6667" fill="white"/>
</clipPath>
</defs>
</svg>
