<svg width="100" height="67" viewBox="0 0 100 67" fill="none" xmlns="http://www.w3.org/2000/svg">
<g clip-path="url(#clip0_1417_11409)">
<path d="M0 0H100V66.6667H0V0Z" fill="white"/>
<path d="M51.456 56.303C51.4414 56.2968 51.4283 56.2875 51.4175 56.2758L51.4036 56.2628C51.3418 56.2051 51.2831 56.1442 51.2278 56.0802C51.0798 55.9121 50.8813 55.666 50.7067 55.4486C50.3606 55.0171 50.0746 54.6455 50.0207 54.5755L49.9326 54.4608L49.0696 54.1947L48.4395 53.9009L48.7761 53.5225L49.9326 54.0176L50.7956 54.1947L52.3915 55.3685L52.3903 55.3695C52.387 55.3721 52.1581 55.5626 51.9307 55.7695C51.8293 55.8617 51.7014 55.9806 51.611 56.0787C51.5738 56.1186 51.5393 56.1609 51.5077 56.2054C51.4887 56.237 51.4714 56.2696 51.456 56.3031M45.5294 54.5231C44.7508 54.516 43.988 54.3026 43.3188 53.9046H43.318V53.9037C43.3995 53.7679 43.5084 53.6505 43.6378 53.5592C43.8535 53.4009 44.2425 53.2117 44.8711 53.2092H44.8841C45.6286 53.2092 46.5397 53.4624 47.5923 53.9616C46.9683 54.3323 46.2552 54.5265 45.5294 54.5231ZM42.266 53.7998C42.2002 53.8011 42.1349 53.7886 42.0742 53.763C42.0136 53.7375 41.9589 53.6996 41.9138 53.6517C41.8351 53.5601 41.7808 53.45 41.756 53.3318C41.7204 53.1783 41.7073 53.0205 41.717 52.8632C41.7719 52.8395 41.8308 52.8261 41.8906 52.8239H41.903C42.182 52.8239 42.4019 53.0659 42.4961 53.3058C42.5475 53.4119 42.5583 53.5331 42.5266 53.6466C42.5034 53.695 42.4663 53.7354 42.4199 53.7626C42.3736 53.7897 42.3202 53.8023 42.2666 53.7988L42.266 53.7998ZM48.0083 53.1342C46.0795 52.8588 45.2619 52.1615 44.9157 51.625C44.6965 51.2995 44.5934 50.9097 44.623 50.5184V50.5168H44.6245C44.7214 50.4946 44.8205 50.4836 44.9198 50.4842C45.4329 50.4842 46.7454 50.7424 48.0087 53.1334L48.0095 53.1349L48.0073 53.1338L48.0083 53.1342ZM44.0549 52.752C43.2309 52.752 42.6036 52.6098 42.1903 52.3298C42.0145 52.2172 41.8729 52.0587 41.7807 51.8715C41.7471 51.8005 41.7248 51.7246 41.7147 51.6467C41.9893 51.5354 42.2814 51.4733 42.5775 51.4634C42.62 51.4614 42.6629 51.4601 42.7079 51.46C43.3448 51.46 44.3133 51.6678 45.3353 52.6578L45.3363 52.6588H45.335C44.9104 52.7173 44.4825 52.7485 44.0539 52.7521L44.0549 52.752ZM40.0649 52.5987C39.196 52.5987 38.0024 52.3334 37.2579 51.589L37.2571 51.5881H37.2594C37.8252 51.4545 38.403 51.3777 38.9841 51.359C39.0384 51.3577 39.093 51.357 39.148 51.3569C39.9627 51.3569 40.5863 51.5149 41.0016 51.8264C41.1176 51.8961 41.2038 52.0062 41.2436 52.1356C41.2481 52.1824 41.2395 52.2295 41.2188 52.2717C41.1981 52.3139 41.166 52.3495 41.1263 52.3745C40.9393 52.5157 40.6049 52.591 40.1324 52.5986L40.0657 52.6008L40.0649 52.5987ZM37.2494 51.1542C37.1967 51.1543 37.1447 51.1427 37.0971 51.1203C37.0495 51.0979 37.0074 51.0652 36.9739 51.0246C36.9112 50.9423 36.869 50.8462 36.8508 50.7444C36.8225 50.6102 36.8116 50.473 36.8185 50.3361V50.3341C36.8609 50.3146 36.907 50.3041 36.9537 50.3036C37.0626 50.3075 37.1658 50.3537 37.2414 50.4322C37.3255 50.5146 37.3896 50.6152 37.4289 50.7261C37.4683 50.8187 37.4753 50.9218 37.4489 51.0189C37.4331 51.0589 37.4055 51.0932 37.3698 51.1172C37.3341 51.1412 37.2919 51.1538 37.2489 51.1534L37.2494 51.1542ZM43.7527 51.0076C43.6869 51.0089 43.6216 50.9963 43.5609 50.9708C43.5002 50.9453 43.4456 50.9074 43.4005 50.8595C43.3217 50.7679 43.2674 50.6579 43.2425 50.5397C43.2069 50.3862 43.1937 50.2284 43.2035 50.0711C43.2584 50.0474 43.3172 50.034 43.377 50.0318H43.3895C43.6685 50.0318 43.8884 50.2738 43.9826 50.5137C44.0339 50.6198 44.0448 50.741 44.013 50.8545C43.9899 50.903 43.9528 50.9434 43.9064 50.9706C43.8601 50.9977 43.8066 51.0103 43.753 51.0067L43.7527 51.0076ZM40.5849 50.8765C38.8364 50.8149 37.9294 50.3179 37.4756 49.9117C37.2816 49.7417 37.1217 49.5363 37.0045 49.3065C36.9608 49.2202 36.927 49.1294 36.9036 49.0356L36.9059 49.0346C37.0459 48.9921 37.1913 48.9705 37.3376 48.9702H37.3785C37.9681 48.9702 39.1686 49.2179 40.5843 50.8761V50.8772L40.5849 50.8765ZM42.4838 50.6998C41.077 50.4856 40.28 49.8817 39.8591 49.4126C39.5994 49.1337 39.4019 48.8027 39.2799 48.4417C39.4221 48.4091 39.5674 48.3916 39.7133 48.3896C39.732 48.3896 39.7516 48.3888 39.7715 48.3888C39.7914 48.3888 39.812 48.3888 39.8329 48.3896C40.5405 48.405 41.8256 48.7255 42.4835 50.699H42.4846L42.4838 50.6998ZM35.2616 50.0242C34.8138 50.0257 34.3675 49.9722 33.9327 49.8651C33.1961 49.6809 32.8801 49.3997 32.7448 49.1961C32.6865 49.1118 32.6474 49.0157 32.6303 48.9146C32.6241 48.8751 32.623 48.8351 32.6268 48.7954L32.6303 48.7941C33.0107 48.6998 33.4009 48.6503 33.7929 48.6466C33.8195 48.6466 33.8463 48.6459 33.8735 48.6459C34.1929 48.6454 34.5116 48.6762 34.825 48.7381C35.5358 48.8867 36.1692 49.2868 36.6087 49.8648V49.8658H36.6073C36.1666 49.9736 35.7143 50.0266 35.2606 50.0236L35.2616 50.0242ZM38.5271 48.8376C38.4616 48.8393 38.3964 48.8274 38.3357 48.8025C38.275 48.7777 38.2202 48.7404 38.1747 48.6931C38.0957 48.6005 38.0414 48.4893 38.0169 48.37C37.9813 48.2178 37.9681 48.0611 37.9779 47.905C38.0328 47.8812 38.0917 47.8679 38.1515 47.8657H38.1639C38.4424 47.8657 38.6626 48.1078 38.7571 48.3477C38.8075 48.4529 38.8171 48.5729 38.7841 48.6848C38.7621 48.7335 38.7257 48.7743 38.6799 48.8017C38.634 48.8291 38.5808 48.8418 38.5275 48.8381L38.5271 48.8376ZM36.0716 48.5009C35.6041 48.3686 35.1568 48.1733 34.7419 47.9204C34.1259 47.5411 33.3724 46.8704 33.2805 45.8281H33.282C33.3288 45.8182 33.3763 45.8124 33.424 45.811C33.4351 45.811 33.4481 45.8104 33.4611 45.8104C33.6451 45.8104 34.0218 45.8621 34.4775 46.2086C35.0575 46.6508 35.593 47.4219 36.0719 48.503L36.0716 48.5009ZM37.6749 48.442C37.2934 48.2687 36.939 48.041 36.6228 47.766C35.8056 47.0627 35.1687 46.1738 34.7655 45.1738C34.8923 45.1144 35.0317 45.087 35.1716 45.094C35.4395 45.1016 35.8475 45.2129 36.2998 45.701C36.8194 46.2618 37.2831 47.1832 37.6776 48.44L37.6787 48.4436L37.6754 48.4425L37.6749 48.442ZM33.5205 48.3209C32.9848 48.3209 32.8015 48.0304 32.7475 47.9054C32.6937 47.7751 32.6726 47.6337 32.6859 47.4935V47.4912C32.7732 47.4695 32.8627 47.4578 32.9526 47.4564H32.9709C33.1436 47.4521 33.3149 47.4885 33.4709 47.5627C33.6269 47.6368 33.7634 47.7466 33.8691 47.8831C33.8975 47.9252 33.9844 48.0714 33.9125 48.1855C33.8547 48.2755 33.7236 48.321 33.5203 48.321L33.5205 48.3209ZM32.3338 46.8241C31.9189 46.8251 31.5047 46.7897 31.0959 46.7184C30.6188 46.6316 30.3484 46.2259 30.2056 45.901C30.1096 45.6789 30.0424 45.4453 30.0056 45.2061H30.0069C31.4827 45.2495 32.1797 45.6807 32.5045 46.0347C32.7057 46.2441 32.8311 46.5149 32.8607 46.8038H32.8597C32.8575 46.8038 32.6497 46.8238 32.333 46.8238L32.3338 46.8241ZM33.8705 45.2886C33.7506 45.1375 33.6382 44.9807 33.5335 44.8188C33.3587 44.5471 33.197 44.2632 33.197 44.0317C33.197 43.8077 33.1444 43.3355 33.1129 43.074C33.0731 42.7424 33.0329 42.4585 33.0296 42.4344H33.031C33.0685 42.448 33.9541 42.7804 33.9541 43.6111C33.9541 44.4419 33.8721 45.2794 33.8714 45.2877V45.2889H33.8703L33.8705 45.2886ZM32.7227 45.2097C32.7134 45.2097 32.7041 45.2088 32.6949 45.2074C32.4331 45.1637 31.9727 44.9636 31.4646 44.672C30.8999 44.3482 30.4414 44.0014 30.1735 43.6952C29.929 43.4161 29.7846 42.9778 29.7424 42.3924C29.7238 42.1272 29.727 41.861 29.752 41.5965C29.7992 41.5812 29.8486 41.5737 29.8981 41.5742C30.0941 41.5775 30.3034 41.6657 30.5858 41.8602C30.8432 42.0435 31.0845 42.2485 31.3069 42.4729C31.5894 42.7535 31.8564 43.0491 32.1069 43.3586L32.1105 43.363C32.1399 43.4158 32.3924 43.8709 32.589 44.3139C32.6874 44.5178 32.7628 44.7319 32.8139 44.9524C32.8333 45.0169 32.8333 45.0857 32.8139 45.1502C32.8057 45.1712 32.7906 45.1887 32.7711 45.2C32.7557 45.2067 32.739 45.2101 32.7223 45.21L32.7227 45.2097Z" fill="#4E5B31"/>
<path d="M48.544 56.303C48.5586 56.2968 48.5717 56.2875 48.5825 56.2758L48.5964 56.2628C48.6582 56.2051 48.7169 56.1442 48.7722 56.0802C48.9202 55.9121 49.1187 55.666 49.2933 55.4486C49.6394 55.0171 49.9254 54.6455 49.9793 54.5755L50.0674 54.4608L50.9304 54.1947L51.5605 53.9009L51.2239 53.5225L50.0674 54.0176L49.2044 54.1947L47.6085 55.3685L47.6097 55.3695C47.613 55.3721 47.8419 55.5626 48.0693 55.7695C48.1707 55.8617 48.2986 55.9806 48.389 56.0787C48.4262 56.1186 48.4607 56.1609 48.4923 56.2054C48.5113 56.237 48.5286 56.2696 48.544 56.3031M54.4706 54.5231C55.2492 54.516 56.012 54.3026 56.6812 53.9046H56.682V53.9037C56.6005 53.7679 56.4916 53.6505 56.3622 53.5592C56.1465 53.4009 55.7575 53.2117 55.1289 53.2092H55.1159C54.3714 53.2092 53.4603 53.4624 52.4077 53.9616C53.0317 54.3323 53.7448 54.5265 54.4706 54.5231ZM57.734 53.7998C57.7998 53.8011 57.8651 53.7886 57.9258 53.763C57.9864 53.7375 58.0411 53.6996 58.0862 53.6517C58.1649 53.5601 58.2192 53.45 58.244 53.3318C58.2796 53.1783 58.2927 53.0205 58.283 52.8632C58.2281 52.8395 58.1692 52.8261 58.1094 52.8239H58.097C57.818 52.8239 57.5981 53.0659 57.5039 53.3058C57.4525 53.4119 57.4417 53.5331 57.4734 53.6466C57.4966 53.695 57.5337 53.7354 57.5801 53.7626C57.6264 53.7897 57.6798 53.8023 57.7334 53.7988L57.734 53.7998ZM51.9917 53.1342C53.9205 52.8588 54.7381 52.1615 55.0843 51.625C55.3035 51.2995 55.4066 50.9097 55.377 50.5184V50.5168H55.3755C55.2786 50.4946 55.1795 50.4836 55.0802 50.4842C54.5671 50.4842 53.2546 50.7424 51.9913 53.1334L51.9905 53.1349L51.9927 53.1338L51.9917 53.1342ZM55.9451 52.752C56.7691 52.752 57.3964 52.6098 57.8097 52.3298C57.9855 52.2172 58.1271 52.0587 58.2193 51.8715C58.2529 51.8005 58.2752 51.7246 58.2853 51.6467C58.0107 51.5354 57.7186 51.4733 57.4225 51.4634C57.38 51.4614 57.3371 51.4601 57.2921 51.46C56.6552 51.46 55.6867 51.6678 54.6647 52.6578L54.6637 52.6588H54.665C55.0896 52.7173 55.5175 52.7485 55.9461 52.7521L55.9451 52.752ZM59.9351 52.5987C60.804 52.5987 61.9976 52.3334 62.7421 51.589L62.7429 51.5881H62.7406C62.1748 51.4545 61.597 51.3777 61.0159 51.359C60.9616 51.3577 60.907 51.357 60.852 51.3569C60.0373 51.3569 59.4137 51.5149 58.9984 51.8264C58.8824 51.8961 58.7962 52.0062 58.7564 52.1356C58.7519 52.1824 58.7605 52.2295 58.7812 52.2717C58.8019 52.3139 58.834 52.3495 58.8737 52.3745C59.0607 52.5157 59.3951 52.591 59.8676 52.5986L59.9343 52.6008L59.9351 52.5987ZM62.7506 51.1542C62.8033 51.1543 62.8553 51.1427 62.9029 51.1203C62.9505 51.0979 62.9926 51.0652 63.0261 51.0246C63.0888 50.9423 63.131 50.8462 63.1492 50.7444C63.1775 50.6102 63.1884 50.473 63.1815 50.3361V50.3341C63.1391 50.3146 63.093 50.3041 63.0463 50.3036C62.9374 50.3075 62.8342 50.3537 62.7586 50.4322C62.6745 50.5146 62.6104 50.6152 62.5711 50.7261C62.5317 50.8187 62.5247 50.9218 62.5511 51.0189C62.5669 51.0589 62.5945 51.0932 62.6302 51.1172C62.6659 51.1412 62.7081 51.1538 62.7511 51.1534L62.7506 51.1542ZM56.2473 51.0076C56.3131 51.0089 56.3784 50.9963 56.4391 50.9708C56.4998 50.9453 56.5544 50.9074 56.5995 50.8595C56.6783 50.7679 56.7326 50.6579 56.7575 50.5397C56.7931 50.3862 56.8063 50.2284 56.7965 50.0711C56.7416 50.0474 56.6828 50.034 56.623 50.0318H56.6105C56.3315 50.0318 56.1116 50.2738 56.0174 50.5137C55.9661 50.6198 55.9552 50.741 55.987 50.8545C56.0101 50.903 56.0472 50.9434 56.0936 50.9706C56.1399 50.9977 56.1934 51.0103 56.247 51.0067L56.2473 51.0076ZM59.4151 50.8765C61.1636 50.8149 62.0706 50.3179 62.5244 49.9117C62.7184 49.7417 62.8783 49.5363 62.9955 49.3065C63.0392 49.2202 63.073 49.1294 63.0964 49.0356L63.0941 49.0346C62.9541 48.9921 62.8087 48.9705 62.6624 48.9702H62.6215C62.0319 48.9702 60.8314 49.2179 59.4157 50.8761V50.8772L59.4151 50.8765ZM57.5162 50.6998C58.923 50.4856 59.72 49.8817 60.1409 49.4126C60.4006 49.1337 60.5981 48.8027 60.7201 48.4417C60.5779 48.4091 60.4326 48.3916 60.2867 48.3896C60.268 48.3896 60.2484 48.3888 60.2285 48.3888C60.2086 48.3888 60.188 48.3888 60.1671 48.3896C59.4595 48.405 58.1744 48.7255 57.5165 50.699H57.5154L57.5162 50.6998ZM64.7384 50.0242C65.1862 50.0257 65.6325 49.9722 66.0673 49.8651C66.8039 49.6809 67.1199 49.3997 67.2552 49.1961C67.3135 49.1118 67.3526 49.0157 67.3697 48.9146C67.3759 48.8751 67.377 48.8351 67.3732 48.7954L67.3697 48.7941C66.9893 48.6998 66.5991 48.6503 66.2071 48.6466C66.1805 48.6466 66.1537 48.6459 66.1265 48.6459C65.8071 48.6454 65.4884 48.6762 65.175 48.7381C64.4642 48.8867 63.8308 49.2868 63.3913 49.8648V49.8658H63.3927C63.8334 49.9736 64.2857 50.0266 64.7394 50.0236L64.7384 50.0242ZM61.4729 48.8376C61.5384 48.8393 61.6036 48.8274 61.6643 48.8025C61.725 48.7777 61.7798 48.7404 61.8253 48.6931C61.9043 48.6005 61.9586 48.4893 61.9831 48.37C62.0187 48.2178 62.0319 48.0611 62.0221 47.905C61.9672 47.8812 61.9083 47.8679 61.8485 47.8657H61.8361C61.5576 47.8657 61.3374 48.1078 61.2429 48.3477C61.1925 48.4529 61.1829 48.5729 61.2159 48.6848C61.2379 48.7335 61.2743 48.7743 61.3201 48.8017C61.366 48.8291 61.4192 48.8418 61.4725 48.8381L61.4729 48.8376ZM63.9284 48.5009C64.3959 48.3686 64.8432 48.1733 65.2581 47.9204C65.8741 47.5411 66.6276 46.8704 66.7195 45.8281H66.718C66.6712 45.8182 66.6237 45.8124 66.576 45.811C66.5649 45.811 66.5519 45.8104 66.5389 45.8104C66.3549 45.8104 65.9782 45.8621 65.5225 46.2086C64.9425 46.6508 64.407 47.4219 63.9281 48.503L63.9284 48.5009ZM62.3251 48.442C62.7066 48.2687 63.061 48.041 63.3772 47.766C64.1944 47.0627 64.8313 46.1738 65.2345 45.1738C65.1077 45.1144 64.9683 45.087 64.8284 45.094C64.5605 45.1016 64.1525 45.2129 63.7002 45.701C63.1806 46.2618 62.7169 47.1832 62.3224 48.44L62.3213 48.4436L62.3246 48.4425L62.3251 48.442ZM66.4795 48.3209C67.0152 48.3209 67.1985 48.0304 67.2525 47.9054C67.3063 47.7751 67.3274 47.6337 67.3141 47.4935V47.4912C67.2268 47.4695 67.1373 47.4578 67.0474 47.4564H67.0291C66.8564 47.4521 66.6851 47.4885 66.5291 47.5627C66.3731 47.6368 66.2366 47.7466 66.1309 47.8831C66.1025 47.9252 66.0156 48.0714 66.0875 48.1855C66.1453 48.2755 66.2764 48.321 66.4797 48.321L66.4795 48.3209ZM67.6662 46.8241C68.0811 46.8251 68.4953 46.7897 68.9041 46.7184C69.3812 46.6316 69.6516 46.2259 69.7944 45.901C69.8904 45.6789 69.9576 45.4453 69.9944 45.2061H69.9931C68.5173 45.2495 67.8203 45.6807 67.4955 46.0347C67.2943 46.2441 67.1689 46.5149 67.1393 46.8038H67.1403C67.1425 46.8038 67.3503 46.8238 67.667 46.8238L67.6662 46.8241ZM66.1295 45.2886C66.2494 45.1375 66.3618 44.9807 66.4665 44.8188C66.6413 44.5471 66.803 44.2632 66.803 44.0317C66.803 43.8077 66.8556 43.3355 66.8871 43.074C66.9269 42.7424 66.9671 42.4585 66.9704 42.4344H66.969C66.9315 42.448 66.0459 42.7804 66.0459 43.6111C66.0459 44.4419 66.1279 45.2794 66.1286 45.2877V45.2889H66.1297L66.1295 45.2886ZM67.2773 45.2097C67.2866 45.2097 67.2959 45.2088 67.3051 45.2074C67.5669 45.1637 68.0273 44.9636 68.5354 44.672C69.1001 44.3482 69.5586 44.0014 69.8265 43.6952C70.071 43.4161 70.2154 42.9778 70.2576 42.3924C70.2762 42.1272 70.273 41.861 70.248 41.5965C70.2008 41.5812 70.1514 41.5737 70.1019 41.5742C69.9059 41.5775 69.6966 41.6657 69.4142 41.8602C69.1568 42.0435 68.9155 42.2485 68.6931 42.4729C68.4106 42.7535 68.1436 43.0491 67.8931 43.3586L67.8895 43.363C67.8601 43.4158 67.6076 43.8709 67.411 44.3139C67.3126 44.5178 67.2372 44.7319 67.1861 44.9524C67.1667 45.0169 67.1667 45.0857 67.1861 45.1502C67.1943 45.1712 67.2094 45.1887 67.2289 45.2C67.2443 45.2067 67.261 45.2101 67.2777 45.21L67.2773 45.2097Z" fill="#4E5B31"/>
<path d="M80.7918 11.5503L80.5301 11.6545L80.4275 11.6954L80.1104 11.678L79.8134 11.8205L79.2868 12.1804L79.2635 12.1971L79.0672 12.2483L78.8849 12.1697L78.7813 12.2168L78.7457 12.4301L78.6471 12.5833L78.5258 12.6685L78.1054 12.7115L77.751 12.8943L77.2899 12.7709L77.0757 12.8548L76.6201 13.265L76.3873 13.3752L76.306 13.3705L75.9973 13.3547L75.867 13.3973L75.6723 13.5854L75.304 13.6141L75.1892 13.6935L75.0094 14.0558L74.8147 14.2567L74.7035 14.2802L74.5828 14.2358L74.492 14.2518L74.4509 14.4835L74.3628 14.5807L74.1162 14.6655L73.9192 14.8297L73.7463 14.9185L73.5148 14.9128H73.4615L73.2309 15.0401L72.7975 15.0781L72.6171 15.2502L72.5773 15.287L72.4931 15.3379L72.3553 15.4201L72.322 15.4405L72.1553 15.4109L71.9609 15.4879L71.8822 15.3669L71.7477 15.4477L71.5699 15.4553L71.3477 15.3565L71.1785 15.2812L71.0549 15.2991L71.0119 15.5147L71.0075 15.5375L70.8775 15.7105L70.6349 15.8575L70.6015 15.9005L70.3254 16.257L69.8008 16.8088L69.3571 17.0341L68.8972 17.174L68.575 17.4384L67.7305 17.857L66.3978 18.5207L66.1252 18.608L65.7341 18.6704L65.0365 18.9273L64.4211 19.113L64.3869 19.1234L64.2647 19.1603L63.3969 19.4229L62.993 19.3802L62.7538 19.4671L62.131 19.398L61.6977 19.4065L61.4235 19.4635L60.9083 19.7107L60.0387 20.1287L59.7513 20.3915L59.3039 20.6249L58.78 20.7908L58.7812 20.5707L58.7781 20.5613L58.5963 20.6188L58.4651 20.6602L58.0401 20.7258H57.8037L57.6569 20.6831L57.6347 20.6908L56.766 20.9762L55.7972 21.0698L55.3124 21.2253L54.9502 21.2195L54.7238 21.2869L54.2793 21.3412L54.1207 21.2989L54.0849 21.2891L52.7793 21.3458L52.1824 21.2783L51.8975 21.3431L51.4198 21.1824L50.7232 21.1017L50.5604 21.0529L50.1938 20.9442L50.0281 21.0397L49.9041 21.0529L49.6078 20.9454L49.5011 20.9428L49.2567 21.0317L49.1159 20.9955L48.9851 20.8913L48.6783 20.8457L48.4914 20.6885L47.447 20.827L47.1635 20.7437L46.2131 20.4668L46.0619 20.4744L45.873 20.6157L45.5899 20.7189L45.3441 20.7828L45.0094 20.7939L44.6205 20.6919L44.2199 20.4977L44.0718 20.4624L43.7413 20.4958L43.6402 20.5049L43.0329 20.1791L42.2504 19.6902L41.7195 19.4347L41.5202 19.4023L41.4934 19.4971L41.5923 19.8082L41.6257 20.1164L41.6155 20.4012L41.6101 20.5775L41.6597 20.7359L41.8513 20.9483L41.9312 21.1617L41.9897 21.7488L41.989 22.3445L41.8958 23.2947L41.8643 23.4391L41.7532 23.9313L41.6517 24.3834L41.2577 25.5871L41.1494 25.7363L40.8838 25.9175L40.2817 26.3273L39.8383 26.5829L39.698 26.641L39.3381 26.6682L39.1139 26.6571L38.8347 26.5059L38.5605 26.4353L38.2014 26.1771L37.8014 26.0944L37.3635 25.8413L37.2495 25.7043L37.0111 25.6821L36.6804 25.5829V25.5823L36.559 25.546L36.4751 25.5215L36.0529 25.5104L35.6595 25.3289L35.4524 25.2789L35.1694 25.2645L34.8732 25.4022L34.7231 25.4721L34.5334 25.3968L34.3962 25.4053L34.2407 25.6403L34.2215 25.6762L34.1144 25.7329L33.9811 25.731L33.8768 25.7282L33.7639 25.7775L33.6119 25.8434L33.4777 25.902L33.4121 25.9303L33.411 25.9292L33.3707 25.9373L33.299 25.9498L33.2101 25.9668L33.0534 25.8752L32.9701 25.8261L32.8304 25.7977L32.7552 25.852L32.7404 26.1075L32.6718 26.2607L32.4539 26.4533L32.2324 26.6483L32.0781 26.8758L31.6697 27.808L31.4141 28.1841L31.3347 28.2718L31.066 28.5673L30.8287 28.7514L30.2818 29.1753L29.7641 29.3688L29.3182 29.4599L29.1014 29.4608L28.6903 29.4061L28.3211 29.2928L27.9155 29.0392L27.4711 28.6818L26.8273 28.0458L26.7362 27.991L26.7172 27.9783L26.5144 27.8487L26.364 27.8525L26.3051 27.9497L26.2729 28.09L26.2457 28.2144L26.1719 28.9219L26.1773 28.9629L26.2161 29.2542L26.705 29.9375L26.8559 30.3005L26.8807 30.342L26.9815 30.5114L27.0583 30.6407L27.066 30.6538L27.2327 31.1524L27.1152 31.434L27.1745 31.6229L27.0261 31.7381L26.9989 31.9009L27.4379 32.4512L27.5337 32.694L27.4267 33.0305L27.256 33.2162L27.2083 33.267L27.2323 33.4092L27.4343 33.5909L27.7775 33.8964L27.9605 34.3504L28.0998 34.4727L28.2615 34.4382L28.3515 34.5069L28.488 34.5045L28.6222 34.6388L28.7091 34.6809L28.8464 34.7493L28.955 34.8907L28.979 35.3252L29.1814 35.8652L29.1845 36.158L29.1857 36.1995L29.3117 36.416L29.3512 36.5869L29.2845 37.039L29.4451 37.1841L29.6192 37.1485L29.7317 37.1663L29.9123 37.3168L30.1311 37.6501L30.3451 37.6188L30.4809 37.6842L31.1364 38.2769L31.2852 38.352L31.2934 38.3567L31.4004 38.4103L31.5338 38.5445L31.74 38.4077L31.7629 38.4053L31.9871 38.3855L32.0855 38.4522L32.2744 38.5799L32.5227 38.5767L33.0609 38.7417L33.2963 38.802L33.7698 39.0962L33.971 39.2207L34.0901 39.3174L34.2483 39.4464L34.5644 39.5824L34.8355 39.6473L34.9824 39.6822L35.0935 39.7249L35.0963 39.718H35.0979L35.0952 39.725L35.6823 39.9498L36.0003 40.024L36.2945 40.1323L36.5087 40.2101L36.6658 40.2127L36.888 40.0258L37.1032 40.0133L37.282 40.0578L37.4564 40.0285L37.7325 39.8584L37.7864 39.7785L37.9822 39.6853L38.6427 39.6033L38.8357 39.666L39.3312 39.4504L39.6632 39.5428L39.9571 39.4385L40.5992 39.5812L40.7699 39.7013L40.9607 39.9196L40.984 39.9206L41.1964 39.9248L41.1075 40.0727L41.3879 40.3668L41.6411 40.7495L41.6582 40.8001L41.8423 41.3405L41.9792 41.532L42.075 41.7992L42.0797 41.9734L41.9308 42.087L41.9063 42.1518L41.8979 42.1758L41.9281 42.2485L41.9843 42.2179L42.0913 42.1586L42.2215 42.1384L42.4511 42.1629L42.6027 42.1788L42.842 42.06L43.0005 41.9811L43.2553 42.0908L43.5353 42.0877L43.6529 42.14L43.9862 42.2909L44.1561 42.3069L44.2189 42.2657L44.2589 42.1705L44.2383 42.0594L44.1104 41.9129L43.8292 41.5864L43.7141 41.4187L43.6264 41.1758L43.5993 40.8651L43.58 40.6557L43.6149 40.3804L43.6904 40.2822L43.746 40.0635H43.747L43.7613 40.0063L43.9175 39.799L44.3313 39.5331L44.7758 39.1351L45.1271 38.9034L45.4893 38.7465L45.499 38.7021L45.5393 38.7183L46.4607 38.4051L46.4759 38.4033L46.8861 38.3319L49.655 38.5269L49.7577 38.4959V38.4952L49.8499 38.2363L49.8995 38.1883L49.9329 38.157L50.2373 38.023L50.3797 38.0027L50.7748 38.1002L50.9365 38.1401L51.1957 37.9949L51.3794 37.998L51.7591 37.7907L51.9937 37.7965L52.0825 37.7609L52.5394 37.4325L52.9795 37.3064L53.094 37.2455L53.1343 37.2233L53.5854 36.9851L53.872 36.765L54.1193 36.6335L54.3902 36.5637L55.0991 36.5138L55.2417 36.2762L55.5465 36.2355L55.7307 36.0278L55.9418 35.9421L56.0928 35.7245L56.2193 35.5422L56.3961 35.4399L56.9628 35.4043L57.6344 35.4875L57.7233 35.4336L57.8751 34.892L58.034 34.7903L58.4619 34.1668L58.4633 33.9395V33.7498L58.5337 33.4795L58.4859 32.9917L58.5425 32.4977L58.8085 31.8699L59.0429 31.6167L59.4207 31.3611L59.6128 31.2774L59.8849 31.2317V31.2318L59.9249 31.225L59.9942 31.2131L60.9312 31.2002C60.9442 31.1905 61.272 31.1955 61.272 31.1955L61.5844 31.1913L62.3751 31.3318L62.4313 31.3415L62.698 31.4281L63.0062 31.6678L63.3327 31.9865L63.3939 32.046L63.605 32.1349L63.6689 32.1628L63.8434 32.1349L64.092 32.0054L64.2795 31.8469L64.5351 31.7072L64.5413 31.6983L64.6852 31.4819L64.6895 31.4774L64.6927 31.4782V31.477H64.6902L64.747 31.3909L65.2411 31.1983L65.8222 31.165L65.8875 31.1297L65.9239 31.1102L66.0774 30.9299L66.2213 30.9288L66.5697 31.0548L66.8141 31.0061L67.0085 31.0839L67.1597 31.066L67.4447 31.0327L67.7507 31.2479L67.929 31.2701L68.5577 31.6379L68.5903 31.6432L68.6072 31.6463L68.6432 31.6523L68.7178 31.6301L68.8289 31.598L68.8435 31.5937L68.8575 31.6131L68.929 31.7139L69.027 31.7279L69.143 31.5731L69.0969 31.5029L69.0794 31.4773L68.8549 31.4316L68.6532 31.0872L68.8452 30.8804L68.544 30.5109L68.494 30.4497L68.477 30.4237L68.3729 30.2655L67.8455 29.4617L67.1587 28.9133L66.9181 28.7209L66.9165 28.7198L66.8323 28.6531L66.4657 28.28L66.2037 27.9322L66.1693 27.8573L66.1152 27.7393L65.9582 27.3973L65.6847 27.1862L65.4618 26.9428L65.4507 26.9284L64.9907 26.3033L64.9151 26.1985L64.8064 26.1358L64.5769 26.1342L64.5547 26.112L64.5418 26.0985L64.5495 26.0903L64.6597 25.9809L64.7824 25.95L64.8353 25.829L64.6011 25.1512L64.5995 25.1275L64.5821 24.9109L64.773 23.927L64.7974 23.8071L65.1228 23.1451L65.3243 22.98L65.5443 22.5475L65.7332 22.2711L65.9138 22.0953L65.9453 22.0767L66.2713 21.8793L66.5452 21.8408L66.8061 21.804L67.2617 21.9444L67.695 21.936L67.7795 21.927L67.9762 21.9048L68.2997 21.8029L68.4523 21.7087L68.5315 21.5872L68.6968 21.0331L68.7499 20.8568L68.8518 20.6652L69.4413 19.9865L69.887 19.5743L70.8891 18.8395L71.3797 18.5463L71.6301 18.3967L73.8663 17.4027L74.4474 16.8138L74.7502 16.5073L75.2859 16.1479L75.9127 15.8911L76.452 15.4642L76.5698 15.316L76.7182 14.8382L76.8419 14.8083L76.953 14.5668L76.9848 14.4981L77.4249 14.1879L77.4747 14.1631L79.1844 13.3064L79.4329 13.3405L79.5662 13.1413L80.0637 13.0579L80.1552 13.0423L80.2774 12.9811L80.3818 12.8033V12.7682L80.3961 12.2934L80.5023 12.1651L80.5602 11.8522L80.6148 11.78L80.6718 11.7049L80.8127 11.6059L80.7882 11.5469L80.7918 11.5503Z" fill="#D57800"/>
</g>
<rect x="0.5" y="0.5" width="99" height="65.6667" stroke="#C0D1E0"/>
<defs>
<clipPath id="clip0_1417_11409">
<rect width="100" height="66.6667" fill="white"/>
</clipPath>
</defs>
</svg>
