<svg width="54" height="54" viewBox="0 0 54 54" fill="none" xmlns="http://www.w3.org/2000/svg">
<path d="M46.7699 11.5844C46.0487 10.8299 45.1622 10.2235 44.1104 9.76514C43.0708 9.31233 41.9264 9.03063 40.6774 8.92003C39.4088 8.80645 38.1013 8.87596 36.7549 9.12856C36.116 9.24933 35.4829 9.40785 34.8555 9.60412C38.4663 21.1133 39.144 32.1579 36.8887 42.7381C41.4176 45.1782 44.8538 45.8679 47.1974 44.8075C48.8723 43.5567 49.9251 41.8064 50.3558 39.5569C51.0108 36.1747 51.208 32.1188 50.9476 27.3892C50.7187 23.2089 50.2109 19.4869 49.4242 16.2232C49.2676 15.5747 49.0274 14.9423 48.7036 14.326C48.4509 13.8418 48.1024 13.2925 47.6583 12.6778C47.3863 12.2994 47.0902 11.9349 46.7699 11.5844Z" fill="url(#paint0_linear_1_419)"/>
<path d="M44.1103 9.7642C45.1621 10.2225 46.0486 10.8289 46.7698 11.5834C45.5473 10.242 43.985 9.09581 42.083 8.14491L29.459 2.04688C25.9251 0.513906 22.2637 0.664512 18.4749 2.4987C13.1454 5.38663 8.55458 8.90925 4.70234 13.0665C2.10792 15.8657 1.3816 19.5185 2.52341 24.0248L5.38651 37.2097C5.90763 38.9222 6.39457 40.302 6.84733 41.3489C5.96464 39.0009 6.54805 35.8055 8.59757 31.7627C9.0722 30.971 9.5635 30.1974 10.0715 29.4418C12.0757 26.455 15.0745 23.16 19.0681 19.5565C21.1755 17.6543 23.2647 16.0018 25.3356 14.5991C27.5755 13.0809 30.0079 11.7059 32.6327 10.4742C33.3655 10.1296 34.1064 9.83928 34.8554 9.60317C35.4828 9.4069 36.1159 9.24838 36.7548 9.12761C38.1012 8.87502 39.4086 8.80551 40.6773 8.91908C41.9263 9.02968 43.0707 9.31138 44.1103 9.7642Z" fill="url(#paint1_linear_1_419)"/>
<path d="M29.7193 11.9432C30.6628 11.4328 31.6342 10.9431 32.6334 10.4742C33.3662 10.1296 34.1071 9.83928 34.8561 9.60317C35.4835 9.40691 36.1167 9.24838 36.7556 9.12761C38.1019 8.87502 39.4094 8.80551 40.678 8.91908C41.9271 9.02968 43.0714 9.31138 44.1111 9.7642C45.1629 10.2225 46.0494 10.8289 46.7706 11.5834C45.548 10.242 43.9858 9.09581 42.0838 8.14491L29.4598 2.04688C25.9258 0.513906 22.2644 0.664512 18.4756 2.4987C18.4653 2.50431 18.4549 2.50992 18.4446 2.51553C18.8864 2.84162 19.286 3.27469 19.4751 3.84189C19.666 4.4146 19.4865 4.92809 19.2256 5.33677C18.98 5.72143 18.6204 6.07905 18.3135 6.38417L18.2874 6.41011C17.9511 6.74462 17.6827 7.01669 17.5259 7.27507C17.3828 7.51098 17.3833 7.64715 17.448 7.77639C17.5408 7.962 17.6343 7.99846 17.7425 8.01115C17.9056 8.03027 18.1229 7.98698 18.4318 7.90043C18.4694 7.88989 18.5094 7.87836 18.5511 7.86629C18.7999 7.79446 19.1142 7.70373 19.3926 7.69063C19.5683 7.68237 19.774 7.70051 19.973 7.79638C20.1817 7.8969 20.3411 8.06265 20.448 8.27639C20.6053 8.59098 20.5311 8.9237 20.4437 9.15746C20.3506 9.40663 20.1954 9.6681 20.0241 9.92105C19.778 10.2844 19.4522 10.6949 19.1315 11.099C19.0088 11.2536 18.8869 11.4073 18.7704 11.557C18.3293 12.1242 17.9639 12.638 17.79 13.0527C17.7034 13.2591 17.6869 13.3899 17.695 13.4624C17.6999 13.5064 17.7114 13.5395 17.7781 13.584C17.9103 13.6721 18.1465 13.6958 18.6311 13.4461C19.0967 13.2063 19.6195 12.802 20.1938 12.3553L20.2186 12.336C20.7626 11.9129 21.3552 11.4519 21.9124 11.1649C22.4504 10.8877 23.1382 10.6788 23.7488 11.0649C24.4388 11.4062 24.8493 11.4497 25.103 11.4058C25.346 11.3637 25.5328 11.227 25.752 10.9803C25.8344 10.8877 25.9099 10.7932 25.9947 10.6871C26.0282 10.6452 26.0632 10.6015 26.1006 10.5553C26.2252 10.4016 26.369 10.2315 26.5379 10.0767C26.8916 9.75251 27.3512 9.5 28.0007 9.5C28.3782 9.5 28.7013 9.63446 28.9558 9.86775C29.1994 10.091 29.3606 10.386 29.4706 10.6885C29.6065 11.0622 29.6819 11.4977 29.7193 11.9432Z" fill="url(#paint2_linear_1_419)"/>
<path d="M45.5863 45.7464C46.1821 45.4738 46.7187 45.1604 47.196 44.8062C44.8525 45.8666 41.4163 45.1768 36.8874 42.7368L10.0702 29.4414C9.56226 30.197 9.07096 30.9706 8.59633 31.7623C6.54681 35.8051 5.9634 39.0005 6.84609 41.3485C6.98442 41.6685 7.13459 41.978 7.2966 42.2771C7.29969 42.2825 7.30356 42.2892 7.30819 42.2972C8.01765 43.594 9.00481 44.7581 10.2697 45.7895C11.9405 47.1469 13.9805 48.3645 16.3894 49.4421C18.2141 50.2592 20.5934 51.1309 23.5271 52.0572C25.2366 52.6035 26.7177 52.9121 27.9706 52.9829C29.4201 53.0635 30.8537 52.8569 32.2714 52.3632L45.5863 45.7464Z" fill="url(#paint3_linear_1_419)"/>
<defs>
<linearGradient id="paint0_linear_1_419" x1="44.5" y1="45.001" x2="43.4892" y2="8.90327" gradientUnits="userSpaceOnUse">
<stop stop-color="#AEA6A6"/>
<stop offset="1" stop-color="#FFF9F9"/>
</linearGradient>
<linearGradient id="paint1_linear_1_419" x1="6.35112" y1="35.8649" x2="38.3197" y2="9.62229" gradientUnits="userSpaceOnUse">
<stop stop-color="#0C6D7A"/>
<stop offset="0.00784314" stop-color="#0C6F7C"/>
<stop offset="0.239216" stop-color="#14BCD4"/>
<stop offset="0.482353" stop-color="#06DEFC"/>
<stop offset="0.545098" stop-color="#04E0FF"/>
<stop offset="0.831373" stop-color="#0FBBD4"/>
<stop offset="1" stop-color="#0D7684"/>
</linearGradient>
<linearGradient id="paint2_linear_1_419" x1="43.5" y1="8.5" x2="17.5" y2="9" gradientUnits="userSpaceOnUse">
<stop stop-color="#AEA6A6"/>
<stop offset="1" stop-color="#E6E6E6"/>
</linearGradient>
<linearGradient id="paint3_linear_1_419" x1="3.25187" y1="5.2887" x2="20.8042" y2="60.4691" gradientUnits="userSpaceOnUse">
<stop stop-color="#0C6D7A"/>
<stop offset="0.00784314" stop-color="#0C6F7C"/>
<stop offset="0.239216" stop-color="#14BCD4"/>
<stop offset="0.509804" stop-color="#04E0FF"/>
<stop offset="0.831373" stop-color="#0FBBD4"/>
<stop offset="1" stop-color="#0D7684"/>
</linearGradient>
</defs>
</svg>
