<svg width="54" height="54" viewBox="0 0 54 54" fill="none" xmlns="http://www.w3.org/2000/svg">
<path d="M46.7699 11.5844C46.0487 10.8299 45.1622 10.2235 44.1104 9.76514C43.0708 9.31233 41.9264 9.03063 40.6774 8.92003C39.4088 8.80645 38.1013 8.87596 36.7549 9.12856C36.116 9.24933 35.4829 9.40785 34.8555 9.60412C38.4663 21.1133 39.144 32.1579 36.8887 42.7381C41.4176 45.1782 44.8538 45.8679 47.1974 44.8075C48.8723 43.5567 49.9251 41.8064 50.3558 39.5569C51.0108 36.1747 51.208 32.1188 50.9476 27.3892C50.7187 23.2089 50.2109 19.4869 49.4242 16.2232C49.2676 15.5747 49.0274 14.9423 48.7036 14.326C48.4509 13.8418 48.1024 13.2925 47.6583 12.6778C47.3863 12.2994 47.0902 11.9349 46.7699 11.5844Z" fill="url(#paint0_linear_1_380)"/>
<path d="M44.1103 9.7642C45.1621 10.2225 46.0486 10.8289 46.7698 11.5834C45.5473 10.242 43.985 9.09581 42.083 8.14491L29.459 2.04688C25.9251 0.513906 22.2637 0.664512 18.4749 2.4987C13.1454 5.38663 8.55458 8.90925 4.70234 13.0665C2.10792 15.8657 1.3816 19.5185 2.52341 24.0248L5.38651 37.2097C5.90763 38.9222 6.39457 40.302 6.84733 41.3489C5.96464 39.0009 6.54805 35.8055 8.59757 31.7627C9.0722 30.971 9.5635 30.1974 10.0715 29.4418C12.0757 26.455 15.0745 23.16 19.0681 19.5565C21.1755 17.6543 23.2647 16.0018 25.3356 14.5991C27.5755 13.0809 30.0079 11.7059 32.6327 10.4742C33.3655 10.1296 34.1064 9.83928 34.8554 9.60317C35.4828 9.4069 36.1159 9.24838 36.7548 9.12761C38.1012 8.87502 39.4086 8.80551 40.6773 8.91908C41.9263 9.02968 43.0707 9.31138 44.1103 9.7642Z" fill="url(#paint1_linear_1_380)"/>
<path d="M45.5863 45.7464C46.1821 45.4738 46.7187 45.1604 47.196 44.8062C44.8525 45.8666 41.4163 45.1768 36.8874 42.7368L10.0702 29.4414C9.56226 30.197 9.07096 30.9706 8.59633 31.7623C6.54681 35.8051 5.9634 39.0005 6.84609 41.3485C6.98442 41.6685 7.13459 41.978 7.2966 42.2771C7.29969 42.2825 7.30356 42.2892 7.30819 42.2972C8.01765 43.594 9.00481 44.7581 10.2697 45.7895C11.9405 47.1469 13.9805 48.3645 16.3894 49.4421C18.2141 50.2592 20.5934 51.1309 23.5271 52.0572C25.2366 52.6035 26.7177 52.9121 27.9706 52.9829C29.4201 53.0635 30.8537 52.8569 32.2714 52.3632L45.5863 45.7464Z" fill="url(#paint2_linear_1_380)"/>
<path d="M21.7839 33C20.8773 33 20.0582 32.7861 19.3264 32.3583C18.6055 31.9306 18.0376 31.3093 17.6226 30.4944C17.2075 29.6694 17 28.6713 17 27.5C17 26.3287 17.2075 25.3356 17.6226 24.5208C18.0376 23.6958 18.6055 23.0694 19.3264 22.6417C20.0582 22.2139 20.8773 22 21.7839 22C22.7013 22 23.5205 22.2139 24.2413 22.6417C24.9622 23.0694 25.5301 23.6958 25.9452 24.5208C26.3711 25.3356 26.5841 26.3287 26.5841 27.5C26.5841 28.6713 26.3711 29.6694 25.9452 30.4944C25.5301 31.3093 24.9622 31.9306 24.2413 32.3583C23.5205 32.7861 22.7013 33 21.7839 33ZM21.7839 31.2736C22.319 31.2736 22.7832 31.1412 23.1764 30.8764C23.5696 30.6014 23.8754 30.1838 24.0939 29.6236C24.3232 29.0634 24.4379 28.3556 24.4379 27.5C24.4379 26.6343 24.3232 25.9264 24.0939 25.3764C23.8754 24.8162 23.5696 24.4037 23.1764 24.1389C22.7832 23.8639 22.319 23.7264 21.7839 23.7264C21.2705 23.7264 20.8118 23.8639 20.4077 24.1389C20.0145 24.4037 19.7032 24.8162 19.4738 25.3764C19.2554 25.9264 19.1462 26.6343 19.1462 27.5C19.1462 28.3556 19.2554 29.0634 19.4738 29.6236C19.7032 30.1838 20.0145 30.6014 20.4077 30.8764C20.8118 31.1412 21.2705 31.2736 21.7839 31.2736Z" fill="#AAAAAA"/>
<path d="M31.3472 30.9375V24.0625H33.1002V30.9375H31.3472ZM28.4474 28.2639V26.7361H36V28.2639H28.4474Z" fill="#AAAAAA"/>
<defs>
<linearGradient id="paint0_linear_1_380" x1="36.7336" y1="-9.46829" x2="44.1074" y2="46.0522" gradientUnits="userSpaceOnUse">
<stop stop-color="#0C6D7A"/>
<stop offset="0.00784314" stop-color="#0C6F7C"/>
<stop offset="0.239216" stop-color="#14BCD4"/>
<stop offset="0.509804" stop-color="#04E0FF"/>
<stop offset="0.831373" stop-color="#0FBBD4"/>
<stop offset="1" stop-color="#0D7684"/>
</linearGradient>
<linearGradient id="paint1_linear_1_380" x1="6.35112" y1="35.8649" x2="38.3197" y2="9.62229" gradientUnits="userSpaceOnUse">
<stop stop-color="#0C6D7A"/>
<stop offset="0.00784314" stop-color="#0C6F7C"/>
<stop offset="0.239216" stop-color="#14BCD4"/>
<stop offset="0.482353" stop-color="#06DEFC"/>
<stop offset="0.545098" stop-color="#04E0FF"/>
<stop offset="0.831373" stop-color="#0FBBD4"/>
<stop offset="1" stop-color="#0D7684"/>
</linearGradient>
<linearGradient id="paint2_linear_1_380" x1="3.25187" y1="5.2887" x2="20.8042" y2="60.4691" gradientUnits="userSpaceOnUse">
<stop stop-color="#0C6D7A"/>
<stop offset="0.00784314" stop-color="#0C6F7C"/>
<stop offset="0.239216" stop-color="#14BCD4"/>
<stop offset="0.509804" stop-color="#04E0FF"/>
<stop offset="0.831373" stop-color="#0FBBD4"/>
<stop offset="1" stop-color="#0D7684"/>
</linearGradient>
</defs>
</svg>
