<svg width="35" height="36" viewBox="0 0 35 36" fill="none" xmlns="http://www.w3.org/2000/svg">
<g clip-path="url(#clip0_7473_2)">
<path d="M17.5 35.5C15.1083 35.5 12.8479 35.0406 10.7188 34.1219C8.58958 33.2031 6.73021 31.949 5.14062 30.3594C3.55104 28.7698 2.29688 26.9104 1.37813 24.7812C0.459375 22.6521 0 20.3917 0 18C0 15.5792 0.459375 13.3115 1.37813 11.1969C2.29688 9.08229 3.55104 7.23021 5.14062 5.64062C6.73021 4.05104 8.58958 2.79688 10.7188 1.87813C12.8479 0.959375 15.1083 0.5 17.5 0.5C19.9208 0.5 22.1885 0.959375 24.3031 1.87813C26.4177 2.79688 28.2698 4.05104 29.8594 5.64062C31.449 7.23021 32.7031 9.08229 33.6219 11.1969C34.5406 13.3115 35 15.5792 35 18C35 20.3917 34.5406 22.6521 33.6219 24.7812C32.7031 26.9104 31.449 28.7698 29.8594 30.3594C28.2698 31.949 26.4177 33.2031 24.3031 34.1219C22.1885 35.0406 19.9208 35.5 17.5 35.5ZM17.5 31.9125C18.2583 30.8625 18.9146 29.7688 19.4688 28.6313C20.0229 27.4938 20.475 26.2833 20.825 25H14.175C14.525 26.2833 14.9771 27.4938 15.5312 28.6313C16.0854 29.7688 16.7417 30.8625 17.5 31.9125ZM12.95 31.2125C12.425 30.25 11.9656 29.251 11.5719 28.2156C11.1781 27.1802 10.85 26.1083 10.5875 25H5.425C6.27083 26.4583 7.32812 27.7271 8.59688 28.8063C9.86562 29.8854 11.3167 30.6875 12.95 31.2125ZM22.05 31.2125C23.6833 30.6875 25.1344 29.8854 26.4031 28.8063C27.6719 27.7271 28.7292 26.4583 29.575 25H24.4125C24.15 26.1083 23.8219 27.1802 23.4281 28.2156C23.0344 29.251 22.575 30.25 22.05 31.2125ZM3.9375 21.5H9.8875C9.8 20.9167 9.73438 20.3406 9.69063 19.7719C9.64687 19.2031 9.625 18.6125 9.625 18C9.625 17.3875 9.64687 16.7969 9.69063 16.2281C9.73438 15.6594 9.8 15.0833 9.8875 14.5H3.9375C3.79167 15.0833 3.68229 15.6594 3.60938 16.2281C3.53646 16.7969 3.5 17.3875 3.5 18C3.5 18.6125 3.53646 19.2031 3.60938 19.7719C3.68229 20.3406 3.79167 20.9167 3.9375 21.5ZM13.3875 21.5H21.6125C21.7 20.9167 21.7656 20.3406 21.8094 19.7719C21.8531 19.2031 21.875 18.6125 21.875 18C21.875 17.3875 21.8531 16.7969 21.8094 16.2281C21.7656 15.6594 21.7 15.0833 21.6125 14.5H13.3875C13.3 15.0833 13.2344 15.6594 13.1906 16.2281C13.1469 16.7969 13.125 17.3875 13.125 18C13.125 18.6125 13.1469 19.2031 13.1906 19.7719C13.2344 20.3406 13.3 20.9167 13.3875 21.5ZM25.1125 21.5H31.0625C31.2083 20.9167 31.3177 20.3406 31.3906 19.7719C31.4635 19.2031 31.5 18.6125 31.5 18C31.5 17.3875 31.4635 16.7969 31.3906 16.2281C31.3177 15.6594 31.2083 15.0833 31.0625 14.5H25.1125C25.2 15.0833 25.2656 15.6594 25.3094 16.2281C25.3531 16.7969 25.375 17.3875 25.375 18C25.375 18.6125 25.3531 19.2031 25.3094 19.7719C25.2656 20.3406 25.2 20.9167 25.1125 21.5ZM24.4125 11H29.575C28.7292 9.54167 27.6719 8.27292 26.4031 7.19375C25.1344 6.11458 23.6833 5.3125 22.05 4.7875C22.575 5.75 23.0344 6.74896 23.4281 7.78437C23.8219 8.81979 24.15 9.89167 24.4125 11ZM14.175 11H20.825C20.475 9.71667 20.0229 8.50625 19.4688 7.36875C18.9146 6.23125 18.2583 5.1375 17.5 4.0875C16.7417 5.1375 16.0854 6.23125 15.5312 7.36875C14.9771 8.50625 14.525 9.71667 14.175 11ZM5.425 11H10.5875C10.85 9.89167 11.1781 8.81979 11.5719 7.78437C11.9656 6.74896 12.425 5.75 12.95 4.7875C11.3167 5.3125 9.86562 6.11458 8.59688 7.19375C7.32812 8.27292 6.27083 9.54167 5.425 11Z" fill="white"/>
</g>
<defs>
<clipPath id="clip0_7473_2">
<rect width="35" height="36" fill="white"/>
</clipPath>
</defs>
</svg>
