<svg width="24" height="24" viewBox="0 0 24 24" fill="none" xmlns="http://www.w3.org/2000/svg">
<path d="M20.6617 9.624L19.307 9.39419C19.1659 8.9386 18.9845 8.49914 18.7627 8.07984L19.561 6.96306C19.8997 6.48731 19.8473 5.8382 19.432 5.42697L18.2305 4.22551C18.0048 3.99974 17.7064 3.87475 17.3879 3.87475C17.138 3.87475 16.9001 3.95136 16.6985 4.0965L15.5777 4.89478C15.1422 4.66497 14.6867 4.47548 14.2149 4.33437L13.9892 2.99584C13.8924 2.4193 13.3965 2 12.8119 2H11.1146C10.53 2 10.034 2.4193 9.93732 2.99584L9.70348 4.36662C9.25192 4.50773 8.81246 4.69319 8.39316 4.91897L7.28444 4.12069C7.08285 3.97555 6.84095 3.89894 6.59098 3.89894C6.27248 3.89894 5.9701 4.02393 5.74835 4.2497L4.54287 5.45116C4.13163 5.86239 4.07518 6.5115 4.41385 6.98725L5.2202 8.12016C4.99845 8.54349 4.82105 8.98295 4.68398 9.43854L3.34544 9.66431C2.76891 9.76107 2.34961 10.257 2.34961 10.8416V12.5389C2.34961 13.1235 2.76891 13.6194 3.34544 13.7162L4.71623 13.95C4.85734 14.4016 5.0428 14.8411 5.26858 15.2604L4.47433 16.365C4.13566 16.8408 4.18807 17.4899 4.60334 17.9011L5.8048 19.1026C6.03057 19.3284 6.32892 19.4533 6.64743 19.4533C6.89739 19.4533 7.13527 19.3767 7.33685 19.2316L8.46977 18.4253C8.87697 18.6389 9.30434 18.8123 9.74379 18.9494L9.96957 20.304C10.0663 20.8806 10.5622 21.2999 11.1468 21.2999H12.8482C13.4328 21.2999 13.9287 20.8806 14.0255 20.304L14.2553 18.9494C14.7109 18.8083 15.1503 18.6268 15.5696 18.4051L16.6864 19.2034C16.888 19.3485 17.1299 19.4251 17.3799 19.4251C17.6984 19.4251 17.9967 19.3001 18.2225 19.0744L19.4239 17.8729C19.8352 17.4617 19.8916 16.8126 19.553 16.3368L18.7547 15.216C18.9764 14.7927 19.1619 14.3532 19.299 13.9017L20.6536 13.6759C21.2302 13.5791 21.6495 13.0832 21.6495 12.4986V10.8013C21.6575 10.2167 21.2382 9.72076 20.6617 9.624ZM20.569 12.4986C20.569 12.551 20.5327 12.5954 20.4803 12.6034L18.7869 12.8857C18.5732 12.9219 18.4039 13.0792 18.3515 13.2848C18.1983 13.8775 17.9645 14.4459 17.65 14.9741C17.5411 15.1596 17.5492 15.3894 17.6742 15.5668L18.67 16.9698C18.6982 17.0101 18.6942 17.0706 18.6579 17.1069L17.4565 18.3083C17.4282 18.3366 17.4 18.3406 17.3799 18.3406C17.3557 18.3406 17.3355 18.3325 17.3194 18.3204L15.9204 17.3246C15.747 17.1996 15.5132 17.1915 15.3277 17.3004C14.7995 17.6149 14.2311 17.8487 13.6384 18.0019C13.4288 18.0543 13.2715 18.2277 13.2393 18.4374L12.953 20.1307C12.945 20.1831 12.9006 20.2194 12.8482 20.2194H11.1508C11.0984 20.2194 11.0541 20.1831 11.046 20.1307L10.7638 18.4374C10.7275 18.2237 10.5703 18.0543 10.3647 18.0019C9.78814 17.8528 9.23176 17.6229 8.71167 17.3246C8.62701 17.2762 8.53024 17.252 8.43751 17.252C8.32866 17.252 8.21577 17.2843 8.12304 17.3528L6.71193 18.3567C6.69178 18.3688 6.67162 18.3769 6.65146 18.3769C6.63533 18.3769 6.60308 18.3728 6.57486 18.3446L5.3734 17.1432C5.33712 17.1069 5.33308 17.0504 5.36131 17.0061L6.35311 15.6151C6.4781 15.4377 6.48616 15.2039 6.3773 15.0184C6.06283 14.4943 5.82092 13.9258 5.66772 13.3332C5.61127 13.1276 5.44194 12.9703 5.23229 12.934L3.52687 12.6438C3.47446 12.6357 3.43817 12.5913 3.43817 12.5389V10.8416C3.43817 10.7892 3.47446 10.7448 3.52687 10.7368L5.2081 10.4545C5.42178 10.4182 5.59515 10.261 5.64756 10.0514C5.79673 9.4587 6.02654 8.88619 6.33698 8.35803C6.44584 8.17257 6.43375 7.94277 6.30876 7.7694L5.30486 6.3583C5.27664 6.31798 5.28067 6.2575 5.31696 6.22122L6.51841 5.01976C6.54663 4.99154 6.57486 4.98751 6.59501 4.98751C6.61921 4.98751 6.63936 4.99557 6.65549 5.00767L8.04644 5.99947C8.22383 6.12446 8.45767 6.13252 8.64313 6.02366C9.16726 5.70919 9.73573 5.46729 10.3284 5.31408C10.534 5.25764 10.6912 5.0883 10.7275 4.87865L11.0178 3.17323C11.0259 3.12082 11.0702 3.08453 11.1226 3.08453H12.82C12.8724 3.08453 12.9167 3.12082 12.9248 3.17323L13.207 4.85446C13.2433 5.06814 13.4005 5.24151 13.6102 5.29392C14.219 5.44713 14.7996 5.685 15.3398 6.00351C15.5253 6.11236 15.7551 6.1043 15.9325 5.97931L17.3234 4.97945C17.3436 4.96735 17.3637 4.95929 17.3839 4.95929C17.4 4.95929 17.4323 4.96332 17.4605 4.99154L18.6619 6.193C18.6982 6.22928 18.7023 6.28573 18.674 6.33007L17.6782 7.72908C17.5532 7.90245 17.5452 8.13629 17.654 8.32175C17.9685 8.8499 18.2023 9.41838 18.3555 10.011C18.4079 10.2207 18.5813 10.3779 18.791 10.4102L20.4843 10.6964C20.5367 10.7045 20.573 10.7488 20.573 10.8013V12.4986H20.569Z" fill="white"/>
<path d="M12.0017 7.48315C9.7036 7.48315 7.83691 9.34984 7.83691 11.6479C7.83691 13.946 9.7036 15.8127 12.0017 15.8127C14.2998 15.8127 16.1665 13.946 16.1665 11.6479C16.1665 9.34984 14.2998 7.48315 12.0017 7.48315ZM12.0017 14.7241C10.3044 14.7241 8.92547 13.3453 8.92547 11.6479C8.92547 9.95056 10.3044 8.57171 12.0017 8.57171C13.6991 8.57171 15.0779 9.95056 15.0779 11.6479C15.0779 13.3453 13.6991 14.7241 12.0017 14.7241Z" fill="white"/>
<path d="M12.2811 13.5799C11.8756 13.5799 11.5067 13.5067 11.1743 13.3602C10.8383 13.2152 10.5698 12.997 10.3689 12.7055C10.1698 12.4141 10.0703 12.0556 10.0703 11.6301C10.0703 11.2747 10.1461 10.9513 10.2977 10.6598C10.4492 10.3715 10.6711 10.1431 10.9634 9.97481C11.2574 9.80492 11.6126 9.71997 12.029 9.71997C12.2409 9.71997 12.4308 9.76283 12.5989 9.84856C12.7687 9.93272 12.8911 10.0395 12.966 10.1688L13.0783 9.79245H13.9303V11.3191H13.0564V11.242C13.0564 11.044 13.0025 10.8819 12.8947 10.7557C12.7888 10.6294 12.6308 10.5663 12.4208 10.5663C12.2802 10.5663 12.1505 10.6123 12.0318 10.7042C11.9149 10.7977 11.8227 10.9201 11.7551 11.0713C11.6875 11.2209 11.6537 11.3752 11.6537 11.5342C11.6537 11.8475 11.745 12.093 11.9277 12.2707C12.1103 12.4468 12.3605 12.5349 12.6783 12.5349C12.903 12.5349 13.1112 12.5029 13.3029 12.439C13.4965 12.3751 13.6554 12.3065 13.7796 12.2333L13.8399 12.2777V13.2737C13.6079 13.3874 13.3632 13.4669 13.1057 13.5121C12.8482 13.5573 12.5733 13.5799 12.2811 13.5799Z" fill="white"/>
</svg>
