<svg width="23" height="20" viewBox="0 0 23 20" fill="none" xmlns="http://www.w3.org/2000/svg">
<path d="M7.91173 9.75C7.54683 9.75 7.19688 9.8817 6.93886 10.1161C6.68084 10.3505 6.53589 10.6685 6.53589 11C6.53589 11.3315 6.68084 11.6495 6.93886 11.8839C7.19688 12.1183 7.54683 12.25 7.91173 12.25C8.0924 12.25 8.27131 12.2177 8.43824 12.1548C8.60516 12.092 8.75683 12 8.88459 11.8839C9.01235 11.7678 9.11369 11.63 9.18284 11.4784C9.25198 11.3267 9.28757 11.1642 9.28757 11C9.28757 10.8358 9.25198 10.6733 9.18284 10.5216C9.11369 10.37 9.01235 10.2322 8.88459 10.1161C8.75683 10 8.60516 9.90797 8.43824 9.84515C8.27131 9.78233 8.0924 9.75 7.91173 9.75ZM14.5157 9.75C14.1508 9.75 13.8009 9.8817 13.5429 10.1161C13.2848 10.3505 13.1399 10.6685 13.1399 11C13.1399 11.3315 13.2848 11.6495 13.5429 11.8839C13.8009 12.1183 14.1508 12.25 14.5157 12.25C14.8806 12.25 15.2306 12.1183 15.4886 11.8839C15.7466 11.6495 15.8916 11.3315 15.8916 11C15.8916 10.6685 15.7466 10.3505 15.4886 10.1161C15.2306 9.8817 14.8806 9.75 14.5157 9.75ZM11.2137 0C9.76832 0 8.33705 0.258658 7.00165 0.761205C5.66626 1.26375 4.45289 2.00035 3.43082 2.92893C1.36666 4.8043 0.207031 7.34784 0.207031 10C0.207031 12.6522 1.36666 15.1957 3.43082 17.0711C4.45289 17.9997 5.66626 18.7362 7.00165 19.2388C8.33705 19.7413 9.76832 20 11.2137 20C14.1329 20 16.9325 18.9464 18.9966 17.0711C21.0608 15.1957 22.2204 12.6522 22.2204 10C22.2204 8.68678 21.9357 7.38642 21.3826 6.17317C20.8294 4.95991 20.0187 3.85752 18.9966 2.92893C17.9746 2.00035 16.7612 1.26375 15.4258 0.761205C14.0904 0.258658 12.6591 0 11.2137 0ZM11.2137 18C6.35978 18 2.40837 14.41 2.40837 10C2.40837 9.71 2.40837 9.42 2.46341 9.14C5.06099 8.09 7.11924 6.16 8.1979 3.77C9.45625 5.39238 11.2187 6.63679 13.2599 7.34401C15.301 8.05124 17.528 8.18911 19.6559 7.74C19.887 8.45 20.0191 9.21 20.0191 10C20.0191 14.41 16.0677 18 11.2137 18Z" fill="white"/>
</svg>
