<svg width="17" height="14" viewBox="0 0 17 14" fill="none" xmlns="http://www.w3.org/2000/svg">
<g clip-path="url(#clip0_7473_4)">
<path d="M1.66667 13.6668C1.20833 13.6668 0.815972 13.5036 0.489583 13.1772C0.163194 12.8509 0 12.4585 0 12.0002V2.00016C0 1.54183 0.163194 1.14947 0.489583 0.823079C0.815972 0.496691 1.20833 0.333496 1.66667 0.333496H15C15.4583 0.333496 15.8507 0.496691 16.1771 0.823079C16.5035 1.14947 16.6667 1.54183 16.6667 2.00016V12.0002C16.6667 12.4585 16.5035 12.8509 16.1771 13.1772C15.8507 13.5036 15.4583 13.6668 15 13.6668H1.66667ZM8.33333 7.8335L1.66667 3.66683V12.0002H15V3.66683L8.33333 7.8335ZM8.33333 6.16683L15 2.00016H1.66667L8.33333 6.16683ZM1.66667 3.66683V2.00016V12.0002V3.66683Z" fill="white"/>
</g>
<defs>
<clipPath id="clip0_7473_4">
<rect width="17" height="14" fill="white"/>
</clipPath>
</defs>
</svg>
