<svg width="24" height="24" viewBox="0 0 24 24" fill="none" xmlns="http://www.w3.org/2000/svg">
<path d="M15.7806 13.7266C14.6342 13.7266 13.709 14.6518 13.709 15.7982C13.709 16.9446 14.6342 17.8699 15.7806 17.8699C16.927 17.8699 17.8523 16.9446 17.8523 15.7982C17.8441 14.66 16.9188 13.7266 15.7806 13.7266ZM15.7806 16.486C15.4039 16.486 15.0928 16.1749 15.0928 15.7982C15.0928 15.4216 15.4039 15.1104 15.7806 15.1104C16.1573 15.1104 16.4684 15.4216 16.4684 15.7982C16.4684 16.1831 16.1573 16.486 15.7806 16.486Z" fill="white"/>
<path d="M20.7514 14.3228C20.5549 14.2818 20.3338 14.2409 20.1127 14.2081C20.0718 14.0935 20.0226 13.9789 19.9735 13.8642C20.1127 13.6759 20.2355 13.4958 20.3502 13.3238C20.5303 13.0536 20.4894 12.6933 20.2601 12.464L19.1219 11.334C18.9909 11.203 18.8108 11.1293 18.6306 11.1293C18.4996 11.1293 18.3686 11.1621 18.2539 11.2358C18.082 11.3422 17.9018 11.4732 17.7135 11.6042C17.5989 11.5551 17.4842 11.506 17.3696 11.465C17.3287 11.2358 17.2959 11.0147 17.2468 10.8182C17.1813 10.4988 16.8947 10.2695 16.5753 10.2695H14.9786C14.6511 10.2695 14.3727 10.4988 14.3072 10.8182C14.2662 11.0147 14.2253 11.2358 14.1843 11.465C14.0697 11.506 13.9551 11.5551 13.8404 11.6042C13.6521 11.465 13.4719 11.3422 13.3 11.2358C13.1853 11.1621 13.0543 11.1293 12.9233 11.1293C12.7432 11.1293 12.5712 11.1948 12.432 11.334L11.3102 12.4558C11.0809 12.6851 11.04 13.0454 11.2201 13.3156C11.3266 13.4876 11.4576 13.6677 11.5886 13.856C11.5395 13.9707 11.4904 14.0853 11.4494 14.2C11.2201 14.2409 10.999 14.2736 10.8025 14.3228C10.4832 14.3883 10.2539 14.6749 10.2539 14.9942V16.591C10.2539 16.9185 10.4832 17.1969 10.8025 17.2624C10.999 17.3033 11.2201 17.3443 11.4494 17.3852C11.4904 17.4999 11.5395 17.6145 11.5886 17.7291C11.4494 17.9175 11.3266 18.0976 11.2201 18.2696C11.04 18.5398 11.0809 18.9001 11.3102 19.1294L12.432 20.2512C12.563 20.3822 12.7432 20.4559 12.9233 20.4559C13.0543 20.4559 13.1853 20.4231 13.3 20.3494C13.4719 20.243 13.6521 20.112 13.8404 19.9728C13.9551 20.0219 14.0697 20.071 14.1843 20.112C14.2253 20.3412 14.258 20.5623 14.3072 20.7588C14.3727 21.0782 14.6593 21.3075 14.9786 21.3075H16.5753C16.9029 21.3075 17.1813 21.0782 17.2468 20.7588C17.2877 20.5623 17.3287 20.3412 17.3696 20.112C17.4842 20.071 17.5989 20.0219 17.7135 19.9728C17.9018 20.1038 18.082 20.2348 18.2539 20.3412C18.3686 20.4149 18.4996 20.4559 18.6306 20.4559C18.8108 20.4559 18.9827 20.3904 19.1219 20.2512L20.2437 19.1294C20.473 18.9001 20.5139 18.5398 20.3338 18.2614C20.2192 18.0894 20.0963 17.9093 19.9653 17.721C20.0226 17.6063 20.0636 17.4917 20.1127 17.377C20.342 17.3361 20.5549 17.3033 20.7514 17.2624C21.0708 17.1969 21.3 16.9103 21.3 16.5828V14.986C21.3 14.6749 21.0708 14.3965 20.7514 14.3228ZM19.9162 16.4763C19.646 16.5336 19.3512 16.5828 19.0318 16.6237C18.95 16.9349 18.8271 17.2297 18.6634 17.4999C18.8599 17.7619 19.0318 17.9994 19.1792 18.2286L18.213 19.1949C17.9837 19.0475 17.7381 18.8755 17.4842 18.679C17.214 18.8428 16.9192 18.9656 16.6081 19.0475C16.559 19.3668 16.5098 19.6698 16.4525 19.9318H15.085C15.0277 19.6698 14.9786 19.3668 14.9295 19.0475C14.6183 18.9656 14.3235 18.8428 14.0533 18.6872C13.7913 18.8837 13.5456 19.0557 13.3164 19.203L12.3501 18.2368C12.4975 18.0075 12.6695 17.7619 12.866 17.5081C12.7104 17.2378 12.5876 16.9431 12.5057 16.6319C12.1864 16.5828 11.8834 16.5336 11.6214 16.4763V15.1089C11.8834 15.0515 12.1864 15.0024 12.5057 14.9533C12.5876 14.6421 12.7104 14.3473 12.866 14.0771C12.6695 13.8151 12.4975 13.5694 12.3501 13.3484L13.3164 12.3821C13.5456 12.5295 13.7913 12.7015 14.0533 12.898C14.3235 12.7342 14.6183 12.6114 14.9295 12.5377C14.9786 12.2184 15.0277 11.9154 15.085 11.6534H16.4525C16.5098 11.9154 16.559 12.2184 16.6081 12.5377C16.9192 12.6196 17.214 12.7424 17.4842 12.898C17.7463 12.7015 17.9919 12.5295 18.213 12.3821L19.1792 13.3484C19.0318 13.5776 18.8599 13.8233 18.6634 14.0771C18.8271 14.3473 18.95 14.6421 19.0237 14.9533C19.343 14.9942 19.6378 15.0515 19.908 15.1007L19.9162 16.4763Z" fill="white"/>
<path d="M10.2703 18.6216C10.1802 18.6216 10.0901 18.6216 10 18.6216C5.7339 18.6216 3.63768 17.5326 3.63768 17.5326C3.42478 17.4425 3.26101 17.2296 3.2692 17.0658C3.32652 15.7966 3.71956 15.1497 3.71956 15.1497C4.08804 14.1917 5.04608 13.3074 6.27433 13.1763H6.5773C6.68375 13.1763 6.84752 13.2091 6.94578 13.25C6.94578 13.25 7.19962 13.3647 7.42889 13.4466C8.10034 13.6758 9.20577 13.815 10.0164 13.815C10.1311 13.815 10.2539 13.815 10.3767 13.8068C10.434 13.6595 10.4913 13.5203 10.5487 13.3811C10.4095 13.1927 10.2866 13.0044 10.172 12.8324C10.1229 12.8324 10.0655 12.8324 10.0164 12.8324C9.05019 12.8324 8.14128 12.6359 7.34701 12.3002C7.07679 12.1855 6.77382 12.0136 6.77382 12.0136C6.65919 11.9481 6.46266 11.899 6.33984 11.9071H5.97955C4.51383 12.1037 2.97442 13.3974 2.53224 14.8058C2.53224 14.8058 2.06551 15.7557 2 17.6226C2 17.8683 2.18833 18.1713 2.44217 18.3023C2.44217 18.3023 4.93963 19.899 10.0164 19.899C10.0574 19.899 10.0983 19.899 10.1474 19.899C9.92635 19.6124 9.90178 19.2112 10.0983 18.9C10.1392 18.8181 10.2048 18.7199 10.2703 18.6216Z" fill="white"/>
<path d="M9.99152 11.2037C12.5299 11.2037 14.5933 9.14845 14.5933 6.60187C14.5933 4.06347 12.5299 2 9.99152 2C7.45313 2 5.38965 4.05528 5.38965 6.60187C5.38965 9.14026 7.45313 11.2037 9.99152 11.2037ZM9.99152 3.28558C11.8257 3.28558 13.3078 4.77586 13.3078 6.60187C13.3078 8.42787 11.8175 9.91816 9.99152 9.91816C8.16551 9.91816 6.67523 8.43606 6.67523 6.60187C6.67523 4.76767 8.15733 3.28558 9.99152 3.28558Z" fill="white"/>
</svg>
