<svg width="24" height="24" viewBox="0 0 24 24" fill="none" xmlns="http://www.w3.org/2000/svg">
<g clip-path="url(#clip0_2562_1719)">
<path d="M11.9247 9.85517H12.0753C12.9192 9.85517 13.6023 10.6388 13.6023 11.2817V12.8991C13.6023 13.6827 12.9192 14.3257 12.0753 14.3257H11.9247C11.0808 14.3257 10.3977 13.5421 10.3977 12.8991V11.2817C10.4077 10.4881 11.0908 9.85517 11.9247 9.85517Z" fill="white"/>
<path d="M21.2574 5.96735H18.5249V3.11427C18.5249 2.2905 18.1733 1.49686 17.5504 0.91419C16.9276 0.331519 16.0737 0 15.1997 0H8.80034C7.91628 0 7.07242 0.331519 6.44956 0.91419C5.82671 1.49686 5.47509 2.2905 5.46505 3.11427V5.96735H2.74257C2.01925 5.96735 1.31603 6.23859 0.803684 6.7208C0.291335 7.20301 0 7.85601 0 8.52909V15.9029C2.59188 13.6928 5.85684 12.2662 9.33278 11.8342V11.2817C9.33278 10.6388 9.60402 10.026 10.0963 9.57388C10.5785 9.12181 11.2415 8.86061 11.9247 8.86061H12.0753C12.7585 8.86061 13.4215 9.11176 13.9037 9.57388C14.3859 10.026 14.6672 10.6388 14.6672 11.2817V11.9347C18.1632 12.5073 21.378 14.0846 23.8794 16.4353C23.9196 16.4755 23.9598 16.5057 24 16.5458V8.51905C24 7.83592 23.7087 7.19297 23.1963 6.71076C22.684 6.22855 21.9908 5.9573 21.2574 5.96735ZM16.4052 5.96735H7.60486V3.11427C7.60486 2.81289 7.73545 2.5316 7.95647 2.32064C8.17748 2.10967 8.48891 1.98912 8.81038 1.98912H15.2097C15.5312 1.98912 15.8326 2.10967 16.0636 2.32064C16.2846 2.5316 16.4152 2.81289 16.4152 3.11427L16.4052 5.96735Z" fill="white"/>
<path d="M23.99 18.0025C23.9498 17.9623 23.9096 17.9121 23.8694 17.8719L23.8493 17.8518C23.8091 17.8116 23.7689 17.7715 23.7288 17.7212C23.7187 17.7112 23.7187 17.7112 23.7087 17.7011C23.6785 17.671 23.6484 17.6308 23.6082 17.6007C23.5881 17.5806 23.568 17.5605 23.5479 17.5303C23.5077 17.4902 23.4676 17.45 23.4274 17.4098C23.3872 17.3696 23.3571 17.3395 23.3169 17.2993C23.0959 17.0883 22.8648 16.8774 22.6337 16.6764C22.5936 16.6463 22.5634 16.6162 22.5232 16.586C22.5132 16.576 22.5031 16.5659 22.483 16.5559C22.4328 16.5157 22.3926 16.4755 22.3424 16.4353C22.2922 16.3951 22.2419 16.355 22.2018 16.3148C22.1917 16.3047 22.1817 16.2947 22.1716 16.2947C22.1314 16.2645 22.0913 16.2344 22.0611 16.2043C22.041 16.1942 22.031 16.1741 22.0109 16.1641C21.9607 16.1239 21.9104 16.0837 21.8602 16.0435C21.7999 16.0033 21.7497 15.9632 21.6894 15.9129C21.6191 15.8627 21.5488 15.8125 21.4885 15.7622C21.4483 15.7321 21.3981 15.702 21.3478 15.6618C21.2474 15.5915 21.1369 15.5211 21.0364 15.4508C20.9962 15.4307 20.9661 15.4006 20.9259 15.3805C20.9058 15.3704 20.8857 15.3604 20.8656 15.3403C20.8355 15.3202 20.8054 15.3001 20.7752 15.28C20.735 15.2499 20.6848 15.2198 20.6446 15.1997C20.6346 15.1997 20.6346 15.1896 20.6245 15.1896C20.5743 15.1595 20.5241 15.1293 20.4738 15.0992C20.4537 15.0892 20.4437 15.0791 20.4236 15.0691C20.3834 15.049 20.3533 15.0289 20.3131 14.9987C20.062 14.8481 19.8108 14.7074 19.5496 14.5768C19.5195 14.5567 19.4793 14.5467 19.4491 14.5266C19.419 14.5065 19.3889 14.4964 19.3587 14.4764C19.3185 14.4563 19.2884 14.4362 19.2482 14.4261C19.2281 14.4161 19.208 14.406 19.198 14.396C19.1578 14.3759 19.1076 14.3558 19.0674 14.3357C19.0473 14.3257 19.0272 14.3156 19.0071 14.3056C18.9669 14.2855 18.9267 14.2654 18.8866 14.2453C18.8665 14.2352 18.8564 14.2252 18.8363 14.2252C18.7861 14.2051 18.7359 14.175 18.6856 14.1549C18.6856 14.1549 18.6756 14.1549 18.6756 14.1448C18.6254 14.1247 18.5651 14.0946 18.5149 14.0745C18.4646 14.0544 18.4144 14.0343 18.3642 14.0142C18.2938 13.9841 18.2336 13.954 18.1632 13.9339C17.9724 13.8535 17.7815 13.7832 17.5906 13.7129C17.5504 13.6928 17.5103 13.6827 17.4701 13.6727C17.45 13.6626 17.4198 13.6526 17.3997 13.6526C17.3696 13.6425 17.3294 13.6325 17.2993 13.6224C17.2591 13.6124 17.2189 13.5923 17.1687 13.5823C17.1586 13.5823 17.1386 13.5722 17.1285 13.5722C17.0783 13.5521 17.018 13.532 16.9678 13.522C16.9477 13.5119 16.9276 13.5119 16.9075 13.5019C16.8673 13.4918 16.8271 13.4818 16.7869 13.4617C16.7568 13.4517 16.7267 13.4416 16.6965 13.4316C16.6563 13.4215 16.6162 13.4014 16.5659 13.3914C16.5458 13.3813 16.5157 13.3813 16.4956 13.3713C16.4353 13.3512 16.3751 13.3311 16.3148 13.3211C16.2445 13.301 16.1741 13.2809 16.1038 13.2608C16.0435 13.2407 15.9933 13.2306 15.933 13.2206C15.9029 13.2105 15.8627 13.2005 15.8326 13.1905C15.7823 13.1804 15.7321 13.1603 15.6819 13.1503C15.6718 13.1503 15.6718 13.1503 15.6618 13.1503C15.6015 13.1402 15.5412 13.1201 15.481 13.1101C15.4207 13.1 15.3604 13.08 15.3001 13.0699C15.2599 13.0599 15.2097 13.0498 15.1695 13.0398C15.1293 13.0297 15.0791 13.0197 15.0389 13.0096C15.0289 13.0096 15.0188 13.0096 15.0088 12.9996C14.9485 12.9895 14.8882 12.9795 14.828 12.9694C14.8079 12.9694 14.7878 12.9594 14.7677 12.9594C14.7375 12.9594 14.7074 12.9494 14.6672 12.9494C14.6572 13.5823 14.3759 14.185 13.8937 14.627C13.4115 15.0691 12.7585 15.3202 12.0854 15.3202H11.9347C11.2516 15.3202 10.5885 15.059 10.1063 14.6069C9.62411 14.1549 9.35287 13.5421 9.34282 12.8991V12.8388C9.30264 12.8388 9.2725 12.8489 9.23232 12.8589C9.18209 12.869 9.12181 12.869 9.07158 12.879C9.03139 12.8891 8.98116 12.8891 8.94098 12.8991C8.92089 12.8991 8.91084 12.9092 8.89075 12.9092C8.84052 12.9192 8.79029 12.9293 8.74006 12.9393C8.71997 12.9393 8.69988 12.9494 8.68983 12.9494C8.62955 12.9494 8.57932 12.9594 8.52909 12.9694C8.509 12.9694 8.49895 12.9795 8.47886 12.9795C8.43868 12.9895 8.38845 12.9996 8.34826 13.0096C8.31813 13.0197 8.28799 13.0197 8.25785 13.0297C8.21766 13.0398 8.17748 13.0498 8.1373 13.0498C8.07702 13.0599 8.01674 13.0699 7.96651 13.09C7.92633 13.1 7.8761 13.1101 7.83591 13.1201C7.78568 13.1302 7.73545 13.1402 7.68522 13.1503C7.63499 13.1603 7.58476 13.1704 7.52449 13.1905C7.51444 13.1905 7.51444 13.1905 7.5044 13.2005C7.44412 13.2105 7.38384 13.2306 7.32357 13.2507C7.26329 13.2708 7.19297 13.2809 7.13269 13.301C7.07242 13.3211 7.00209 13.3411 6.94182 13.3512C6.88154 13.3713 6.82126 13.3813 6.76099 13.4014C6.75094 13.4014 6.7409 13.4115 6.73085 13.4115C6.68062 13.4316 6.63039 13.4416 6.57011 13.4617C6.56007 13.4617 6.53998 13.4717 6.52993 13.4717C6.4797 13.4918 6.42947 13.5019 6.37924 13.522C6.36919 13.522 6.35915 13.532 6.3491 13.532C6.28882 13.5521 6.22855 13.5722 6.17832 13.5923H6.16827C6.11804 13.6124 6.05776 13.6325 6.00753 13.6526C5.99749 13.6526 5.9774 13.6626 5.96735 13.6626C5.90707 13.6827 5.85684 13.7028 5.79657 13.7229C5.74634 13.743 5.69611 13.7631 5.64588 13.7731C5.62578 13.7832 5.59565 13.7932 5.57555 13.8033C5.52532 13.8234 5.47509 13.8434 5.42486 13.8635C5.36459 13.8836 5.30431 13.9138 5.24404 13.9339C5.18376 13.954 5.12348 13.9841 5.06321 14.0142C5.01298 14.0343 4.96275 14.0544 4.92256 14.0745C4.89242 14.0846 4.86229 14.1046 4.8221 14.1147C4.81206 14.1147 4.80201 14.1247 4.79196 14.1247C4.74173 14.1448 4.70155 14.1649 4.65132 14.185C4.63123 14.1951 4.61113 14.2051 4.59104 14.2152C4.55086 14.2352 4.52072 14.2453 4.48054 14.2654C4.43031 14.2855 4.38008 14.3156 4.32985 14.3357C4.26957 14.3658 4.20929 14.3859 4.15906 14.4161H4.14902C4.08874 14.4462 4.02846 14.4764 3.97823 14.5065C3.90791 14.5165 3.84764 14.5467 3.79741 14.5768C3.72708 14.6069 3.65676 14.6471 3.59648 14.6873C3.54625 14.7175 3.48598 14.7476 3.43575 14.7777C3.39556 14.7978 3.35538 14.8179 3.31519 14.8481C3.28506 14.8681 3.25492 14.8782 3.22478 14.8983C3.12432 14.9586 3.02386 15.0188 2.9234 15.0791C2.87317 15.1093 2.81289 15.1394 2.76266 15.1796C2.69234 15.2198 2.62202 15.2599 2.5517 15.3102C2.50147 15.3403 2.45123 15.3704 2.401 15.4006C2.24027 15.501 2.07953 15.6116 1.92884 15.7221C1.83843 15.7924 1.73797 15.8527 1.64755 15.923C1.58728 15.9632 1.527 16.0134 1.46672 16.0536C1.36626 16.1339 1.2658 16.2043 1.16534 16.2846C1.11511 16.3248 1.06488 16.365 1.01465 16.4052C0.96442 16.4454 0.91419 16.4856 0.86396 16.5257C0.773545 16.5961 0.693177 16.6664 0.602763 16.7468L0.502302 16.8271C0.472164 16.8472 0.442026 16.8774 0.421934 16.8974C0.371704 16.9376 0.331519 16.9879 0.281289 17.028C0.190875 17.1185 0.0904144 17.1988 0 17.2892V21.4182C0 22.1013 0.291335 22.7442 0.803684 23.2265C1.0046 23.4173 1.23566 23.558 1.48681 23.6785L7.51444 18.0126L11.3922 21.6593L16.3449 17.008L14.9586 15.702H18.987V19.4793L17.6007 18.1733L11.4324 23.9699H21.2574C21.9807 23.9699 22.684 23.6986 23.1963 23.2164C23.7087 22.7342 24 22.0812 24 21.4081L23.99 18.0025Z" fill="white"/>
<path d="M2.74257 23.9799H3.66681L1.8987 23.8393C2.16995 23.9196 2.45123 23.9799 2.74257 23.9799Z" fill="white"/>
<path d="M3.66681 23.9799H11.3822L7.52449 20.3533L3.66681 23.9799Z" fill="white"/>
<path d="M11.4123 24L11.4424 23.9799H11.3822L11.4123 24Z" fill="white"/>
<path d="M1.36626 23.7991L1.8987 23.8393C1.75806 23.7991 1.62746 23.7388 1.49686 23.6785L1.36626 23.7991Z" fill="white"/>
</g>
<rect x="0.5" y="0.5" width="23" height="23" stroke="black"/>
<defs>
<clipPath id="clip0_2562_1719">
<rect width="24" height="24" fill="white"/>
</clipPath>
</defs>
</svg>
