<svg width="24" height="24" viewBox="0 0 24 24" fill="none" xmlns="http://www.w3.org/2000/svg">
<g clip-path="url(#clip0_289_605)">
<rect width="24" height="24" rx="3" fill="url(#paint0_linear_289_605)"/>
<path d="M12 13.3585C13.9174 13.3585 15.4717 11.8042 15.4717 9.88679C15.4717 7.96943 13.9174 6.41509 12 6.41509C10.0826 6.41509 8.5283 7.96943 8.5283 9.88679C8.5283 11.8042 10.0826 13.3585 12 13.3585ZM12 13.3585C10.7217 13.3585 9.47471 13.7543 8.43045 14.4917C7.38619 15.229 6.59588 16.2716 6.16811 17.4762M12 13.3585C13.2783 13.3585 14.5253 13.7543 15.5695 14.4917C16.6138 15.229 17.4041 16.2716 17.8319 17.4762M20 12C20 16.4183 16.4183 20 12 20C7.58172 20 4 16.4183 4 12C4 7.58172 7.58172 4 12 4C16.4183 4 20 7.58172 20 12Z" stroke="white"/>
</g>
<defs>
<linearGradient id="paint0_linear_289_605" x1="11.9999" y1="-0.000100467" x2="11.9999" y2="23.9999" gradientUnits="userSpaceOnUse">
<stop stop-color="#04E0FF"/>
<stop offset="1" stop-color="#0D7684"/>
</linearGradient>
<clipPath id="clip0_289_605">
<rect width="24" height="24" rx="3" fill="white"/>
</clipPath>
</defs>
</svg>
