<svg width="121" height="121" viewBox="0 0 121 121" fill="none" xmlns="http://www.w3.org/2000/svg">
<path d="M60.5 121C93.9132 121 121 93.9132 121 60.5C121 27.0868 93.9132 0 60.5 0C27.0868 0 0 27.0868 0 60.5C0 93.9132 27.0868 121 60.5 121Z" fill="url(#paint0_linear_78_278)"/>
<path d="M60.5 116C92.2564 116 118 90.2564 118 58.5C118 26.7436 92.2564 1 60.5 1C28.7436 1 3 26.7436 3 58.5C3 90.2564 28.7436 116 60.5 116Z" fill="url(#paint1_linear_78_278)"/>
<path d="M60.5 67C85.629 67 106 52.897 106 35.5C106 18.103 85.629 4 60.5 4C35.371 4 15 18.103 15 35.5C15 52.897 35.371 67 60.5 67Z" fill="url(#paint2_linear_78_278)"/>
<path d="M30.8295 32H28.6136L35.0227 14.5455H37.2045L43.6136 32H41.3977L36.1818 17.3068H36.0455L30.8295 32ZM31.6477 25.1818H40.5795V27.0568H31.6477V25.1818ZM51.3438 37.1818C50.3722 37.1818 49.5369 37.0568 48.8381 36.8068C48.1392 36.5625 47.5568 36.2386 47.0909 35.8352C46.6307 35.4375 46.2642 35.0114 45.9915 34.5568L47.5938 33.4318C47.7756 33.6705 48.0057 33.9432 48.2841 34.25C48.5625 34.5625 48.9432 34.8324 49.4261 35.0597C49.9148 35.2926 50.554 35.4091 51.3438 35.4091C52.4006 35.4091 53.2727 35.1534 53.9602 34.642C54.6477 34.1307 54.9915 33.3295 54.9915 32.2386V29.5795H54.821C54.6733 29.8182 54.4631 30.1136 54.1903 30.4659C53.9233 30.8125 53.5369 31.1222 53.0312 31.3949C52.5312 31.6619 51.8551 31.7955 51.0028 31.7955C49.946 31.7955 48.9972 31.5455 48.1562 31.0455C47.321 30.5455 46.6591 29.8182 46.1705 28.8636C45.6875 27.9091 45.446 26.75 45.446 25.3864C45.446 24.0455 45.6818 22.8778 46.1534 21.8835C46.625 20.8835 47.2813 20.1108 48.1222 19.5653C48.9631 19.0142 49.9347 18.7386 51.0369 18.7386C51.8892 18.7386 52.5653 18.8807 53.0653 19.1648C53.571 19.4432 53.9574 19.7614 54.2244 20.1193C54.4972 20.4716 54.7074 20.7614 54.8551 20.9886H55.0597V18.9091H57.0028V32.375C57.0028 33.5 56.7472 34.4148 56.2358 35.1193C55.7301 35.8295 55.0483 36.3494 54.1903 36.679C53.3381 37.0142 52.3892 37.1818 51.3438 37.1818ZM51.2756 29.9886C52.0824 29.9886 52.7642 29.804 53.321 29.4347C53.8778 29.0653 54.3011 28.5341 54.5909 27.8409C54.8807 27.1477 55.0256 26.3182 55.0256 25.3523C55.0256 24.4091 54.8835 23.5767 54.5994 22.8551C54.3153 22.1335 53.8949 21.5682 53.3381 21.1591C52.7813 20.75 52.0938 20.5455 51.2756 20.5455C50.4233 20.5455 49.7131 20.7614 49.1449 21.1932C48.5824 21.625 48.1591 22.2045 47.875 22.9318C47.5966 23.6591 47.4574 24.4659 47.4574 25.3523C47.4574 26.2614 47.5994 27.0653 47.8835 27.7642C48.1733 28.4574 48.5994 29.0028 49.1619 29.4006C49.7301 29.7926 50.4347 29.9886 51.2756 29.9886ZM66.1733 32.2727C64.9119 32.2727 63.8239 31.9943 62.9091 31.4375C62 30.875 61.2983 30.0909 60.804 29.0852C60.3153 28.0739 60.071 26.8977 60.071 25.5568C60.071 24.2159 60.3153 23.0341 60.804 22.0114C61.2983 20.983 61.9858 20.1818 62.8665 19.608C63.7528 19.0284 64.7869 18.7386 65.9688 18.7386C66.6506 18.7386 67.3239 18.8523 67.9886 19.0795C68.6534 19.3068 69.2585 19.6761 69.804 20.1875C70.3494 20.6932 70.7841 21.3636 71.108 22.1989C71.4318 23.0341 71.5938 24.0625 71.5938 25.2841V26.1364H61.5028V24.3977H69.5483C69.5483 23.6591 69.4006 23 69.1051 22.4205C68.8153 21.8409 68.4006 21.3835 67.8608 21.0483C67.3267 20.7131 66.696 20.5455 65.9688 20.5455C65.1676 20.5455 64.4744 20.7443 63.8892 21.142C63.3097 21.5341 62.8636 22.0455 62.5511 22.6761C62.2386 23.3068 62.0824 23.983 62.0824 24.7045V25.8636C62.0824 26.8523 62.2528 27.6903 62.5938 28.3778C62.9403 29.0597 63.4205 29.5795 64.0341 29.9375C64.6477 30.2898 65.3608 30.4659 66.1733 30.4659C66.7017 30.4659 67.179 30.392 67.6051 30.2443C68.0369 30.0909 68.4091 29.8636 68.7216 29.5625C69.0341 29.2557 69.2756 28.875 69.446 28.4205L71.3892 28.9659C71.1847 29.625 70.8409 30.2045 70.358 30.7045C69.875 31.1989 69.2784 31.5852 68.5682 31.8636C67.858 32.1364 67.0597 32.2727 66.1733 32.2727ZM85.2557 32.3068C84.4261 32.3068 83.6733 32.1506 82.9972 31.8381C82.321 31.5199 81.7841 31.0625 81.3864 30.4659C80.9886 29.8636 80.7898 29.1364 80.7898 28.2841C80.7898 27.5341 80.9375 26.9261 81.233 26.4602C81.5284 25.9886 81.9233 25.6193 82.4176 25.3523C82.9119 25.0852 83.4574 24.8864 84.054 24.7557C84.6563 24.6193 85.2614 24.5114 85.8693 24.4318C86.6648 24.3295 87.3097 24.2528 87.804 24.2017C88.304 24.1449 88.6676 24.0511 88.8949 23.9205C89.1278 23.7898 89.2443 23.5625 89.2443 23.2386V23.1705C89.2443 22.3295 89.0142 21.6761 88.554 21.2102C88.0994 20.7443 87.4091 20.5114 86.483 20.5114C85.5227 20.5114 84.7699 20.7216 84.2244 21.142C83.679 21.5625 83.2955 22.0114 83.0739 22.4886L81.1648 21.8068C81.5057 21.0114 81.9602 20.392 82.5284 19.9489C83.1023 19.5 83.7273 19.1875 84.4034 19.0114C85.0852 18.8295 85.7557 18.7386 86.4148 18.7386C86.8352 18.7386 87.3182 18.7898 87.8636 18.892C88.4148 18.9886 88.946 19.1903 89.4574 19.4972C89.9744 19.804 90.4034 20.267 90.7443 20.8864C91.0852 21.5057 91.2557 22.3352 91.2557 23.375V32H89.2443V30.2273H89.142C89.0057 30.5114 88.7784 30.8153 88.4602 31.1392C88.142 31.4631 87.7188 31.7386 87.1903 31.9659C86.6619 32.1932 86.017 32.3068 85.2557 32.3068ZM85.5625 30.5C86.358 30.5 87.0284 30.3438 87.5739 30.0312C88.125 29.7188 88.5398 29.3153 88.8182 28.821C89.1023 28.3267 89.2443 27.8068 89.2443 27.2614V25.4205C89.1591 25.5227 88.9716 25.6165 88.6818 25.7017C88.3977 25.7812 88.0682 25.8523 87.6932 25.9148C87.3239 25.9716 86.9631 26.0227 86.6108 26.0682C86.2642 26.108 85.983 26.142 85.767 26.1705C85.2443 26.2386 84.7557 26.3494 84.3011 26.5028C83.8523 26.6506 83.4886 26.875 83.2102 27.1761C82.9375 27.4716 82.8011 27.875 82.8011 28.3864C82.8011 29.0852 83.0597 29.6136 83.5767 29.9716C84.0994 30.3239 84.7614 30.5 85.5625 30.5Z" fill="#0D3541"/>
<path d="M36.1736 43.5455H38.5941L43.435 51.6932H43.6395L48.4805 43.5455H50.9009L44.5941 53.8068V61H42.4805V53.8068L36.1736 43.5455ZM56.9989 61.2727C55.7376 61.2727 54.6495 60.9943 53.7347 60.4375C52.8256 59.875 52.1239 59.0909 51.6296 58.0852C51.141 57.0739 50.8966 55.8977 50.8966 54.5568C50.8966 53.2159 51.141 52.0341 51.6296 51.0114C52.1239 49.983 52.8114 49.1818 53.6921 48.608C54.5785 48.0284 55.6126 47.7386 56.7944 47.7386C57.4762 47.7386 58.1495 47.8523 58.8143 48.0795C59.479 48.3068 60.0841 48.6761 60.6296 49.1875C61.1751 49.6932 61.6097 50.3636 61.9336 51.1989C62.2574 52.0341 62.4194 53.0625 62.4194 54.2841V55.1364H52.3285V53.3977H60.3739C60.3739 52.6591 60.2262 52 59.9307 51.4205C59.641 50.8409 59.2262 50.3835 58.6864 50.0483C58.1523 49.7131 57.5216 49.5455 56.7944 49.5455C55.9932 49.5455 55.3001 49.7443 54.7148 50.142C54.1353 50.5341 53.6893 51.0455 53.3768 51.6761C53.0643 52.3068 52.908 52.983 52.908 53.7045V54.8636C52.908 55.8523 53.0785 56.6903 53.4194 57.3778C53.766 58.0597 54.2461 58.5795 54.8597 58.9375C55.4734 59.2898 56.1864 59.4659 56.9989 59.4659C57.5273 59.4659 58.0046 59.392 58.4307 59.2443C58.8626 59.0909 59.2347 58.8636 59.5472 58.5625C59.8597 58.2557 60.1012 57.875 60.2716 57.4205L62.2148 57.9659C62.0103 58.625 61.6665 59.2045 61.1836 59.7045C60.7006 60.1989 60.104 60.5852 59.3938 60.8636C58.6836 61.1364 57.8853 61.2727 56.9989 61.2727ZM69.3313 61.3068C68.5018 61.3068 67.7489 61.1506 67.0728 60.8381C66.3966 60.5199 65.8597 60.0625 65.462 59.4659C65.0643 58.8636 64.8654 58.1364 64.8654 57.2841C64.8654 56.5341 65.0131 55.9261 65.3086 55.4602C65.604 54.9886 65.9989 54.6193 66.4932 54.3523C66.9876 54.0852 67.533 53.8864 68.1296 53.7557C68.7319 53.6193 69.337 53.5114 69.9449 53.4318C70.7404 53.3295 71.3853 53.2528 71.8796 53.2017C72.3796 53.1449 72.7432 53.0511 72.9705 52.9205C73.2035 52.7898 73.3199 52.5625 73.3199 52.2386V52.1705C73.3199 51.3295 73.0898 50.6761 72.6296 50.2102C72.1751 49.7443 71.4847 49.5114 70.5586 49.5114C69.5984 49.5114 68.8455 49.7216 68.3001 50.142C67.7546 50.5625 67.3711 51.0114 67.1495 51.4886L65.2404 50.8068C65.5813 50.0114 66.0358 49.392 66.604 48.9489C67.1779 48.5 67.8029 48.1875 68.479 48.0114C69.1608 47.8295 69.8313 47.7386 70.4904 47.7386C70.9109 47.7386 71.3938 47.7898 71.9393 47.892C72.4904 47.9886 73.0216 48.1903 73.533 48.4972C74.0501 48.804 74.479 49.267 74.8199 49.8864C75.1609 50.5057 75.3313 51.3352 75.3313 52.375V61H73.3199V59.2273H73.2177C73.0813 59.5114 72.854 59.8153 72.5359 60.1392C72.2177 60.4631 71.7944 60.7386 71.266 60.9659C70.7376 61.1932 70.0927 61.3068 69.3313 61.3068ZM69.6381 59.5C70.4336 59.5 71.104 59.3438 71.6495 59.0312C72.2006 58.7188 72.6154 58.3153 72.8938 57.821C73.1779 57.3267 73.3199 56.8068 73.3199 56.2614V54.4205C73.2347 54.5227 73.0472 54.6165 72.7574 54.7017C72.4733 54.7812 72.1438 54.8523 71.7688 54.9148C71.3995 54.9716 71.0387 55.0227 70.6864 55.0682C70.3398 55.108 70.0586 55.142 69.8427 55.1705C69.3199 55.2386 68.8313 55.3494 68.3768 55.5028C67.9279 55.6506 67.5643 55.875 67.2858 56.1761C67.0131 56.4716 66.8768 56.875 66.8768 57.3864C66.8768 58.0852 67.1353 58.6136 67.6523 58.9716C68.1751 59.3239 68.837 59.5 69.6381 59.5ZM79.0025 61V47.9091H80.9457V49.8864H81.082C81.3207 49.2386 81.7525 48.7131 82.3775 48.3097C83.0025 47.9062 83.707 47.7045 84.4911 47.7045C84.6388 47.7045 84.8235 47.7074 85.0451 47.7131C85.2667 47.7187 85.4343 47.7273 85.5479 47.7386V49.7841C85.4797 49.767 85.3235 49.7415 85.0792 49.7074C84.8405 49.6676 84.5877 49.6477 84.3207 49.6477C83.6843 49.6477 83.1161 49.7812 82.6161 50.0483C82.1218 50.3097 81.7297 50.6733 81.44 51.1392C81.1559 51.5994 81.0138 52.125 81.0138 52.7159V61H79.0025Z" fill="#0D3541"/>
<circle cx="60.5" cy="90.5" r="21.5" fill="white" fill-opacity="0.2"/>
<path d="M49.8068 99V97.4659L55.5682 91.1591C56.2443 90.4205 56.8011 89.7784 57.2386 89.233C57.6761 88.6818 58 88.1648 58.2102 87.6818C58.4261 87.1932 58.5341 86.6818 58.5341 86.1477C58.5341 85.5341 58.3864 85.0028 58.0909 84.554C57.8011 84.1051 57.4034 83.7585 56.8977 83.5142C56.392 83.2699 55.8239 83.1477 55.1932 83.1477C54.5227 83.1477 53.9375 83.2869 53.4375 83.5653C52.9432 83.8381 52.5597 84.2216 52.2869 84.7159C52.0199 85.2102 51.8864 85.7898 51.8864 86.4545H49.875C49.875 85.4318 50.1108 84.5341 50.5824 83.7614C51.054 82.9886 51.696 82.3864 52.5085 81.9545C53.3267 81.5227 54.2443 81.3068 55.2614 81.3068C56.2841 81.3068 57.1903 81.5227 57.9801 81.9545C58.7699 82.3864 59.3892 82.9687 59.8381 83.7017C60.2869 84.4347 60.5114 85.25 60.5114 86.1477C60.5114 86.7898 60.3949 87.4176 60.1619 88.0312C59.9347 88.6392 59.5369 89.3182 58.9688 90.0682C58.4062 90.8125 57.625 91.7216 56.625 92.7955L52.7045 96.9886V97.125H60.8182V99H49.8068ZM70.4744 81.5455V99H68.3608V83.7614H68.2585L63.9972 86.5909V84.4432L68.3608 81.5455H70.4744Z" fill="#BABABA"/>
<defs>
<linearGradient id="paint0_linear_78_278" x1="156.211" y1="106.722" x2="-7.744" y2="20.328" gradientUnits="userSpaceOnUse">
<stop stop-color="#055782"/>
<stop offset="1" stop-color="#032C41"/>
</linearGradient>
<linearGradient id="paint1_linear_78_278" x1="60.5" y1="1" x2="71.77" y2="126.005" gradientUnits="userSpaceOnUse">
<stop stop-color="#0897E3"/>
<stop offset="1" stop-color="#044C72"/>
</linearGradient>
<linearGradient id="paint2_linear_78_278" x1="52.492" y1="-0.662" x2="56.3398" y2="79.0448" gradientUnits="userSpaceOnUse">
<stop stop-color="white"/>
<stop offset="1" stop-color="#0787CB"/>
</linearGradient>
</defs>
</svg>
