<svg width="40" height="40" viewBox="0 0 40 40" fill="none" xmlns="http://www.w3.org/2000/svg">
<g opacity="0.4">
<circle cx="20.0416" cy="21.1356" r="17.2957" stroke="url(#paint0_linear_1_534)" stroke-opacity="0.5" stroke-width="2"/>
<circle cx="18.8221" cy="19.9168" r="17.7957" stroke="url(#paint1_linear_1_534)" stroke-opacity="0.6"/>
<circle cx="20" cy="20.0005" r="14.2368" stroke="url(#paint2_linear_1_534)" stroke-opacity="0.6"/>
<circle cx="20" cy="20" r="19.5" stroke="url(#paint3_linear_1_534)" stroke-opacity="0.6"/>
<circle cx="20.6517" cy="19.9168" r="17.7957" stroke="url(#paint4_linear_1_534)" stroke-opacity="0.6"/>
</g>
<circle cx="20" cy="20" r="16.5" fill="url(#paint5_radial_1_534)" stroke="url(#paint6_linear_1_534)"/>
<ellipse cx="15" cy="15" rx="15" ry="15" transform="matrix(-1 -8.74228e-08 -8.74228e-08 1 35 5)" fill="url(#paint7_linear_1_534)"/>
<path d="M22.3037 20.9623L28.4399 14.8261C28.6851 14.5747 28.8214 14.2368 28.8192 13.8856C28.817 13.5344 28.6766 13.1982 28.4283 12.9498C28.18 12.7015 27.8439 12.5609 27.4927 12.5586C27.1415 12.5563 26.8036 12.6925 26.552 12.9376L20.4155 19.0741L14.279 12.9379C14.0275 12.6928 13.6895 12.5566 13.3384 12.5589C12.9872 12.5612 12.651 12.7018 12.4027 12.9502C12.1544 13.1985 12.014 13.5347 12.0118 13.8859C12.0096 14.2371 12.1459 14.575 12.3911 14.8264L18.5273 20.9623L12.3911 27.0985C12.2671 27.2225 12.1688 27.3697 12.1017 27.5316C12.0346 27.6936 12 27.8672 12 28.0425C12 28.2178 12.0345 28.3914 12.1016 28.5534C12.1687 28.7154 12.267 28.8626 12.391 28.9866C12.5149 29.1106 12.6621 29.2089 12.8241 29.276C12.986 29.3431 13.1596 29.3777 13.3349 29.3777C13.5103 29.3777 13.6839 29.3432 13.8459 29.2761C14.0078 29.209 14.155 29.1107 14.279 28.9867L20.4155 22.8505L26.552 28.9867C26.8024 29.2371 27.142 29.3777 27.4961 29.3777C27.8502 29.3777 28.1897 29.237 28.4401 28.9866C28.6904 28.7362 28.8311 28.3966 28.831 28.0425C28.831 27.6884 28.6903 27.3489 28.4399 27.0985L22.3037 20.9623Z" fill="#0E4155" fill-opacity="0.75"/>
<path d="M22.3037 19.4037L28.4399 13.2675C28.6851 13.0161 28.8214 12.6782 28.8192 12.327C28.817 11.9758 28.6766 11.6396 28.4283 11.3912C28.18 11.1429 27.8439 11.0023 27.4927 11C27.1415 10.9977 26.8036 11.1339 26.552 11.379L20.4155 17.5155L14.279 11.3793C14.0275 11.1342 13.6895 10.998 13.3384 11.0003C12.9872 11.0026 12.651 11.1432 12.4027 11.3916C12.1544 11.6399 12.014 11.9761 12.0118 12.3273C12.0096 12.6785 12.1459 13.0164 12.3911 13.2678L18.5273 19.4037L12.3911 25.5399C12.2671 25.6639 12.1688 25.8111 12.1017 25.973C12.0346 26.135 12 26.3086 12 26.4839C12 26.6593 12.0345 26.8329 12.1016 26.9948C12.1687 27.1568 12.267 27.304 12.391 27.428C12.5149 27.552 12.6621 27.6503 12.8241 27.7174C12.986 27.7845 13.1596 27.8191 13.3349 27.8191C13.5103 27.8191 13.6839 27.7846 13.8459 27.7175C14.0078 27.6504 14.155 27.5521 14.279 27.4281L20.4155 21.2919L26.552 27.4281C26.8024 27.6785 27.142 27.8191 27.4961 27.8191C27.8502 27.8191 28.1897 27.6784 28.4401 27.428C28.6904 27.1776 28.8311 26.838 28.831 26.4839C28.831 26.1299 28.6903 25.7903 28.4399 25.5399L22.3037 19.4037Z" fill="white"/>
<defs>
<linearGradient id="paint0_linear_1_534" x1="20.0416" y1="2.83984" x2="20.0416" y2="39.4313" gradientUnits="userSpaceOnUse">
<stop stop-color="#00C2FF"/>
<stop offset="1" stop-color="#216CFF"/>
</linearGradient>
<linearGradient id="paint1_linear_1_534" x1="18.8221" y1="1.62109" x2="18.8221" y2="38.2126" gradientUnits="userSpaceOnUse">
<stop stop-color="#00C2FF"/>
<stop offset="1" stop-color="#216CFF"/>
</linearGradient>
<linearGradient id="paint2_linear_1_534" x1="20" y1="5.26367" x2="20" y2="34.7374" gradientUnits="userSpaceOnUse">
<stop stop-color="#00C2FF"/>
<stop offset="1" stop-color="#216CFF"/>
</linearGradient>
<linearGradient id="paint3_linear_1_534" x1="20" y1="0" x2="20" y2="40" gradientUnits="userSpaceOnUse">
<stop stop-color="#00C2FF"/>
<stop offset="1" stop-color="#216CFF"/>
</linearGradient>
<linearGradient id="paint4_linear_1_534" x1="20.6517" y1="1.62109" x2="20.6517" y2="38.2126" gradientUnits="userSpaceOnUse">
<stop stop-color="#00C2FF"/>
<stop offset="1" stop-color="#216CFF"/>
</linearGradient>
<radialGradient id="paint5_radial_1_534" cx="0" cy="0" r="1" gradientUnits="userSpaceOnUse" gradientTransform="translate(19.9998 19.9999) rotate(90) scale(17 17.9952)">
<stop stop-color="#04E0FF"/>
<stop offset="1" stop-color="#0D7684"/>
</radialGradient>
<linearGradient id="paint6_linear_1_534" x1="19.9998" y1="2.99986" x2="19.9998" y2="36.9999" gradientUnits="userSpaceOnUse">
<stop stop-color="#04E0FF"/>
<stop offset="1" stop-color="#0D7684"/>
</linearGradient>
<linearGradient id="paint7_linear_1_534" x1="15" y1="0" x2="15" y2="30" gradientUnits="userSpaceOnUse">
<stop stop-color="white" stop-opacity="0.5"/>
<stop offset="0.400706" stop-color="white" stop-opacity="0"/>
</linearGradient>
</defs>
</svg>
