<svg width="40" height="40" viewBox="0 0 40 40" fill="none" xmlns="http://www.w3.org/2000/svg">
<g opacity="0.4">
<circle cx="20.0416" cy="21.1356" r="17.2957" stroke="url(#paint0_linear_1_547)" stroke-opacity="0.5" stroke-width="2"/>
<circle cx="18.8221" cy="19.9168" r="17.7957" stroke="url(#paint1_linear_1_547)" stroke-opacity="0.6"/>
<circle cx="20" cy="20.0005" r="14.2368" stroke="url(#paint2_linear_1_547)" stroke-opacity="0.6"/>
<circle cx="20" cy="20" r="19.5" stroke="url(#paint3_linear_1_547)" stroke-opacity="0.6"/>
<circle cx="20.6517" cy="19.9168" r="17.7957" stroke="url(#paint4_linear_1_547)" stroke-opacity="0.6"/>
</g>
<circle cx="20" cy="20" r="16.5" fill="url(#paint5_radial_1_547)" stroke="url(#paint6_linear_1_547)"/>
<ellipse cx="15" cy="15" rx="15" ry="15" transform="matrix(-1 -8.74228e-08 -8.74228e-08 1 35 5)" fill="url(#paint7_linear_1_547)"/>
<path fill-rule="evenodd" clip-rule="evenodd" d="M22 11.6543C22 12.7589 21.1046 13.6543 20 13.6543C18.8954 13.6543 18 12.7589 18 11.6543C18 10.5497 18.8954 9.6543 20 9.6543C21.1046 9.6543 22 10.5497 22 11.6543ZM20.7 11.6543C20.7 12.0409 20.3866 12.3543 20 12.3543C19.6134 12.3543 19.3 12.0409 19.3 11.6543C19.3 11.2677 19.6134 10.9543 20 10.9543C20.3866 10.9543 20.7 11.2677 20.7 11.6543Z" fill="#21677A"/>
<path fill-rule="evenodd" clip-rule="evenodd" d="M22 29.6543C22 30.7589 21.1046 31.6543 20 31.6543C18.8954 31.6543 18 30.7589 18 29.6543C18 28.5497 18.8954 27.6543 20 27.6543C21.1046 27.6543 22 28.5497 22 29.6543ZM20.7 29.6543C20.7 30.0409 20.3866 30.3543 20 30.3543C19.6134 30.3543 19.3 30.0409 19.3 29.6543C19.3 29.2677 19.6134 28.9543 20 28.9543C20.3866 28.9543 20.7 29.2677 20.7 29.6543Z" fill="#21677A"/>
<path fill-rule="evenodd" clip-rule="evenodd" d="M27 20.6543C27 21.7589 27.8954 22.6543 29 22.6543C30.1046 22.6543 31 21.7589 31 20.6543C31 19.5497 30.1046 18.6543 29 18.6543C27.8954 18.6543 27 19.5497 27 20.6543ZM28.3 20.6543C28.3 21.0409 28.6134 21.3543 29 21.3543C29.3866 21.3543 29.7 21.0409 29.7 20.6543C29.7 20.2677 29.3866 19.9543 29 19.9543C28.6134 19.9543 28.3 20.2677 28.3 20.6543Z" fill="#21677A"/>
<path fill-rule="evenodd" clip-rule="evenodd" d="M11 22.6543C9.89543 22.6543 9 21.7589 9 20.6543C9 19.5497 9.89543 18.6543 11 18.6543C12.1046 18.6543 13 19.5497 13 20.6543C13 21.7589 12.1046 22.6543 11 22.6543ZM11 21.3543C10.6134 21.3543 10.3 21.0409 10.3 20.6543C10.3 20.2677 10.6134 19.9543 11 19.9543C11.3866 19.9543 11.7 20.2677 11.7 20.6543C11.7 21.0409 11.3866 21.3543 11 21.3543Z" fill="#21677A"/>
<path fill-rule="evenodd" clip-rule="evenodd" d="M24.9498 15.7046C25.7308 16.4856 26.9972 16.4856 27.7782 15.7046C28.5593 14.9235 28.5593 13.6572 27.7782 12.8761C26.9972 12.0951 25.7308 12.0951 24.9498 12.8761C24.1688 13.6572 24.1688 14.9235 24.9498 15.7046ZM25.869 14.7853C26.1424 15.0587 26.5856 15.0587 26.859 14.7853C27.1324 14.5119 27.1324 14.0687 26.859 13.7954C26.5856 13.522 26.1424 13.522 25.869 13.7954C25.5957 14.0687 25.5957 14.5119 25.869 14.7853Z" fill="#21677A"/>
<path fill-rule="evenodd" clip-rule="evenodd" d="M15.0502 28.4326C14.2692 29.2136 13.0028 29.2136 12.2218 28.4326C11.4407 27.6515 11.4407 26.3852 12.2218 25.6042C13.0028 24.8231 14.2692 24.8231 15.0502 25.6042C15.8312 26.3852 15.8312 27.6515 15.0502 28.4326ZM14.131 27.5133C13.8576 27.7867 13.4144 27.7867 13.141 27.5133C12.8676 27.24 12.8676 26.7968 13.141 26.5234C13.4144 26.25 13.8576 26.25 14.131 26.5234C14.4043 26.7968 14.4043 27.24 14.131 27.5133Z" fill="#21677A"/>
<path fill-rule="evenodd" clip-rule="evenodd" d="M24.9497 25.6043C24.1687 26.3854 24.1687 27.6517 24.9497 28.4328C25.7308 29.2138 26.9971 29.2138 27.7782 28.4328C28.5592 27.6517 28.5592 26.3854 27.7782 25.6043C26.9971 24.8233 25.7308 24.8233 24.9497 25.6043ZM25.869 26.5236C25.5956 26.7969 25.5956 27.2402 25.869 27.5135C26.1423 27.7869 26.5856 27.7869 26.8589 27.5135C27.1323 27.2402 27.1323 26.7969 26.8589 26.5236C26.5856 26.2502 26.1423 26.2502 25.869 26.5236Z" fill="#21677A"/>
<path fill-rule="evenodd" clip-rule="evenodd" d="M12.2217 15.7043C11.4407 14.9232 11.4407 13.6569 12.2217 12.8758C13.0028 12.0948 14.2691 12.0948 15.0501 12.8758C15.8312 13.6569 15.8312 14.9232 15.0501 15.7043C14.2691 16.4853 13.0028 16.4853 12.2217 15.7043ZM13.141 14.785C12.8676 14.5116 12.8676 14.0684 13.141 13.7951C13.4143 13.5217 13.8575 13.5217 14.1309 13.7951C14.4043 14.0684 14.4043 14.5116 14.1309 14.785C13.8575 15.0584 13.4143 15.0584 13.141 14.785Z" fill="#21677A"/>
<path fill-rule="evenodd" clip-rule="evenodd" d="M22 11C22 12.1046 21.1046 13 20 13C18.8954 13 18 12.1046 18 11C18 9.89543 18.8954 9 20 9C21.1046 9 22 9.89543 22 11ZM20.7 11C20.7 11.3866 20.3866 11.7 20 11.7C19.6134 11.7 19.3 11.3866 19.3 11C19.3 10.6134 19.6134 10.3 20 10.3C20.3866 10.3 20.7 10.6134 20.7 11Z" fill="white"/>
<path fill-rule="evenodd" clip-rule="evenodd" d="M22 29C22 30.1046 21.1046 31 20 31C18.8954 31 18 30.1046 18 29C18 27.8954 18.8954 27 20 27C21.1046 27 22 27.8954 22 29Z" fill="white"/>
<path fill-rule="evenodd" clip-rule="evenodd" d="M27 20C27 21.1046 27.8954 22 29 22C30.1046 22 31 21.1046 31 20C31 18.8954 30.1046 18 29 18C27.8954 18 27 18.8954 27 20ZM28.3 20C28.3 20.3866 28.6134 20.7 29 20.7C29.3866 20.7 29.7 20.3866 29.7 20C29.7 19.6134 29.3866 19.3 29 19.3C28.6134 19.3 28.3 19.6134 28.3 20Z" fill="white"/>
<path fill-rule="evenodd" clip-rule="evenodd" d="M11 22C9.89543 22 9 21.1046 9 20C9 18.8954 9.89543 18 11 18C12.1046 18 13 18.8954 13 20C13 21.1046 12.1046 22 11 22Z" fill="white"/>
<path fill-rule="evenodd" clip-rule="evenodd" d="M24.9498 15.0503C25.7308 15.8313 26.9972 15.8313 27.7782 15.0503C28.5593 14.2692 28.5593 13.0029 27.7782 12.2218C26.9972 11.4408 25.7308 11.4408 24.9498 12.2218C24.1688 13.0029 24.1688 14.2692 24.9498 15.0503ZM25.869 14.131C26.1424 14.4044 26.5856 14.4044 26.859 14.131C27.1324 13.8577 27.1324 13.4144 26.859 13.1411C26.5856 12.8677 26.1424 12.8677 25.869 13.1411C25.5957 13.4144 25.5957 13.8577 25.869 14.131Z" fill="white"/>
<path fill-rule="evenodd" clip-rule="evenodd" d="M15.0502 27.7783C14.2692 28.5593 13.0028 28.5593 12.2218 27.7783C11.4407 26.9972 11.4407 25.7309 12.2218 24.9499C13.0028 24.1688 14.2692 24.1688 15.0502 24.9499C15.8312 25.7309 15.8312 26.9972 15.0502 27.7783Z" fill="white"/>
<path fill-rule="evenodd" clip-rule="evenodd" d="M24.9497 24.95C24.1687 25.7311 24.1687 26.9974 24.9497 27.7785C25.7308 28.5595 26.9971 28.5595 27.7782 27.7785C28.5592 26.9974 28.5592 25.7311 27.7782 24.95C26.9971 24.169 25.7308 24.169 24.9497 24.95ZM25.869 25.8693C25.5956 26.1427 25.5956 26.5859 25.869 26.8592C26.1423 27.1326 26.5856 27.1326 26.8589 26.8592C27.1323 26.5859 27.1323 26.1427 26.8589 25.8693C26.5856 25.5959 26.1423 25.5959 25.869 25.8693Z" fill="white"/>
<path fill-rule="evenodd" clip-rule="evenodd" d="M12.2217 15.05C11.4407 14.2689 11.4407 13.0026 12.2217 12.2215C13.0028 11.4405 14.2691 11.4405 15.0501 12.2215C15.8312 13.0026 15.8312 14.2689 15.0501 15.05C14.2691 15.831 13.0028 15.831 12.2217 15.05Z" fill="white"/>
<defs>
<linearGradient id="paint0_linear_1_547" x1="20.0416" y1="2.83984" x2="20.0416" y2="39.4313" gradientUnits="userSpaceOnUse">
<stop stop-color="#00C2FF"/>
<stop offset="1" stop-color="#216CFF"/>
</linearGradient>
<linearGradient id="paint1_linear_1_547" x1="18.8221" y1="1.62109" x2="18.8221" y2="38.2126" gradientUnits="userSpaceOnUse">
<stop stop-color="#00C2FF"/>
<stop offset="1" stop-color="#216CFF"/>
</linearGradient>
<linearGradient id="paint2_linear_1_547" x1="20" y1="5.26367" x2="20" y2="34.7374" gradientUnits="userSpaceOnUse">
<stop stop-color="#00C2FF"/>
<stop offset="1" stop-color="#216CFF"/>
</linearGradient>
<linearGradient id="paint3_linear_1_547" x1="20" y1="0" x2="20" y2="40" gradientUnits="userSpaceOnUse">
<stop stop-color="#00C2FF"/>
<stop offset="1" stop-color="#216CFF"/>
</linearGradient>
<linearGradient id="paint4_linear_1_547" x1="20.6517" y1="1.62109" x2="20.6517" y2="38.2126" gradientUnits="userSpaceOnUse">
<stop stop-color="#00C2FF"/>
<stop offset="1" stop-color="#216CFF"/>
</linearGradient>
<radialGradient id="paint5_radial_1_547" cx="0" cy="0" r="1" gradientUnits="userSpaceOnUse" gradientTransform="translate(19.9998 19.9999) rotate(90) scale(17 17.9952)">
<stop stop-color="#04E0FF"/>
<stop offset="1" stop-color="#0D7684"/>
</radialGradient>
<linearGradient id="paint6_linear_1_547" x1="19.9998" y1="2.99986" x2="19.9998" y2="36.9999" gradientUnits="userSpaceOnUse">
<stop stop-color="#04E0FF"/>
<stop offset="1" stop-color="#0D7684"/>
</linearGradient>
<linearGradient id="paint7_linear_1_547" x1="15" y1="0" x2="15" y2="30" gradientUnits="userSpaceOnUse">
<stop stop-color="white" stop-opacity="0.5"/>
<stop offset="0.400706" stop-color="white" stop-opacity="0"/>
</linearGradient>
</defs>
</svg>
