<svg width="52" height="52" viewBox="0 0 52 52" fill="none" xmlns="http://www.w3.org/2000/svg">
<path d="M46 1.5H6C3.51472 1.5 1.5 3.51472 1.5 6V46C1.5 48.4853 3.51472 50.5 6 50.5H46C48.4853 50.5 50.5 48.4853 50.5 46V6C50.5 3.51472 48.4853 1.5 46 1.5Z" stroke="#03C7E2" stroke-width="2"/>
<path d="M40.7892 11.1357C40.6978 11.0979 40.5972 11.088 40.5002 11.1073C40.4032 11.1266 40.3141 11.1742 40.2442 11.2442L35.0977 16.3907V12.5967C35.0977 12.4641 35.045 12.3369 34.9512 12.2432C34.8574 12.1494 34.7303 12.0967 34.5977 12.0967H14.0977C13.3023 12.0975 12.5396 12.4138 11.9772 12.9763C11.4148 13.5387 11.0985 14.3013 11.0977 15.0967V38.0967C11.0985 38.8921 11.4148 39.6547 11.9772 40.2172C12.5396 40.7796 13.3023 41.0959 14.0977 41.0967H34.5977C34.7303 41.0967 34.8574 41.044 34.9512 40.9503C35.045 40.8565 35.0977 40.7293 35.0977 40.5967V26.8047L37.4367 24.4657C38.601 23.3077 39.5241 21.9302 40.1525 20.4129C40.781 18.8957 41.1022 17.2689 41.0977 15.6267V11.5967C41.0977 11.4978 41.0684 11.4012 41.0135 11.3189C40.9586 11.2367 40.8805 11.1726 40.7892 11.1347V11.1357ZM34.0977 40.0967H14.0977C13.5672 40.0967 13.0585 39.886 12.6834 39.5109C12.3084 39.1359 12.0977 38.6271 12.0977 38.0967C12.0977 37.5663 12.3084 37.0576 12.6834 36.6825C13.0585 36.3074 13.5672 36.0967 14.0977 36.0967H34.0977V40.0967ZM34.0977 35.0967H14.0977C13.3587 35.0969 12.646 35.3713 12.0977 35.8667V15.0967C12.0977 14.5663 12.3084 14.0576 12.6834 13.6825C13.0585 13.3074 13.5672 13.0967 14.0977 13.0967H34.0977V17.3897L27.2442 24.2467C27.1504 24.3405 27.0977 24.4676 27.0977 24.6002V28.8932L24.2442 31.7467L24.9512 32.4537L27.8047 29.5967H32.0977C32.2303 29.5967 32.3574 29.544 32.4512 29.4502L34.0977 27.8037V35.0967ZM40.0977 15.6262C40.1017 17.137 39.8062 18.6335 39.2281 20.0293C38.65 21.4251 37.8008 22.6923 36.7297 23.7577L31.8907 28.5967H28.8047L36.9512 20.4522L36.2442 19.7467L28.0977 27.8912V24.8052L40.0977 12.8052V15.6262Z" fill="#03C7E2"/>
<path d="M23.0886 24.5092C24.0711 24.5092 25.0315 24.2179 25.8484 23.672C26.6653 23.1262 27.302 22.3504 27.678 21.4427C28.0539 20.535 28.1523 19.5362 27.9606 18.5726C27.769 17.609 27.2959 16.7239 26.6012 16.0292C25.9064 15.3345 25.0213 14.8613 24.0577 14.6697C23.0941 14.478 22.0953 14.5764 21.1876 14.9523C20.2799 15.3283 19.5041 15.965 18.9583 16.7819C18.4124 17.5988 18.1211 18.5592 18.1211 19.5417C18.1225 20.8587 18.6464 22.1214 19.5777 23.0527C20.5089 23.9839 21.7716 24.5078 23.0886 24.5092ZM20.6451 22.6692C20.7255 22.0782 21.0174 21.5364 21.4666 21.1441C21.9159 20.7518 22.4921 20.5356 23.0886 20.5356C23.685 20.5356 24.2613 20.7518 24.7106 21.1441C25.1598 21.5364 25.4517 22.0782 25.5321 22.6692C24.8356 23.2176 23.975 23.5157 23.0886 23.5157C22.2022 23.5157 21.3415 23.2176 20.6451 22.6692ZM22.0951 18.5482C22.0951 18.3517 22.1534 18.1596 22.2625 17.9963C22.3717 17.8329 22.5269 17.7055 22.7084 17.6303C22.8899 17.5552 23.0897 17.5355 23.2824 17.5738C23.4751 17.6121 23.6522 17.7068 23.7911 17.8457C23.9301 17.9847 24.0247 18.1617 24.063 18.3544C24.1013 18.5471 24.0817 18.7469 24.0065 18.9284C23.9313 19.11 23.8039 19.2651 23.6405 19.3743C23.4772 19.4835 23.2851 19.5417 23.0886 19.5417C22.8254 19.5415 22.573 19.4368 22.3867 19.2508C22.2005 19.0647 22.0956 18.8125 22.0951 18.5492V18.5482ZM23.0886 15.5677C23.8149 15.5669 24.5276 15.7653 25.1489 16.1415C25.7702 16.5177 26.2764 17.0571 26.6123 17.7011C26.9483 18.3451 27.101 19.0689 27.054 19.7937C27.007 20.5185 26.7619 21.2165 26.3456 21.8117C26.0287 20.9552 25.387 20.258 24.5596 19.8712C24.8182 19.5863 24.9884 19.2324 25.0497 18.8525C25.111 18.4726 25.0607 18.0831 24.9049 17.7313C24.749 17.3795 24.4944 17.0805 24.1719 16.8706C23.8494 16.6607 23.4729 16.549 23.0881 16.549C22.7033 16.549 22.3268 16.6607 22.0043 16.8706C21.6818 17.0805 21.4272 17.3795 21.2713 17.7313C21.1155 18.0831 21.0652 18.4726 21.1265 18.8525C21.1878 19.2324 21.358 19.5863 21.6166 19.8712C20.7892 20.258 20.1476 20.9552 19.8306 21.8117C19.4143 21.2165 19.1692 20.5185 19.1222 19.7937C19.0752 19.0689 19.2279 18.3451 19.5638 17.7011C19.8998 17.0571 20.406 16.5177 21.0273 16.1415C21.6486 15.7653 22.3613 15.5669 23.0876 15.5677H23.0886Z" fill="#03C7E2"/>
<path d="M18.6082 31.6016H23.5757V32.5951H18.6082V31.6016Z" fill="#03C7E2"/>
<path d="M18.6116 29.1016H25.0696V30.0951H18.6116V29.1016Z" fill="#03C7E2"/>
<path d="M18.6147 26.6016H26.0647V27.5951H18.6147V26.6016Z" fill="#03C7E2"/>
</svg>
