<svg width="52" height="52" viewBox="0 0 52 52" fill="none" xmlns="http://www.w3.org/2000/svg">
<path d="M46 1.5H6C3.51472 1.5 1.5 3.51472 1.5 6V46C1.5 48.4853 3.51472 50.5 6 50.5H46C48.4853 50.5 50.5 48.4853 50.5 46V6C50.5 3.51472 48.4853 1.5 46 1.5Z" stroke="#03C7E2" stroke-width="2"/>
<path d="M39.9535 37.9242H12.0465C11.9088 37.9242 11.7724 37.897 11.6452 37.8442C11.518 37.7914 11.4025 37.714 11.3053 37.6165C11.2081 37.5189 11.131 37.4031 11.0787 37.2758C11.0263 37.1484 10.9995 37.0119 11 36.8742V15.1242C10.9995 14.9865 11.0263 14.85 11.0787 14.7227C11.131 14.5953 11.2081 14.4795 11.3053 14.382C11.4025 14.2844 11.518 14.207 11.6452 14.1542C11.7724 14.1014 11.9088 14.0742 12.0465 14.0742H23.766C23.944 14.0742 24.1191 14.1196 24.2746 14.2062C24.4302 14.2927 24.5611 14.4175 24.655 14.5687L27.034 18.3997H39.9535C40.091 18.3997 40.2271 18.4267 40.3541 18.4792C40.4811 18.5318 40.5965 18.6089 40.6936 18.7061C40.7908 18.8033 40.8679 18.9187 40.9205 19.0457C40.9731 19.1727 41.0001 19.3088 41 19.4462V36.8742C41 37.1518 40.8898 37.418 40.6935 37.6142C40.4972 37.8105 40.2311 37.9207 39.9535 37.9207V37.9242ZM13.093 35.8312H38.907V20.4942H26.45C26.272 20.4943 26.0969 20.4489 25.9413 20.3623C25.7858 20.2758 25.6549 20.151 25.561 19.9997L23.182 16.1687H13.0935L13.093 35.8312Z" fill="#03C7E2"/>
<path d="M23.2482 23.7054C23.2482 24.3015 23.0715 24.8842 22.7403 25.3799C22.4091 25.8755 21.9384 26.2619 21.3876 26.49C20.8369 26.7181 20.2309 26.7778 19.6462 26.6615C19.0616 26.5452 18.5245 26.2581 18.103 25.8366C17.6815 25.4151 17.3944 24.8781 17.2781 24.2934C17.1618 23.7088 17.2215 23.1027 17.4497 22.552C17.6778 22.0013 18.0641 21.5305 18.5597 21.1994C19.0554 20.8682 19.6381 20.6914 20.2342 20.6914C21.0336 20.6914 21.8002 21.009 22.3654 21.5742C22.9307 22.1394 23.2482 22.906 23.2482 23.7054Z" fill="#03C7E2"/>
<path d="M23.127 27.1936C23.066 27.1395 22.9869 27.1102 22.9053 27.1114C22.8237 27.1126 22.7455 27.1442 22.6861 27.2001C21.9103 27.916 20.8934 28.3135 19.8378 28.3135C18.7822 28.3135 17.7653 27.916 16.9896 27.2001C16.9301 27.1442 16.8519 27.1126 16.7703 27.1114C16.6887 27.1102 16.6096 27.1395 16.5485 27.1936C16.0401 27.6525 15.6338 28.2131 15.356 28.839C15.0781 29.465 14.9349 30.1423 14.9355 30.8272V31.5906C14.9357 31.7639 15.0046 31.9301 15.1271 32.0526C15.2496 32.1751 15.4158 32.244 15.5891 32.2441H24.0891C24.2624 32.2441 24.4286 32.1753 24.5511 32.0527C24.6737 31.9302 24.7425 31.764 24.7425 31.5906V30.8272C24.7429 30.1421 24.5992 29.4647 24.3209 28.8387C24.0426 28.2128 23.6359 27.6523 23.127 27.1936Z" fill="#03C7E2"/>
<path d="M28.288 24.623H36.2255C36.4436 24.6377 36.649 24.7309 36.8035 24.8855C36.9581 25.0401 37.0514 25.2454 37.066 25.4635C37.066 25.5739 37.0443 25.6832 37.002 25.7852C36.9598 25.8872 36.8979 25.9798 36.8198 26.0579C36.7418 26.1359 36.6491 26.1978 36.5471 26.2401C36.4452 26.2823 36.3359 26.304 36.2255 26.304H28.288C28.0699 26.2894 27.8645 26.1962 27.71 26.0416C27.5554 25.887 27.4621 25.6816 27.4475 25.4635C27.4475 25.2406 27.536 25.0269 27.6937 24.8692C27.8513 24.7116 28.0651 24.623 28.288 24.623Z" fill="#03C7E2"/>
<path d="M29.3385 29.0664H34.428C34.6461 29.081 34.8515 29.1743 35.0061 29.3289C35.1607 29.4834 35.2539 29.6888 35.2686 29.9069C35.2686 30.1298 35.18 30.3436 35.0224 30.5012C34.8647 30.6588 34.651 30.7474 34.428 30.7474H29.3385C29.1204 30.7328 28.9151 30.6395 28.7605 30.4849C28.6059 30.3304 28.5127 30.125 28.498 29.9069C28.498 29.684 28.5866 29.4702 28.7442 29.3126C28.9019 29.1549 29.1156 29.0664 29.3385 29.0664Z" fill="#03C7E2"/>
</svg>
