<svg width="52" height="52" viewBox="0 0 52 52" fill="none" xmlns="http://www.w3.org/2000/svg">
<path d="M46 1.5H6C3.51472 1.5 1.5 3.51472 1.5 6V46C1.5 48.4853 3.51472 50.5 6 50.5H46C48.4853 50.5 50.5 48.4853 50.5 46V6C50.5 3.51472 48.4853 1.5 46 1.5Z" stroke="#03C7E2" stroke-width="2"/>
<path d="M25.9654 39.7505H12.7959C12.3093 39.7393 11.847 39.5357 11.5103 39.1842C11.1737 38.8328 10.9901 38.3621 10.9999 37.8755V14.125C10.9901 13.6384 11.1737 13.1678 11.5103 12.8163C11.847 12.4648 12.3093 12.2612 12.7959 12.25H25.9654V39.7505ZM12.7954 13.5005C12.633 13.5039 12.4786 13.5717 12.3661 13.6888C12.2536 13.806 12.1922 13.9631 12.1954 14.1255V37.8755C12.1922 38.0379 12.2536 38.195 12.3661 38.3122C12.4786 38.4293 12.633 38.4971 12.7954 38.5005H24.7684V13.5005H12.7954Z" fill="#03C7E2"/>
<path d="M18.1839 24.2225C18.0252 24.2223 17.8731 24.1592 17.7609 24.047L16.3884 22.6745L15.0159 24.047C14.9319 24.1301 14.8254 24.1866 14.7095 24.2093C14.5936 24.232 14.4735 24.2201 14.3644 24.1749C14.2553 24.1298 14.1619 24.0534 14.096 23.9554C14.0301 23.8574 13.9946 23.7421 13.9939 23.624V12.848C13.9939 12.6889 14.0571 12.5363 14.1696 12.4238C14.2822 12.3113 14.4348 12.248 14.5939 12.248H18.1854C18.3445 12.248 18.4971 12.3113 18.6097 12.4238C18.7222 12.5363 18.7854 12.6889 18.7854 12.848V23.623C18.7854 23.7822 18.7222 23.9348 18.6097 24.0473C18.4971 24.1598 18.3445 24.223 18.1854 24.223L18.1839 24.2225ZM16.3879 21.229C16.4665 21.229 16.5443 21.2445 16.6169 21.2746C16.6895 21.3047 16.7554 21.3489 16.8109 21.4045L17.5849 22.1785V13.448H15.1904V22.1795L15.9644 21.4055C16.0199 21.3498 16.086 21.3056 16.1586 21.2755C16.2313 21.2454 16.3092 21.23 16.3879 21.23V21.229Z" fill="#03C7E2"/>
<path d="M39.2044 39.75H26.0344V12.25H39.2039C39.6905 12.2612 40.1528 12.4648 40.4895 12.8163C40.8261 13.1677 41.0097 13.6384 40.9999 14.125V37.875C41.0097 38.3616 40.8261 38.8322 40.4895 39.1837C40.1528 39.5352 39.691 39.7388 39.2044 39.75ZM27.2319 38.5H39.2044C39.3668 38.4966 39.5212 38.4288 39.6337 38.3117C39.7462 38.1945 39.8076 38.0374 39.8044 37.875V14.125C39.8076 13.9626 39.7462 13.8055 39.6337 13.6883C39.5212 13.5712 39.3668 13.5034 39.2044 13.5H27.2319V38.5Z" fill="#03C7E2"/>
<path d="M13.9934 27.2812H15.1904V28.4782H13.9934V27.2812Z" fill="#03C7E2"/>
<path d="M17.3193 27.2812H23.3053V28.4782H17.3193V27.2812Z" fill="#03C7E2"/>
<path d="M17.3193 31.0391H23.3053V32.2361H17.3193V31.0391Z" fill="#03C7E2"/>
<path d="M17.3193 34.9629H23.3053V36.1599H17.3193V34.9629Z" fill="#03C7E2"/>
<path d="M13.9934 31.0391H15.1904V32.2361H13.9934V31.0391Z" fill="#03C7E2"/>
<path d="M13.9934 34.9629H15.1904V36.1599H13.9934V34.9629Z" fill="#03C7E2"/>
<path d="M36.8103 27.2812H38.0053V28.4782H36.8103V27.2812Z" fill="#03C7E2"/>
<path d="M28.6948 27.2812H34.6808V28.4782H28.6948V27.2812Z" fill="#03C7E2"/>
<path d="M36.8103 23.5234H38.0053V24.7204H36.8103V23.5234Z" fill="#03C7E2"/>
<path d="M28.6948 23.5234H34.6808V24.7204H28.6948V23.5234Z" fill="#03C7E2"/>
<path d="M36.8103 19.7656H38.0053V20.9626H36.8103V19.7656Z" fill="#03C7E2"/>
<path d="M28.6948 19.7656H34.6808V20.9626H28.6948V19.7656Z" fill="#03C7E2"/>
<path d="M28.6948 31.0391H34.6808V32.2361H28.6948V31.0391Z" fill="#03C7E2"/>
<path d="M28.6948 34.9629H34.6808V36.1599H28.6948V34.9629Z" fill="#03C7E2"/>
<path d="M36.8103 31.0391H38.0053V32.2361H36.8103V31.0391Z" fill="#03C7E2"/>
<path d="M36.8103 34.9629H38.0053V36.1599H36.8103V34.9629Z" fill="#03C7E2"/>
<path d="M29.0283 15.8418H38.0073V17.0388H29.0283V15.8418Z" fill="#03C7E2"/>
</svg>
