<svg width="52" height="52" viewBox="0 0 52 52" fill="none" xmlns="http://www.w3.org/2000/svg">
<path d="M46 1.5H6C3.51472 1.5 1.5 3.51472 1.5 6V46C1.5 48.4853 3.51472 50.5 6 50.5H46C48.4853 50.5 50.5 48.4853 50.5 46V6C50.5 3.51472 48.4853 1.5 46 1.5Z" stroke="#03C7E2" stroke-width="2"/>
<path d="M12.2699 16.7808H11.0239C11.0239 15.4723 11.8339 14.2883 12.9554 14.0393L26.5384 11.0483C26.7854 10.991 27.0421 10.9891 27.2899 11.043C27.5377 11.0969 27.7705 11.2051 27.9714 11.3598C28.2262 11.5836 28.4264 11.8629 28.5564 12.1762C28.6864 12.4894 28.7429 12.8283 28.7214 13.1668V15.2853H27.4739V13.1668C27.487 13.0172 27.4657 12.8666 27.4115 12.7265C27.3573 12.5865 27.2718 12.4607 27.1614 12.3588C27.1117 12.3136 27.0499 12.2836 26.9836 12.2725C26.9173 12.2614 26.8492 12.2697 26.7874 12.2963L13.2044 15.2853C12.9164 15.4118 12.6732 15.6221 12.5065 15.8889C12.3398 16.1557 12.2573 16.4665 12.2699 16.7808Z" fill="#03C7E2"/>
<path d="M29.1555 41.0008H13.641C13.2947 41.009 12.9504 40.9467 12.6289 40.8178C12.3074 40.6889 12.0154 40.496 11.7707 40.2509C11.526 40.0058 11.3336 39.7135 11.2053 39.3917C11.0769 39.07 11.0152 38.7256 11.024 38.3793V17.1593C11.0152 16.813 11.0769 16.4686 11.2053 16.1469C11.3336 15.8252 11.526 15.5329 11.7707 15.2877C12.0154 15.0426 12.3074 14.8497 12.6289 14.7208C12.9504 14.5919 13.2947 14.5297 13.641 14.5378H29.1555C29.5018 14.5297 29.8461 14.5919 30.1676 14.7208C30.4891 14.8497 30.7811 15.0426 31.0258 15.2877C31.2705 15.5329 31.4629 15.8252 31.5913 16.1469C31.7196 16.4686 31.7813 16.813 31.7725 17.1593V38.3798C31.7688 39.0731 31.4921 39.7371 31.0022 40.2277C30.5123 40.7183 29.8488 40.9961 29.1555 41.0008ZM13.641 15.7878C13.4585 15.7791 13.2762 15.8086 13.1058 15.8746C12.9354 15.9405 12.7807 16.0414 12.6516 16.1707C12.5225 16.3 12.4219 16.4549 12.3563 16.6254C12.2907 16.796 12.2614 16.9783 12.2705 17.1608V38.3813C12.2614 38.5638 12.2907 38.7462 12.3563 38.9167C12.4219 39.0872 12.5225 39.2421 12.6516 39.3714C12.7807 39.5007 12.9354 39.6016 13.1058 39.6676C13.2762 39.7335 13.4585 39.7631 13.641 39.7543H29.1555C29.5183 39.7503 29.865 39.6039 30.121 39.3467C30.3769 39.0895 30.5217 38.7421 30.524 38.3793V17.1593C30.5331 16.9768 30.5039 16.7945 30.4382 16.6239C30.3726 16.4534 30.272 16.2985 30.1429 16.1692C30.0138 16.0399 29.8591 15.939 29.6887 15.8731C29.5183 15.8071 29.336 15.7776 29.1535 15.7863L13.641 15.7878Z" fill="#03C7E2"/>
<path d="M40.976 38.1992H30.571V17.6992H40.976V38.1992ZM31.817 36.9532H39.73V18.9452H31.817V36.9532Z" fill="#03C7E2"/>
<path d="M20.9937 33.8164C19.6751 33.8164 18.3861 33.4254 17.2897 32.6928C16.1933 31.9603 15.3388 30.919 14.8342 29.7008C14.3295 28.4825 14.1975 27.142 14.4548 25.8488C14.712 24.5555 15.347 23.3675 16.2794 22.4351C17.2118 21.5028 18.3997 20.8678 19.693 20.6105C20.9863 20.3533 22.3268 20.4853 23.545 20.9899C24.7633 21.4945 25.8045 22.349 26.5371 23.4454C27.2697 24.5418 27.6607 25.8308 27.6607 27.1494C27.6587 28.917 26.9556 30.6116 25.7058 31.8615C24.4559 33.1114 22.7613 33.8144 20.9937 33.8164ZM20.9937 21.7289C19.9216 21.7289 18.8736 22.0468 17.9822 22.6424C17.0908 23.2381 16.396 24.0846 15.9858 25.0751C15.5755 26.0656 15.4682 27.1554 15.6773 28.2069C15.8865 29.2584 16.4027 30.2242 17.1608 30.9823C17.9189 31.7404 18.8847 32.2566 19.9362 32.4658C20.9876 32.6749 22.0775 32.5676 23.068 32.1573C24.0585 31.7471 24.905 31.0523 25.5006 30.1609C26.0963 29.2695 26.4142 28.2215 26.4142 27.1494C26.4131 25.7121 25.8417 24.334 24.8254 23.3177C23.8091 22.3014 22.4309 21.73 20.9937 21.7289Z" fill="#03C7E2"/>
<path d="M21.0061 33.8164C18.9501 33.8164 17.3921 30.8879 17.3921 27.1494C17.3921 23.4109 18.9496 20.4824 21.0061 20.4824C23.0626 20.4824 24.6201 23.4109 24.6201 27.1494C24.6201 30.8879 23.0621 33.8164 21.0061 33.8164ZM21.0061 21.7289C19.8846 21.7289 18.6386 23.9719 18.6386 27.1494C18.6386 30.3269 19.8846 32.5699 21.0061 32.5699C22.1276 32.5699 23.3736 30.3269 23.3736 27.1494C23.3736 23.9719 22.1276 21.7289 21.0061 21.7289Z" fill="#03C7E2"/>
<path d="M20.3845 21.1055H21.6305V33.193H20.3845V21.1055Z" fill="#03C7E2"/>
<path d="M15.0115 26.5254H27.0365V27.7714H15.0115V26.5254Z" fill="#03C7E2"/>
<path d="M31.1941 21.3457H36.9886V22.5917H31.1941V21.3457Z" fill="#03C7E2"/>
<path d="M31.1941 24.2148H36.9886V25.4608H31.1941V24.2148Z" fill="#03C7E2"/>
<path d="M31.1941 33.3262H36.9886V34.5722H31.1941V33.3262Z" fill="#03C7E2"/>
</svg>
