<svg width="40" height="40" viewBox="0 0 40 40" fill="none" xmlns="http://www.w3.org/2000/svg">
<g opacity="0.4">
<circle cx="20.0416" cy="21.1356" r="17.2957" stroke="url(#paint0_linear_1_515)" stroke-opacity="0.5" stroke-width="2"/>
<circle cx="18.8221" cy="19.9168" r="17.7957" stroke="url(#paint1_linear_1_515)" stroke-opacity="0.6"/>
<circle cx="20" cy="20.0005" r="14.2368" stroke="url(#paint2_linear_1_515)" stroke-opacity="0.6"/>
<circle cx="20" cy="20" r="19.5" stroke="url(#paint3_linear_1_515)" stroke-opacity="0.6"/>
<circle cx="20.6517" cy="19.9168" r="17.7957" stroke="url(#paint4_linear_1_515)" stroke-opacity="0.6"/>
</g>
<circle cx="20" cy="20" r="16.5" fill="url(#paint5_radial_1_515)" stroke="url(#paint6_linear_1_515)"/>
<ellipse cx="15" cy="15" rx="15" ry="15" transform="matrix(-1 -8.74228e-08 -8.74228e-08 1 35 5)" fill="url(#paint7_linear_1_515)"/>
<path fill-rule="evenodd" clip-rule="evenodd" d="M15.4168 28.7858C15.3493 28.7859 15.2824 28.7726 15.22 28.7468C15.1577 28.721 15.101 28.6831 15.0533 28.6353L8.14258 21.7239C7.411 20.9923 7 20.0001 7 18.9655C7 18.4532 7.1009 17.9459 7.29695 17.4726C7.49299 16.9993 7.78034 16.5693 8.14258 16.207C8.50483 15.8448 8.93487 15.5574 9.40817 15.3614C9.88146 15.1654 10.3887 15.0645 10.901 15.0645C11.9356 15.0645 12.9279 15.4755 13.6595 16.207L15.4171 17.9646L17.1731 16.207C17.5354 15.8448 17.9654 15.5574 18.4387 15.3614C18.912 15.1654 19.4193 15.0645 19.9316 15.0645C20.4439 15.0645 20.9511 15.1654 21.4244 15.3614C21.8977 15.5574 22.3278 15.8448 22.69 16.207C23.0523 16.5693 23.3396 16.9993 23.5357 17.4726C23.7317 17.9459 23.8326 18.4532 23.8326 18.9655C23.8326 19.4778 23.7317 19.985 23.5357 20.4583C23.3396 20.9316 23.0523 21.3617 22.69 21.7239L15.7802 28.6344C15.7326 28.6822 15.6759 28.7201 15.6135 28.746C15.5512 28.7718 15.4843 28.785 15.4168 28.7849V28.7858ZM10.901 16.0926C10.3328 16.0926 9.77727 16.261 9.30477 16.5767C8.83227 16.8924 8.46399 17.3411 8.24652 17.866C8.02906 18.391 7.97216 18.9687 8.08304 19.526C8.19392 20.0834 8.46759 20.5953 8.86944 20.9971L15.4168 27.5444L21.9641 20.9971C22.2309 20.7303 22.4425 20.4135 22.5868 20.065C22.7312 19.7164 22.8055 19.3428 22.8055 18.9655C22.8055 18.5882 22.7312 18.2147 22.5868 17.8661C22.4424 17.5175 22.2307 17.2008 21.9639 16.9341C21.6971 16.6673 21.3804 16.4557 21.0318 16.3113C20.6833 16.1669 20.3097 16.0926 19.9324 16.0926C19.5551 16.0927 19.1815 16.167 18.833 16.3114C18.4844 16.4558 18.1677 16.6674 17.9009 16.9342L15.7814 19.0537C15.685 19.15 15.5543 19.2041 15.418 19.2041C15.2817 19.2041 15.151 19.15 15.0546 19.0537L12.9351 16.9342C12.669 16.6666 12.3524 16.4544 12.0038 16.31C11.6551 16.1655 11.2812 16.0916 10.9038 16.0926H10.901Z" fill="#21677A"/>
<path fill-rule="evenodd" clip-rule="evenodd" d="M20.1582 28.7845C20.0219 28.7844 19.8912 28.7303 19.7948 28.6339L17.4241 26.2632C17.3759 26.2156 17.3376 26.1589 17.3115 26.0964C17.2853 26.034 17.2717 25.9669 17.2715 25.8992C17.2713 25.8314 17.2845 25.7643 17.3103 25.7017C17.3362 25.6391 17.3741 25.5822 17.422 25.5343C17.4699 25.4864 17.5268 25.4484 17.5895 25.4226C17.6521 25.3968 17.7192 25.3836 17.7869 25.3837C17.8547 25.3839 17.9217 25.3975 17.9842 25.4237C18.0467 25.4499 18.1033 25.4882 18.151 25.5364L20.1582 27.5436L26.7056 20.9963C26.9724 20.7296 27.184 20.4129 27.3284 20.0644C27.4728 19.7159 27.5471 19.3423 27.5471 18.965C27.5471 18.5878 27.4728 18.2142 27.3284 17.8657C27.184 17.5172 26.9724 17.2005 26.7056 16.9338L26.694 16.9222L26.6853 16.9138C26.181 16.4165 25.5102 16.1238 24.8026 16.0921C24.095 16.0604 23.4008 16.2921 22.854 16.7424C22.7858 16.7985 22.7241 16.854 22.667 16.912C22.5703 17.008 22.4393 17.0617 22.303 17.0612C22.1666 17.0607 22.0361 17.0061 21.94 16.9093C21.844 16.8125 21.7903 16.6816 21.7908 16.5452C21.7913 16.4089 21.8459 16.2783 21.9427 16.1823C22.0228 16.1028 22.11 16.024 22.2023 15.9482C22.9442 15.337 23.8862 15.0221 24.8466 15.0643C25.8069 15.1065 26.7176 15.5027 27.4031 16.1767C27.4134 16.1867 27.424 16.1969 27.4343 16.2078C27.7966 16.57 28.0841 17.0001 28.2802 17.4734C28.4763 17.9467 28.5772 18.454 28.5772 18.9663C28.5772 19.4786 28.4763 19.9859 28.2802 20.4592C28.0841 20.9325 27.7966 21.3625 27.4343 21.7247L20.5217 28.6339C20.474 28.6817 20.4173 28.7196 20.3549 28.7454C20.2926 28.7712 20.2257 28.7845 20.1582 28.7845Z" fill="#21677A"/>
<path fill-rule="evenodd" clip-rule="evenodd" d="M24.8999 28.7847C24.8324 28.7848 24.7656 28.7715 24.7032 28.7457C24.6408 28.7198 24.5842 28.6819 24.5365 28.6342L22.1658 26.2635C22.0703 26.1669 22.0169 26.0365 22.0173 25.9006C22.0177 25.7648 22.0718 25.6347 22.1679 25.5387C22.2639 25.4427 22.394 25.3885 22.5298 25.3881C22.6656 25.3878 22.7961 25.4411 22.8926 25.5366L24.8999 27.5439L31.4472 20.9966C31.7153 20.7312 31.9285 20.4156 32.0747 20.0678C32.2208 19.72 32.297 19.3469 32.299 18.9697C32.3009 18.5924 32.2285 18.2185 32.0859 17.8693C31.9433 17.52 31.7334 17.2023 31.468 16.9342C31.2026 16.6661 30.887 16.4529 30.5392 16.3067C30.1915 16.1606 29.8183 16.0844 29.4411 16.0825C29.0638 16.0805 28.6899 16.1529 28.3407 16.2955C27.9914 16.4381 27.6737 16.6481 27.4056 16.9134C27.3083 17.009 27.177 17.0619 27.0407 17.0607C26.9043 17.0594 26.7741 17.004 26.6786 16.9067C26.583 16.8094 26.5301 16.6782 26.5314 16.5418C26.5326 16.4055 26.588 16.2752 26.6853 16.1797C27.4204 15.4518 28.4145 15.0457 29.449 15.0508C30.4835 15.0559 31.4736 15.4717 32.2015 16.2068C32.9294 16.9419 33.3355 17.9361 33.3304 18.9706C33.3254 20.0051 32.9095 20.9952 32.1744 21.7231L25.2634 28.6335C25.2157 28.6814 25.159 28.7193 25.0967 28.7451C25.0343 28.7709 24.9674 28.7842 24.8999 28.7841V28.7847Z" fill="#21677A"/>
<path fill-rule="evenodd" clip-rule="evenodd" d="M15.4168 27.7351C15.3493 27.7351 15.2824 27.7219 15.22 27.696C15.1577 27.6702 15.101 27.6323 15.0533 27.5845L8.14258 20.6731C7.411 19.9416 7 18.9493 7 17.9147C7 17.4024 7.1009 16.8951 7.29695 16.4218C7.49299 15.9485 7.78034 15.5185 8.14258 15.1563C8.50483 14.794 8.93487 14.5067 9.40817 14.3106C9.88146 14.1146 10.3887 14.0137 10.901 14.0137C11.9356 14.0137 12.9279 14.4247 13.6595 15.1563L15.4171 16.9139L17.1731 15.1563C17.5354 14.794 17.9654 14.5067 18.4387 14.3106C18.912 14.1146 19.4193 14.0137 19.9316 14.0137C20.4439 14.0137 20.9511 14.1146 21.4244 14.3106C21.8977 14.5067 22.3278 14.794 22.69 15.1563C23.0523 15.5185 23.3396 15.9485 23.5357 16.4218C23.7317 16.8951 23.8326 17.4024 23.8326 17.9147C23.8326 18.427 23.7317 18.9343 23.5357 19.4076C23.3396 19.8808 23.0523 20.3109 22.69 20.6731L15.7802 27.5836C15.7326 27.6314 15.6759 27.6693 15.6135 27.6952C15.5512 27.721 15.4843 27.7343 15.4168 27.7341V27.7351ZM10.901 15.0419C10.3328 15.0418 9.77727 15.2102 9.30477 15.5259C8.83227 15.8416 8.46399 16.2903 8.24652 16.8153C8.02906 17.3402 7.97216 17.9179 8.08304 18.4753C8.19392 19.0326 8.46759 19.5445 8.86944 19.9463L15.4168 26.4936L21.9641 19.9463C22.2309 19.6795 22.4425 19.3628 22.5868 19.0142C22.7312 18.6656 22.8055 18.292 22.8055 17.9147C22.8055 17.5375 22.7312 17.1639 22.5868 16.8153C22.4424 16.4667 22.2307 16.15 21.9639 15.8833C21.6971 15.6165 21.3804 15.4049 21.0318 15.2605C20.6833 15.1162 20.3097 15.0419 19.9324 15.0419C19.5551 15.0419 19.1815 15.1162 18.833 15.2606C18.4844 15.405 18.1677 15.6166 17.9009 15.8834L15.7814 18.0029C15.685 18.0992 15.5543 18.1533 15.418 18.1533C15.2817 18.1533 15.151 18.0992 15.0546 18.0029L12.9351 15.8834C12.669 15.6158 12.3524 15.4036 12.0038 15.2592C11.6551 15.1147 11.2812 15.0409 10.9038 15.0419H10.901Z" fill="white"/>
<path fill-rule="evenodd" clip-rule="evenodd" d="M20.1582 27.7337C20.0219 27.7337 19.8912 27.6795 19.7948 27.5831L17.4241 25.2124C17.3759 25.1648 17.3376 25.1081 17.3115 25.0457C17.2853 24.9832 17.2717 24.9161 17.2715 24.8484C17.2713 24.7807 17.2845 24.7135 17.3103 24.6509C17.3362 24.5883 17.3741 24.5314 17.422 24.4835C17.4699 24.4356 17.5268 24.3976 17.5895 24.3718C17.6521 24.346 17.7192 24.3328 17.7869 24.333C17.8547 24.3332 17.9217 24.3467 17.9842 24.3729C18.0467 24.3991 18.1033 24.4374 18.151 24.4856L20.1582 26.4929L26.7056 19.9455C26.9724 19.6788 27.184 19.3621 27.3284 19.0136C27.4728 18.6651 27.5471 18.2915 27.5471 17.9143C27.5471 17.537 27.4728 17.1634 27.3284 16.8149C27.184 16.4664 26.9724 16.1497 26.7056 15.883L26.694 15.8715L26.6853 15.863C26.181 15.3657 25.5102 15.073 24.8026 15.0413C24.095 15.0096 23.4008 15.2413 22.854 15.6916C22.7858 15.7477 22.7241 15.8032 22.667 15.8612C22.5703 15.9572 22.4393 16.0109 22.303 16.0104C22.1666 16.0099 22.0361 15.9553 21.94 15.8585C21.844 15.7618 21.7903 15.6308 21.7908 15.4945C21.7913 15.3581 21.8459 15.2276 21.9427 15.1315C22.0228 15.052 22.11 14.9732 22.2023 14.8974C22.9442 14.2862 23.8862 13.9713 24.8466 14.0135C25.8069 14.0557 26.7176 14.452 27.4031 15.1259C27.4134 15.1359 27.424 15.1462 27.4343 15.1571C27.7966 15.5193 28.0841 15.9493 28.2802 16.4226C28.4763 16.8959 28.5772 17.4032 28.5772 17.9155C28.5772 18.4278 28.4763 18.9351 28.2802 19.4084C28.0841 19.8817 27.7966 20.3118 27.4343 20.6739L20.5217 27.5831C20.474 27.6309 20.4173 27.6688 20.3549 27.6946C20.2926 27.7204 20.2257 27.7337 20.1582 27.7337Z" fill="white"/>
<path fill-rule="evenodd" clip-rule="evenodd" d="M24.8999 27.7339C24.8324 27.734 24.7656 27.7207 24.7032 27.6949C24.6408 27.669 24.5842 27.6312 24.5365 27.5834L22.1658 25.2127C22.0703 25.1161 22.0169 24.9857 22.0173 24.8499C22.0177 24.7141 22.0718 24.5839 22.1679 24.4879C22.2639 24.3919 22.394 24.3378 22.5298 24.3374C22.6656 24.337 22.7961 24.3903 22.8926 24.4858L24.8999 26.4931L31.4472 19.9458C31.7153 19.6804 31.9285 19.3648 32.0747 19.017C32.2208 18.6693 32.297 18.2961 32.299 17.9189C32.3009 17.5416 32.2285 17.1677 32.0859 16.8185C31.9433 16.4692 31.7334 16.1515 31.468 15.8834C31.2026 15.6153 30.887 15.4021 30.5392 15.2559C30.1915 15.1098 29.8183 15.0336 29.4411 15.0317C29.0638 15.0297 28.6899 15.1021 28.3407 15.2447C27.9914 15.3873 27.6737 15.5973 27.4056 15.8627C27.3083 15.9582 27.177 16.0111 27.0407 16.0099C26.9043 16.0086 26.7741 15.9533 26.6786 15.856C26.583 15.7587 26.5301 15.6274 26.5314 15.4911C26.5326 15.3547 26.588 15.2245 26.6853 15.1289C27.4204 14.401 28.4145 13.995 29.449 14C30.4835 14.0051 31.4736 14.421 32.2015 15.1561C32.9294 15.8912 33.3355 16.8853 33.3304 17.9198C33.3254 18.9543 32.9095 19.9444 32.1744 20.6723L25.2634 27.5828C25.2157 27.6306 25.159 27.6685 25.0967 27.6943C25.0343 27.7202 24.9674 27.7334 24.8999 27.7333V27.7339Z" fill="white"/>
<defs>
<linearGradient id="paint0_linear_1_515" x1="20.0416" y1="2.83984" x2="20.0416" y2="39.4313" gradientUnits="userSpaceOnUse">
<stop stop-color="#00C2FF"/>
<stop offset="1" stop-color="#216CFF"/>
</linearGradient>
<linearGradient id="paint1_linear_1_515" x1="18.8221" y1="1.62109" x2="18.8221" y2="38.2126" gradientUnits="userSpaceOnUse">
<stop stop-color="#00C2FF"/>
<stop offset="1" stop-color="#216CFF"/>
</linearGradient>
<linearGradient id="paint2_linear_1_515" x1="20" y1="5.26367" x2="20" y2="34.7374" gradientUnits="userSpaceOnUse">
<stop stop-color="#00C2FF"/>
<stop offset="1" stop-color="#216CFF"/>
</linearGradient>
<linearGradient id="paint3_linear_1_515" x1="20" y1="0" x2="20" y2="40" gradientUnits="userSpaceOnUse">
<stop stop-color="#00C2FF"/>
<stop offset="1" stop-color="#216CFF"/>
</linearGradient>
<linearGradient id="paint4_linear_1_515" x1="20.6517" y1="1.62109" x2="20.6517" y2="38.2126" gradientUnits="userSpaceOnUse">
<stop stop-color="#00C2FF"/>
<stop offset="1" stop-color="#216CFF"/>
</linearGradient>
<radialGradient id="paint5_radial_1_515" cx="0" cy="0" r="1" gradientUnits="userSpaceOnUse" gradientTransform="translate(19.9998 19.9999) rotate(90) scale(17 17.9952)">
<stop stop-color="#04E0FF"/>
<stop offset="1" stop-color="#0D7684"/>
</radialGradient>
<linearGradient id="paint6_linear_1_515" x1="19.9998" y1="2.99986" x2="19.9998" y2="36.9999" gradientUnits="userSpaceOnUse">
<stop stop-color="#04E0FF"/>
<stop offset="1" stop-color="#0D7684"/>
</linearGradient>
<linearGradient id="paint7_linear_1_515" x1="15" y1="0" x2="15" y2="30" gradientUnits="userSpaceOnUse">
<stop stop-color="white" stop-opacity="0.5"/>
<stop offset="0.400706" stop-color="white" stop-opacity="0"/>
</linearGradient>
</defs>
</svg>
