<svg width="37" height="16" viewBox="0 0 37 16" fill="none" xmlns="http://www.w3.org/2000/svg">
<path d="M5.33834 2.44131C5.59966 2.1784 5.74898 1.84038 5.74898 1.42723C5.74898 1.01408 5.59966 0.676056 5.33834 0.413145C5.07702 0.150234 4.74104 0 4.3304 0C3.91976 0 3.58378 0.150234 3.32246 0.413145C3.06115 0.676056 2.91182 1.01408 2.91182 1.42723C2.91182 1.84038 3.06115 2.1784 3.32246 2.44131C3.58378 2.70423 3.88243 2.8169 4.21841 2.85446C4.25574 2.85446 4.29307 2.85446 4.3304 2.85446C4.74104 2.85446 5.07702 2.70423 5.33834 2.44131ZM10.6767 8.22535C10.6767 7.92488 10.5647 7.69953 10.378 7.47418C10.1914 7.28638 9.93006 7.17371 9.63141 7.17371C9.33277 7.17371 9.10878 7.28638 8.88479 7.47418C8.69814 7.66197 8.58614 7.92488 8.58614 8.22535C8.58614 8.52582 8.69814 8.75117 8.88479 8.97652C9.07145 9.16432 9.33277 9.27699 9.63141 9.27699C9.93006 9.27699 10.154 9.16432 10.378 8.97652C10.5647 8.75117 10.6767 8.52582 10.6767 8.22535ZM9.93006 15.5493C9.93006 15.662 9.96739 15.7746 10.0794 15.8498C10.154 15.9249 10.266 16 10.378 16C10.49 16 10.602 15.9624 10.6767 15.8498C10.7513 15.7746 10.826 15.662 10.826 15.5493C10.826 15.5117 10.826 15.5117 10.826 15.4742V13.6338H9.93006V15.5493ZM9.33277 13.6714H8.43682V15.5493C8.43682 15.662 8.47415 15.7746 8.58614 15.8498C8.66081 15.9249 8.7728 16 8.88479 16C8.99679 16 9.10878 15.9624 9.18344 15.8498C9.2581 15.7746 9.33277 15.662 9.33277 15.5493C9.33277 15.5117 9.33277 15.5117 9.33277 15.4742V13.6714ZM7.35422 9.05164L7.0929 8.6385L7.16756 9.01408L7.35422 9.05164ZM10.9007 10.9296L12.0206 9.0892L12.2446 8.71361L11.9459 8.48826L11.6473 8.26291C10.9007 9.50235 10.2287 10.0282 9.55675 9.91549C9.07145 9.80282 8.43682 9.27699 7.72753 8.30047L7.39155 8.52582V9.0892L8.58614 11.0423L7.80219 13.6714H8.43682H9.33277H9.93006H10.826H11.5353L10.9007 10.9296ZM2.27719 5.07042C2.38919 4.80751 2.53851 4.80751 2.61317 5.07042V15.0986C2.65051 15.5493 2.87449 15.7746 3.32246 15.7371C3.73311 15.6995 3.99442 15.5493 4.06909 15.2113C4.06909 15.1737 4.06909 15.1737 4.06909 15.1361V9.46479H4.47973V15.1361C4.51706 15.5117 4.77838 15.6995 5.22635 15.7371C5.67432 15.7746 5.89831 15.5493 5.93564 15.0986V5.07042C6.04763 4.80751 6.15963 4.80751 6.27162 5.07042L6.4956 9.01408L7.2049 9.0892L7.13023 8.71361L7.39155 9.12676V8.56338V4.9953C7.39155 3.9061 6.86892 3.34272 5.89831 3.26761H2.68784C1.6799 3.34272 1.19459 3.94366 1.19459 4.9953V10.4038L0 15.662H0.70929L1.75456 10.3662L2.27719 5.07042ZM13.7378 5.89671C13.9991 5.6338 14.1111 5.6338 14.1485 5.93427L12.6552 11.1925H14.2231V15.061C14.2231 15.5117 14.4471 15.6995 14.8204 15.662C15.1937 15.6244 15.4177 15.4366 15.4551 15.0986V11.23H15.791V15.1361C15.8284 15.4742 16.0524 15.662 16.4257 15.6995C16.799 15.7371 16.9856 15.5493 17.023 15.0986V11.23H18.5535L16.9856 5.8216C17.023 5.55869 17.135 5.48357 17.3589 5.6338L18.3669 9.0892C18.5535 9.27699 18.7402 9.35211 19.0015 9.27699C19.2628 9.20188 19.3748 9.01408 19.4122 8.67605L18.1056 4.61972C17.8442 4.0939 17.4709 3.86854 17.023 3.86854H14.1111C13.5885 3.98122 13.2152 4.28169 13.0659 4.73239L11.9833 8.48826L12.2819 8.71361L12.0579 9.0892C12.5432 9.35211 12.8419 9.23944 13.0285 8.78873L13.7378 5.89671ZM15.6417 3.49296C16.0524 3.49296 16.3883 3.34272 16.6497 3.07981C16.911 2.8169 17.0603 2.47887 17.0603 2.06573C17.0603 1.65258 16.911 1.31455 16.6497 1.05164C16.3883 0.788732 16.0524 0.638497 15.6417 0.638497C15.2311 0.638497 14.8951 0.788732 14.6338 1.05164C14.3725 1.31455 14.2231 1.65258 14.2231 2.06573C14.2231 2.47887 14.3725 2.8169 14.6338 3.07981C14.8951 3.34272 15.1937 3.4554 15.5297 3.49296C15.5671 3.49296 15.6044 3.49296 15.6417 3.49296ZM21.428 5.89671C21.6893 5.6338 21.8013 5.6338 21.8387 5.93427L20.3454 11.1925H21.9133V15.061C21.9133 15.5117 22.1373 15.6995 22.5106 15.662C22.8839 15.6244 23.1079 15.4366 23.1453 15.0986V11.23H23.4812V15.1361C23.5186 15.5117 23.7426 15.6995 24.0785 15.6995C24.4892 15.6995 24.6758 15.5117 24.7132 15.0986V11.23H26.2437L24.6758 5.85915C24.7132 5.59624 24.8252 5.52113 25.0491 5.67136L26.0571 9.12676C26.2437 9.31455 26.4304 9.38967 26.6917 9.31455C26.953 9.23944 27.065 9.05164 27.1024 8.71361L25.7584 4.61972C25.4971 4.0939 25.1238 3.86854 24.6758 3.86854H21.764C21.2414 3.98122 20.8681 4.28169 20.7187 4.73239L19.6361 8.48826C19.5615 8.82629 19.5988 9.01408 19.7108 9.0892C20.1961 9.35211 20.4948 9.23944 20.6814 8.78873L21.428 5.89671ZM24.2279 3.00469C24.4892 2.74178 24.6012 2.44131 24.6012 2.06573C24.6012 1.69014 24.4892 1.38967 24.2279 1.12676C23.9665 0.86385 23.6679 0.751174 23.2946 0.751174C22.9213 0.751174 22.6226 0.86385 22.3613 1.12676C22.1 1.38967 21.988 1.69014 21.988 2.06573C21.988 2.44131 22.1 2.74178 22.3613 3.00469C22.5853 3.23005 22.8466 3.34272 23.1826 3.38028C23.2199 3.38028 23.2573 3.38028 23.2946 3.38028C23.6679 3.38028 23.9665 3.26761 24.2279 3.00469ZM31.2088 12.169L30.4621 10.1408C30.3875 9.95305 30.2382 9.84037 30.0888 9.76526C29.9395 9.69014 29.7902 9.65258 29.6035 9.65258H27.8116C27.401 9.7277 27.1024 9.99061 26.9157 10.4038L26.1317 12.507C26.0944 12.77 26.1317 12.9577 26.3557 13.0329C26.5424 13.108 26.729 13.0704 26.8784 12.8451L27.4383 11.1174C27.4757 11.0798 27.513 11.0798 27.5503 11.0798C27.5877 11.0798 27.625 11.0798 27.6623 11.1174V15.5117C27.6623 15.8122 27.8116 15.9249 28.1103 15.9249C28.4089 15.9249 28.5209 15.7746 28.5583 15.5117V13.3333C28.6703 13.1831 28.7822 13.1831 28.8942 13.3333V15.5493C28.8942 15.8122 29.0436 15.9249 29.3422 15.9249C29.6409 15.9249 29.7902 15.8122 29.8275 15.5493V10.9671C29.9022 10.892 29.9768 10.892 30.0888 10.9671L30.5741 12.507C30.7235 12.77 30.9101 12.8451 31.1341 12.7324C31.2461 12.6573 31.3208 12.4695 31.2088 12.169ZM29.7529 8.18779C29.7155 7.92488 29.6409 7.69953 29.4542 7.51174C29.2676 7.32394 29.0062 7.21127 28.7076 7.21127C28.4089 7.21127 28.1476 7.32394 27.961 7.51174C27.7743 7.69953 27.6623 7.92488 27.6623 8.18779C27.6623 8.22535 27.6623 8.22535 27.6623 8.26291C27.6623 8.56338 27.7743 8.82629 27.961 9.01408C28.185 9.23944 28.4089 9.31455 28.7076 9.31455C29.0062 9.31455 29.2676 9.20188 29.4542 9.01408C29.6782 8.82629 29.7529 8.56338 29.7529 8.26291C29.7529 8.22535 29.7529 8.18779 29.7529 8.18779ZM35.1285 1.42723C35.1285 1.05164 34.9792 0.713615 34.7179 0.450704C34.4566 0.187793 34.1206 0.0375581 33.7473 0.0375581C33.374 0.0375581 33.038 0.187793 32.7767 0.450704C32.5154 0.713615 32.366 1.05164 32.366 1.42723C32.366 1.80282 32.5154 2.14084 32.7767 2.40375C33.0007 2.62911 33.2993 2.77934 33.6353 2.8169C33.6726 2.8169 33.7099 2.8169 33.7473 2.8169C34.1206 2.8169 34.4566 2.66667 34.7179 2.40375C35.0165 2.14084 35.1285 1.80282 35.1285 1.42723ZM35.5018 5.07042C35.6138 4.80751 35.7258 4.80751 35.8378 5.07042V9.05164H36.9578V4.92019C36.9578 3.83099 36.4351 3.26761 35.4645 3.19249H33.8593H32.142C31.0968 3.26761 30.5368 3.86854 30.5368 4.92019V9.01408H31.7314V5.03286C31.8807 4.76995 31.9927 4.76995 32.1047 5.03286V15.061C32.142 15.5117 32.366 15.7371 32.8513 15.6995C33.3366 15.662 33.598 15.4742 33.6353 15.0986V9.46479H33.8966H34.1206V15.1361C34.1579 15.5117 34.4192 15.6995 34.8672 15.7371C35.3152 15.7746 35.5392 15.5493 35.5765 15.0986V5.07042H35.5018Z" fill="white"/>
</svg>
