<svg width="16" height="16" viewBox="0 0 16 16" fill="none" xmlns="http://www.w3.org/2000/svg">
<path d="M11.294 10.5014V8.82645H4.67186V10.4904H11.294M11.294 7.70248V6.02755H4.67186V7.69146H11.294M12.1314 3.50413L13.3655 2.20386C11.6356 0.738292 9.75142 0 7.69095 0C5.56437 0 3.75732 0.782369 2.2588 2.33609C0.749261 3.90083 0 5.79614 0 8C0 10.2039 0.749261 12.0882 2.2588 13.6529C3.75732 15.2176 5.57539 16 7.69095 16C9.81753 16 11.6136 15.2727 13.1011 13.8072C14.5775 12.3416 15.3158 10.6336 15.3158 8.6832C15.3158 6.73278 14.7649 5.13499 13.652 3.90083C14.4012 5.2011 14.7759 6.63361 14.7759 8.18733C14.7759 10.0275 14.1258 11.6033 12.8146 12.9036C11.5144 14.2039 9.93873 14.865 8.09863 14.865C6.25854 14.865 4.68288 14.2149 3.38269 12.9036C2.08251 11.6033 1.43241 10.0496 1.42139 8.23141C1.41037 6.41322 1.99436 4.90358 3.18436 3.7135C4.37436 2.5124 5.82881 1.90634 7.55872 1.89532C9.2666 1.85124 10.7982 2.4022 12.1314 3.50413Z" fill="white"/>
</svg>
