<svg width="23" height="16" viewBox="0 0 23 16" fill="none" xmlns="http://www.w3.org/2000/svg">
<path d="M5.86929 0V16H10.7732V0H5.86929ZM8.80394 2.37037H9.88512V3.47654H8.80394V2.37037ZM7.95444 2.37037V3.47654H6.87325V2.37037H7.95444ZM9.88512 5.1358V6.24198H8.80394V5.1358H9.88512ZM7.95444 5.1358V6.24198H6.87325V5.1358H7.95444ZM8.80394 9.00741V7.90123H9.88512V9.00741H8.80394ZM7.95444 7.90123V9.00741H6.87325V7.90123H7.95444ZM6.87325 11.5358V10.4296H7.95444V11.5358H6.87325ZM6.87325 14.3012V13.1951H7.95444V14.3012H6.87325ZM9.88512 10.4296V11.5358H8.80394V10.4296H9.88512ZM8.80394 14.3012V13.1951H9.88512V14.3012H8.80394ZM0 11.5951H4.92325L2.56782 8.35556L0 11.5951ZM1.62178 13.9852H3.20494V16H4.90395V12.2864H0V16H1.60247V13.9852M16.5074 16V2.76543L11.7193 9.12593V16H16.5074ZM15.1559 6.59753H15.5807V7.7037H14.4802V7.3679L15.1559 6.59753ZM13.6307 8.41481V9.52099H12.6267L13.592 8.41481H13.6307ZM14.4802 9.52099V8.41481H15.5613V9.52099H14.4802ZM15.5613 11.2198H14.4802V10.1136H15.5613V11.2198ZM14.4802 11.9309H15.5613V13.037H14.4802V11.9309ZM12.5495 11.9309H13.6307V13.037H12.5495V11.9309ZM12.5495 11.2198V10.1136H13.6307V11.2198H12.5495ZM12.5495 13.6296H13.6307V14.7358H12.5495V13.6296ZM14.4802 13.6296H15.5613V14.7358H14.4802V13.6296ZM22.2222 11.042H17.3955V16H22.2029V11.042M20.195 12.0099H21.2762V13.116H20.195V12.0099ZM20.195 13.7086H21.2762V14.8148H20.195V13.7086ZM18.2643 13.7086H19.3455V14.8148H18.2643V13.7086ZM18.2643 13.116V12.0099H19.3455V13.116H18.2643ZM22.2222 9.3037H17.3955V10.6074H22.2029V9.3037H22.2222Z" fill="white"/>
</svg>
