<svg width="32" height="16" viewBox="0 0 32 16" fill="none" xmlns="http://www.w3.org/2000/svg">
<path d="M31.8958 8.13221C31.8958 5.88178 31.0927 3.98025 29.4691 2.39273C27.8455 0.805217 25.8902 0.00273701 23.6032 0.00273701C21.3162 0.00273701 19.3609 0.805217 17.7373 2.39273C17.3358 2.77653 16.9866 3.19521 16.6898 3.6139L18.4531 6.28302C18.715 5.53287 19.1514 4.86995 19.7625 4.25937C20.8448 3.21266 22.1367 2.6893 23.6381 2.6893C25.157 2.6893 26.4489 3.21266 27.5138 4.25937C28.5962 5.30608 29.1199 6.57958 29.1199 8.06243C29.1199 9.54527 28.5787 10.7839 27.5138 11.7608C26.4663 12.7377 25.2093 13.1913 23.7429 13.1564C22.2764 13.1215 20.9671 12.5284 19.7974 11.377C18.6277 10.2256 17.3882 8.41133 16.0788 5.93411C15.9741 5.74221 15.8693 5.56776 15.7646 5.37586C14.9964 4.10236 14.0886 2.93353 13.0237 1.88682C11.8191 0.6831 10.1256 0.0550727 7.96085 0.00273701C5.79606 -0.0495986 3.92805 0.64821 2.35683 2.13105C0.78561 3.6139 0 5.46309 0 7.71352C0 9.96396 0.803068 11.8829 2.39175 13.4704C3.98042 15.058 5.9008 15.8604 8.15289 15.8604C9.75902 15.8604 11.1906 15.4592 12.465 14.6393L13.9664 16L14.6123 9.94651L8.79883 11.377L10.3002 12.7377C9.61936 13.0343 8.88612 13.1913 8.10051 13.1913C6.61658 13.1913 5.34215 12.668 4.29467 11.6213C3.24719 10.5745 2.70599 9.30104 2.70599 7.81819C2.70599 6.33535 3.22973 5.09674 4.27721 4.11981C5.30723 3.14288 6.54675 2.67186 7.97831 2.70675C9.42732 2.72419 10.5446 3.14288 11.3477 3.94536C12.1508 4.74784 13.5299 6.73659 15.5027 9.92907C15.6075 10.121 15.7122 10.2954 15.8344 10.4873C16.62 11.7608 17.5453 12.9122 18.6277 13.9764C19.8672 15.1801 21.5955 15.8081 23.7953 15.8604C25.995 15.9128 27.9153 15.215 29.5215 13.7321C31.0927 12.2318 31.8958 10.3826 31.8958 8.13221Z" fill="white"/>
</svg>
