<svg width="31" height="16" viewBox="0 0 31 16" fill="none" xmlns="http://www.w3.org/2000/svg">
<path d="M7.57093 2.01386C4.88598 3.37186 2.35714 5.36985 0 7.97659C2.20103 10.6458 4.62061 12.6594 7.24312 14.0174C9.80319 15.3597 12.4569 16.0153 15.2043 15.9997C17.9361 15.9841 20.621 15.3129 23.2748 13.9705C25.9597 12.6125 28.4886 10.6302 30.8457 8.02341C28.6447 5.35424 26.2251 3.34065 23.6026 1.98264C21.0425 0.64025 18.3888 -0.015337 15.6414 0.000272229C12.9096 0.000272229 10.2247 0.671469 7.57093 2.01386ZM21.7762 6.40005C21.7606 6.44688 21.745 6.49371 21.7294 6.55615C21.6981 6.69663 21.6825 6.79029 21.6825 6.8215C21.6825 6.8215 21.6825 6.83711 21.6825 6.86833C21.6513 6.88394 21.6201 6.89955 21.5889 6.93077C21.464 7.00881 21.3703 7.05564 21.2923 7.05564C21.1518 6.91516 21.0269 6.8215 20.9176 6.75907C20.6991 6.61858 20.5898 6.72785 20.5898 7.05564C20.5898 7.1493 20.6054 7.22734 20.6367 7.30539C20.6679 7.35222 20.7303 7.46148 20.824 7.63318C20.4181 7.50831 20.1059 7.68001 19.9186 8.13268C19.7937 8.42925 19.7313 8.69461 19.7313 8.94436C19.7313 9.0068 19.7469 9.10045 19.7937 9.22532C19.8561 9.39703 19.9498 9.49068 20.0747 9.49068C20.2152 9.49068 20.3088 9.45946 20.3557 9.41264C20.4337 9.33459 20.4805 9.28776 20.4805 9.28776C20.4962 9.36581 20.543 9.45946 20.6367 9.58434C20.6679 9.61556 20.6835 9.64677 20.7147 9.67799C20.6991 9.67799 20.6679 9.6936 20.6523 9.70921C20.621 9.74043 20.5586 9.75604 20.5118 9.75604C20.2932 9.75604 20.0122 9.63116 19.6532 9.41264C19.3098 9.19411 19.0756 8.99119 18.9664 8.80388C18.8727 8.49169 18.7947 8.24194 18.7322 8.05463C18.6229 7.71123 18.4668 7.53953 18.2483 7.53953C17.9361 7.53953 17.7644 7.64879 17.7332 7.85171C17.7175 7.96098 17.7175 8.10146 17.7644 8.25755C17.8112 8.35121 17.7488 8.46047 17.5614 8.58535C17.3429 8.72583 17.2336 8.83509 17.218 8.92875H16.9995C16.9058 8.92875 16.859 8.88192 16.859 8.78827C16.859 8.72583 16.9214 8.63217 17.0463 8.5073C17.1712 8.39804 17.2336 8.31999 17.2336 8.27316C17.2336 8.22633 16.9995 8.13268 16.5312 7.9922C16.0473 7.8361 15.7663 7.64879 15.6882 7.41465C15.6726 7.33661 15.579 7.24295 15.4229 7.13369C15.2824 7.02442 15.1575 6.96199 15.0326 6.91516C14.8141 6.71224 14.6423 6.61858 14.5175 6.63419C14.4082 6.6498 14.3458 6.71224 14.3458 6.85272C14.3458 7.02442 14.455 7.21173 14.6892 7.39905C14.9233 7.58636 15.0326 7.75806 15.0326 7.91415C15.0326 7.97659 15.0326 8.02341 15.0014 8.07024C14.9858 8.10146 14.9702 8.14829 14.9389 8.24194H14.5643C14.3145 8.24194 14.096 8.14829 13.9087 7.97659C13.7213 7.78928 13.6121 7.69562 13.5652 7.69562C13.4248 7.69562 13.3623 7.75806 13.3623 7.88293C13.3623 8.10146 13.5184 8.35121 13.8462 8.64778C14.174 8.94436 14.3458 9.19411 14.3458 9.38142C14.3458 9.41264 14.2833 9.5219 14.1584 9.72482C14.0023 9.95896 13.9087 10.1307 13.8774 10.2555C13.7682 10.5677 13.6901 10.8643 13.6121 11.1765C13.5809 11.2701 13.534 11.4262 13.4716 11.6291C13.4091 11.8165 13.3311 11.9725 13.2374 12.0818C13.1125 12.2223 12.9564 12.3628 12.7691 12.5033C12.6286 12.6125 12.4725 12.675 12.3008 12.7062C12.3008 12.2067 12.1135 11.7228 11.7545 11.2701C11.3798 10.8019 11.1925 10.5521 11.1925 10.5521C11.1925 10.318 10.9427 10.1931 10.4432 10.1931C10.3652 10.1931 10.2871 10.2399 10.1934 10.3336C10.0998 10.4272 10.0373 10.4741 10.0061 10.4741C9.83441 10.3336 9.67831 10.2087 9.55343 10.0994C9.5066 10.0682 9.47538 10.037 9.44416 10.0214C9.22561 9.38142 9.11634 8.69461 9.11634 7.96098C9.11634 7.82049 9.11634 7.6644 9.13195 7.52392C9.16317 7.50831 9.17878 7.47709 9.17878 7.44587C9.16317 7.35222 9.16317 7.27417 9.17878 7.21173C9.24122 6.9776 9.69392 6.86833 10.5369 6.86833C10.7398 6.86833 10.974 6.94638 11.2393 7.10247C11.5047 7.25856 11.7076 7.33661 11.8325 7.33661C12.0354 7.33661 12.2228 7.28978 12.4101 7.21173C12.5818 7.13369 12.6755 7.04003 12.6755 6.96199C12.6755 6.86833 12.6599 6.75907 12.6442 6.66541C12.5974 6.46249 12.4881 6.36884 12.3476 6.36884L12.0042 6.41566C11.7545 6.41566 11.5827 6.35323 11.4891 6.24396C11.3642 6.1347 11.2393 6.07226 11.0676 6.07226C10.8179 6.07226 10.6461 6.1347 10.5681 6.24396C10.5056 6.38445 10.4432 6.46249 10.3808 6.50932C9.89685 6.50932 9.56904 6.54054 9.38171 6.58737C9.35049 6.60297 9.30366 6.61858 9.27244 6.61858C9.31927 6.36884 9.39733 6.11909 9.47538 5.88495C9.49099 5.90056 9.49099 5.90056 9.5066 5.91617C9.61587 5.97861 9.85002 6.00982 10.2091 6.00982C10.3964 6.00982 10.6149 5.88495 10.8335 5.61959C10.9427 5.49472 11.052 5.36985 11.1613 5.24497C11.1925 5.24497 11.2705 5.26058 11.3798 5.27619C11.5047 5.2918 11.6452 5.30741 11.7701 5.30741C12.0042 5.30741 12.1915 5.26058 12.332 5.15132C12.4101 5.10449 12.4725 5.04205 12.535 4.96401C12.9096 4.97962 13.0969 4.88596 13.0969 4.68304C13.0813 4.46451 12.9877 4.37086 12.8003 4.37086C12.6286 4.37086 12.4413 4.46451 12.2228 4.63621C12.0042 4.80791 11.8637 4.90157 11.7857 4.90157C11.6452 4.90157 11.5515 4.87035 11.5047 4.82352C11.4735 4.7923 11.4579 4.74548 11.4579 4.68304C11.4579 4.6206 11.4735 4.54256 11.5047 4.46451C11.5515 4.35525 11.5984 4.29281 11.6764 4.24598H11.973L12.4101 4.29281C12.6911 4.29281 12.9096 4.21476 13.0969 4.07428C13.2843 3.9338 13.3779 3.87136 13.4248 3.87136C13.5028 3.87136 13.5809 3.90258 13.6901 3.94941C13.6589 4.02745 13.6121 4.08989 13.5809 4.13672C13.5809 4.15233 13.5809 4.19915 13.5809 4.26159C13.5809 4.26159 13.5809 4.30842 13.5809 4.37086C13.6121 4.4489 13.6589 4.48012 13.7526 4.49573C13.9243 4.49573 14.096 4.38646 14.2521 4.16794C14.377 3.98062 14.455 3.82453 14.4394 3.73088C14.4394 3.65283 14.4238 3.59039 14.4082 3.55918C14.377 3.49674 14.2989 3.44991 14.1896 3.41869C14.2209 3.27821 14.2365 3.20016 14.2365 3.18455C14.2365 3.0909 14.2053 2.99724 14.174 2.90359C14.096 2.71628 13.9867 2.62262 13.8306 2.62262C13.8306 2.62262 13.7213 2.63823 13.5184 2.70067C13.3155 2.7475 13.1125 2.77871 12.9096 2.77871C12.5194 2.77871 12.3164 2.71628 12.3164 2.57579C12.3164 2.56019 12.3476 2.49775 12.4101 2.40409C12.4257 2.38848 12.4257 2.38848 12.4413 2.37287C13.3779 1.84216 14.4238 1.5768 15.579 1.5768C17.3585 1.5768 18.8727 2.20117 20.1215 3.44991C20.9332 4.30842 21.4952 5.2918 21.7762 6.40005ZM21.6357 7.58636C21.745 7.52392 21.823 7.4927 21.8855 7.46148C21.9011 7.47709 21.9167 7.4927 21.9479 7.50831C21.9635 7.6644 21.9635 7.82049 21.9635 7.9922C21.9635 8.55413 21.9011 9.10045 21.7762 9.59995C21.745 9.55312 21.7138 9.5219 21.6825 9.47507C21.5264 9.25654 21.4328 8.99119 21.4328 8.679C21.464 8.3356 21.4796 8.10146 21.4796 7.96098C21.4796 7.86732 21.4796 7.80488 21.4952 7.75806C21.5264 7.68001 21.5733 7.63318 21.6357 7.58636ZM18.4824 11.4106C18.5293 11.036 18.5761 10.8175 18.6385 10.755C18.8727 10.5209 19.341 10.3648 20.0435 10.2868C20.621 10.2243 20.9176 10.0838 20.9176 9.8653C20.9176 9.83408 20.902 9.80287 20.902 9.77165C20.9176 9.75604 20.9489 9.74043 20.9645 9.72482C21.0269 9.67799 21.1206 9.67799 21.2611 9.70921C21.3079 9.74043 21.4016 9.83408 21.542 9.99018C21.5733 10.037 21.6201 10.0682 21.6513 10.0994C21.3391 10.9892 20.824 11.8008 20.1059 12.5345C20.0903 12.4252 20.0435 12.3784 19.9654 12.3784C19.7313 12.3784 19.5595 12.394 19.4503 12.4096C19.341 12.4252 19.2473 12.4408 19.1693 12.4408C18.6854 12.4408 18.4356 12.3003 18.4356 12.0038C18.4356 11.8633 18.4512 11.6604 18.4824 11.4106ZM15.5321 14.4232C14.7984 14.4232 14.1116 14.3139 13.4716 14.0954C13.534 14.033 13.5965 13.9549 13.6589 13.8769C14.0179 13.4866 14.2833 13.2993 14.4706 13.3149L15.4385 13.2993C15.5321 13.2837 15.6414 13.2681 15.7663 13.2525C15.8287 13.2525 15.8755 13.2681 15.8912 13.2681C15.938 13.2837 16.0004 13.2993 16.0785 13.3306C16.1097 13.3306 16.1721 13.3462 16.2658 13.3618C16.3595 13.393 16.4063 13.4086 16.4219 13.4086C16.4687 13.4242 16.5624 13.5023 16.7341 13.6271C16.9214 13.7364 17.1088 13.7832 17.2805 13.7832C17.3585 13.7832 17.5458 13.674 17.8424 13.4398C18.1234 13.2213 18.3732 13.112 18.5605 13.112C18.6229 13.112 18.7478 13.1276 18.9195 13.1588C19.06 13.1901 19.1693 13.2057 19.263 13.2057C18.1702 14.033 16.937 14.4232 15.5321 14.4232ZM19.9186 12.6906C19.8874 12.7218 19.8405 12.7686 19.8093 12.7998C19.8405 12.7686 19.8874 12.7374 19.9186 12.6906ZM11.1769 3.27821C11.4266 3.04407 11.6764 2.84115 11.9574 2.65384C11.692 2.84115 11.4266 3.04407 11.1769 3.27821ZM10.8647 3.59039C10.8803 3.59039 10.9115 3.606 10.9271 3.606H11.2705C11.2705 3.63722 11.2862 3.71527 11.3018 3.84014C11.3018 3.90258 11.2549 3.99623 11.1613 4.08989C11.0832 4.16794 11.0364 4.24598 11.0208 4.2772H11.0052C10.8959 4.21476 10.771 4.19915 10.5993 4.19915C10.5056 4.19915 10.412 4.21476 10.3027 4.26159C10.4744 4.02745 10.6617 3.80892 10.8647 3.59039ZM10.6461 4.49573C10.771 4.49573 10.8335 4.51134 10.8647 4.55817C10.8647 4.57378 10.8803 4.6206 10.8803 4.68304C10.8803 4.71426 10.8491 4.71426 10.8022 4.71426C10.6617 4.69865 10.4588 4.7767 10.1622 4.93279C10.0842 4.97962 10.0217 5.07327 9.94368 5.22936C9.89685 5.35424 9.78758 5.4635 9.61587 5.52594C9.60026 5.54155 9.58465 5.54155 9.56904 5.55716C9.67831 5.27619 9.80319 5.01083 9.95929 4.76109C10.0217 4.72987 10.0998 4.69865 10.2091 4.63621C10.412 4.55817 10.5525 4.49573 10.6461 4.49573Z" fill="white"/>
</svg>
