<svg width="19" height="16" viewBox="0 0 19 16" fill="none" xmlns="http://www.w3.org/2000/svg">
<path d="M15.6483 8.6366C14.4593 7.87268 13.1429 7.49072 11.6779 7.51194C10.4252 7.53316 9.12997 7.85146 7.79232 8.46684C6.51837 9.06101 5.45675 9.80371 4.60745 10.7162C3.69445 8.70026 2.22941 7.66048 0.191092 7.59682C2.03832 10.5464 2.03832 13.3263 0.16986 16C2.25064 15.7878 3.67322 14.748 4.45882 12.8806C6.75193 15.0239 9.23613 16.0637 11.9327 15.9788C14.3319 15.9151 16.5613 14.557 18.6209 11.9045C17.7716 10.4615 16.7737 9.37931 15.6483 8.6366ZM13.5888 9.93103C13.9285 9.93103 14.2045 10.0371 14.4381 10.2706C14.6716 10.504 14.799 10.7798 14.799 11.1194C14.799 11.4589 14.6716 11.7347 14.4381 11.9682C14.2045 12.2016 13.9285 12.3289 13.5888 12.3289C13.2491 12.3289 12.973 12.2228 12.7395 11.9682C12.5059 11.7347 12.3785 11.4589 12.3785 11.1194C12.3785 10.7798 12.4847 10.504 12.7395 10.2706C12.973 10.0371 13.2491 9.93103 13.5888 9.93103ZM18.3873 0.954907C18.3661 0.976127 18.3236 0.997347 18.3024 0.997347C17.8141 1.27321 17.2408 1.42175 16.5613 1.42175C15.8819 1.42175 15.3086 1.27321 14.8415 0.997347C14.3744 0.721485 14.1196 0.381963 14.1196 0C14.1196 0.381963 13.8648 0.721485 13.4189 0.997347C12.9306 1.27321 12.3573 1.42175 11.6779 1.42175C10.9984 1.42175 10.4251 1.27321 9.95804 0.997347C9.57585 0.785146 9.34229 0.530504 9.2786 0.233422C9.19367 0.530504 8.98134 0.785146 8.59916 0.997347C8.11081 1.27321 7.53753 1.42175 6.85809 1.42175C6.17865 1.42175 5.60538 1.27321 5.13826 0.997347C4.71361 0.763926 4.45882 0.466843 4.35266 0.127321C4.28896 0.466843 4.0554 0.763926 3.60952 0.997347C3.09994 1.27321 2.4842 1.42175 1.7623 1.42175C1.10409 1.42175 0.50958 1.29443 0.0212325 1.06101V2.33422C0.50958 2.58886 1.10409 2.69496 1.78353 2.71618C2.50543 2.71618 3.12118 2.58886 3.63076 2.313C4.07664 2.07958 4.33143 1.78249 4.37389 1.44297C4.48005 1.78249 4.73484 2.07958 5.15949 2.313C5.62661 2.58886 6.19989 2.71618 6.87932 2.71618C7.55876 2.71618 8.13204 2.58886 8.62039 2.313C9.00257 2.1008 9.2149 1.84615 9.29983 1.54907C9.38476 1.84615 9.61832 2.1008 9.97927 2.313C10.4464 2.58886 11.0197 2.71618 11.6991 2.71618C12.3785 2.71618 12.9518 2.58886 13.4402 2.313C13.9073 2.03714 14.1408 1.69761 14.1408 1.31565C14.1408 1.69761 14.3956 2.03714 14.8627 2.313C15.3299 2.58886 15.9031 2.71618 16.5826 2.71618C17.262 2.71618 17.8353 2.58886 18.3236 2.313C18.3449 2.29178 18.3873 2.29178 18.4086 2.27056V0.954907M18.3873 3.71353C18.3661 3.73475 18.3236 3.75597 18.3024 3.75597C17.8141 4.03183 17.2408 4.15915 16.5613 4.15915C15.8819 4.15915 15.3086 4.03183 14.8415 3.75597C14.3744 3.48011 14.1196 3.14058 14.1196 2.75862C14.1196 3.14058 13.8648 3.48011 13.4189 3.75597C12.9306 4.03183 12.3573 4.15915 11.6779 4.15915C10.9984 4.15915 10.4251 4.03183 9.95804 3.75597C9.57585 3.54377 9.34229 3.28912 9.2786 2.99204C9.19367 3.28912 8.98134 3.54377 8.59916 3.75597C8.11081 4.03183 7.53753 4.15915 6.85809 4.15915C6.17865 4.15915 5.60538 4.03183 5.13826 3.75597C4.71361 3.52255 4.45882 3.22546 4.35266 2.88594C4.28896 3.22546 4.0554 3.52255 3.60952 3.75597C3.09994 4.03183 2.4842 4.15915 1.7623 4.15915C1.08286 4.15915 0.488347 4.03183 0 3.77719V5.0504C0.488347 5.30504 1.08286 5.43236 1.7623 5.43236C2.4842 5.43236 3.09994 5.28382 3.60952 5.00796C4.0554 4.77454 4.31019 4.47745 4.35266 4.13793C4.45882 4.47745 4.71361 4.77454 5.13826 5.00796C5.60538 5.28382 6.17865 5.43236 6.85809 5.43236C7.53753 5.43236 8.11081 5.28382 8.59916 5.00796C8.98134 4.79576 9.19367 4.54111 9.2786 4.24403C9.36353 4.54111 9.59708 4.79576 9.95804 5.00796C10.4251 5.28382 10.9984 5.43236 11.6779 5.43236C12.3573 5.43236 12.9306 5.28382 13.4189 5.00796C13.886 4.7321 14.1196 4.39257 14.1196 4.01061C14.1196 4.39257 14.3744 4.7321 14.8415 5.00796C15.3086 5.28382 15.8819 5.43236 16.5613 5.43236C17.2408 5.43236 17.8141 5.28382 18.3024 5.00796C18.3236 4.98674 18.3661 4.98674 18.3873 4.96552V3.71353Z" fill="white"/>
</svg>
