<svg width="16" height="16" viewBox="0 0 16 16" fill="none" xmlns="http://www.w3.org/2000/svg">
<path d="M0 12.7848V14.038H15.878V12.7848H0ZM0 14.7468V16H15.878V14.7468H0ZM4.17843 9.41772V12.0886H5.4826V9.41772H4.17843ZM7.04002 2.3038C7.04002 1.67089 6.8121 1.12658 6.35627 0.670886C5.91311 0.227848 5.36864 0 4.72289 0C4.07713 0 3.54533 0.227848 3.0895 0.670886C2.63367 1.11392 2.40576 1.67089 2.40576 2.3038V2.43038H2.22849C1.74734 2.43038 1.34216 2.59494 1.00029 2.93671C0.658419 3.27848 0.493814 3.68354 0.493814 4.1519C0.493814 4.63291 0.658419 5.03797 1.00029 5.36709L1.19022 5.53165C0.974966 5.86076 0.873671 6.22785 0.873671 6.63291C0.873671 7.25316 1.0636 7.75949 1.45612 8.13924C1.84864 8.53165 2.34245 8.73418 2.96288 8.74684H6.58419C7.12865 8.64557 7.59714 8.39241 8.00232 7.97468C8.54678 7.43038 8.82534 6.77215 8.82534 6C8.82534 5.22785 8.54678 4.55696 8.00232 4.01266C7.64779 3.65823 7.24261 3.41772 6.78678 3.3038C6.96404 3.01266 7.04002 2.67089 7.04002 2.3038ZM15.4728 7.12658C14.7005 6.08861 13.7888 5.96203 12.7505 6.72152C12.2567 6.41772 11.8389 6.25316 11.4717 6.24051C10.8133 6.18987 10.3448 6.49367 10.0662 7.13924C11.3451 6.73418 12.2187 6.93671 12.6999 7.77215C13.4469 6.83544 14.3713 6.62025 15.4728 7.12658ZM13.3963 0.911392C12.9278 0.151899 12.358 0.126582 11.6743 0.848101C12.5733 0.658228 13.0544 0.936709 13.1431 1.65823C13.8901 1.20253 14.5865 1.22785 15.2323 1.72152C15.1436 0.936709 14.5359 0.658228 13.3963 0.911392ZM13.0418 2.8481C12.3707 2.16456 11.5983 2.08861 10.7373 2.63291C10.3954 2.29114 9.99024 2.1519 9.54707 2.20253C9.00261 2.3038 8.66074 2.63291 8.53412 3.20253C9.42045 2.78481 10.1548 2.91139 10.75 3.55696C11.4464 2.78481 12.2061 2.5443 13.0418 2.8481Z" fill="white"/>
</svg>
