<svg width="17" height="16" viewBox="0 0 17 16" fill="none" xmlns="http://www.w3.org/2000/svg">
<path d="M14.8588 4.19048C14.1169 3.44862 13.2145 3.02757 12.1918 2.94737C11.9913 2.32581 11.6304 1.76441 11.1291 1.26316C10.2869 0.421053 9.26419 0 8.06105 0C6.85791 0 5.83524 0.421053 4.99304 1.26316C4.49173 1.76441 4.15084 2.32581 3.95032 2.94737C2.90759 3.02757 2.02529 3.44862 1.2633 4.19048C0.4211 5.03258 0 6.05514 0 7.25815C0 8.46115 0.4211 9.46366 1.2633 10.3058C1.34351 10.386 1.44377 10.4662 1.52398 10.5464C1.44377 10.9073 1.40367 11.2682 1.40367 11.6692C1.40367 12.8722 1.82476 13.8747 2.66696 14.7168C3.50916 15.5589 4.53183 16 5.73498 16C6.61728 16 7.39932 15.7794 8.0811 15.3183C8.76288 15.7794 9.54492 16 10.4272 16C11.6304 16 12.633 15.5789 13.4752 14.7168C14.3174 13.8747 14.7385 12.8521 14.7385 11.6692C14.7385 11.2682 14.6984 10.9073 14.5981 10.5263C14.6783 10.4461 14.7585 10.386 14.8387 10.3058C15.6809 9.46366 16.102 8.4411 16.102 7.25815C16.102 6.07519 15.701 5.03258 14.8588 4.19048ZM12.3924 4.33083C12.3924 4.21053 12.3924 4.11028 12.3924 4.01002C13.0541 4.11028 13.6356 4.41103 14.1369 4.91228C14.7786 5.57393 15.0994 6.35589 15.0994 7.25815C15.0994 8.14035 14.7986 8.90226 14.2171 9.52381C14.0166 9.20301 13.776 8.88221 13.4952 8.6015C12.8135 7.9198 12.0314 7.5188 11.1291 7.37845C11.9713 6.53634 12.3924 5.51378 12.3924 4.33083ZM11.089 2.96742C10.1866 3.10777 9.40456 3.50877 8.72278 4.19048C8.4621 4.45113 8.24152 4.73183 8.06105 5.03258C7.88058 4.73183 7.66 4.45113 7.39932 4.19048C6.71754 3.50877 5.9355 3.10777 5.0532 2.96742C5.21361 2.60652 5.43419 2.26566 5.73498 1.96491C6.37665 1.32331 7.15869 1.00251 8.0811 1.00251C9.00351 1.00251 9.7655 1.32331 10.4072 1.96491C10.708 2.28571 10.9285 2.60652 11.089 2.96742ZM11.3697 3.96992C11.3697 4.09023 11.3697 4.19048 11.3697 4.33083C11.3697 5.25313 11.0489 6.03509 10.3871 6.67669C9.88581 7.17794 9.3043 7.49875 8.64257 7.61905C8.58241 7.61905 8.54231 7.6391 8.48215 7.6391C8.4621 7.5188 8.4621 7.3985 8.4621 7.2782C8.4621 6.97744 8.5022 6.69674 8.56236 6.41604C8.70273 5.85464 8.98346 5.35338 9.40456 4.91228C9.98608 4.37093 10.6278 4.07018 11.3697 3.96992ZM8.90325 8.7218C9.36445 8.4812 9.86576 8.3609 10.4272 8.3609C11.3496 8.3609 12.1116 8.6817 12.7533 9.32331C13.014 9.58396 13.2145 9.86466 13.395 10.1654C12.9137 10.4261 12.3723 10.5664 11.7908 10.5664C10.9686 10.5664 10.2668 10.3058 9.66524 9.80451C9.58503 9.74436 9.52487 9.66416 9.44466 9.60401C9.18398 9.34336 8.98346 9.06266 8.84309 8.7619C8.86314 8.74185 8.8832 8.7218 8.90325 8.7218ZM4.77246 3.96992C5.49435 4.05013 6.13602 4.37093 6.65738 4.89223C7.09854 5.33333 7.37927 5.83459 7.51964 6.39599C7.57979 6.67669 7.6199 6.95739 7.6199 7.25815C7.6199 7.37845 7.6199 7.49875 7.59985 7.61905C7.55974 7.599 7.49958 7.599 7.43943 7.599C6.7777 7.4787 6.19618 7.17794 5.69487 6.67669C5.0532 6.03509 4.73236 5.25313 4.73236 4.33083C4.75241 4.21053 4.75241 4.09023 4.77246 3.96992ZM1.98518 4.91228C2.48649 4.41103 3.06801 4.11028 3.72974 4.01002C3.72974 4.11028 3.72974 4.23058 3.72974 4.33083C3.72974 5.53383 4.15084 6.53634 4.99304 7.3985L5.01309 7.41855C4.13079 7.5589 3.34874 7.9599 2.68702 8.62155C2.38623 8.92231 2.1456 9.22306 1.96513 9.58396C1.34351 8.94236 1.04272 8.18045 1.04272 7.2782C1.02267 6.33584 1.34351 5.55388 1.98518 4.91228ZM8.02094 9.38346C8.041 9.36341 8.06105 9.34336 8.0811 9.32331C8.10115 9.34336 8.10115 9.34336 8.12121 9.36341C8.42199 9.66416 8.64257 10.005 8.78293 10.3659C8.94335 10.7669 9.02356 11.188 9.02356 11.6491C9.02356 12.5714 8.70273 13.3534 8.06105 13.995C7.41937 13.3534 7.09854 12.5714 7.09854 11.6491C7.09854 11.1479 7.1988 10.7068 7.37927 10.2857C7.53969 9.96491 7.76026 9.66416 8.02094 9.38346ZM6.67744 9.60401C6.63733 9.64411 6.59723 9.68421 6.53707 9.72431C5.91545 10.2857 5.19356 10.5664 4.33131 10.5664C3.74979 10.5664 3.22843 10.4461 2.76723 10.1855C2.92764 9.86466 3.12817 9.58396 3.38885 9.32331C4.03052 8.6817 4.81257 8.3609 5.73498 8.3609C6.29644 8.3609 6.79775 8.4812 7.2389 8.7218C7.25895 8.7218 7.27901 8.74185 7.27901 8.74185C7.13864 9.04261 6.93812 9.32331 6.67744 9.60401ZM4.33131 11.589C4.97299 11.589 5.57456 11.4687 6.11597 11.2281C6.09592 11.3684 6.09592 11.5288 6.09592 11.6692C6.09592 12.812 6.47691 13.7945 7.25896 14.6165C6.79775 14.8571 6.29644 14.9774 5.73498 14.9774C4.81257 14.9774 4.03052 14.6566 3.38885 14.015C2.74717 13.3734 2.42634 12.5915 2.42634 11.6692C2.42634 11.5088 2.44639 11.3283 2.46644 11.1679C3.02791 11.4486 3.64953 11.589 4.33131 11.589ZM13.7158 11.1479C13.7359 11.3083 13.7559 11.4887 13.7559 11.6491C13.7559 12.5714 13.4351 13.3534 12.7934 13.995C12.1517 14.6366 11.3697 14.9574 10.4673 14.9574C9.90587 14.9574 9.40456 14.8371 8.94335 14.5965C9.7254 13.7744 10.1064 12.792 10.1064 11.6491C10.1064 11.5088 10.1064 11.3484 10.0863 11.208C10.6278 11.4486 11.2093 11.5689 11.8309 11.5689C12.4926 11.589 13.1343 11.4486 13.7158 11.1479Z" fill="white"/>
</svg>
