<svg width="19" height="16" viewBox="0 0 19 16" fill="none" xmlns="http://www.w3.org/2000/svg">
<path d="M6.52316 15.1972V16H12.5893V15.1972C16.1763 14.1869 18.2953 11.7509 18.9462 7.87543H0C0.817126 11.7647 2.99151 14.2007 6.52316 15.1972ZM7.03559 0H5.73373C5.12435 0.595156 4.73656 1.32872 4.59806 2.17301C4.43187 3.19723 4.73656 4.13841 5.52599 5.01038C6.07997 5.61938 6.20462 6.35294 5.91377 7.21107H7.17409C7.49263 6.35294 7.31258 5.48097 6.6201 4.62284C5.94147 4 5.65063 3.26644 5.73373 2.44983C5.98302 1.39792 6.39851 0.581315 7.03559 0ZM10.6365 0H9.33462C8.72524 0.595156 8.33745 1.32872 8.19896 2.17301C8.03276 3.19723 8.33745 4.13841 9.12688 5.01038C9.68086 5.61938 9.80551 6.35294 9.51467 7.21107H10.775C11.0935 6.35294 10.9135 5.48097 10.2348 4.62284C9.55622 4 9.26538 3.26644 9.36232 2.44983C9.58392 1.39792 9.9994 0.581315 10.6365 0ZM14.2374 0H12.9355C12.3261 0.595156 11.9383 1.32872 11.7998 2.17301C11.6337 3.19723 11.9383 4.13841 12.7278 5.01038C13.2818 5.61938 13.4064 6.35294 13.1156 7.21107H14.3759C14.6944 6.35294 14.5005 5.48097 13.8219 4.62284C13.1433 4 12.8524 3.26644 12.9494 2.44983C13.1848 1.39792 13.6003 0.581315 14.2374 0Z" fill="white"/>
</svg>
