<svg width="23" height="16" viewBox="0 0 23 16" fill="none" xmlns="http://www.w3.org/2000/svg">
<path d="M17.1054 1.79371L18.7949 5.27685C18.9617 5.52713 19.1703 5.5897 19.3997 5.4437C19.6291 5.2977 19.6917 5.06827 19.5666 4.75542L17.3766 0.271142C17.2931 0.0834284 17.168 0 17.0011 0C16.8551 0 16.73 0.104285 16.6674 0.271142L12.6837 13.724L11.5574 7.1957C11.328 6.88284 11.0569 6.88284 10.7649 7.1957L9.07545 10.4494L8.32459 4.81799C8.28288 4.65113 8.15773 4.5677 7.94916 4.5677C7.76145 4.5677 7.61545 4.65113 7.53202 4.81799L5.6966 9.07284H0.357178C0.169464 9.07284 0.0443213 9.17712 0.00260714 9.36484C-0.01825 9.61512 0.0860355 9.76112 0.315464 9.78198H6.15545L7.71973 6.67427L8.44973 12.1388C8.49145 12.3057 8.59573 12.3891 8.78345 12.3891C8.97116 12.3891 9.11716 12.3057 9.20059 12.1388L10.9734 8.69741L12.1414 15.6845C12.1832 15.914 12.3083 16.0183 12.5169 15.9974C12.7046 15.9974 12.8506 15.8931 12.9549 15.6845L17.1054 1.79371ZM21.9234 6.88284C20.9848 6.50741 20.2549 6.73684 19.6917 7.55027C19.1911 6.82027 18.5654 6.59084 17.7729 6.88284C16.8551 7.29998 16.6257 8.09256 17.0429 9.26055C17.7729 10.4494 18.6697 11.4088 19.7126 12.1388C20.7346 11.388 21.5688 10.512 22.2363 9.46912C22.7994 8.40541 22.6951 7.55027 21.9234 6.88284Z" fill="white"/>
</svg>
