<svg width="12" height="16" viewBox="0 0 12 16" fill="none" xmlns="http://www.w3.org/2000/svg">
<path d="M11.8215 3.96025V0H7.94847V1.50316H9.39364L7.94847 2.96296C7.08136 2.25474 6.05529 1.89341 4.88469 1.89341C3.52623 1.89341 2.37009 2.37037 1.41627 3.3243C0.476908 4.29268 0 5.44896 0 6.80759C0 8.16621 0.476908 9.32249 1.43072 10.2764C2.21112 11.0569 3.12158 11.5194 4.16211 11.664V12.9648H2.76029V14.4968H4.16211V16H5.70844V14.4968H7.24033V12.9503H5.70844V11.6495C6.72007 11.4905 7.60163 11.028 8.36757 10.262C9.32138 9.30804 9.81274 8.15176 9.81274 6.79313C9.81274 5.75248 9.52371 4.81301 8.94564 4.00361L10.3619 2.63053V3.96025H11.8215ZM7.4282 4.26378C8.13634 4.972 8.48318 5.8103 8.48318 6.80759C8.48318 7.80488 8.13634 8.64318 7.4282 9.3514C6.73452 10.0452 5.88187 10.3921 4.89915 10.3921C3.90198 10.3921 3.06377 10.0452 2.35564 9.3514C1.66195 8.65763 1.30066 7.80488 1.30066 6.80759C1.30066 5.82475 1.6475 4.972 2.35564 4.26378C3.06377 3.57001 3.90198 3.22313 4.89915 3.22313C5.88187 3.22313 6.73452 3.57001 7.4282 4.26378ZM2.73138 7.2701V8.41192H7.11027V7.2701H2.73138ZM7.11027 6.4607V5.31888H2.73138V6.4607H7.11027Z" fill="white"/>
</svg>
