<svg width="12" height="16" viewBox="0 0 12 16" fill="none" xmlns="http://www.w3.org/2000/svg">
<path d="M5.92643 16L8.44832 13.7061H7.25616V11.848H10.0302L11.7497 0H0L2.04044 11.848H4.50501V13.7061H3.38162L5.92643 16ZM11.0619 0.573477L10.8327 2.27097C10.1105 2.28244 9.54878 2.45448 9.13611 2.7871C8.0815 3.29176 6.95812 3.29176 5.75449 2.7871C4.67695 2.20215 3.70259 2.05305 2.85432 2.32832C2.09775 2.71828 1.49021 2.83297 1.03168 2.6724L0.687787 0.573477H11.0619ZM4.03502 8.18925C4.03502 7.79928 4.13819 7.44373 4.34452 7.13405L5.90351 4.49606L7.50835 6.98495C7.60005 7.08817 7.66883 7.20287 7.72614 7.31756C7.85224 7.58136 7.92102 7.8681 7.92102 8.17778C7.92102 8.71685 7.72614 9.17563 7.34786 9.55412C6.96958 9.93262 6.51105 10.1161 5.97229 10.1161C5.43352 10.1161 4.975 9.92115 4.59671 9.55412C4.22989 9.17563 4.03502 8.71685 4.03502 8.18925Z" fill="white"/>
</svg>
