<svg width="16" height="16" viewBox="0 0 16 16" fill="none" xmlns="http://www.w3.org/2000/svg">
<path d="M10.1992 12.8659C10.178 12.9509 10.178 13.0359 10.2098 13.1102C10.2205 13.1315 10.2311 13.1527 10.2417 13.174C10.2523 13.1952 10.2629 13.2165 10.2842 13.2377L11.1979 14.8845C11.251 14.9801 11.3254 15.0332 11.4316 15.0651C11.5378 15.0969 11.6335 15.0863 11.7291 15.0332C11.8247 14.9801 11.8884 14.9057 11.9203 14.7995C11.9416 14.7039 11.9416 14.6082 11.8991 14.5232L10.9323 12.7809C10.8791 12.6959 10.8048 12.6321 10.7092 12.6003C10.6029 12.5684 10.4967 12.579 10.4117 12.6215C10.2842 12.6746 10.2205 12.7596 10.1992 12.8659ZM14.7463 11.8566C14.7145 11.761 14.6614 11.676 14.5764 11.6228L12.8659 10.5923C12.7703 10.5392 12.6746 10.5286 12.579 10.5604C12.4728 10.5923 12.3878 10.6454 12.3347 10.741C12.2815 10.8367 12.2709 10.9323 12.3028 11.0491C12.324 11.1341 12.3665 11.2085 12.4303 11.251C12.4409 11.2616 12.4622 11.2722 12.4834 11.2829C12.5046 11.2935 12.5259 11.3041 12.5471 11.3147L14.162 12.2815C14.2576 12.3347 14.3533 12.3453 14.4595 12.3134C14.5657 12.2922 14.6401 12.2284 14.6932 12.1434C14.7463 12.0584 14.7676 11.9628 14.7463 11.8566ZM7.72377 13.3758C7.6494 13.4502 7.61753 13.5352 7.61753 13.6414V15.6282C7.61753 15.7344 7.66003 15.8194 7.72377 15.8831C7.79814 15.9575 7.89376 16 8 16C8.10624 16 8.20186 15.9575 8.27623 15.8831C8.33997 15.8194 8.38247 15.745 8.39309 15.66C8.39309 15.6388 8.39309 15.6175 8.39309 15.5963C8.39309 15.5644 8.39309 15.5432 8.38247 15.5113V13.6308C8.38247 13.5246 8.33997 13.429 8.2656 13.3546C8.19123 13.2802 8.10624 13.2377 8 13.2377C7.89376 13.2377 7.79814 13.3015 7.72377 13.3758ZM5.25896 13.0677C5.31208 12.9827 5.33333 12.8765 5.30146 12.7703C5.28021 12.664 5.21647 12.5896 5.12085 12.5365C5.03586 12.4834 4.92962 12.4622 4.82337 12.4834C4.72776 12.5153 4.64276 12.5684 4.58964 12.6534L3.56972 14.3533C3.5166 14.4489 3.50598 14.5445 3.52722 14.6401C3.5591 14.7463 3.61222 14.8313 3.70784 14.8845C3.80345 14.9376 3.89907 14.9482 4.01594 14.927C4.10093 14.9057 4.1753 14.8632 4.22842 14.7995C4.23904 14.7888 4.24967 14.7676 4.26029 14.757C4.27092 14.7357 4.28154 14.7039 4.28154 14.6826L5.25896 13.0677ZM2.99602 10.3904C2.9004 10.3692 2.80478 10.3798 2.70916 10.4223L0.977424 11.3891C0.89243 11.4422 0.828685 11.5166 0.796813 11.6122C0.76494 11.7185 0.775564 11.8141 0.828685 11.9097C0.881806 12.0053 0.966799 12.0691 1.08367 12.1009C1.16866 12.1222 1.24303 12.1222 1.32802 12.1009C1.34927 12.0903 1.35989 12.0797 1.38114 12.0797C1.41301 12.0691 1.43426 12.0478 1.44489 12.0266L3.09163 11.1129C3.18725 11.0704 3.24037 10.9854 3.27224 10.8791C3.30412 10.7835 3.29349 10.6879 3.24037 10.5923C3.17663 10.4861 3.10226 10.4223 2.99602 10.3904ZM2.63479 7.72377C2.56042 7.6494 2.47543 7.61753 2.36919 7.60691H0.38247C0.276228 7.60691 0.191235 7.6494 0.116866 7.72377C0.0424967 7.79814 0 7.89376 0 8C0 8.10624 0.0424967 8.20186 0.12749 8.28685C0.191235 8.3506 0.265604 8.39309 0.350598 8.40372C0.371846 8.40372 0.393094 8.40372 0.414343 8.40372C0.446215 8.40372 0.467463 8.40372 0.499336 8.39309H2.37981C2.48606 8.39309 2.58167 8.3506 2.65604 8.27623C2.73041 8.20186 2.76228 8.10624 2.77291 8C2.74104 7.89376 2.70916 7.79814 2.63479 7.72377ZM1.12616 4.45153C1.14741 4.46215 1.16866 4.47278 1.18991 4.49402L2.80478 5.46082C2.9004 5.51394 2.99602 5.52457 3.10226 5.50332C3.2085 5.48207 3.28287 5.41833 3.33599 5.32271C3.38911 5.23772 3.41036 5.13147 3.37849 5.02523C3.34661 4.92961 3.29349 4.85525 3.2085 4.80212L1.49801 3.77158C1.40239 3.71846 1.30677 3.70784 1.21116 3.73971C1.10491 3.77158 1.01992 3.8247 0.966799 3.90969C0.913679 4.00531 0.903054 4.10093 0.924303 4.2178C0.945551 4.30279 0.988048 4.37716 1.05179 4.43028C1.08367 4.43028 1.10491 4.4409 1.12616 4.45153ZM5.47145 3.18725C5.4927 3.09163 5.48207 2.99602 5.43957 2.91102L4.4834 1.16866C4.43028 1.08367 4.35591 1.01992 4.24967 0.998672C4.14343 0.966799 4.04781 0.977424 3.95219 1.03054C3.85657 1.08367 3.79283 1.15803 3.76096 1.2749C3.73971 1.35989 3.73971 1.44489 3.76096 1.51926C3.77158 1.52988 3.7822 1.5405 3.79283 1.56175C3.80345 1.583 3.81408 1.60425 3.83533 1.63612L4.749 3.28287C4.80212 3.37849 4.88712 3.43161 4.98274 3.46348C5.07835 3.49535 5.17397 3.48473 5.26959 3.43161C5.37583 3.36786 5.43957 3.29349 5.47145 3.18725ZM7.72377 0.116866C7.6494 0.191235 7.61753 0.276228 7.61753 0.38247V2.36919C7.61753 2.47543 7.66003 2.56042 7.72377 2.63479C7.79814 2.70916 7.89376 2.75166 8 2.75166C8.10624 2.75166 8.20186 2.70916 8.27623 2.62417C8.33997 2.56043 8.38247 2.48606 8.39309 2.41169C8.39309 2.39044 8.39309 2.36919 8.39309 2.34794C8.39309 2.31607 8.39309 2.29482 8.38247 2.26295V0.393094C8.38247 0.286853 8.33997 0.191235 8.2656 0.116866C8.20186 0.0424967 8.10624 0 8 0C7.89376 0 7.79814 0.0424967 7.72377 0.116866ZM12.5471 8.02125C12.5471 6.75697 12.1009 5.68393 11.2085 4.7915C10.3161 3.89907 9.2324 3.45286 7.97875 3.45286C6.7251 3.45286 5.64143 3.89907 4.749 4.7915C3.85657 5.68393 3.41036 6.75697 3.41036 8.02125C3.41036 9.28552 3.85657 10.3586 4.749 11.251C5.64143 12.1434 6.71448 12.5896 7.97875 12.5896C9.24303 12.5896 10.3161 12.1434 11.2085 11.251C12.1009 10.3586 12.5471 9.2749 12.5471 8.02125ZM9.65737 6.31076C10.1248 6.77822 10.3586 7.3413 10.3586 8.01062C10.3586 8.66932 10.1248 9.24303 9.65737 9.71049C9.18991 10.178 8.62683 10.4117 7.9575 10.4117C7.2988 10.4117 6.7251 10.178 6.25764 9.71049C5.79017 9.24303 5.55644 8.67995 5.55644 8.01062C5.55644 7.35193 5.79017 6.77822 6.25764 6.31076C6.51262 6.05578 6.79947 5.86454 7.11819 5.7583V6.58699C7.01195 6.65073 6.90571 6.73572 6.79947 6.84197C6.48074 7.16069 6.32138 7.55378 6.32138 8.01062C6.32138 8.46746 6.48074 8.84993 6.79947 9.17928C7.11819 9.49801 7.50066 9.65737 7.9575 9.65737C8.41434 9.65737 8.79681 9.49801 9.12616 9.17928C9.44489 8.86056 9.61487 8.46746 9.61487 8.01062C9.61487 7.55378 9.45551 7.17131 9.12616 6.84197C9.0093 6.7251 8.88181 6.62948 8.74369 6.55511V5.73705C9.07304 5.84329 9.38114 6.03453 9.65737 6.31076ZM7.72377 5.00398C7.79814 4.92961 7.89376 4.89774 8 4.89774C8.10624 4.89774 8.19123 4.94024 8.2656 5.00398C8.33997 5.07835 8.38247 5.17397 8.38247 5.28021V7.16069C8.39309 7.18194 8.39309 7.21381 8.39309 7.24568C8.39309 7.26693 8.39309 7.28818 8.39309 7.2988C8.38247 7.3838 8.33997 7.44754 8.27623 7.52191C8.19123 7.60691 8.10624 7.6494 8 7.6494C7.89376 7.6494 7.79814 7.60691 7.72377 7.53254C7.6494 7.45817 7.61753 7.37317 7.61753 7.27756V5.26959C7.61753 5.16335 7.6494 5.07835 7.72377 5.00398ZM15.8938 7.72377C15.8194 7.6494 15.7344 7.61753 15.6282 7.60691H13.6414C13.5352 7.60691 13.4502 7.6494 13.3865 7.72377C13.3121 7.79814 13.2696 7.89376 13.2696 8C13.2696 8.10624 13.3121 8.20186 13.3971 8.28685C13.4608 8.3506 13.5352 8.39309 13.6096 8.40372C13.6308 8.40372 13.6521 8.40372 13.6733 8.40372C13.7052 8.40372 13.7264 8.40372 13.7583 8.39309H15.6175C15.7238 8.39309 15.8194 8.3506 15.8938 8.27623C15.9681 8.20186 16 8.10624 16 8C16 7.89376 15.9681 7.79814 15.8938 7.72377ZM11.6653 1.13679C11.5697 1.16866 11.4847 1.22178 11.4316 1.30677L10.4117 3.00664C10.3586 3.10226 10.3479 3.19788 10.3692 3.29349C10.4011 3.39973 10.4542 3.48473 10.5392 3.53785C10.6348 3.59097 10.7304 3.60159 10.8473 3.56972C10.9323 3.54847 11.0066 3.50598 11.0598 3.44223C11.0704 3.43161 11.081 3.41036 11.0916 3.39973C11.1023 3.37849 11.1129 3.34661 11.1129 3.32537L12.0797 1.72112C12.1328 1.6255 12.1434 1.52988 12.1222 1.42364C12.1009 1.3174 12.0372 1.24303 11.9416 1.18991C11.8672 1.12616 11.7716 1.10491 11.6653 1.13679ZM14.587 3.96282C14.4914 3.94157 14.3958 3.94157 14.3001 3.98406L12.5578 4.95086C12.4728 5.00398 12.409 5.07835 12.3772 5.16335C12.3453 5.26959 12.3559 5.36521 12.409 5.46082C12.4622 5.55644 12.5471 5.62019 12.6534 5.65206C12.7384 5.67331 12.8234 5.67331 12.9084 5.65206C12.9296 5.64143 12.9402 5.64143 12.9615 5.63081C12.9827 5.62019 13.004 5.59894 13.0146 5.57769L14.6614 4.66401C14.757 4.61089 14.8101 4.53652 14.8526 4.43028C14.8845 4.32404 14.8632 4.22842 14.8101 4.1328C14.7676 4.05843 14.6932 3.99469 14.587 3.96282Z" fill="white"/>
</svg>
