<svg width="16" height="16" viewBox="0 0 16 16" fill="none" xmlns="http://www.w3.org/2000/svg">
<path d="M15.0588 13.4952V8.85197L11.5277 6.64537V2.38552L7.53355 0L3.54763 2.38552V6.82428L0 8.88605V13.5719L3.91149 16L7.54182 13.7508L11.0894 15.9318L15.0588 13.4952ZM14.5213 9.61022V13.1715L11.5277 15.0288V11.3823L14.5213 9.61022ZM7.83952 5.16294L10.6346 6.86688L7.83952 8.57082V5.16294ZM8.21992 4.6262L10.8414 3.16933V6.21938L8.21992 4.6262ZM4.13477 6.45793V2.8541L7.17796 4.76251L4.13477 6.45793ZM4.03553 10.9563L4.4242 11.1949L7.36816 9.44835V13.0096L4.4242 11.2034L4.03553 10.9563ZM4.21746 15.0288V11.7657L6.91333 13.3845L4.21746 15.0288ZM0.595407 9.59318L3.51455 11.3397V15.0884L0.595407 13.197V9.59318ZM11.2548 10.9137L8.15376 9.05644L11.2714 7.24175L14.3146 9.09904L11.2548 10.9137ZM7.17796 5.39297V8.57082L4.54824 6.88392L7.17796 5.39297Z" fill="white"/>
</svg>
