<svg width="24" height="24" viewBox="0 0 24 24" fill="none" xmlns="http://www.w3.org/2000/svg">
<circle cx="12" cy="12" r="11.5" fill="url(#paint0_radial_2754_1691)" stroke="url(#paint1_linear_2754_1691)"/>
<ellipse cx="10.2" cy="10.2" rx="10.2" ry="10.2" transform="matrix(-1 -8.74228e-08 -8.74228e-08 1 22.8 1.80078)" fill="url(#paint2_linear_2754_1691)"/>
<path d="M19.5774 15.7059C19.1449 15.7059 18.7565 15.6355 18.4119 15.4949C18.0674 15.3543 17.7739 15.1592 17.5313 14.9096C17.2922 14.6564 17.1076 14.3629 16.9776 14.0289C16.851 13.6914 16.7877 13.3293 16.7877 12.9426V12.7316C16.7877 12.2922 16.851 11.8932 16.9776 11.5346C17.1041 11.1725 17.2834 10.8613 17.5155 10.6012C17.7475 10.341 18.0252 10.1406 18.3487 10C18.6721 9.85937 19.0289 9.78906 19.4192 9.78906C19.8235 9.78906 20.1803 9.85762 20.4897 9.99473C20.799 10.1283 21.0574 10.3182 21.2649 10.5643C21.4723 10.8104 21.6287 11.1057 21.7342 11.4502C21.8397 11.7912 21.8924 12.1691 21.8924 12.584V13.1693H17.4205V12.2096H20.5213V12.1041C20.5143 11.8826 20.4721 11.6805 20.3948 11.4977C20.3174 11.3113 20.1979 11.1637 20.0362 11.0547C19.8744 10.9422 19.6653 10.8859 19.4086 10.8859C19.2012 10.8859 19.0201 10.9316 18.8655 11.023C18.7143 11.1109 18.5877 11.2375 18.4858 11.4027C18.3873 11.5645 18.3135 11.7578 18.2643 11.9828C18.2151 12.2078 18.1905 12.4574 18.1905 12.7316V12.9426C18.1905 13.1816 18.2221 13.4031 18.2854 13.607C18.3522 13.8109 18.4489 13.9885 18.5754 14.1396C18.7055 14.2873 18.8602 14.4033 19.0395 14.4877C19.2223 14.5686 19.4297 14.609 19.6617 14.609C19.9535 14.609 20.2172 14.5527 20.4528 14.4402C20.6918 14.3242 20.8992 14.1537 21.075 13.9287L21.7764 14.6564C21.6569 14.8322 21.4951 15.001 21.2912 15.1627C21.0908 15.3244 20.8483 15.4562 20.5635 15.5582C20.2787 15.6566 19.95 15.7059 19.5774 15.7059Z" fill="white"/>
<path d="M13.5709 14.5457L14.8998 9.89453H16.3553L14.3988 15.6004H13.5129L13.5709 14.5457ZM12.6006 9.89453L13.9453 14.5562L13.9928 15.6004H13.1016L11.1398 9.89453H12.6006Z" fill="white"/>
<path d="M10.3488 9.89453V15.6004H8.95137V9.89453H10.3488ZM8.85645 8.40215C8.85645 8.19473 8.92676 8.02246 9.06738 7.88535C9.21152 7.74824 9.40488 7.67969 9.64746 7.67969C9.89004 7.67969 10.0816 7.74824 10.2223 7.88535C10.3664 8.02246 10.4385 8.19473 10.4385 8.40215C10.4385 8.60605 10.3664 8.77656 10.2223 8.91367C10.0816 9.05078 9.89004 9.11934 9.64746 9.11934C9.40488 9.11934 9.21152 9.05078 9.06738 8.91367C8.92676 8.77656 8.85645 8.60605 8.85645 8.40215Z" fill="white"/>
<path d="M8.00742 14.4609V15.6H4.14727V14.4609H8.00742ZM4.58496 7.92188V15.6H3.13477V7.92188H4.58496Z" fill="white"/>
<defs>
<radialGradient id="paint0_radial_2754_1691" cx="0" cy="0" r="1" gradientUnits="userSpaceOnUse" gradientTransform="translate(11.9999 11.9999) rotate(90) scale(12 12.7025)">
<stop stop-color="#04E0FF"/>
<stop offset="1" stop-color="#0D7684"/>
</radialGradient>
<linearGradient id="paint1_linear_2754_1691" x1="11.9999" y1="-0.000100467" x2="11.9999" y2="23.9999" gradientUnits="userSpaceOnUse">
<stop stop-color="#04E0FF"/>
<stop offset="1" stop-color="#0D7684"/>
</linearGradient>
<linearGradient id="paint2_linear_2754_1691" x1="10.2" y1="0" x2="10.2" y2="20.4" gradientUnits="userSpaceOnUse">
<stop stop-color="white" stop-opacity="0.5"/>
<stop offset="0.400706" stop-color="white" stop-opacity="0"/>
</linearGradient>
</defs>
</svg>
