<svg width="16" height="20" viewBox="0 0 16 20" fill="none" xmlns="http://www.w3.org/2000/svg">
<path d="M14.2222 8.70223C13.7778 8.81778 13.3333 8.88889 12.8889 8.88889C11.593 8.88654 10.3509 8.37071 9.43452 7.45438C8.51818 6.53804 8.00235 5.2959 8 4C8 2.69334 8.51556 1.51112 9.33333 0.631116C9.17202 0.433374 8.96862 0.274111 8.73796 0.164933C8.5073 0.0557539 8.25519 -0.000590671 8 4.66905e-06C7.02222 4.66905e-06 6.22222 0.800005 6.22222 1.77778V2.03556C3.58222 2.81778 1.77778 5.24445 1.77778 8V13.3333L0 15.1111V16H16V15.1111L14.2222 13.3333V8.70223ZM8 20C9 20 10 19 10 18H6C6 19.0012 7 20 8 20Z" fill="white"/>
</svg>
