<svg width="24" height="24" viewBox="0 0 24 24" fill="none" xmlns="http://www.w3.org/2000/svg">
<path d="M17.6162 3C18.8586 3 19.8122 3.89569 20.5188 4.85938L20.758 5.20044L20.9771 5.54044C21.0467 5.65094 21.113 5.76144 21.177 5.86769C22.0611 7.36262 22.8305 9.31444 23.3394 11.2429C23.8448 13.1564 24.1245 15.155 23.9459 16.7264C23.7662 18.3043 22.9069 20 20.9861 20C19.263 20 17.9049 19.1287 16.8018 18.2777L15.555 17.2885C14.5182 16.4852 13.3837 15.75 11.9998 15.75C10.6159 15.75 9.48025 16.4852 8.4457 17.2885L7.19885 18.2766C6.09354 19.1287 4.73549 20 3.01349 20C1.09154 20 0.232229 18.3043 0.0536269 16.7264C-0.123852 15.1539 0.154723 13.1564 0.660202 11.2418C1.16905 9.31444 1.9385 7.36369 2.82253 5.86769L3.02247 5.53937L3.24151 5.20044L3.48077 4.85938C4.18732 3.89569 5.14099 3 6.38335 3C6.95622 3 7.52573 3.13175 8.08513 3.28687L8.75124 3.48025C8.86132 3.51213 8.97028 3.54294 9.07924 3.57163C10.0509 3.83513 11.045 4.0625 11.9998 4.0625C12.9546 4.0625 13.9487 3.83513 14.9203 3.57163L15.9144 3.28794C16.4738 3.13175 17.0433 3 17.6162 3ZM8.06828 7.25C7.32349 7.25 6.60921 7.52985 6.08257 8.028C5.55593 8.52614 5.26006 9.20177 5.26006 9.90625C5.26006 10.6107 5.55593 11.2864 6.08257 11.7845C6.60921 12.2826 7.32349 12.5625 8.06828 12.5625C8.81306 12.5625 9.52734 12.2826 10.054 11.7845C10.5806 11.2864 10.8765 10.6107 10.8765 9.90625C10.8765 9.20177 10.5806 8.52614 10.054 8.028C9.52734 7.52985 8.81306 7.25 8.06828 7.25ZM15.9313 7.25C15.6334 7.25 15.3477 7.36194 15.137 7.5612C14.9263 7.76046 14.808 8.03071 14.808 8.3125V8.84375H14.2464C13.9484 8.84375 13.6627 8.95569 13.4521 9.15495C13.2414 9.35421 13.1231 9.62446 13.1231 9.90625C13.1231 10.188 13.2414 10.4583 13.4521 10.6576C13.6627 10.8568 13.9484 10.9688 14.2464 10.9688H14.808V11.5C14.808 11.7818 14.9263 12.052 15.137 12.2513C15.3477 12.4506 15.6334 12.5625 15.9313 12.5625C16.2292 12.5625 16.5149 12.4506 16.7256 12.2513C16.9362 12.052 17.0546 11.7818 17.0546 11.5V10.9688H17.6162C17.9141 10.9688 18.1998 10.8568 18.4105 10.6576C18.6212 10.4583 18.7395 10.188 18.7395 9.90625C18.7395 9.62446 18.6212 9.35421 18.4105 9.15495C18.1998 8.95569 17.9141 8.84375 17.6162 8.84375H17.0546V8.3125C17.0546 8.03071 16.9362 7.76046 16.7256 7.5612C16.5149 7.36194 16.2292 7.25 15.9313 7.25ZM8.06828 9.375C8.21723 9.375 8.36009 9.43097 8.46542 9.5306C8.57075 9.63023 8.62992 9.76535 8.62992 9.90625C8.62992 10.0471 8.57075 10.1823 8.46542 10.2819C8.36009 10.3815 8.21723 10.4375 8.06828 10.4375C7.91932 10.4375 7.77646 10.3815 7.67114 10.2819C7.56581 10.1823 7.50663 10.0471 7.50663 9.90625C7.50663 9.76535 7.56581 9.63023 7.67114 9.5306C7.77646 9.43097 7.91932 9.375 8.06828 9.375Z" fill="white"/>
</svg>
