<svg width="24" height="24" viewBox="0 0 24 24" fill="none" xmlns="http://www.w3.org/2000/svg">
<path d="M11.6132 2C12.366 2.00821 13.1158 2.09539 13.8512 2.25949C14.0076 2.29442 14.1493 2.37735 14.2563 2.49669C14.3633 2.61604 14.4304 2.76583 14.4481 2.92515L14.6225 4.49135C14.6471 4.71216 14.7232 4.92411 14.8447 5.11014C14.9661 5.29618 15.1296 5.4511 15.3218 5.56245C15.5141 5.67379 15.7298 5.73846 15.9516 5.75123C16.1734 5.76401 16.3952 5.72454 16.5989 5.636L18.0349 5.00521C18.1808 4.94095 18.343 4.92361 18.4992 4.95558C18.6554 4.98755 18.7978 5.06726 18.9067 5.18368C19.9449 6.29244 20.7182 7.62224 21.1683 9.07302C21.2153 9.22557 21.2138 9.38899 21.1638 9.54061C21.1138 9.69223 21.0179 9.82454 20.8893 9.91919L19.6165 10.8587C19.4371 10.9902 19.2913 11.162 19.1908 11.3604C19.0902 11.5587 19.0378 11.7779 19.0378 12.0003C19.0378 12.2226 19.0902 12.4419 19.1908 12.6402C19.2913 12.8385 19.4371 13.0104 19.6165 13.1418L20.8914 14.0803C21.0201 14.1751 21.1162 14.3075 21.1662 14.4594C21.2162 14.6112 21.2176 14.7748 21.1703 14.9275C20.7204 16.3782 19.9475 17.7079 18.9098 18.8169C18.8011 18.9333 18.6589 19.013 18.5029 19.0452C18.347 19.0773 18.1848 19.0603 18.039 18.9964L16.5969 18.3635C16.3934 18.2743 16.1717 18.2342 15.9499 18.2466C15.728 18.2589 15.5122 18.3233 15.3198 18.4346C15.1275 18.5458 14.964 18.7008 14.8427 18.887C14.7214 19.0731 14.6456 19.2852 14.6214 19.5061L14.4471 21.0713C14.4297 21.2288 14.3641 21.377 14.2593 21.4958C14.1544 21.6145 14.0155 21.6981 13.8614 21.7349C12.3758 22.0884 10.828 22.0884 9.34232 21.7349C9.18807 21.6982 9.0489 21.6148 8.94388 21.496C8.83886 21.3772 8.77312 21.2289 8.75564 21.0713L8.5823 19.5082C8.55712 19.288 8.48066 19.0767 8.35905 18.8915C8.23744 18.7062 8.07407 18.552 7.88207 18.4412C7.69007 18.3305 7.47478 18.2664 7.25349 18.254C7.0322 18.2415 6.81108 18.2812 6.60789 18.3697L5.1658 19.0015C5.0198 19.0656 4.85748 19.0828 4.70129 19.0507C4.5451 19.0185 4.40277 18.9386 4.29398 18.822C3.25607 17.7118 2.48351 16.3805 2.03443 14.9286C1.98714 14.7759 1.9886 14.6122 2.0386 14.4604C2.08859 14.3086 2.18465 14.1761 2.31341 14.0814L3.58832 13.1418C3.76765 13.0104 3.91349 12.8385 4.01402 12.6402C4.11455 12.4419 4.16694 12.2226 4.16694 12.0003C4.16694 11.7779 4.11455 11.5587 4.01402 11.3604C3.91349 11.162 3.76765 10.9902 3.58832 10.8587L2.31341 9.92125C2.18465 9.82652 2.08859 9.69404 2.0386 9.54221C1.9886 9.39038 1.98714 9.22674 2.03443 9.07404C2.48451 7.62327 3.25777 6.29346 4.29603 5.1847C4.40494 5.06829 4.54733 4.98858 4.70351 4.95661C4.8597 4.92464 5.02195 4.94198 5.16785 5.00624L6.60379 5.63702C6.80791 5.72551 7.02995 5.76489 7.25206 5.75199C7.47416 5.73909 7.69015 5.67428 7.88266 5.56276C8.07518 5.45124 8.23885 5.29613 8.36054 5.10987C8.48223 4.92362 8.55853 4.71142 8.58333 4.49033L8.75769 2.92515C8.77529 2.76551 8.84242 2.61538 8.94966 2.49582C9.05689 2.37626 9.19886 2.29326 9.35566 2.25847C10.0972 2.09458 10.8537 2.00796 11.6132 2ZM11.6008 8.92327C10.7848 8.92327 10.0021 9.24745 9.42507 9.8245C8.84802 10.4016 8.52384 11.1842 8.52384 12.0003C8.52384 12.8164 8.84802 13.599 9.42507 14.1761C10.0021 14.7531 10.7848 15.0773 11.6008 15.0773C12.4169 15.0773 13.1996 14.7531 13.7766 14.1761C14.3537 13.599 14.6779 12.8164 14.6779 12.0003C14.6779 11.1842 14.3537 10.4016 13.7766 9.8245C13.1996 9.24745 12.4169 8.92327 11.6008 8.92327Z" fill="white"/>
</svg>
