<svg width="24" height="24" viewBox="0 0 24 24" fill="none" xmlns="http://www.w3.org/2000/svg">
<path fill-rule="evenodd" clip-rule="evenodd" d="M8.0076 21.7714V18.7047C8.00758 17.9246 8.67697 17.2908 9.50633 17.2856H12.5443C13.3776 17.2856 14.0532 17.9209 14.0532 18.7047V21.7809C14.053 22.4432 14.615 22.9845 15.319 23H17.3443C19.3633 23 21 21.4607 21 19.5618V10.8378C20.9892 10.0908 20.6163 9.38935 19.9873 8.93303L13.0608 3.6853C11.8473 2.77157 10.1223 2.77157 8.90886 3.6853L2.01266 8.94256C1.38132 9.39702 1.00778 10.0997 1 10.8474V19.5618C1 21.4607 2.63671 23 4.6557 23H6.68101C7.40248 23 7.98734 22.4499 7.98734 21.7714" fill="white"/>
</svg>
