<svg width="21" height="24" viewBox="0 0 21 24" fill="none" xmlns="http://www.w3.org/2000/svg">
<path d="M8.42857 3C8.10714 3 7.81836 3.16071 7.625 3.41811L6.66071 4.92857H2.96429C2.41811 4.92857 2 5.34668 2 5.89286V7.82143C2 8.36761 2.41811 8.78571 2.96429 8.78571H2.99568L4.12068 19.5536C4.21736 20.3898 4.89286 21 5.72782 21H13.7008C14.5357 21 15.2112 20.3898 15.3079 19.5536L16.4329 8.78571H16.4643C17.0105 8.78571 17.4286 8.36761 17.4286 7.82143V5.89286C17.4286 5.34668 17.0105 4.92857 16.4643 4.92857H12.7679L11.7722 3.41811C11.6115 3.16071 11.29 3 10.9686 3H8.42857ZM8.45996 3.64286H11C11.0967 3.64286 11.1934 3.70689 11.2574 3.77093L11.9957 4.92857H7.4329L8.17118 3.77093C8.23521 3.70689 8.33189 3.64286 8.45996 3.64286ZM2.96429 5.57143H16.4643C16.6576 5.57143 16.7857 5.6995 16.7857 5.89286V7.82143C16.7857 8.01479 16.6576 8.14286 16.4643 8.14286H2.96429C2.77093 8.14286 2.64286 8.01479 2.64286 7.82143V5.89286C2.64286 5.6995 2.77093 5.57143 2.96429 5.57143ZM3.92857 6.21429C3.73521 6.21429 3.60714 6.34235 3.60714 6.53571V7.17857C3.60714 7.37193 3.73521 7.5 3.92857 7.5C4.12193 7.5 4.25 7.37193 4.25 7.17857V6.53571C4.25 6.34235 4.12193 6.21429 3.92857 6.21429ZM5.53571 6.21429C5.34235 6.21429 5.21429 6.34235 5.21429 6.53571V7.17857C5.21429 7.37193 5.34235 7.5 5.53571 7.5C5.72907 7.5 5.85714 7.37193 5.85714 7.17857V6.53571C5.85714 6.34235 5.72907 6.21429 5.53571 6.21429ZM7.14286 6.21429C6.9495 6.21429 6.82143 6.34235 6.82143 6.53571V7.17857C6.82143 7.37193 6.9495 7.5 7.14286 7.5C7.33622 7.5 7.46429 7.37193 7.46429 7.17857V6.53571C7.46429 6.34235 7.33622 6.21429 7.14286 6.21429ZM8.75 6.21429C8.55664 6.21429 8.42857 6.34235 8.42857 6.53571V7.17857C8.42857 7.37193 8.55664 7.5 8.75 7.5C8.94336 7.5 9.07143 7.37193 9.07143 7.17857V6.53571C9.07143 6.34235 8.94336 6.21429 8.75 6.21429ZM10.6786 6.21429C10.4852 6.21429 10.3571 6.34235 10.3571 6.53571V7.17857C10.3571 7.37193 10.4852 7.5 10.6786 7.5C10.8719 7.5 11 7.37193 11 7.17857V6.53571C11 6.34235 10.8719 6.21429 10.6786 6.21429ZM12.2857 6.21429C12.0924 6.21429 11.9643 6.34235 11.9643 6.53571V7.17857C11.9643 7.37193 12.0924 7.5 12.2857 7.5C12.4791 7.5 12.6071 7.37193 12.6071 7.17857V6.53571C12.6071 6.34235 12.4791 6.21429 12.2857 6.21429ZM13.8929 6.21429C13.6995 6.21429 13.5714 6.34235 13.5714 6.53571V7.17857C13.5714 7.37193 13.6995 7.5 13.8929 7.5C14.0862 7.5 14.2143 7.37193 14.2143 7.17857V6.53571C14.2143 6.34235 14.0862 6.21429 13.8929 6.21429ZM15.5 6.21429C15.3066 6.21429 15.1786 6.34235 15.1786 6.53571V7.17857C15.1786 7.37193 15.3066 7.5 15.5 7.5C15.6934 7.5 15.8214 7.37193 15.8214 7.17857V6.53571C15.8214 6.34235 15.6934 6.21429 15.5 6.21429ZM3.63853 8.78571H15.79L14.665 19.4895C14.5997 19.9717 14.2143 20.3571 13.7008 20.3571H5.72782C5.24568 20.3571 4.82882 19.9717 4.76353 19.4895L3.63853 8.78571ZM9.71429 10.3929C9.52093 10.3929 9.39286 10.5209 9.39286 10.7143V17.1429C9.39286 17.3362 9.52093 17.4643 9.71429 17.4643C9.90765 17.4643 10.0357 17.3362 10.0357 17.1429V10.7143C10.0357 10.5209 9.90765 10.3929 9.71429 10.3929ZM6.82143 10.4242C6.62807 10.4242 6.5 10.585 6.53139 10.7457L6.85282 17.1742C6.82143 17.335 6.98214 17.4643 7.14286 17.4643C7.33622 17.4643 7.46429 17.3036 7.46429 17.1429L7.14286 10.7143C7.14286 10.5209 6.98214 10.3929 6.82143 10.4242ZM12.6385 10.4242C12.4464 10.4242 12.3171 10.5536 12.3171 10.7143L11.9957 17.1429C11.9643 17.3036 12.0924 17.4643 12.2857 17.4643C12.4791 17.4643 12.6071 17.335 12.6071 17.1742L12.9286 10.7457C12.9286 10.5536 12.7992 10.4242 12.6385 10.4242ZM6.17857 19.0714C5.98521 19.0714 5.85714 19.1995 5.85714 19.3929C5.85714 19.5862 5.98521 19.7143 6.17857 19.7143H10.6786C10.8719 19.7143 11 19.5862 11 19.3929C11 19.1995 10.8719 19.0714 10.6786 19.0714H6.17857ZM11.9643 19.0714C11.7709 19.0714 11.6429 19.1995 11.6429 19.3929C11.6429 19.5862 11.7709 19.7143 11.9643 19.7143H13.25C13.4434 19.7143 13.5714 19.5862 13.5714 19.3929C13.5714 19.1995 13.4434 19.0714 13.25 19.0714H11.9643Z" fill="#FF0000"/>
</svg>
