<svg width="13" height="16" viewBox="0 0 13 16" fill="none" xmlns="http://www.w3.org/2000/svg">
<path d="M0.419355 16C0.187752 16 0 15.801 0 15.5556V0.444445C0 0.198985 0.187752 0 0.419355 0H7.45458C7.65521 0 7.82774 0.150608 7.86617 0.359302L8.08049 1.52305C8.11893 1.73175 8.29145 1.88235 8.49208 1.88235H12.5806C12.8122 1.88235 13 2.08134 13 2.3268V10.8497C13 11.0951 12.8122 11.2941 12.5806 11.2941H7.27875C7.07812 11.2941 6.9056 11.1435 6.86716 10.9348L6.65284 9.77107C6.6144 9.56237 6.44188 9.41177 6.24125 9.41177H2.15269C1.92108 9.41177 1.73333 9.61075 1.73333 9.85621V15.5556C1.73333 15.801 1.54558 16 1.31398 16H0.419355ZM8.29716 9.05246C8.3356 9.26116 8.50812 9.41177 8.70875 9.41177H10.8473C11.0789 9.41177 11.2667 9.21278 11.2667 8.96732V4.20915C11.2667 3.96369 11.0789 3.76471 10.8473 3.76471H7.06208C6.86145 3.76471 6.68893 3.6141 6.6505 3.4054L6.43617 2.24166C6.39774 2.03296 6.22521 1.88235 6.02458 1.88235H2.15269C1.92108 1.88235 1.73333 2.08134 1.73333 2.3268V7.08497C1.73333 7.33043 1.92108 7.52941 2.15269 7.52941H7.67125C7.87188 7.52941 8.0444 7.68002 8.08284 7.88871L8.29716 9.05246Z" fill="#AAAAAA"/>
</svg>
