<svg width="80" height="80" viewBox="0 0 80 80" fill="none" xmlns="http://www.w3.org/2000/svg">
<path d="M40 0C17.9086 0 0 17.9086 0 40C0 62.0914 17.9086 80 40 80C62.0914 80 80 62.0914 80 40C80 17.9086 62.0914 0 40 0Z" fill="url(#paint0_linear_1297_1740)"/>
<path d="M39.9835 2.96695C18.9875 2.96695 1.96695 19.9875 1.96695 40.9835C1.96695 61.9794 18.9875 79 39.9835 79C60.9794 79 78 61.9794 78 40.9835C78 19.9875 60.9794 2.96695 39.9835 2.96695Z" fill="url(#paint1_diamond_1297_1740)"/>
<path d="M40.0826 77.6519C56.6968 77.6519 70.1653 68.3276 70.1653 56.8255C70.1653 45.3233 56.6968 35.999 40.0826 35.999C23.4685 35.999 10 45.3233 10 56.8255C10 68.3276 23.4685 77.6519 40.0826 77.6519Z" fill="url(#paint2_linear_1297_1740)" fill-opacity="0.7"/>
<circle cx="40" cy="19" r="15" transform="rotate(-180 40 19)" fill="white" fill-opacity="0.3"/>
<path d="M20.7764 45.7578L23.1758 50.3979L25.5815 45.7578H26.9717L23.7852 51.5469V55H22.5601V51.5469L19.3735 45.7578H20.7764ZM27.251 51.6421V51.4961C27.251 51.001 27.3229 50.5418 27.4668 50.1187C27.6107 49.6912 27.818 49.321 28.0889 49.0078C28.3597 48.6904 28.6877 48.445 29.0728 48.2715C29.4578 48.0938 29.8895 48.0049 30.3677 48.0049C30.8501 48.0049 31.2839 48.0938 31.6689 48.2715C32.0583 48.445 32.3883 48.6904 32.6592 49.0078C32.9342 49.321 33.1437 49.6912 33.2876 50.1187C33.4315 50.5418 33.5034 51.001 33.5034 51.4961V51.6421C33.5034 52.1372 33.4315 52.5964 33.2876 53.0195C33.1437 53.4427 32.9342 53.813 32.6592 54.1304C32.3883 54.4435 32.0604 54.689 31.6753 54.8667C31.2944 55.0402 30.8628 55.127 30.3804 55.127C29.8979 55.127 29.4642 55.0402 29.0791 54.8667C28.694 54.689 28.3639 54.4435 28.0889 54.1304C27.818 53.813 27.6107 53.4427 27.4668 53.0195C27.3229 52.5964 27.251 52.1372 27.251 51.6421ZM28.4253 51.4961V51.6421C28.4253 51.9849 28.4655 52.3086 28.5459 52.6133C28.6263 52.9137 28.7469 53.1803 28.9077 53.4131C29.0728 53.6458 29.278 53.8299 29.5234 53.9653C29.7689 54.0965 30.0545 54.1621 30.3804 54.1621C30.702 54.1621 30.9834 54.0965 31.2246 53.9653C31.4701 53.8299 31.6732 53.6458 31.834 53.4131C31.9948 53.1803 32.1154 52.9137 32.1958 52.6133C32.2804 52.3086 32.3228 51.9849 32.3228 51.6421V51.4961C32.3228 51.1576 32.2804 50.8381 32.1958 50.5376C32.1154 50.2329 31.9927 49.9642 31.8276 49.7314C31.6668 49.4945 31.4637 49.3083 31.2183 49.1729C30.9771 49.0374 30.6935 48.9697 30.3677 48.9697C30.0461 48.9697 29.7625 49.0374 29.5171 49.1729C29.2759 49.3083 29.0728 49.4945 28.9077 49.7314C28.7469 49.9642 28.6263 50.2329 28.5459 50.5376C28.4655 50.8381 28.4253 51.1576 28.4253 51.4961ZM39.1782 53.4131V48.1318H40.3589V55H39.2354L39.1782 53.4131ZM39.4004 51.9658L39.8892 51.9531C39.8892 52.4102 39.8405 52.8333 39.7432 53.2227C39.6501 53.6077 39.4977 53.9421 39.2861 54.2256C39.0745 54.5091 38.7974 54.7313 38.4546 54.8921C38.1118 55.0487 37.695 55.127 37.2041 55.127C36.8698 55.127 36.563 55.0783 36.2837 54.981C36.0086 54.8836 35.7716 54.7334 35.5728 54.5303C35.3739 54.3271 35.2194 54.0627 35.1094 53.7368C35.0036 53.411 34.9507 53.0195 34.9507 52.5625V48.1318H36.125V52.5752C36.125 52.8841 36.1589 53.1401 36.2266 53.3433C36.2985 53.5422 36.3937 53.7008 36.5122 53.8193C36.6349 53.9336 36.7703 54.014 36.9185 54.0605C37.0708 54.1071 37.2274 54.1304 37.3882 54.1304C37.8875 54.1304 38.2832 54.0352 38.5752 53.8447C38.8672 53.6501 39.0767 53.3898 39.2036 53.064C39.3348 52.7339 39.4004 52.3678 39.4004 51.9658ZM49.4233 53.8257V50.29C49.4233 50.0192 49.3683 49.7843 49.2583 49.5854C49.1525 49.3823 48.9917 49.2257 48.7759 49.1157C48.5601 49.0057 48.2935 48.9507 47.9761 48.9507C47.6799 48.9507 47.4196 49.0015 47.1953 49.103C46.9753 49.2046 46.8018 49.3379 46.6748 49.5029C46.5521 49.668 46.4907 49.8457 46.4907 50.0361H45.3164C45.3164 49.7907 45.3799 49.5474 45.5068 49.3062C45.6338 49.0649 45.8158 48.847 46.0527 48.6523C46.2939 48.4535 46.5817 48.2969 46.916 48.1826C47.2546 48.0641 47.6312 48.0049 48.0459 48.0049C48.5452 48.0049 48.9854 48.0895 49.3662 48.2588C49.7513 48.4281 50.0518 48.6841 50.2676 49.0269C50.4876 49.3654 50.5977 49.7907 50.5977 50.3027V53.502C50.5977 53.7305 50.6167 53.9738 50.6548 54.2319C50.6971 54.4901 50.7585 54.7122 50.8389 54.8984V55H49.6138C49.5545 54.8646 49.508 54.6847 49.4741 54.4604C49.4403 54.2319 49.4233 54.0203 49.4233 53.8257ZM49.6265 50.8359L49.6392 51.6611H48.4521C48.1178 51.6611 47.8195 51.6886 47.5571 51.7437C47.2948 51.7944 47.0747 51.8727 46.897 51.9785C46.7192 52.0843 46.5838 52.2176 46.4907 52.3784C46.3976 52.535 46.3511 52.7191 46.3511 52.9307C46.3511 53.1465 46.3997 53.3433 46.4971 53.521C46.5944 53.6987 46.7404 53.8405 46.9351 53.9463C47.134 54.0479 47.3773 54.0986 47.665 54.0986C48.0247 54.0986 48.3421 54.0225 48.6172 53.8701C48.8923 53.7178 49.1102 53.5316 49.271 53.3115C49.436 53.0915 49.5249 52.8778 49.5376 52.6704L50.0391 53.2354C50.0094 53.4131 49.929 53.6099 49.7979 53.8257C49.6667 54.0415 49.491 54.2489 49.271 54.4478C49.0552 54.6424 48.797 54.8053 48.4966 54.9365C48.2004 55.0635 47.866 55.127 47.4937 55.127C47.0282 55.127 46.6198 55.036 46.2686 54.854C45.9215 54.672 45.6507 54.4287 45.4561 54.124C45.2656 53.8151 45.1704 53.4702 45.1704 53.0894C45.1704 52.7212 45.2424 52.3975 45.3862 52.1182C45.5301 51.8346 45.7375 51.5998 46.0083 51.4136C46.2791 51.2231 46.605 51.0793 46.9858 50.9819C47.3667 50.8846 47.792 50.8359 48.2617 50.8359H49.6265ZM53.6191 49.2109V55H52.4448V48.1318H53.5874L53.6191 49.2109ZM55.7646 48.0938L55.7583 49.1855C55.661 49.1644 55.5679 49.1517 55.479 49.1475C55.3944 49.139 55.297 49.1348 55.187 49.1348C54.9162 49.1348 54.6771 49.1771 54.4697 49.2617C54.2624 49.3464 54.0868 49.4648 53.9429 49.6172C53.799 49.7695 53.6847 49.9515 53.6001 50.1631C53.5197 50.3704 53.4668 50.599 53.4414 50.8486L53.1113 51.0391C53.1113 50.6243 53.1515 50.235 53.2319 49.8711C53.3166 49.5072 53.4456 49.1855 53.6191 48.9062C53.7926 48.6227 54.0127 48.4027 54.2793 48.2461C54.5501 48.0853 54.8717 48.0049 55.2441 48.0049C55.3288 48.0049 55.4261 48.0155 55.5361 48.0366C55.6462 48.0535 55.7223 48.0726 55.7646 48.0938ZM59.5732 55.127C59.0951 55.127 58.6613 55.0465 58.272 54.8857C57.8869 54.7207 57.5547 54.4901 57.2754 54.1938C57.0003 53.8976 56.7887 53.5464 56.6406 53.1401C56.4925 52.7339 56.4185 52.2896 56.4185 51.8071V51.5405C56.4185 50.9819 56.501 50.4847 56.666 50.0488C56.8311 49.6087 57.0553 49.2363 57.3389 48.9316C57.6224 48.627 57.944 48.3963 58.3037 48.2397C58.6634 48.0832 59.0358 48.0049 59.4209 48.0049C59.9118 48.0049 60.335 48.0895 60.6904 48.2588C61.0501 48.4281 61.3442 48.665 61.5728 48.9697C61.8013 49.2702 61.9705 49.6257 62.0806 50.0361C62.1906 50.4424 62.2456 50.8867 62.2456 51.3691V51.896H57.1167V50.9375H61.0713V50.8486C61.0544 50.5439 60.9909 50.2477 60.8809 49.96C60.7751 49.6722 60.6058 49.4352 60.373 49.249C60.1403 49.0628 59.8229 48.9697 59.4209 48.9697C59.1543 48.9697 58.9089 49.0269 58.6846 49.1411C58.4603 49.2511 58.2677 49.4162 58.1069 49.6362C57.9461 49.8563 57.8213 50.125 57.7324 50.4424C57.6436 50.7598 57.5991 51.1258 57.5991 51.5405V51.8071C57.5991 52.133 57.6436 52.4398 57.7324 52.7275C57.8255 53.0111 57.9588 53.2607 58.1323 53.4766C58.3101 53.6924 58.5238 53.8617 58.7734 53.9844C59.0273 54.1071 59.3151 54.1685 59.6367 54.1685C60.0514 54.1685 60.4027 54.0838 60.6904 53.9146C60.9782 53.7453 61.23 53.5189 61.4458 53.2354L62.1567 53.8003C62.0086 54.0246 61.8203 54.2383 61.5918 54.4414C61.3633 54.6445 61.0819 54.8096 60.7476 54.9365C60.4175 55.0635 60.026 55.127 59.5732 55.127ZM29.6567 70H27.7271L27.7397 69.0034H29.6567C30.3169 69.0034 30.867 68.8659 31.3071 68.5908C31.7472 68.3115 32.0773 67.9222 32.2974 67.4229C32.5216 66.9193 32.6338 66.3311 32.6338 65.6582V65.0933C32.6338 64.5643 32.5703 64.0946 32.4434 63.6841C32.3164 63.2694 32.1302 62.9202 31.8848 62.6367C31.6393 62.349 31.3389 62.131 30.9834 61.9829C30.6322 61.8348 30.228 61.7607 29.771 61.7607H27.689V60.7578H29.771C30.3761 60.7578 30.9284 60.8594 31.4277 61.0625C31.9271 61.2614 32.3566 61.5513 32.7163 61.9321C33.0802 62.3088 33.3595 62.7658 33.5542 63.3032C33.7489 63.8364 33.8462 64.4373 33.8462 65.106V65.6582C33.8462 66.3268 33.7489 66.9299 33.5542 67.4673C33.3595 68.0005 33.0781 68.4554 32.71 68.832C32.346 69.2087 31.9059 69.4985 31.3896 69.7017C30.8776 69.9006 30.3 70 29.6567 70ZM28.3809 60.7578V70H27.1558V60.7578H28.3809ZM38.3594 70.127C37.8812 70.127 37.4474 70.0465 37.0581 69.8857C36.673 69.7207 36.3408 69.4901 36.0615 69.1938C35.7865 68.8976 35.5749 68.5464 35.4268 68.1401C35.2786 67.7339 35.2046 67.2896 35.2046 66.8071V66.5405C35.2046 65.9819 35.2871 65.4847 35.4521 65.0488C35.6172 64.6087 35.8415 64.2363 36.125 63.9316C36.4085 63.627 36.7301 63.3963 37.0898 63.2397C37.4495 63.0832 37.8219 63.0049 38.207 63.0049C38.6979 63.0049 39.1211 63.0895 39.4766 63.2588C39.8363 63.4281 40.1304 63.665 40.3589 63.9697C40.5874 64.2702 40.7567 64.6257 40.8667 65.0361C40.9767 65.4424 41.0317 65.8867 41.0317 66.3691V66.896H35.9028V65.9375H39.8574V65.8486C39.8405 65.5439 39.777 65.2477 39.667 64.96C39.5612 64.6722 39.3919 64.4352 39.1592 64.249C38.9264 64.0628 38.609 63.9697 38.207 63.9697C37.9404 63.9697 37.695 64.0269 37.4707 64.1411C37.2464 64.2511 37.0539 64.4162 36.8931 64.6362C36.7323 64.8563 36.6074 65.125 36.5186 65.4424C36.4297 65.7598 36.3853 66.1258 36.3853 66.5405V66.8071C36.3853 67.133 36.4297 67.4398 36.5186 67.7275C36.6117 68.0111 36.745 68.2607 36.9185 68.4766C37.0962 68.6924 37.3099 68.8617 37.5596 68.9844C37.8135 69.1071 38.1012 69.1685 38.4229 69.1685C38.8376 69.1685 39.1888 69.0838 39.4766 68.9146C39.7643 68.7453 40.0161 68.5189 40.2319 68.2354L40.9429 68.8003C40.7948 69.0246 40.6064 69.2383 40.3779 69.4414C40.1494 69.6445 39.868 69.8096 39.5337 69.9365C39.2036 70.0635 38.8122 70.127 38.3594 70.127ZM46.4526 68.8257V65.29C46.4526 65.0192 46.3976 64.7843 46.2876 64.5854C46.1818 64.3823 46.021 64.2257 45.8052 64.1157C45.5894 64.0057 45.3228 63.9507 45.0054 63.9507C44.7091 63.9507 44.4489 64.0015 44.2246 64.103C44.0046 64.2046 43.8311 64.3379 43.7041 64.5029C43.5814 64.668 43.52 64.8457 43.52 65.0361H42.3457C42.3457 64.7907 42.4092 64.5474 42.5361 64.3062C42.6631 64.0649 42.8451 63.847 43.082 63.6523C43.3232 63.4535 43.611 63.2969 43.9453 63.1826C44.2839 63.0641 44.6605 63.0049 45.0752 63.0049C45.5745 63.0049 46.0146 63.0895 46.3955 63.2588C46.7806 63.4281 47.0811 63.6841 47.2969 64.0269C47.5169 64.3654 47.627 64.7907 47.627 65.3027V68.502C47.627 68.7305 47.646 68.9738 47.6841 69.2319C47.7264 69.4901 47.7878 69.7122 47.8682 69.8984V70H46.6431C46.5838 69.8646 46.5373 69.6847 46.5034 69.4604C46.4696 69.2319 46.4526 69.0203 46.4526 68.8257ZM46.6558 65.8359L46.6685 66.6611H45.4814C45.1471 66.6611 44.8488 66.6886 44.5864 66.7437C44.3241 66.7944 44.104 66.8727 43.9263 66.9785C43.7485 67.0843 43.6131 67.2176 43.52 67.3784C43.4269 67.535 43.3804 67.7191 43.3804 67.9307C43.3804 68.1465 43.429 68.3433 43.5264 68.521C43.6237 68.6987 43.7697 68.8405 43.9644 68.9463C44.1632 69.0479 44.4066 69.0986 44.6943 69.0986C45.054 69.0986 45.3714 69.0225 45.6465 68.8701C45.9215 68.7178 46.1395 68.5316 46.3003 68.3115C46.4653 68.0915 46.5542 67.8778 46.5669 67.6704L47.0684 68.2354C47.0387 68.4131 46.9583 68.6099 46.8271 68.8257C46.696 69.0415 46.5203 69.2489 46.3003 69.4478C46.0845 69.6424 45.8263 69.8053 45.5259 69.9365C45.2297 70.0635 44.8953 70.127 44.5229 70.127C44.0575 70.127 43.6491 70.036 43.2979 69.854C42.9508 69.672 42.68 69.4287 42.4854 69.124C42.2949 68.8151 42.1997 68.4702 42.1997 68.0894C42.1997 67.7212 42.2716 67.3975 42.4155 67.1182C42.5594 66.8346 42.7668 66.5998 43.0376 66.4136C43.3084 66.2231 43.6343 66.0793 44.0151 65.9819C44.396 65.8846 44.8213 65.8359 45.291 65.8359H46.6558ZM53.8032 68.667V60.25H54.9839V70H53.9048L53.8032 68.667ZM49.1821 66.6421V66.5088C49.1821 65.984 49.2456 65.508 49.3726 65.0806C49.5037 64.6489 49.6878 64.2786 49.9248 63.9697C50.166 63.6608 50.4517 63.4238 50.7817 63.2588C51.116 63.0895 51.4884 63.0049 51.8989 63.0049C52.3306 63.0049 52.7072 63.0811 53.0288 63.2334C53.3547 63.3815 53.6297 63.5994 53.854 63.8872C54.0825 64.1707 54.2624 64.5135 54.3936 64.9155C54.5247 65.3175 54.6157 65.7725 54.6665 66.2803V66.8643C54.62 67.3678 54.529 67.8206 54.3936 68.2227C54.2624 68.6247 54.0825 68.9674 53.854 69.251C53.6297 69.5345 53.3547 69.7524 53.0288 69.9048C52.703 70.0529 52.3221 70.127 51.8862 70.127C51.4842 70.127 51.116 70.0402 50.7817 69.8667C50.4517 69.6932 50.166 69.4499 49.9248 69.1367C49.6878 68.8236 49.5037 68.4554 49.3726 68.0322C49.2456 67.6048 49.1821 67.1414 49.1821 66.6421ZM50.3628 66.5088V66.6421C50.3628 66.9849 50.3966 67.3065 50.4644 67.6069C50.5363 67.9074 50.6463 68.1719 50.7944 68.4004C50.9425 68.6289 51.1309 68.8088 51.3594 68.9399C51.5879 69.0669 51.8608 69.1304 52.1782 69.1304C52.5675 69.1304 52.887 69.0479 53.1367 68.8828C53.3906 68.7178 53.5938 68.4998 53.7461 68.229C53.8984 67.9582 54.0169 67.6641 54.1016 67.3467V65.8169C54.0508 65.5841 53.9767 65.3599 53.8794 65.144C53.7863 64.924 53.6636 64.7293 53.5112 64.5601C53.3631 64.3866 53.179 64.249 52.959 64.1475C52.7432 64.0459 52.4871 63.9951 52.1909 63.9951C51.8693 63.9951 51.5921 64.0628 51.3594 64.1982C51.1309 64.3294 50.9425 64.5114 50.7944 64.7441C50.6463 64.9727 50.5363 65.2393 50.4644 65.5439C50.3966 65.8444 50.3628 66.166 50.3628 66.5088Z" fill="white"/>
<defs>
<linearGradient id="paint0_linear_1297_1740" x1="-23.28" y1="9.44" x2="85.12" y2="66.56" gradientUnits="userSpaceOnUse">
<stop stop-color="#C50000"/>
<stop offset="1" stop-color="#6C0707"/>
</linearGradient>
<radialGradient id="paint1_diamond_1297_1740" cx="0" cy="0" r="1" gradientUnits="userSpaceOnUse" gradientTransform="translate(36.2579 37.676) rotate(-95.1517) scale(41.4916)">
<stop stop-color="#F50000"/>
<stop offset="1" stop-color="#E30000"/>
</radialGradient>
<linearGradient id="paint2_linear_1297_1740" x1="40.0826" y1="35.999" x2="40.0826" y2="77.6519" gradientUnits="userSpaceOnUse">
<stop stop-color="#FF8989"/>
<stop offset="1" stop-color="#D70000"/>
</linearGradient>
</defs>
</svg>
