<svg width="80" height="80" viewBox="0 0 80 80" fill="none" xmlns="http://www.w3.org/2000/svg">
<path d="M40 0C17.9086 0 0 17.9086 0 40C0 62.0914 17.9086 80 40 80C62.0914 80 80 62.0914 80 40C80 17.9086 62.0914 0 40 0Z" fill="url(#paint0_linear_1297_1751)"/>
<path d="M40 3.30582C19.004 3.30582 1.98343 20.3264 1.98343 41.3223C1.98343 62.3183 19.004 79.3389 40 79.3389C60.9959 79.3389 78.0165 62.3183 78.0165 41.3223C78.0165 20.3264 60.9959 3.30582 40 3.30582Z" fill="url(#paint1_linear_1297_1751)"/>
<path d="M40.0826 77.6519C56.6968 77.6519 70.1653 68.3276 70.1653 56.8255C70.1653 45.3233 56.6968 35.999 40.0826 35.999C23.4685 35.999 10 45.3233 10 56.8255C10 68.3276 23.4685 77.6519 40.0826 77.6519Z" fill="url(#paint2_linear_1297_1751)" fill-opacity="0.7"/>
<path d="M35.7441 43.7578V53H34.5127L29.8599 45.8716V53H28.6348V43.7578H29.8599L34.5317 50.9053V43.7578H35.7441ZM40.5874 53.127C40.1092 53.127 39.6755 53.0465 39.2861 52.8857C38.901 52.7207 38.5688 52.4901 38.2896 52.1938C38.0145 51.8976 37.8029 51.5464 37.6548 51.1401C37.5067 50.7339 37.4326 50.2896 37.4326 49.8071V49.5405C37.4326 48.9819 37.5151 48.4847 37.6802 48.0488C37.8452 47.6087 38.0695 47.2363 38.353 46.9316C38.6366 46.627 38.9582 46.3963 39.3179 46.2397C39.6776 46.0832 40.05 46.0049 40.4351 46.0049C40.9259 46.0049 41.3491 46.0895 41.7046 46.2588C42.0643 46.4281 42.3584 46.665 42.5869 46.9697C42.8154 47.2702 42.9847 47.6257 43.0947 48.0361C43.2048 48.4424 43.2598 48.8867 43.2598 49.3691V49.896H38.1309V48.9375H42.0854V48.8486C42.0685 48.5439 42.005 48.2477 41.895 47.96C41.7892 47.6722 41.62 47.4352 41.3872 47.249C41.1545 47.0628 40.8371 46.9697 40.4351 46.9697C40.1685 46.9697 39.923 47.0269 39.6987 47.1411C39.4744 47.2511 39.2819 47.4162 39.1211 47.6362C38.9603 47.8563 38.8354 48.125 38.7466 48.4424C38.6577 48.7598 38.6133 49.1258 38.6133 49.5405V49.8071C38.6133 50.133 38.6577 50.4398 38.7466 50.7275C38.8397 51.0111 38.973 51.2607 39.1465 51.4766C39.3242 51.6924 39.5379 51.8617 39.7876 51.9844C40.0415 52.1071 40.3293 52.1685 40.6509 52.1685C41.0656 52.1685 41.4168 52.0838 41.7046 51.9146C41.9924 51.7453 42.2441 51.5189 42.46 51.2354L43.1709 51.8003C43.0228 52.0246 42.8345 52.2383 42.606 52.4414C42.3774 52.6445 42.096 52.8096 41.7617 52.9365C41.4316 53.0635 41.0402 53.127 40.5874 53.127ZM45.4243 46.1318L46.9287 48.6328L48.4521 46.1318H49.8296L47.5825 49.5215L49.8994 53H48.541L46.9541 50.4229L45.3672 53H44.0024L46.313 49.5215L44.0723 46.1318H45.4243ZM53.9556 46.1318V47.0332H50.2422V46.1318H53.9556ZM51.499 44.4624H52.6733V51.2988C52.6733 51.5316 52.7093 51.7072 52.7812 51.8257C52.8532 51.9442 52.9463 52.0225 53.0605 52.0605C53.1748 52.0986 53.2975 52.1177 53.4287 52.1177C53.526 52.1177 53.6276 52.1092 53.7334 52.0923C53.8434 52.0711 53.9259 52.0542 53.981 52.0415L53.9873 53C53.8942 53.0296 53.7715 53.0571 53.6191 53.0825C53.471 53.1121 53.2912 53.127 53.0796 53.127C52.7918 53.127 52.5273 53.0698 52.2861 52.9556C52.0449 52.8413 51.8524 52.6509 51.7085 52.3843C51.5688 52.1134 51.499 51.7495 51.499 51.2925V44.4624ZM32.0625 67.0034V68H27.1685V67.0034H32.0625ZM27.416 58.7578V68H26.1909V58.7578H27.416ZM31.415 62.7314V63.728H27.1685V62.7314H31.415ZM31.999 58.7578V59.7607H27.1685V58.7578H31.999ZM35.3252 66.9399L37.2041 61.1318H38.4038L35.9346 68H35.1475L35.3252 66.9399ZM33.7573 61.1318L35.6934 66.9717L35.8267 68H35.0396L32.5513 61.1318H33.7573ZM42.2949 68.127C41.8167 68.127 41.383 68.0465 40.9937 67.8857C40.6086 67.7207 40.2764 67.4901 39.9971 67.1938C39.722 66.8976 39.5104 66.5464 39.3623 66.1401C39.2142 65.7339 39.1401 65.2896 39.1401 64.8071V64.5405C39.1401 63.9819 39.2227 63.4847 39.3877 63.0488C39.5527 62.6087 39.777 62.2363 40.0605 61.9316C40.3441 61.627 40.6657 61.3963 41.0254 61.2397C41.3851 61.0832 41.7575 61.0049 42.1426 61.0049C42.6335 61.0049 43.0566 61.0895 43.4121 61.2588C43.7718 61.4281 44.0659 61.665 44.2944 61.9697C44.5229 62.2702 44.6922 62.6257 44.8022 63.0361C44.9123 63.4424 44.9673 63.8867 44.9673 64.3691V64.896H39.8384V63.9375H43.793V63.8486C43.776 63.5439 43.7126 63.2477 43.6025 62.96C43.4967 62.6722 43.3275 62.4352 43.0947 62.249C42.862 62.0628 42.5446 61.9697 42.1426 61.9697C41.876 61.9697 41.6305 62.0269 41.4062 62.1411C41.182 62.2511 40.9894 62.4162 40.8286 62.6362C40.6678 62.8563 40.543 63.125 40.4541 63.4424C40.3652 63.7598 40.3208 64.1258 40.3208 64.5405V64.8071C40.3208 65.133 40.3652 65.4398 40.4541 65.7275C40.5472 66.0111 40.6805 66.2607 40.854 66.4766C41.0317 66.6924 41.2454 66.8617 41.4951 66.9844C41.749 67.1071 42.0368 67.1685 42.3584 67.1685C42.7731 67.1685 43.1243 67.0838 43.4121 66.9146C43.6999 66.7453 43.9517 66.5189 44.1675 66.2354L44.8784 66.8003C44.7303 67.0246 44.542 67.2383 44.3135 67.4414C44.085 67.6445 43.8035 67.8096 43.4692 67.9365C43.1392 68.0635 42.7477 68.127 42.2949 68.127ZM47.5127 62.5981V68H46.3384V61.1318H47.4492L47.5127 62.5981ZM47.2334 64.3057L46.7446 64.2866C46.7489 63.8169 46.8187 63.3831 46.9541 62.9854C47.0895 62.5833 47.2799 62.2342 47.5254 61.938C47.7708 61.6418 48.0628 61.4132 48.4014 61.2524C48.7441 61.0874 49.1229 61.0049 49.5376 61.0049C49.8761 61.0049 50.1808 61.0514 50.4517 61.1445C50.7225 61.2334 50.9531 61.3773 51.1436 61.5762C51.3382 61.7751 51.4863 62.0332 51.5879 62.3506C51.6895 62.6637 51.7402 63.0467 51.7402 63.4995V68H50.5596V63.4868C50.5596 63.1271 50.5067 62.8394 50.4009 62.6235C50.2951 62.4035 50.1406 62.2448 49.9375 62.1475C49.7344 62.0459 49.4847 61.9951 49.1885 61.9951C48.8965 61.9951 48.6299 62.0565 48.3887 62.1792C48.1517 62.3019 47.9465 62.4712 47.7729 62.687C47.6037 62.9028 47.4704 63.1504 47.373 63.4297C47.2799 63.7048 47.2334 63.9967 47.2334 64.3057ZM56.3994 61.1318V62.0332H52.686V61.1318H56.3994ZM53.9429 59.4624H55.1172V66.2988C55.1172 66.5316 55.1532 66.7072 55.2251 66.8257C55.297 66.9442 55.3901 67.0225 55.5044 67.0605C55.6187 67.0986 55.7414 67.1177 55.8726 67.1177C55.9699 67.1177 56.0715 67.1092 56.1772 67.0923C56.2873 67.0711 56.3698 67.0542 56.4248 67.0415L56.4312 68C56.3381 68.0296 56.2153 68.0571 56.063 68.0825C55.9149 68.1121 55.735 68.127 55.5234 68.127C55.2357 68.127 54.9712 68.0698 54.73 67.9556C54.4888 67.8413 54.2962 67.6509 54.1523 67.3843C54.0127 67.1134 53.9429 66.7495 53.9429 66.2925V59.4624Z" fill="white"/>
<circle cx="40" cy="19" r="15" transform="rotate(-180 40 19)" fill="white" fill-opacity="0.3"/>
<defs>
<linearGradient id="paint0_linear_1297_1751" x1="-23.28" y1="9.44" x2="85.12" y2="66.56" gradientUnits="userSpaceOnUse">
<stop stop-color="#008E64"/>
<stop offset="1" stop-color="#3C3F46"/>
</linearGradient>
<linearGradient id="paint1_linear_1297_1751" x1="40" y1="79.3389" x2="32.5487" y2="-3.30906" gradientUnits="userSpaceOnUse">
<stop stop-color="#04846E"/>
<stop offset="1" stop-color="#00C280"/>
</linearGradient>
<linearGradient id="paint2_linear_1297_1751" x1="40.0826" y1="35.999" x2="40.0826" y2="77.6519" gradientUnits="userSpaceOnUse">
<stop stop-color="#E1F89E"/>
<stop offset="1" stop-color="#1EC28A"/>
</linearGradient>
</defs>
</svg>
