<svg width="80" height="80" viewBox="0 0 80 80" fill="none" xmlns="http://www.w3.org/2000/svg">
<path d="M40 -3.49691e-06C17.9086 -5.4282e-06 5.4282e-06 17.9086 3.49691e-06 40C1.56562e-06 62.0914 17.9086 80 40 80C62.0914 80 80 62.0914 80 40C80 17.9086 62.0914 -1.56562e-06 40 -3.49691e-06Z" fill="url(#paint0_linear_1316_1796)"/>
<path d="M40 3.30582C19.004 3.30582 1.98343 20.3264 1.98343 41.3223C1.98343 62.3183 19.004 79.3389 40 79.3389C60.9959 79.3389 78.0165 62.3183 78.0165 41.3223C78.0165 20.3264 60.9959 3.30582 40 3.30582Z" fill="url(#paint1_linear_1316_1796)"/>
<path d="M40 35.7036C23.3858 35.7036 9.91736 45.0279 9.91736 56.53C9.91736 68.0321 23.3858 77.3564 40 77.3564C56.6142 77.3564 70.0826 68.0321 70.0826 56.53C70.0826 45.0279 56.6142 35.7036 40 35.7036Z" fill="url(#paint2_linear_1316_1796)"/>
<circle cx="39" cy="19" r="15" transform="rotate(-180 39 19)" fill="white" fill-opacity="0.3"/>
<path d="M26.6646 43.2808L23.1343 53H21.6914L25.7563 42.3359H26.6865L26.6646 43.2808ZM29.6235 53L26.0859 43.2808L26.064 42.3359H26.9941L31.0737 53H29.6235ZM29.4404 49.0522V50.2095H23.4492V49.0522H29.4404ZM37.4312 45.0752H38.6616V52.8315C38.6616 53.5298 38.52 54.1255 38.2368 54.6187C37.9536 55.1118 37.5581 55.4854 37.0503 55.7393C36.5474 55.998 35.9663 56.1274 35.3071 56.1274C35.0337 56.1274 34.7114 56.0835 34.3403 55.9956C33.9741 55.9126 33.6128 55.7686 33.2563 55.5635C32.9048 55.3633 32.6094 55.0923 32.3701 54.7505L33.0806 53.9448C33.4126 54.3452 33.7593 54.6235 34.1206 54.7798C34.4868 54.936 34.8481 55.0142 35.2046 55.0142C35.6343 55.0142 36.0054 54.9336 36.3179 54.7725C36.6304 54.6113 36.8721 54.3721 37.043 54.0547C37.2188 53.7422 37.3066 53.3564 37.3066 52.8975V46.8184L37.4312 45.0752ZM31.9746 49.1255V48.9717C31.9746 48.3662 32.0454 47.8169 32.187 47.3237C32.3335 46.8257 32.541 46.3984 32.8096 46.042C33.083 45.6855 33.4126 45.4121 33.7983 45.2217C34.1841 45.0264 34.6187 44.9287 35.1021 44.9287C35.6001 44.9287 36.0347 45.0166 36.4058 45.1924C36.7817 45.3633 37.0991 45.6147 37.3579 45.9468C37.6216 46.2739 37.8291 46.6694 37.9805 47.1333C38.1318 47.5972 38.2368 48.1221 38.2954 48.708V49.3818C38.2417 49.9629 38.1367 50.4854 37.9805 50.9492C37.8291 51.4131 37.6216 51.8086 37.3579 52.1357C37.0991 52.4629 36.7817 52.7144 36.4058 52.8901C36.0298 53.061 35.5903 53.1465 35.0874 53.1465C34.6138 53.1465 34.1841 53.0464 33.7983 52.8462C33.4175 52.646 33.0903 52.3652 32.8169 52.0039C32.5435 51.6426 32.3335 51.2178 32.187 50.7295C32.0454 50.2363 31.9746 49.7017 31.9746 49.1255ZM33.3296 48.9717V49.1255C33.3296 49.521 33.3687 49.8921 33.4468 50.2388C33.5298 50.5854 33.6543 50.8906 33.8203 51.1543C33.9912 51.418 34.2085 51.6255 34.4722 51.7769C34.7358 51.9233 35.0508 51.9966 35.417 51.9966C35.8662 51.9966 36.2373 51.9014 36.5303 51.7109C36.8232 51.5205 37.0552 51.269 37.2261 50.9565C37.4019 50.644 37.5386 50.3047 37.6362 49.9385V48.1733C37.5825 47.9048 37.4995 47.646 37.3872 47.397C37.2798 47.1431 37.1382 46.9185 36.9624 46.7231C36.7915 46.5229 36.5791 46.3643 36.3252 46.2471C36.0713 46.1299 35.7734 46.0713 35.4316 46.0713C35.0605 46.0713 34.7407 46.1494 34.4722 46.3057C34.2085 46.457 33.9912 46.667 33.8203 46.9355C33.6543 47.1992 33.5298 47.5068 33.4468 47.8584C33.3687 48.2051 33.3296 48.5762 33.3296 48.9717ZM44.0083 53.1465C43.4565 53.1465 42.9561 53.0537 42.5068 52.8682C42.0625 52.6777 41.6792 52.4116 41.3569 52.0698C41.0396 51.728 40.7954 51.3228 40.6245 50.854C40.4536 50.3853 40.3682 49.8726 40.3682 49.3159V49.0083C40.3682 48.3638 40.4634 47.79 40.6538 47.2871C40.8442 46.7793 41.103 46.3496 41.4302 45.998C41.7573 45.6465 42.1284 45.3804 42.5435 45.1997C42.9585 45.019 43.3882 44.9287 43.8325 44.9287C44.3989 44.9287 44.8872 45.0264 45.2974 45.2217C45.7124 45.417 46.0518 45.6904 46.3154 46.042C46.5791 46.3887 46.7744 46.7988 46.9014 47.2725C47.0283 47.7412 47.0918 48.2539 47.0918 48.8105V49.4185H41.1738V48.3125H45.7368V48.21C45.7173 47.8584 45.644 47.5166 45.5171 47.1846C45.395 46.8525 45.1997 46.5791 44.9312 46.3643C44.6626 46.1494 44.2964 46.042 43.8325 46.042C43.5249 46.042 43.2417 46.1079 42.9829 46.2397C42.7241 46.3667 42.502 46.5571 42.3164 46.811C42.1309 47.0649 41.9868 47.375 41.8843 47.7412C41.7817 48.1074 41.7305 48.5298 41.7305 49.0083V49.3159C41.7305 49.6919 41.7817 50.0459 41.8843 50.3779C41.9917 50.7051 42.1455 50.9932 42.3457 51.2422C42.5508 51.4912 42.7974 51.6865 43.0854 51.8281C43.3784 51.9697 43.7104 52.0405 44.0815 52.0405C44.5601 52.0405 44.9653 51.9429 45.2974 51.7476C45.6294 51.5522 45.9199 51.291 46.1689 50.9639L46.9893 51.6157C46.8184 51.8745 46.6011 52.1211 46.3374 52.3555C46.0737 52.5898 45.749 52.7803 45.3633 52.9268C44.9824 53.0732 44.5308 53.1465 44.0083 53.1465ZM57.0674 51.645V47.5654C57.0674 47.2529 57.0039 46.9819 56.877 46.7524C56.7549 46.5181 56.5693 46.3374 56.3203 46.2104C56.0713 46.0835 55.7637 46.02 55.3975 46.02C55.0557 46.02 54.7554 46.0786 54.4966 46.1958C54.2427 46.313 54.0425 46.4668 53.896 46.6572C53.7544 46.8477 53.6836 47.0527 53.6836 47.2725H52.3286C52.3286 46.9893 52.4019 46.7085 52.5483 46.4302C52.6948 46.1519 52.9048 45.9004 53.1782 45.6758C53.4565 45.4463 53.7886 45.2656 54.1743 45.1338C54.5649 44.9971 54.9995 44.9287 55.478 44.9287C56.0542 44.9287 56.562 45.0264 57.0015 45.2217C57.4458 45.417 57.7925 45.7124 58.0415 46.1079C58.2954 46.4985 58.4224 46.9893 58.4224 47.5801V51.2715C58.4224 51.5352 58.4443 51.8159 58.4883 52.1138C58.5371 52.4116 58.6079 52.668 58.7007 52.8828V53H57.2871C57.2188 52.8438 57.165 52.6362 57.126 52.3774C57.0869 52.1138 57.0674 51.8696 57.0674 51.645ZM57.3018 48.1953L57.3164 49.1475H55.9468C55.561 49.1475 55.2168 49.1792 54.9141 49.2427C54.6113 49.3013 54.3574 49.3916 54.1523 49.5137C53.9473 49.6357 53.791 49.7896 53.6836 49.9751C53.5762 50.1558 53.5225 50.3682 53.5225 50.6123C53.5225 50.8613 53.5786 51.0884 53.6909 51.2935C53.8032 51.4985 53.9717 51.6621 54.1963 51.7842C54.4258 51.9014 54.7065 51.96 55.0386 51.96C55.4536 51.96 55.8198 51.8721 56.1372 51.6963C56.4546 51.5205 56.7061 51.3057 56.8916 51.0518C57.082 50.7979 57.1846 50.5513 57.1992 50.312L57.7778 50.9639C57.7437 51.1689 57.6509 51.396 57.4995 51.645C57.3481 51.894 57.1455 52.1333 56.8916 52.3628C56.6426 52.5874 56.3447 52.7754 55.998 52.9268C55.6562 53.0732 55.2705 53.1465 54.8408 53.1465C54.3037 53.1465 53.8325 53.0415 53.4272 52.8315C53.0269 52.6216 52.7144 52.3408 52.4897 51.9893C52.27 51.6328 52.1602 51.2349 52.1602 50.7954C52.1602 50.3706 52.2432 49.9971 52.4092 49.6748C52.5752 49.3477 52.8145 49.0767 53.127 48.8618C53.4395 48.6421 53.8154 48.4761 54.2549 48.3638C54.6943 48.2515 55.1851 48.1953 55.7271 48.1953H57.3018ZM27.3677 60.3359L30.1362 65.6899L32.9121 60.3359H34.5161L30.8394 67.0156V71H29.4258V67.0156L25.749 60.3359H27.3677ZM38.4858 71.1465C37.9341 71.1465 37.4336 71.0537 36.9844 70.8682C36.54 70.6777 36.1567 70.4116 35.8345 70.0698C35.5171 69.728 35.2729 69.3228 35.1021 68.854C34.9312 68.3853 34.8457 67.8726 34.8457 67.3159V67.0083C34.8457 66.3638 34.9409 65.79 35.1313 65.2871C35.3218 64.7793 35.5806 64.3496 35.9077 63.998C36.2349 63.6465 36.606 63.3804 37.021 63.1997C37.436 63.019 37.8657 62.9287 38.3101 62.9287C38.8765 62.9287 39.3647 63.0264 39.7749 63.2217C40.1899 63.417 40.5293 63.6904 40.793 64.042C41.0566 64.3887 41.252 64.7988 41.3789 65.2725C41.5059 65.7412 41.5693 66.2539 41.5693 66.8105V67.4185H35.6514V66.3125H40.2144V66.21C40.1948 65.8584 40.1216 65.5166 39.9946 65.1846C39.8726 64.8525 39.6772 64.5791 39.4087 64.3643C39.1401 64.1494 38.7739 64.042 38.3101 64.042C38.0024 64.042 37.7192 64.1079 37.4604 64.2397C37.2017 64.3667 36.9795 64.5571 36.7939 64.811C36.6084 65.0649 36.4644 65.375 36.3618 65.7412C36.2593 66.1074 36.208 66.5298 36.208 67.0083V67.3159C36.208 67.6919 36.2593 68.0459 36.3618 68.3779C36.4692 68.7051 36.623 68.9932 36.8232 69.2422C37.0283 69.4912 37.2749 69.6865 37.563 69.8281C37.856 69.9697 38.188 70.0405 38.5591 70.0405C39.0376 70.0405 39.4429 69.9429 39.7749 69.7476C40.1069 69.5522 40.3975 69.291 40.6465 68.9639L41.4668 69.6157C41.2959 69.8745 41.0786 70.1211 40.8149 70.3555C40.5513 70.5898 40.2266 70.7803 39.8408 70.9268C39.46 71.0732 39.0083 71.1465 38.4858 71.1465ZM47.8242 69.645V65.5654C47.8242 65.2529 47.7607 64.9819 47.6338 64.7524C47.5117 64.5181 47.3262 64.3374 47.0771 64.2104C46.8281 64.0835 46.5205 64.02 46.1543 64.02C45.8125 64.02 45.5122 64.0786 45.2534 64.1958C44.9995 64.313 44.7993 64.4668 44.6528 64.6572C44.5112 64.8477 44.4404 65.0527 44.4404 65.2725H43.0854C43.0854 64.9893 43.1587 64.7085 43.3052 64.4302C43.4517 64.1519 43.6616 63.9004 43.9351 63.6758C44.2134 63.4463 44.5454 63.2656 44.9312 63.1338C45.3218 62.9971 45.7563 62.9287 46.2349 62.9287C46.811 62.9287 47.3188 63.0264 47.7583 63.2217C48.2026 63.417 48.5493 63.7124 48.7983 64.1079C49.0522 64.4985 49.1792 64.9893 49.1792 65.5801V69.2715C49.1792 69.5352 49.2012 69.8159 49.2451 70.1138C49.2939 70.4116 49.3647 70.668 49.4575 70.8828V71H48.0439C47.9756 70.8438 47.9219 70.6362 47.8828 70.3774C47.8438 70.1138 47.8242 69.8696 47.8242 69.645ZM48.0586 66.1953L48.0732 67.1475H46.7036C46.3179 67.1475 45.9736 67.1792 45.6709 67.2427C45.3682 67.3013 45.1143 67.3916 44.9092 67.5137C44.7041 67.6357 44.5479 67.7896 44.4404 67.9751C44.333 68.1558 44.2793 68.3682 44.2793 68.6123C44.2793 68.8613 44.3354 69.0884 44.4478 69.2935C44.5601 69.4985 44.7285 69.6621 44.9531 69.7842C45.1826 69.9014 45.4634 69.96 45.7954 69.96C46.2104 69.96 46.5767 69.8721 46.894 69.6963C47.2114 69.5205 47.4629 69.3057 47.6484 69.0518C47.8389 68.7979 47.9414 68.5513 47.9561 68.312L48.5347 68.9639C48.5005 69.1689 48.4077 69.396 48.2563 69.645C48.105 69.894 47.9023 70.1333 47.6484 70.3628C47.3994 70.5874 47.1016 70.7754 46.7549 70.9268C46.4131 71.0732 46.0273 71.1465 45.5977 71.1465C45.0605 71.1465 44.5894 71.0415 44.1841 70.8315C43.7837 70.6216 43.4712 70.3408 43.2466 69.9893C43.0269 69.6328 42.917 69.2349 42.917 68.7954C42.917 68.3706 43 67.9971 43.166 67.6748C43.332 67.3477 43.5713 67.0767 43.8838 66.8618C44.1963 66.6421 44.5723 66.4761 45.0117 66.3638C45.4512 66.2515 45.9419 66.1953 46.4839 66.1953H48.0586ZM52.6655 64.3203V71H51.3105V63.0752H52.6289L52.6655 64.3203ZM55.1411 63.0312L55.1338 64.291C55.0215 64.2666 54.9141 64.252 54.8115 64.2471C54.7139 64.2373 54.6016 64.2324 54.4746 64.2324C54.1621 64.2324 53.8862 64.2812 53.647 64.3789C53.4077 64.4766 53.2051 64.6133 53.0391 64.7891C52.873 64.9648 52.7412 65.1748 52.6436 65.4189C52.5508 65.6582 52.4897 65.9219 52.4604 66.21L52.0796 66.4297C52.0796 65.9512 52.126 65.502 52.2188 65.082C52.3164 64.6621 52.4653 64.291 52.6655 63.9688C52.8657 63.6416 53.1196 63.3877 53.4272 63.207C53.7397 63.0215 54.1108 62.9287 54.5405 62.9287C54.6382 62.9287 54.7505 62.9409 54.8774 62.9653C55.0044 62.9849 55.0923 63.0068 55.1411 63.0312Z" fill="white"/>
<defs>
<linearGradient id="paint0_linear_1316_1796" x1="-23.28" y1="9.43999" x2="85.12" y2="66.56" gradientUnits="userSpaceOnUse">
<stop stop-color="#055782"/>
<stop offset="1" stop-color="#032C41"/>
</linearGradient>
<linearGradient id="paint1_linear_1316_1796" x1="40" y1="79.3389" x2="32.5487" y2="-3.30906" gradientUnits="userSpaceOnUse">
<stop stop-color="#0897E3"/>
<stop offset="1" stop-color="#044C72"/>
</linearGradient>
<linearGradient id="paint2_linear_1316_1796" x1="45.2945" y1="80.4388" x2="42.7505" y2="27.74" gradientUnits="userSpaceOnUse">
<stop stop-color="#066FA6"/>
<stop offset="0.639583" stop-color="#3D9FD3"/>
<stop offset="1" stop-color="#66C3F4"/>
</linearGradient>
</defs>
</svg>
