<svg width="80" height="80" viewBox="0 0 80 80" fill="none" xmlns="http://www.w3.org/2000/svg">
<path d="M40 0C17.9086 0 0 17.9086 0 40C0 62.0914 17.9086 80 40 80C62.0914 80 80 62.0914 80 40C80 17.9086 62.0914 0 40 0Z" fill="url(#paint0_linear_3075_2530)"/>
<path d="M40 3.30582C19.004 3.30582 1.98343 20.3264 1.98343 41.3223C1.98343 62.3183 19.004 79.3389 40 79.3389C60.9959 79.3389 78.0165 62.3183 78.0165 41.3223C78.0165 20.3264 60.9959 3.30582 40 3.30582Z" fill="url(#paint1_linear_3075_2530)"/>
<path d="M40.0826 77.6519C56.6968 77.6519 70.1653 68.3276 70.1653 56.8255C70.1653 45.3233 56.6968 35.999 40.0826 35.999C23.4685 35.999 10 45.3233 10 56.8255C10 68.3276 23.4685 77.6519 40.0826 77.6519Z" fill="url(#paint2_linear_3075_2530)" fill-opacity="0.7"/>
<path d="M37.8751 42.422H39.0511V55.106H37.8751V42.422ZM38.7711 47.42H41.1231V48.4H38.7711V47.42ZM29.8531 50.976H30.8471C33.1851 50.976 34.8231 50.892 36.7131 50.542L36.8391 51.522C34.8931 51.886 33.2271 51.956 30.8471 51.956H29.8531V50.976ZM29.8531 43.654H35.7331V44.606H31.0011V51.41H29.8531V43.654ZM47.912 42.716C50.642 42.716 52.364 43.612 52.364 45.11C52.364 46.608 50.642 47.49 47.912 47.49C45.168 47.49 43.46 46.608 43.46 45.11C43.46 43.612 45.168 42.716 47.912 42.716ZM47.912 43.64C45.896 43.64 44.65 44.172 44.65 45.11C44.65 46.034 45.896 46.58 47.912 46.58C49.914 46.58 51.174 46.034 51.174 45.11C51.174 44.172 49.914 43.64 47.912 43.64ZM43.586 50.752H52.224V54.924H43.586V50.752ZM51.09 51.69H44.734V53.986H51.09V51.69ZM42.186 48.582H53.624V49.52H42.186V48.582ZM32.0656 58.422H33.2276V71.106H32.0656V58.422ZM26.5496 59.402C28.4256 59.402 29.7696 61.124 29.7696 63.812C29.7696 66.514 28.4256 68.236 26.5496 68.236C24.6876 68.236 23.3436 66.514 23.3436 63.812C23.3436 61.124 24.6876 59.402 26.5496 59.402ZM26.5496 60.452C25.3176 60.452 24.4496 61.768 24.4496 63.812C24.4496 65.87 25.3176 67.214 26.5496 67.214C27.7956 67.214 28.6496 65.87 28.6496 63.812C28.6496 61.768 27.7956 60.452 26.5496 60.452ZM45.3085 58.436H46.4145V68.04H45.3085V58.436ZM40.8705 62.104H43.2645V63.056H40.8705V62.104ZM42.9005 58.688H44.0065V67.676H42.9005V58.688ZM36.3205 59.444H37.4125V61.572H40.1145V59.444H41.2205V65.646H36.3205V59.444ZM37.4125 62.496V64.708H40.1145V62.496H37.4125ZM38.1685 69.86H46.8065V70.812H38.1685V69.86ZM38.1685 66.752H39.3305V70.378H38.1685V66.752ZM50.1095 65.254H58.8035V66.192H50.1095V65.254ZM48.6395 68.502H60.1055V69.468H48.6395V68.502ZM50.1095 59.514H58.6635V60.466H51.2855V65.548H50.1095V59.514ZM50.9075 62.342H58.3975V63.266H50.9075V62.342Z" fill="white"/>
<circle cx="40" cy="19" r="15" transform="rotate(-180 40 19)" fill="white" fill-opacity="0.3"/>
<defs>
<linearGradient id="paint0_linear_3075_2530" x1="-23.28" y1="9.44" x2="85.12" y2="66.56" gradientUnits="userSpaceOnUse">
<stop stop-color="#008E64"/>
<stop offset="1" stop-color="#3C3F46"/>
</linearGradient>
<linearGradient id="paint1_linear_3075_2530" x1="40" y1="79.3389" x2="32.5487" y2="-3.30906" gradientUnits="userSpaceOnUse">
<stop stop-color="#04846E"/>
<stop offset="1" stop-color="#00C280"/>
</linearGradient>
<linearGradient id="paint2_linear_3075_2530" x1="40.0826" y1="35.999" x2="40.0826" y2="77.6519" gradientUnits="userSpaceOnUse">
<stop stop-color="#E1F89E"/>
<stop offset="1" stop-color="#1EC28A"/>
</linearGradient>
</defs>
</svg>
