<svg width="80" height="80" viewBox="0 0 80 80" fill="none" xmlns="http://www.w3.org/2000/svg">
<path d="M40 0C17.9086 0 0 17.9086 0 40C0 62.0914 17.9086 80 40 80C62.0914 80 80 62.0914 80 40C80 17.9086 62.0914 0 40 0Z" fill="url(#paint0_linear_1296_1713)"/>
<path d="M40 3.30582C19.004 3.30582 1.98343 20.3264 1.98343 41.3223C1.98343 62.3183 19.004 79.3389 40 79.3389C60.9959 79.3389 78.0165 62.3183 78.0165 41.3223C78.0165 20.3264 60.9959 3.30582 40 3.30582Z" fill="url(#paint1_linear_1296_1713)"/>
<path d="M40.0826 77.6519C56.6968 77.6519 70.1653 68.3276 70.1653 56.8255C70.1653 45.3233 56.6968 35.999 40.0826 35.999C23.4685 35.999 10 45.3233 10 56.8255C10 68.3276 23.4685 77.6519 40.0826 77.6519Z" fill="url(#paint2_linear_1296_1713)" fill-opacity="0.7"/>
<circle cx="40" cy="19" r="15" transform="rotate(-180 40 19)" fill="white" fill-opacity="0.3"/>
<defs>
<linearGradient id="paint0_linear_1296_1713" x1="-23.28" y1="9.44" x2="85.12" y2="66.56" gradientUnits="userSpaceOnUse">
<stop stop-color="#00C389"/>
<stop offset="1" stop-color="#3C3F46"/>
</linearGradient>
<linearGradient id="paint1_linear_1296_1713" x1="40" y1="79.3389" x2="32.5487" y2="-3.30906" gradientUnits="userSpaceOnUse">
<stop stop-color="#04846E"/>
<stop offset="1" stop-color="#00D68D"/>
</linearGradient>
<linearGradient id="paint2_linear_1296_1713" x1="40.0826" y1="35.999" x2="40.0826" y2="77.6519" gradientUnits="userSpaceOnUse">
<stop stop-color="#E1F89E"/>
<stop offset="1" stop-color="#1EC28A"/>
</linearGradient>
</defs>
</svg>
