<svg width="80" height="80" viewBox="0 0 80 80" fill="none" xmlns="http://www.w3.org/2000/svg">
<path d="M40 0C17.9086 0 0 17.9086 0 40C0 62.0914 17.9086 80 40 80C62.0914 80 80 62.0914 80 40C80 17.9086 62.0914 0 40 0Z" fill="url(#paint0_linear_1311_1775)"/>
<path d="M40 3.30484C19.0041 3.30484 1.98349 20.3254 1.98349 41.3214C1.98349 62.3173 19.0041 79.3379 40 79.3379C60.996 79.3379 78.0165 62.3173 78.0165 41.3214C78.0165 20.3254 60.996 3.30484 40 3.30484Z" fill="url(#paint1_linear_1311_1775)"/>
<path d="M40.0826 77.6529C56.6968 77.6529 70.1653 68.3286 70.1653 56.8264C70.1653 45.3243 56.6968 36 40.0826 36C23.4685 36 10 45.3243 10 56.8264C10 68.3286 23.4685 77.6529 40.0826 77.6529Z" fill="url(#paint2_linear_1311_1775)"/>
<circle cx="40" cy="19" r="15" transform="rotate(-180 40 19)" fill="white" fill-opacity="0.18"/>
<defs>
<linearGradient id="paint0_linear_1311_1775" x1="-23.28" y1="9.44" x2="85.12" y2="66.56" gradientUnits="userSpaceOnUse">
<stop stop-color="#055782"/>
<stop offset="1" stop-color="#032C41"/>
</linearGradient>
<linearGradient id="paint1_linear_1311_1775" x1="40" y1="79.3379" x2="32.5488" y2="-3.31004" gradientUnits="userSpaceOnUse">
<stop stop-color="#0897E3"/>
<stop offset="1" stop-color="#044C72"/>
</linearGradient>
<linearGradient id="paint2_linear_1311_1775" x1="40.0826" y1="32" x2="37.2987" y2="85.3383" gradientUnits="userSpaceOnUse">
<stop stop-color="#79BFE7"/>
<stop offset="0.84814" stop-color="#015988"/>
</linearGradient>
</defs>
</svg>
