<svg width="80" height="80" viewBox="0 0 80 80" fill="none" xmlns="http://www.w3.org/2000/svg">
<path d="M40 0C17.9086 0 0 17.9086 0 40C0 62.0914 17.9086 80 40 80C62.0914 80 80 62.0914 80 40C80 17.9086 62.0914 0 40 0Z" fill="url(#paint0_linear_3075_2576)"/>
<path d="M39.9835 2.96695C18.9875 2.96695 1.96695 19.9875 1.96695 40.9835C1.96695 61.9794 18.9875 79 39.9835 79C60.9794 79 78 61.9794 78 40.9835C78 19.9875 60.9794 2.96695 39.9835 2.96695Z" fill="url(#paint1_diamond_3075_2576)"/>
<path d="M40.0826 77.6529C56.6968 77.6529 70.1653 68.3286 70.1653 56.8264C70.1653 45.3243 56.6968 36 40.0826 36C23.4685 36 10 45.3243 10 56.8264C10 68.3286 23.4685 77.6529 40.0826 77.6529Z" fill="url(#paint2_linear_3075_2576)" fill-opacity="0.7"/>
<circle cx="40" cy="19" r="15" transform="rotate(-180 40 19)" fill="white" fill-opacity="0.3"/>
<path d="M30.2662 50.78H31.2862V53.21C31.2862 56.21 29.6662 59.135 27.5212 60.275L26.7562 59.285C28.7212 58.295 30.2662 55.685 30.2662 53.21V50.78ZM30.4912 50.78H31.4962V53.21C31.4962 55.595 33.0112 58.07 34.9312 59.03L34.1662 60.02C32.0662 58.895 30.4912 56.12 30.4912 53.21V50.78ZM36.1162 49.61H37.3762V63.17H36.1162V49.61ZM37.0762 55.1H39.5962V56.15H37.0762V55.1ZM41.305 50.63H47.53V56.465H41.305V50.63ZM46.315 51.635H42.52V55.475H46.315V51.635ZM50.02 49.61H51.265V57.62H50.02V49.61ZM50.92 52.97H53.275V54.02H50.92V52.97ZM46.945 58.085C49.705 58.085 51.4 59.03 51.4 60.62C51.4 62.225 49.705 63.155 46.945 63.155C44.185 63.155 42.49 62.225 42.49 60.62C42.49 59.03 44.185 58.085 46.945 58.085ZM46.945 59.09C44.935 59.09 43.705 59.645 43.705 60.62C43.705 61.595 44.935 62.165 46.945 62.165C48.955 62.165 50.185 61.595 50.185 60.62C50.185 59.645 48.955 59.09 46.945 59.09Z" fill="white"/>
<defs>
<linearGradient id="paint0_linear_3075_2576" x1="-23.28" y1="9.44" x2="85.12" y2="66.56" gradientUnits="userSpaceOnUse">
<stop stop-color="#C50000"/>
<stop offset="1" stop-color="#6C0707"/>
</linearGradient>
<radialGradient id="paint1_diamond_3075_2576" cx="0" cy="0" r="1" gradientUnits="userSpaceOnUse" gradientTransform="translate(36.2579 37.676) rotate(-95.1517) scale(41.4916)">
<stop stop-color="#F50000"/>
<stop offset="1" stop-color="#E30000"/>
</radialGradient>
<linearGradient id="paint2_linear_3075_2576" x1="40.0826" y1="36" x2="40.0826" y2="77.6529" gradientUnits="userSpaceOnUse">
<stop stop-color="#FF8989"/>
<stop offset="1" stop-color="#D70000"/>
</linearGradient>
</defs>
</svg>
