<svg width="80" height="80" viewBox="0 0 80 80" fill="none" xmlns="http://www.w3.org/2000/svg">
<path d="M40 0C17.9086 0 0 17.9086 0 40C0 62.0914 17.9086 80 40 80C62.0914 80 80 62.0914 80 40C80 17.9086 62.0914 0 40 0Z" fill="url(#paint0_linear_3075_2561)"/>
<path d="M39.9835 2.96695C18.9875 2.96695 1.96695 19.9875 1.96695 40.9835C1.96695 61.9794 18.9875 79 39.9835 79C60.9794 79 78 61.9794 78 40.9835C78 19.9875 60.9794 2.96695 39.9835 2.96695Z" fill="url(#paint1_linear_3075_2561)"/>
<g filter="url(#filter0_d_3075_2561)">
<path d="M53.0476 18.2413C54.3175 19.0229 54.3175 20.9771 53.0476 21.7587L36.8571 31.7249C35.5873 32.5066 34 31.5295 34 29.9662L34 10.0338C34 8.47052 35.5873 7.49345 36.8571 8.27511L53.0476 18.2413Z" fill="white" fill-opacity="0.1" shape-rendering="crispEdges"/>
</g>
<path d="M20.2417 37.975H21.6697V49.195H20.2417V37.975ZM11.7927 51.83H22.1287V52.986H11.7927V51.83ZM11.7927 48.039H13.1867V52.221H11.7927V48.039ZM13.4247 39.029C15.7197 39.029 17.4197 40.593 17.4197 42.82C17.4197 45.03 15.7197 46.611 13.4247 46.611C11.1297 46.611 9.41266 45.03 9.41266 42.82C9.41266 40.593 11.1297 39.029 13.4247 39.029ZM13.4247 40.253C11.9287 40.253 10.7897 41.307 10.7897 42.82C10.7897 44.316 11.9287 45.37 13.4247 45.37C14.9207 45.37 16.0597 44.316 16.0597 42.82C16.0597 41.307 14.9207 40.253 13.4247 40.253ZM27.9243 38.91H29.0463V40.967C29.0463 43.262 27.7203 45.676 25.4593 46.679L24.6943 45.574C26.7173 44.69 27.9243 42.701 27.9243 40.967V38.91ZM28.1453 38.91H29.2673V40.967C29.2673 42.667 30.4233 44.401 32.3953 45.166L31.6303 46.237C29.4203 45.353 28.1453 43.228 28.1453 40.967V38.91ZM36.3053 37.975H37.6483V47.444H36.3053V37.975ZM33.8573 42.072H36.7643V43.228H33.8573V42.072ZM33.0073 38.264H34.3503V46.951H33.0073V38.264ZM32.5993 47.784C35.7613 47.784 37.7333 48.804 37.7333 50.555C37.7333 52.289 35.7613 53.292 32.5993 53.292C29.4203 53.292 27.4823 52.289 27.4823 50.555C27.4823 48.804 29.4203 47.784 32.5993 47.784ZM32.5993 48.889C30.2873 48.889 28.8593 49.501 28.8593 50.555C28.8593 51.592 30.2873 52.204 32.5993 52.204C34.9113 52.204 36.3223 51.592 36.3223 50.555C36.3223 49.501 34.9113 48.889 32.5993 48.889ZM44.09 38.468H45.246V39.692C45.246 42.582 43.563 44.894 40.945 45.812L40.248 44.673C42.577 43.908 44.09 41.97 44.09 39.692V38.468ZM44.345 38.468H45.484V39.658C45.484 41.732 46.997 43.534 49.258 44.248L48.527 45.353C46.011 44.486 44.345 42.344 44.345 39.658V38.468ZM50.856 37.958H52.267V45.965H50.856V37.958ZM51.655 41.307H54.528V42.48H51.655V41.307ZM42.509 46.679H52.267V50.368H43.937V52.663H42.543V49.297H50.89V47.801H42.509V46.679ZM42.543 52.034H52.828V53.156H42.543V52.034ZM67.1747 37.958H68.5857V53.326H67.1747V37.958ZM62.6697 39.607H64.0637C64.0637 44.061 62.0577 47.954 56.9237 50.47L56.1757 49.331C60.6127 47.189 62.6697 43.925 62.6697 39.845V39.607ZM56.8727 39.607H63.2817V40.763H56.8727V39.607Z" fill="white"/>
<defs>
<filter id="filter0_d_3075_2561" x="32" y="8" width="24" height="28" filterUnits="userSpaceOnUse" color-interpolation-filters="sRGB">
<feFlood flood-opacity="0" result="BackgroundImageFix"/>
<feColorMatrix in="SourceAlpha" type="matrix" values="0 0 0 0 0 0 0 0 0 0 0 0 0 0 0 0 0 0 127 0" result="hardAlpha"/>
<feOffset dy="2"/>
<feGaussianBlur stdDeviation="1"/>
<feComposite in2="hardAlpha" operator="out"/>
<feColorMatrix type="matrix" values="0 0 0 0 0 0 0 0 0 0 0 0 0 0 0 0 0 0 0.13 0"/>
<feBlend mode="normal" in2="BackgroundImageFix" result="effect1_dropShadow_3075_2561"/>
<feBlend mode="normal" in="SourceGraphic" in2="effect1_dropShadow_3075_2561" result="shape"/>
</filter>
<linearGradient id="paint0_linear_3075_2561" x1="-23.28" y1="9.44" x2="85.12" y2="66.56" gradientUnits="userSpaceOnUse">
<stop stop-color="#055782"/>
<stop offset="1" stop-color="#032C41"/>
</linearGradient>
<linearGradient id="paint1_linear_3075_2561" x1="39.9835" y1="79" x2="32.5322" y2="-3.64793" gradientUnits="userSpaceOnUse">
<stop stop-color="#0897E3"/>
<stop offset="1" stop-color="#044C72"/>
</linearGradient>
</defs>
</svg>
