<svg width="80" height="80" viewBox="0 0 80 80" fill="none" xmlns="http://www.w3.org/2000/svg">
<path d="M40 -3.49691e-06C17.9086 -5.4282e-06 5.4282e-06 17.9086 3.49691e-06 40C1.56562e-06 62.0914 17.9086 80 40 80C62.0914 80 80 62.0914 80 40C80 17.9086 62.0914 -1.56562e-06 40 -3.49691e-06Z" fill="url(#paint0_linear_3075_2540)"/>
<path d="M40 3.30582C19.004 3.30582 1.98343 20.3264 1.98343 41.3223C1.98343 62.3183 19.004 79.3389 40 79.3389C60.9959 79.3389 78.0165 62.3183 78.0165 41.3223C78.0165 20.3264 60.9959 3.30582 40 3.30582Z" fill="url(#paint1_linear_3075_2540)"/>
<path d="M39.9174 36.3471C23.3032 36.3471 9.83472 45.6714 9.83471 57.1736C9.83471 68.6757 23.3032 78 39.9174 78C56.5315 78 70 68.6757 70 57.1736C70 45.6714 56.5315 36.3471 39.9174 36.3471Z" fill="url(#paint2_linear_3075_2540)"/>
<circle cx="39" cy="19" r="15" transform="rotate(-180 39 19)" fill="white" fill-opacity="0.3"/>
<path d="M37.0312 55.01H39.5362V56.06H37.0312V55.01ZM36.1162 49.595H37.3762V63.17H36.1162V49.595ZM27.4762 50.93H28.7212V59.33H27.4762V50.93ZM27.4762 58.685H28.5562C30.5662 58.685 32.6212 58.55 34.8562 58.085L35.0062 59.12C32.6962 59.6 30.6112 59.735 28.5562 59.735H27.4762V58.685ZM50.59 49.595H51.835V63.185H50.59V49.595ZM44.68 50.645C46.69 50.645 48.13 52.49 48.13 55.37C48.13 58.265 46.69 60.11 44.68 60.11C42.685 60.11 41.245 58.265 41.245 55.37C41.245 52.49 42.685 50.645 44.68 50.645ZM44.68 51.77C43.36 51.77 42.43 53.18 42.43 55.37C42.43 57.575 43.36 59.015 44.68 59.015C46.015 59.015 46.93 57.575 46.93 55.37C46.93 53.18 46.015 51.77 44.68 51.77Z" fill="white"/>
<defs>
<linearGradient id="paint0_linear_3075_2540" x1="-23.28" y1="9.43999" x2="85.12" y2="66.56" gradientUnits="userSpaceOnUse">
<stop stop-color="#055782"/>
<stop offset="1" stop-color="#032C41"/>
</linearGradient>
<linearGradient id="paint1_linear_3075_2540" x1="40" y1="79.3389" x2="32.5487" y2="-3.30906" gradientUnits="userSpaceOnUse">
<stop stop-color="#0897E3"/>
<stop offset="1" stop-color="#044C72"/>
</linearGradient>
<linearGradient id="paint2_linear_3075_2540" x1="45.2119" y1="81.0823" x2="42.6679" y2="28.3836" gradientUnits="userSpaceOnUse">
<stop stop-color="#066FA6"/>
<stop offset="0.639583" stop-color="#3D9FD3"/>
<stop offset="1" stop-color="#66C3F4"/>
</linearGradient>
</defs>
</svg>
