<svg width="80" height="80" viewBox="0 0 80 80" fill="none" xmlns="http://www.w3.org/2000/svg">
<path d="M40 0C17.9086 0 0 17.9086 0 40C0 62.0914 17.9086 80 40 80C62.0914 80 80 62.0914 80 40C80 17.9086 62.0914 0 40 0Z" fill="url(#paint0_linear_3084_1645)"/>
<path d="M39.9835 2.96695C18.9875 2.96695 1.96695 19.9875 1.96695 40.9835C1.96695 61.9794 18.9875 79 39.9835 79C60.9794 79 78 61.9794 78 40.9835C78 19.9875 60.9794 2.96695 39.9835 2.96695Z" fill="url(#paint1_diamond_3084_1645)"/>
<path d="M40.0826 77.6519C56.6968 77.6519 70.1653 68.3276 70.1653 56.8255C70.1653 45.3233 56.6968 35.999 40.0826 35.999C23.4685 35.999 10 45.3233 10 56.8255C10 68.3276 23.4685 77.6519 40.0826 77.6519Z" fill="url(#paint2_linear_3084_1645)" fill-opacity="0.7"/>
<circle cx="40" cy="19" r="15" transform="rotate(-180 40 19)" fill="white" fill-opacity="0.3"/>
<path d="M20.4429 54.6641C20.4429 54.4482 20.409 54.2578 20.3413 54.0928C20.2778 53.9235 20.1636 53.7712 19.9985 53.6357C19.8377 53.5003 19.6134 53.3713 19.3257 53.2485C19.0422 53.1258 18.6825 53.001 18.2466 52.874C17.7896 52.7386 17.377 52.5884 17.0088 52.4233C16.6406 52.2541 16.3254 52.0615 16.063 51.8457C15.8006 51.6299 15.5996 51.3823 15.46 51.103C15.3203 50.8237 15.2505 50.5042 15.2505 50.1445C15.2505 49.7848 15.3245 49.4526 15.4727 49.1479C15.6208 48.8433 15.8324 48.5788 16.1074 48.3545C16.3867 48.126 16.7189 47.9482 17.104 47.8213C17.4891 47.6943 17.9186 47.6309 18.3926 47.6309C19.0866 47.6309 19.6748 47.7642 20.1572 48.0308C20.6439 48.2931 21.0142 48.638 21.2681 49.0654C21.522 49.4886 21.6489 49.9414 21.6489 50.4238H20.4302C20.4302 50.0768 20.3561 49.77 20.208 49.5034C20.0599 49.2326 19.8356 49.021 19.5352 48.8687C19.2347 48.7121 18.8538 48.6338 18.3926 48.6338C17.9567 48.6338 17.597 48.6994 17.3135 48.8306C17.0299 48.9618 16.8184 49.1395 16.6787 49.3638C16.5433 49.5881 16.4756 49.8441 16.4756 50.1318C16.4756 50.3265 16.5158 50.5042 16.5962 50.665C16.6808 50.8216 16.8099 50.9676 16.9834 51.103C17.1611 51.2384 17.3854 51.3633 17.6562 51.4775C17.9313 51.5918 18.2593 51.7018 18.6401 51.8076C19.1649 51.9557 19.6177 52.1208 19.9985 52.3027C20.3794 52.4847 20.6925 52.6899 20.938 52.9185C21.1877 53.1427 21.3717 53.3988 21.4902 53.6865C21.613 53.9701 21.6743 54.2917 21.6743 54.6514C21.6743 55.028 21.5981 55.3687 21.4458 55.6733C21.2935 55.978 21.0755 56.2383 20.792 56.4541C20.5085 56.6699 20.1678 56.8371 19.77 56.9556C19.3765 57.0698 18.9364 57.127 18.4497 57.127C18.0223 57.127 17.6012 57.0677 17.1865 56.9492C16.776 56.8307 16.4015 56.653 16.063 56.416C15.7287 56.179 15.46 55.887 15.2568 55.54C15.0579 55.1888 14.9585 54.7826 14.9585 54.3213H16.1772C16.1772 54.6387 16.2386 54.9116 16.3613 55.1401C16.484 55.3644 16.6512 55.5506 16.8628 55.6987C17.0786 55.8468 17.3219 55.9569 17.5928 56.0288C17.8678 56.0965 18.1535 56.1304 18.4497 56.1304C18.8771 56.1304 19.2389 56.0711 19.5352 55.9526C19.8314 55.8341 20.0557 55.6649 20.208 55.4448C20.3646 55.2248 20.4429 54.9645 20.4429 54.6641ZM25.9082 57.127C25.43 57.127 24.9963 57.0465 24.6069 56.8857C24.2218 56.7207 23.8896 56.4901 23.6104 56.1938C23.3353 55.8976 23.1237 55.5464 22.9756 55.1401C22.8275 54.7339 22.7534 54.2896 22.7534 53.8071V53.5405C22.7534 52.9819 22.8359 52.4847 23.001 52.0488C23.166 51.6087 23.3903 51.2363 23.6738 50.9316C23.9574 50.627 24.279 50.3963 24.6387 50.2397C24.9984 50.0832 25.3708 50.0049 25.7559 50.0049C26.2467 50.0049 26.6699 50.0895 27.0254 50.2588C27.3851 50.4281 27.6792 50.665 27.9077 50.9697C28.1362 51.2702 28.3055 51.6257 28.4155 52.0361C28.5256 52.4424 28.5806 52.8867 28.5806 53.3691V53.896H23.4517V52.9375H27.4062V52.8486C27.3893 52.5439 27.3258 52.2477 27.2158 51.96C27.11 51.6722 26.9408 51.4352 26.708 51.249C26.4753 51.0628 26.1579 50.9697 25.7559 50.9697C25.4893 50.9697 25.2438 51.0269 25.0195 51.1411C24.7952 51.2511 24.6027 51.4162 24.4419 51.6362C24.2811 51.8563 24.1562 52.125 24.0674 52.4424C23.9785 52.7598 23.9341 53.1258 23.9341 53.5405V53.8071C23.9341 54.133 23.9785 54.4398 24.0674 54.7275C24.1605 55.0111 24.2938 55.2607 24.4673 55.4766C24.645 55.6924 24.8587 55.8617 25.1084 55.9844C25.3623 56.1071 25.6501 56.1685 25.9717 56.1685C26.3864 56.1685 26.7376 56.0838 27.0254 55.9146C27.3132 55.7453 27.5649 55.5189 27.7808 55.2354L28.4917 55.8003C28.3436 56.0246 28.1553 56.2383 27.9268 56.4414C27.6982 56.6445 27.4168 56.8096 27.0825 56.9365C26.7524 57.0635 26.361 57.127 25.9082 57.127ZM32.8018 57.127C32.3236 57.127 31.8898 57.0465 31.5005 56.8857C31.1154 56.7207 30.7832 56.4901 30.5039 56.1938C30.2288 55.8976 30.0173 55.5464 29.8691 55.1401C29.721 54.7339 29.647 54.2896 29.647 53.8071V53.5405C29.647 52.9819 29.7295 52.4847 29.8945 52.0488C30.0596 51.6087 30.2839 51.2363 30.5674 50.9316C30.8509 50.627 31.1725 50.3963 31.5322 50.2397C31.8919 50.0832 32.2643 50.0049 32.6494 50.0049C33.1403 50.0049 33.5635 50.0895 33.9189 50.2588C34.2786 50.4281 34.5728 50.665 34.8013 50.9697C35.0298 51.2702 35.1991 51.6257 35.3091 52.0361C35.4191 52.4424 35.4741 52.8867 35.4741 53.3691V53.896H30.3452V52.9375H34.2998V52.8486C34.2829 52.5439 34.2194 52.2477 34.1094 51.96C34.0036 51.6722 33.8343 51.4352 33.6016 51.249C33.3688 51.0628 33.0514 50.9697 32.6494 50.9697C32.3828 50.9697 32.1374 51.0269 31.9131 51.1411C31.6888 51.2511 31.4963 51.4162 31.3354 51.6362C31.1746 51.8563 31.0498 52.125 30.9609 52.4424C30.8721 52.7598 30.8276 53.1258 30.8276 53.5405V53.8071C30.8276 54.133 30.8721 54.4398 30.9609 54.7275C31.054 55.0111 31.1873 55.2607 31.3608 55.4766C31.5386 55.6924 31.7523 55.8617 32.002 55.9844C32.2559 56.1071 32.5436 56.1685 32.8652 56.1685C33.2799 56.1685 33.6312 56.0838 33.9189 55.9146C34.2067 55.7453 34.4585 55.5189 34.6743 55.2354L35.3853 55.8003C35.2371 56.0246 35.0488 56.2383 34.8203 56.4414C34.5918 56.6445 34.3104 56.8096 33.9761 56.9365C33.646 57.0635 33.2546 57.127 32.8018 57.127ZM40.6729 47.7578L43.0723 52.3979L45.478 47.7578H46.8682L43.6816 53.5469V57H42.4565V53.5469L39.27 47.7578H40.6729ZM47.1475 53.6421V53.4961C47.1475 53.001 47.2194 52.5418 47.3633 52.1187C47.5072 51.6912 47.7145 51.321 47.9854 51.0078C48.2562 50.6904 48.5841 50.445 48.9692 50.2715C49.3543 50.0938 49.786 50.0049 50.2642 50.0049C50.7466 50.0049 51.1803 50.0938 51.5654 50.2715C51.9548 50.445 52.2848 50.6904 52.5557 51.0078C52.8307 51.321 53.0402 51.6912 53.1841 52.1187C53.328 52.5418 53.3999 53.001 53.3999 53.4961V53.6421C53.3999 54.1372 53.328 54.5964 53.1841 55.0195C53.0402 55.4427 52.8307 55.813 52.5557 56.1304C52.2848 56.4435 51.9569 56.689 51.5718 56.8667C51.1909 57.0402 50.7593 57.127 50.2769 57.127C49.7944 57.127 49.3607 57.0402 48.9756 56.8667C48.5905 56.689 48.2604 56.4435 47.9854 56.1304C47.7145 55.813 47.5072 55.4427 47.3633 55.0195C47.2194 54.5964 47.1475 54.1372 47.1475 53.6421ZM48.3218 53.4961V53.6421C48.3218 53.9849 48.362 54.3086 48.4424 54.6133C48.5228 54.9137 48.6434 55.1803 48.8042 55.4131C48.9692 55.6458 49.1745 55.8299 49.4199 55.9653C49.6654 56.0965 49.951 56.1621 50.2769 56.1621C50.5985 56.1621 50.8799 56.0965 51.1211 55.9653C51.3665 55.8299 51.5697 55.6458 51.7305 55.4131C51.8913 55.1803 52.0119 54.9137 52.0923 54.6133C52.1769 54.3086 52.2192 53.9849 52.2192 53.6421V53.4961C52.2192 53.1576 52.1769 52.8381 52.0923 52.5376C52.0119 52.2329 51.8892 51.9642 51.7241 51.7314C51.5633 51.4945 51.3602 51.3083 51.1147 51.1729C50.8735 51.0374 50.59 50.9697 50.2642 50.9697C49.9425 50.9697 49.659 51.0374 49.4136 51.1729C49.1724 51.3083 48.9692 51.4945 48.8042 51.7314C48.6434 51.9642 48.5228 52.2329 48.4424 52.5376C48.362 52.8381 48.3218 53.1576 48.3218 53.4961ZM59.0747 55.4131V50.1318H60.2554V57H59.1318L59.0747 55.4131ZM59.2969 53.9658L59.7856 53.9531C59.7856 54.4102 59.737 54.8333 59.6396 55.2227C59.5465 55.6077 59.3942 55.9421 59.1826 56.2256C58.971 56.5091 58.6938 56.7313 58.3511 56.8921C58.0083 57.0487 57.5915 57.127 57.1006 57.127C56.7663 57.127 56.4595 57.0783 56.1802 56.981C55.9051 56.8836 55.6681 56.7334 55.4692 56.5303C55.2703 56.3271 55.1159 56.0627 55.0059 55.7368C54.9001 55.411 54.8472 55.0195 54.8472 54.5625V50.1318H56.0215V54.5752C56.0215 54.8841 56.0553 55.1401 56.123 55.3433C56.195 55.5422 56.2902 55.7008 56.4087 55.8193C56.5314 55.9336 56.6668 56.014 56.8149 56.0605C56.9673 56.1071 57.1239 56.1304 57.2847 56.1304C57.784 56.1304 58.1797 56.0352 58.4717 55.8447C58.7637 55.6501 58.9731 55.3898 59.1001 55.064C59.2313 54.7339 59.2969 54.3678 59.2969 53.9658ZM63.2197 51.2109V57H62.0454V50.1318H63.188L63.2197 51.2109ZM65.3652 50.0938L65.3589 51.1855C65.2616 51.1644 65.1685 51.1517 65.0796 51.1475C64.995 51.139 64.8976 51.1348 64.7876 51.1348C64.5168 51.1348 64.2777 51.1771 64.0703 51.2617C63.863 51.3464 63.6873 51.4648 63.5435 51.6172C63.3996 51.7695 63.2853 51.9515 63.2007 52.1631C63.1203 52.3704 63.0674 52.599 63.042 52.8486L62.7119 53.0391C62.7119 52.6243 62.7521 52.235 62.8325 51.8711C62.9172 51.5072 63.0462 51.1855 63.2197 50.9062C63.3932 50.6227 63.6133 50.4027 63.8799 50.2461C64.1507 50.0853 64.4723 50.0049 64.8447 50.0049C64.9294 50.0049 65.0267 50.0155 65.1367 50.0366C65.2467 50.0535 65.3229 50.0726 65.3652 50.0938ZM35.9629 71.0034V72H31.3418V71.0034H35.9629ZM31.583 62.7578V72H30.3579V62.7578H31.583ZM38.4639 65.1318V72H37.2832V65.1318H38.4639ZM37.1943 63.3101C37.1943 63.1196 37.2515 62.9588 37.3657 62.8276C37.4842 62.6965 37.6577 62.6309 37.8862 62.6309C38.1105 62.6309 38.2819 62.6965 38.4004 62.8276C38.5231 62.9588 38.5845 63.1196 38.5845 63.3101C38.5845 63.492 38.5231 63.6486 38.4004 63.7798C38.2819 63.9067 38.1105 63.9702 37.8862 63.9702C37.6577 63.9702 37.4842 63.9067 37.3657 63.7798C37.2515 63.6486 37.1943 63.492 37.1943 63.3101ZM42.1011 72H40.9268V64.4082C40.9268 63.9131 41.0156 63.4963 41.1934 63.1577C41.3753 62.8149 41.6356 62.5568 41.9741 62.3833C42.3127 62.2056 42.7147 62.1167 43.1802 62.1167C43.3156 62.1167 43.451 62.1252 43.5864 62.1421C43.7261 62.159 43.8615 62.1844 43.9927 62.2183L43.9292 63.1768C43.8403 63.1556 43.7388 63.1408 43.6245 63.1323C43.5145 63.1239 43.4045 63.1196 43.2944 63.1196C43.0448 63.1196 42.8289 63.1704 42.647 63.272C42.4692 63.3693 42.3338 63.5132 42.2407 63.7036C42.1476 63.894 42.1011 64.1289 42.1011 64.4082V72ZM43.561 65.1318V66.0332H39.8413V65.1318H43.561ZM47.5664 72.127C47.0882 72.127 46.6545 72.0465 46.2651 71.8857C45.88 71.7207 45.5479 71.4901 45.2686 71.1938C44.9935 70.8976 44.7819 70.5464 44.6338 70.1401C44.4857 69.7339 44.4116 69.2896 44.4116 68.8071V68.5405C44.4116 67.9819 44.4941 67.4847 44.6592 67.0488C44.8242 66.6087 45.0485 66.2363 45.332 65.9316C45.6156 65.627 45.9372 65.3963 46.2969 65.2397C46.6566 65.0832 47.029 65.0049 47.4141 65.0049C47.9049 65.0049 48.3281 65.0895 48.6836 65.2588C49.0433 65.4281 49.3374 65.665 49.5659 65.9697C49.7944 66.2702 49.9637 66.6257 50.0737 67.0361C50.1838 67.4424 50.2388 67.8867 50.2388 68.3691V68.896H45.1099V67.9375H49.0645V67.8486C49.0475 67.5439 48.984 67.2477 48.874 66.96C48.7682 66.6722 48.599 66.4352 48.3662 66.249C48.1335 66.0628 47.8161 65.9697 47.4141 65.9697C47.1475 65.9697 46.902 66.0269 46.6777 66.1411C46.4535 66.2511 46.2609 66.4162 46.1001 66.6362C45.9393 66.8563 45.8145 67.125 45.7256 67.4424C45.6367 67.7598 45.5923 68.1258 45.5923 68.5405V68.8071C45.5923 69.133 45.6367 69.4398 45.7256 69.7275C45.8187 70.0111 45.952 70.2607 46.1255 70.4766C46.3032 70.6924 46.5169 70.8617 46.7666 70.9844C47.0205 71.1071 47.3083 71.1685 47.6299 71.1685C48.0446 71.1685 48.3958 71.0838 48.6836 70.9146C48.9714 70.7453 49.2231 70.5189 49.439 70.2354L50.1499 70.8003C50.0018 71.0246 49.8135 71.2383 49.585 71.4414C49.3564 71.6445 49.075 71.8096 48.7407 71.9365C48.4106 72.0635 48.0192 72.127 47.5664 72.127Z" fill="white"/>
<defs>
<linearGradient id="paint0_linear_3084_1645" x1="-23.28" y1="9.44" x2="85.12" y2="66.56" gradientUnits="userSpaceOnUse">
<stop stop-color="#C50000"/>
<stop offset="1" stop-color="#6C0707"/>
</linearGradient>
<radialGradient id="paint1_diamond_3084_1645" cx="0" cy="0" r="1" gradientUnits="userSpaceOnUse" gradientTransform="translate(36.2579 37.676) rotate(-95.1517) scale(41.4916)">
<stop stop-color="#F50000"/>
<stop offset="1" stop-color="#E30000"/>
</radialGradient>
<linearGradient id="paint2_linear_3084_1645" x1="40.0826" y1="35.999" x2="40.0826" y2="77.6519" gradientUnits="userSpaceOnUse">
<stop stop-color="#FF8989"/>
<stop offset="1" stop-color="#D70000"/>
</linearGradient>
</defs>
</svg>
