<svg width="80" height="80" viewBox="0 0 80 80" fill="none" xmlns="http://www.w3.org/2000/svg">
<path d="M40 0C17.9086 0 0 17.9086 0 40C0 62.0914 17.9086 80 40 80C62.0914 80 80 62.0914 80 40C80 17.9086 62.0914 0 40 0Z" fill="url(#paint0_linear_3084_1657)"/>
<path d="M39.9835 2.96695C18.9875 2.96695 1.96695 19.9875 1.96695 40.9835C1.96695 61.9794 18.9875 79 39.9835 79C60.9794 79 78 61.9794 78 40.9835C78 19.9875 60.9794 2.96695 39.9835 2.96695Z" fill="url(#paint1_diamond_3084_1657)"/>
<path d="M40.0826 77.6529C56.6968 77.6529 70.1653 68.3286 70.1653 56.8264C70.1653 45.3243 56.6968 36 40.0826 36C23.4685 36 10 45.3243 10 56.8264C10 68.3286 23.4685 77.6529 40.0826 77.6529Z" fill="url(#paint2_linear_3084_1657)" fill-opacity="0.7"/>
<circle cx="40" cy="19" r="15" transform="rotate(-180 40 19)" fill="white" fill-opacity="0.3"/>
<path d="M29.1462 41.262H30.2252V48.243H29.1462V41.262ZM29.9132 44.317H31.9542V45.214H29.9132V44.317ZM26.4682 48.49C28.8472 48.49 30.3292 49.335 30.3292 50.752C30.3292 52.169 28.8472 53.001 26.4682 53.001C24.0892 53.001 22.6072 52.169 22.6072 50.752C22.6072 49.335 24.0892 48.49 26.4682 48.49ZM26.4682 49.374C24.7262 49.374 23.6602 49.868 23.6602 50.752C23.6602 51.61 24.7262 52.117 26.4682 52.117C28.2102 52.117 29.2762 51.61 29.2762 50.752C29.2762 49.868 28.2102 49.374 26.4682 49.374ZM21.6192 46.436H22.5292C24.9602 46.436 26.3252 46.358 27.8982 46.033L28.0282 46.917C26.4032 47.242 25.0122 47.32 22.5292 47.32H21.6192V46.436ZM21.6192 42.159H26.8062V43.043H22.6852V47.008H21.6192V42.159ZM41.5992 41.275H42.6912V49.881H41.5992V41.275ZM35.1382 51.87H43.0422V52.754H35.1382V51.87ZM35.1382 49.088H36.2042V52.286H35.1382V49.088ZM36.1132 41.912H37.0102V43.108C37.0102 45.396 35.7102 47.398 33.7342 48.204L33.1752 47.333C34.9432 46.644 36.1132 44.928 36.1132 43.108V41.912ZM36.3082 41.912H37.1922V43.108C37.1922 44.876 38.3752 46.475 40.1302 47.112L39.5582 47.983C37.6082 47.229 36.3082 45.344 36.3082 43.108V41.912ZM48.8262 42.107C50.6592 42.107 51.9722 43.238 51.9722 44.876C51.9722 46.527 50.6592 47.658 48.8262 47.658C46.9932 47.658 45.6672 46.527 45.6672 44.876C45.6672 43.238 46.9932 42.107 48.8262 42.107ZM48.8262 43.043C47.6042 43.043 46.7202 43.784 46.7202 44.876C46.7202 45.968 47.6042 46.722 48.8262 46.722C50.0352 46.722 50.9192 45.968 50.9192 44.876C50.9192 43.784 50.0352 43.043 48.8262 43.043ZM53.5062 41.249H54.5852V53.027H53.5062V41.249ZM45.2252 50.453L45.0692 49.556C47.2142 49.556 50.1782 49.543 52.7392 49.14L52.8302 49.933C50.1912 50.44 47.3182 50.453 45.2252 50.453ZM23.6607 56.275H24.7527V64.855H23.6607V56.275ZM17.1997 66.87H25.1037V67.754H17.1997V66.87ZM17.1997 63.971H18.2657V67.169H17.1997V63.971ZM18.4477 57.081C20.2027 57.081 21.5027 58.277 21.5027 59.98C21.5027 61.67 20.2027 62.879 18.4477 62.879C16.6927 62.879 15.3797 61.67 15.3797 59.98C15.3797 58.277 16.6927 57.081 18.4477 57.081ZM18.4477 58.017C17.3037 58.017 16.4327 58.823 16.4327 59.98C16.4327 61.124 17.3037 61.93 18.4477 61.93C19.5917 61.93 20.4627 61.124 20.4627 59.98C20.4627 58.823 19.5917 58.017 18.4477 58.017ZM29.5357 56.99H30.3937V58.563C30.3937 60.318 29.3797 62.164 27.6507 62.931L27.0657 62.086C28.6127 61.41 29.5357 59.889 29.5357 58.563V56.99ZM29.7047 56.99H30.5627V58.563C30.5627 59.863 31.4467 61.189 32.9547 61.774L32.3697 62.593C30.6797 61.917 29.7047 60.292 29.7047 58.563V56.99ZM35.9447 56.275H36.9717V63.516H35.9447V56.275ZM34.0727 59.408H36.2957V60.292H34.0727V59.408ZM33.4227 56.496H34.4497V63.139H33.4227V56.496ZM33.1107 63.776C35.5287 63.776 37.0367 64.556 37.0367 65.895C37.0367 67.221 35.5287 67.988 33.1107 67.988C30.6797 67.988 29.1977 67.221 29.1977 65.895C29.1977 64.556 30.6797 63.776 33.1107 63.776ZM33.1107 64.621C31.3427 64.621 30.2507 65.089 30.2507 65.895C30.2507 66.688 31.3427 67.156 33.1107 67.156C34.8787 67.156 35.9577 66.688 35.9577 65.895C35.9577 65.089 34.8787 64.621 33.1107 64.621ZM42.2623 65.622H52.9093V66.519H42.2623V65.622ZM47.0203 62.814H48.0993V65.882H47.0203V62.814ZM43.5103 57.094H44.5763V59.187H50.5693V57.094H51.6353V63.1H43.5103V57.094ZM44.5763 60.058V62.216H50.5693V60.058H44.5763ZM62.7753 56.262H63.8543V68.014H62.7753V56.262ZM59.3303 57.523H60.3963C60.3963 60.929 58.8623 63.906 54.9363 65.83L54.3643 64.959C57.7573 63.321 59.3303 60.825 59.3303 57.705V57.523ZM54.8973 57.523H59.7983V58.407H54.8973V57.523Z" fill="white"/>
<defs>
<linearGradient id="paint0_linear_3084_1657" x1="-23.28" y1="9.44" x2="85.12" y2="66.56" gradientUnits="userSpaceOnUse">
<stop stop-color="#C50000"/>
<stop offset="1" stop-color="#6C0707"/>
</linearGradient>
<radialGradient id="paint1_diamond_3084_1657" cx="0" cy="0" r="1" gradientUnits="userSpaceOnUse" gradientTransform="translate(36.2579 37.676) rotate(-95.1517) scale(41.4916)">
<stop stop-color="#F50000"/>
<stop offset="1" stop-color="#E30000"/>
</radialGradient>
<linearGradient id="paint2_linear_3084_1657" x1="40.0826" y1="36" x2="40.0826" y2="77.6529" gradientUnits="userSpaceOnUse">
<stop stop-color="#FF8989"/>
<stop offset="1" stop-color="#D70000"/>
</linearGradient>
</defs>
</svg>
