<svg width="80" height="80" viewBox="0 0 80 80" fill="none" xmlns="http://www.w3.org/2000/svg">
<path d="M40 0C17.9086 0 0 17.9086 0 40C0 62.0914 17.9086 80 40 80C62.0914 80 80 62.0914 80 40C80 17.9086 62.0914 0 40 0Z" fill="url(#paint0_linear_1316_1787)"/>
<path d="M40 3.30582C19.004 3.30582 1.98343 20.3264 1.98343 41.3223C1.98343 62.3183 19.004 79.3389 40 79.3389C60.9959 79.3389 78.0165 62.3183 78.0165 41.3223C78.0165 20.3264 60.9959 3.30582 40 3.30582Z" fill="url(#paint1_linear_1316_1787)"/>
<g filter="url(#filter0_d_1316_1787)">
<path d="M73.0476 40.2413C74.3175 41.0229 74.3175 42.9771 73.0476 43.7587L56.8571 53.7249C55.5873 54.5066 54 53.5295 54 51.9662L54 32.0338C54 30.4705 55.5873 29.4934 56.8571 30.2751L73.0476 40.2413Z" fill="white" fill-opacity="0.1" shape-rendering="crispEdges"/>
</g>
<path d="M33.2544 24.5435V26H26.5005V24.5435H33.2544ZM26.853 12.4922V26H25.0625V12.4922H26.853Z" fill="white"/>
<path d="M36.9097 15.9619V26H35.1841V15.9619H36.9097ZM35.0542 13.2993C35.0542 13.021 35.1377 12.786 35.3047 12.5942C35.4779 12.4025 35.7314 12.3066 36.0654 12.3066C36.3932 12.3066 36.6437 12.4025 36.8169 12.5942C36.9963 12.786 37.0859 13.021 37.0859 13.2993C37.0859 13.5653 36.9963 13.7941 36.8169 13.9858C36.6437 14.1714 36.3932 14.2642 36.0654 14.2642C35.7314 14.2642 35.4779 14.1714 35.3047 13.9858C35.1377 13.7941 35.0542 13.5653 35.0542 13.2993Z" fill="white"/>
<path d="M42.7173 24.4507L45.4634 15.9619H47.2168L43.6079 26H42.4575L42.7173 24.4507ZM40.4258 15.9619L43.2554 24.4971L43.4502 26H42.2998L38.6631 15.9619H40.4258Z" fill="white"/>
<path d="M52.9038 26.1855C52.2049 26.1855 51.571 26.068 51.002 25.833C50.4391 25.5918 49.9536 25.2547 49.5454 24.8218C49.1434 24.3888 48.8341 23.8755 48.6177 23.2817C48.4012 22.688 48.293 22.0386 48.293 21.3335V20.9438C48.293 20.1274 48.4136 19.4007 48.6548 18.7637C48.896 18.1204 49.2238 17.5762 49.6382 17.1309C50.0526 16.6855 50.5226 16.3485 51.0483 16.1196C51.5741 15.8908 52.1183 15.7764 52.6812 15.7764C53.3986 15.7764 54.0171 15.9001 54.5366 16.1475C55.0623 16.3949 55.4922 16.7412 55.8262 17.1865C56.1602 17.6257 56.4076 18.1452 56.5684 18.7451C56.7292 19.3389 56.8096 19.9883 56.8096 20.6934V21.4634H49.3135V20.0625H55.0933V19.9326C55.0685 19.4873 54.9757 19.0544 54.8149 18.6338C54.6603 18.2132 54.4129 17.8669 54.0728 17.5947C53.7326 17.3226 53.2687 17.1865 52.6812 17.1865C52.2915 17.1865 51.9328 17.27 51.605 17.437C51.2772 17.5978 50.9958 17.839 50.7607 18.1606C50.5257 18.4823 50.3433 18.875 50.2134 19.3389C50.0835 19.8027 50.0186 20.3377 50.0186 20.9438V21.3335C50.0186 21.8097 50.0835 22.2581 50.2134 22.6787C50.3494 23.0931 50.5443 23.458 50.7979 23.7734C51.0576 24.0889 51.37 24.3363 51.7349 24.5156C52.106 24.695 52.5265 24.7847 52.9966 24.7847C53.6027 24.7847 54.116 24.661 54.5366 24.4136C54.9572 24.1662 55.3252 23.8353 55.6406 23.4209L56.6797 24.2466C56.4632 24.5744 56.188 24.8867 55.854 25.1836C55.52 25.4805 55.1087 25.7217 54.6201 25.9072C54.1377 26.0928 53.5656 26.1855 52.9038 26.1855Z" fill="white"/>
<path d="M40.2031 45.2837V40.1162C40.2031 39.7204 40.1227 39.3771 39.9619 39.0864C39.8073 38.7896 39.5723 38.5607 39.2568 38.3999C38.9414 38.2391 38.5518 38.1587 38.0879 38.1587C37.6549 38.1587 37.2746 38.2329 36.9468 38.3813C36.6252 38.5298 36.3716 38.7246 36.186 38.9658C36.0067 39.207 35.917 39.4668 35.917 39.7451H34.2007C34.2007 39.3864 34.2935 39.0308 34.479 38.6782C34.6646 38.3257 34.9305 38.0072 35.2769 37.7227C35.6294 37.432 36.05 37.2031 36.5386 37.0361C37.0334 36.863 37.5838 36.7764 38.1899 36.7764C38.9198 36.7764 39.563 36.9001 40.1196 37.1475C40.6825 37.3949 41.1216 37.769 41.437 38.27C41.7586 38.7648 41.9194 39.3864 41.9194 40.1348V44.8105C41.9194 45.1445 41.9473 45.5002 42.0029 45.8774C42.0648 46.2547 42.1545 46.5794 42.272 46.8516V47H40.4814C40.3949 46.8021 40.3268 46.5392 40.2773 46.2114C40.2279 45.8774 40.2031 45.5682 40.2031 45.2837ZM40.5 40.9141L40.5186 42.1201H38.7837C38.2951 42.1201 37.859 42.1603 37.4756 42.2407C37.0921 42.3149 36.7705 42.4294 36.5107 42.584C36.251 42.7386 36.0531 42.9334 35.917 43.1685C35.7809 43.3973 35.7129 43.6663 35.7129 43.9756C35.7129 44.291 35.784 44.5786 35.9263 44.8384C36.0685 45.0981 36.2819 45.3053 36.5664 45.46C36.8571 45.6084 37.2127 45.6826 37.6333 45.6826C38.159 45.6826 38.6229 45.5713 39.0249 45.3486C39.4269 45.126 39.7454 44.8538 39.9805 44.5322C40.2217 44.2106 40.3516 43.8983 40.3701 43.5952L41.103 44.4209C41.0597 44.6807 40.9422 44.9683 40.7505 45.2837C40.5588 45.5991 40.3021 45.9022 39.9805 46.1929C39.665 46.4774 39.2878 46.7155 38.8486 46.9072C38.4157 47.0928 37.9271 47.1855 37.3828 47.1855C36.7025 47.1855 36.1056 47.0526 35.5923 46.7866C35.0851 46.5207 34.6893 46.165 34.4048 45.7197C34.1265 45.2682 33.9873 44.7642 33.9873 44.2075C33.9873 43.6694 34.0924 43.1963 34.3027 42.7881C34.513 42.3737 34.8161 42.0304 35.2119 41.7583C35.6077 41.48 36.084 41.2697 36.6406 41.1274C37.1973 40.9852 37.8188 40.9141 38.5054 40.9141H40.5Z" fill="white"/>
<path d="M34.5996 66.5435V68H27.8457V66.5435H34.5996ZM28.1982 54.4922V68H26.4077V54.4922H28.1982Z" fill="white"/>
<path d="M38.2549 57.9619V68H36.5293V57.9619H38.2549ZM36.3994 55.2993C36.3994 55.021 36.4829 54.786 36.6499 54.5942C36.8231 54.4025 37.0767 54.3066 37.4106 54.3066C37.7384 54.3066 37.9889 54.4025 38.1621 54.5942C38.3415 54.786 38.4312 55.021 38.4312 55.2993C38.4312 55.5653 38.3415 55.7941 38.1621 55.9858C37.9889 56.1714 37.7384 56.2642 37.4106 56.2642C37.0767 56.2642 36.8231 56.1714 36.6499 55.9858C36.4829 55.7941 36.3994 55.5653 36.3994 55.2993Z" fill="white"/>
<path d="M43.5708 68H41.8545V56.9043C41.8545 56.1807 41.9844 55.5715 42.2441 55.0767C42.5101 54.5757 42.8905 54.1984 43.3853 53.9448C43.88 53.6851 44.4676 53.5552 45.1479 53.5552C45.3459 53.5552 45.5438 53.5675 45.7417 53.5923C45.9458 53.617 46.1437 53.6541 46.3354 53.7036L46.2427 55.1045C46.1128 55.0736 45.9644 55.0519 45.7974 55.0396C45.6366 55.0272 45.4757 55.021 45.3149 55.021C44.95 55.021 44.6346 55.0952 44.3687 55.2437C44.1089 55.3859 43.911 55.5962 43.7749 55.8745C43.6388 56.1528 43.5708 56.4961 43.5708 56.9043V68ZM45.7046 57.9619V59.2793H40.2681V57.9619H45.7046Z" fill="white"/>
<path d="M51.5586 68.1855C50.8597 68.1855 50.2257 68.068 49.6567 67.833C49.0939 67.5918 48.6084 67.2547 48.2002 66.8218C47.7982 66.3888 47.4889 65.8755 47.2725 65.2817C47.056 64.688 46.9478 64.0386 46.9478 63.3335V62.9438C46.9478 62.1274 47.0684 61.4007 47.3096 60.7637C47.5508 60.1204 47.8786 59.5762 48.293 59.1309C48.7074 58.6855 49.1774 58.3485 49.7031 58.1196C50.2288 57.8908 50.7731 57.7764 51.3359 57.7764C52.0534 57.7764 52.6719 57.9001 53.1914 58.1475C53.7171 58.3949 54.147 58.7412 54.481 59.1865C54.8149 59.6257 55.0623 60.1452 55.2231 60.7451C55.384 61.3389 55.4644 61.9883 55.4644 62.6934V63.4634H47.9683V62.0625H53.748V61.9326C53.7233 61.4873 53.6305 61.0544 53.4697 60.6338C53.3151 60.2132 53.0677 59.8669 52.7275 59.5947C52.3874 59.3226 51.9235 59.1865 51.3359 59.1865C50.9463 59.1865 50.5876 59.27 50.2598 59.437C49.932 59.5978 49.6506 59.839 49.4155 60.1606C49.1805 60.4823 48.998 60.875 48.8682 61.3389C48.7383 61.8027 48.6733 62.3377 48.6733 62.9438V63.3335C48.6733 63.8097 48.7383 64.2581 48.8682 64.6787C49.0042 65.0931 49.1991 65.458 49.4526 65.7734C49.7124 66.0889 50.0247 66.3363 50.3896 66.5156C50.7607 66.695 51.1813 66.7847 51.6514 66.7847C52.2575 66.7847 52.7708 66.661 53.1914 66.4136C53.612 66.1662 53.98 65.8353 54.2954 65.4209L55.3345 66.2466C55.118 66.5744 54.8428 66.8867 54.5088 67.1836C54.1748 67.4805 53.7635 67.7217 53.2749 67.9072C52.7925 68.0928 52.2204 68.1855 51.5586 68.1855Z" fill="white"/>
<defs>
<filter id="filter0_d_1316_1787" x="52" y="30" width="24" height="28" filterUnits="userSpaceOnUse" color-interpolation-filters="sRGB">
<feFlood flood-opacity="0" result="BackgroundImageFix"/>
<feColorMatrix in="SourceAlpha" type="matrix" values="0 0 0 0 0 0 0 0 0 0 0 0 0 0 0 0 0 0 127 0" result="hardAlpha"/>
<feOffset dy="2"/>
<feGaussianBlur stdDeviation="1"/>
<feComposite in2="hardAlpha" operator="out"/>
<feColorMatrix type="matrix" values="0 0 0 0 0 0 0 0 0 0 0 0 0 0 0 0 0 0 0.13 0"/>
<feBlend mode="normal" in2="BackgroundImageFix" result="effect1_dropShadow_1316_1787"/>
<feBlend mode="normal" in="SourceGraphic" in2="effect1_dropShadow_1316_1787" result="shape"/>
</filter>
<linearGradient id="paint0_linear_1316_1787" x1="-23.28" y1="9.44" x2="85.12" y2="66.56" gradientUnits="userSpaceOnUse">
<stop stop-color="#055782"/>
<stop offset="1" stop-color="#032C41"/>
</linearGradient>
<linearGradient id="paint1_linear_1316_1787" x1="40" y1="79.3389" x2="32.5487" y2="-3.30906" gradientUnits="userSpaceOnUse">
<stop stop-color="#0897E3"/>
<stop offset="1" stop-color="#044C72"/>
</linearGradient>
</defs>
</svg>
