<svg width="80" height="80" viewBox="0 0 80 80" fill="none" xmlns="http://www.w3.org/2000/svg">
<path d="M40 0C17.9086 0 0 17.9086 0 40C0 62.0914 17.9086 80 40 80C62.0914 80 80 62.0914 80 40C80 17.9086 62.0914 0 40 0Z" fill="url(#paint0_linear_1296_1688)"/>
<path d="M39.9835 2.96695C18.9875 2.96695 1.96695 19.9875 1.96695 40.9835C1.96695 61.9794 18.9875 79 39.9835 79C60.9794 79 78 61.9794 78 40.9835C78 19.9875 60.9794 2.96695 39.9835 2.96695Z" fill="url(#paint1_diamond_1296_1688)"/>
<circle cx="40" cy="39" r="15" transform="rotate(-180 40 39)" fill="white" fill-opacity="0.3"/>
<defs>
<linearGradient id="paint0_linear_1296_1688" x1="-23.28" y1="9.44" x2="85.12" y2="66.56" gradientUnits="userSpaceOnUse">
<stop stop-color="#690000"/>
<stop offset="1" stop-color="#6C0707"/>
</linearGradient>
<radialGradient id="paint1_diamond_1296_1688" cx="0" cy="0" r="1" gradientUnits="userSpaceOnUse" gradientTransform="translate(36.2579 37.676) rotate(-95.1517) scale(41.4916)">
<stop stop-color="#F04646"/>
<stop offset="1" stop-color="#C50000"/>
</radialGradient>
</defs>
</svg>
