<svg width="55" height="55" viewBox="0 0 55 55" fill="none" xmlns="http://www.w3.org/2000/svg">
<circle cx="27.9963" cy="27.7383" r="26.5" fill="url(#paint0_radial_418_4600)" stroke="url(#paint1_linear_418_4600)"/>
<ellipse cx="21" cy="17.5" rx="21" ry="17.5" transform="matrix(-1 -8.74228e-08 -8.74228e-08 1 48.9963 4.73828)" fill="url(#paint2_linear_418_4600)"/>
<path d="M11.4532 26L13.9892 20.4H14.7812L17.3252 26H16.4852L14.2212 20.848H14.5412L12.2772 26H11.4532ZM12.5332 24.6L12.7492 23.96H15.9012L16.1332 24.6H12.5332ZM18.0486 26V21.76H18.7846V22.912L18.7126 22.624C18.8299 22.3307 19.0272 22.1067 19.3046 21.952C19.5819 21.7973 19.9232 21.72 20.3286 21.72V22.464C20.2966 22.4587 20.2646 22.456 20.2326 22.456C20.2059 22.456 20.1792 22.456 20.1526 22.456C19.7419 22.456 19.4166 22.5787 19.1766 22.824C18.9366 23.0693 18.8166 23.424 18.8166 23.888V26H18.0486ZM23.5391 21.72C23.8858 21.72 24.1898 21.7867 24.4511 21.92C24.7178 22.0533 24.9258 22.256 25.0751 22.528C25.2245 22.8 25.2991 23.144 25.2991 23.56V26H24.5311V23.648C24.5311 23.2373 24.4298 22.928 24.2271 22.72C24.0298 22.512 23.7498 22.408 23.3871 22.408C23.1151 22.408 22.8778 22.4613 22.6751 22.568C22.4725 22.6747 22.3151 22.832 22.2031 23.04C22.0965 23.248 22.0431 23.5067 22.0431 23.816V26H21.2751V21.76H22.0111V22.904L21.8911 22.6C22.0298 22.3227 22.2431 22.1067 22.5311 21.952C22.8191 21.7973 23.1551 21.72 23.5391 21.72ZM29.3524 26V25.104L29.3124 24.936V23.408C29.3124 23.0827 29.2164 22.832 29.0244 22.656C28.8378 22.4747 28.5551 22.384 28.1764 22.384C27.9258 22.384 27.6804 22.4267 27.4404 22.512C27.2004 22.592 26.9978 22.7013 26.8324 22.84L26.5124 22.264C26.7311 22.088 26.9924 21.9547 27.2964 21.864C27.6058 21.768 27.9284 21.72 28.2644 21.72C28.8458 21.72 29.2938 21.8613 29.6084 22.144C29.9231 22.4267 30.0804 22.8587 30.0804 23.44V26H29.3524ZM27.9604 26.048C27.6458 26.048 27.3684 25.9947 27.1284 25.888C26.8938 25.7813 26.7124 25.6347 26.5844 25.448C26.4564 25.256 26.3924 25.04 26.3924 24.8C26.3924 24.5707 26.4458 24.3627 26.5524 24.176C26.6644 23.9893 26.8431 23.84 27.0884 23.728C27.3391 23.616 27.6751 23.56 28.0964 23.56H29.4404V24.112H28.1284C27.7444 24.112 27.4858 24.176 27.3524 24.304C27.2191 24.432 27.1524 24.5867 27.1524 24.768C27.1524 24.976 27.2351 25.144 27.4004 25.272C27.5658 25.3947 27.7951 25.456 28.0884 25.456C28.3764 25.456 28.6271 25.392 28.8404 25.264C29.0591 25.136 29.2164 24.9493 29.3124 24.704L29.4644 25.232C29.3631 25.4827 29.1844 25.6827 28.9284 25.832C28.6724 25.976 28.3498 26.048 27.9604 26.048ZM31.5017 26V20.064H32.2697V26H31.5017ZM35.4881 26.048C35.0774 26.048 34.7094 25.9573 34.3841 25.776C34.0641 25.5947 33.8107 25.3413 33.6241 25.016C33.4374 24.6907 33.3441 24.312 33.3441 23.88C33.3441 23.448 33.4374 23.072 33.6241 22.752C33.8107 22.4267 34.0641 22.1733 34.3841 21.992C34.7094 21.8107 35.0774 21.72 35.4881 21.72C35.8454 21.72 36.1681 21.8 36.4561 21.96C36.7441 22.12 36.9734 22.36 37.1441 22.68C37.3201 23 37.4081 23.4 37.4081 23.88C37.4081 24.36 37.3227 24.76 37.1521 25.08C36.9867 25.4 36.7601 25.6427 36.4721 25.808C36.1841 25.968 35.8561 26.048 35.4881 26.048ZM35.5521 25.376C35.8187 25.376 36.0587 25.3147 36.2721 25.192C36.4907 25.0693 36.6614 24.896 36.7841 24.672C36.9121 24.4427 36.9761 24.1787 36.9761 23.88C36.9761 23.576 36.9121 23.3147 36.7841 23.096C36.6614 22.872 36.4907 22.6987 36.2721 22.576C36.0587 22.4533 35.8187 22.392 35.5521 22.392C35.2801 22.392 35.0374 22.4533 34.8241 22.576C34.6107 22.6987 34.4401 22.872 34.3121 23.096C34.1841 23.3147 34.1201 23.576 34.1201 23.88C34.1201 24.1787 34.1841 24.4427 34.3121 24.672C34.4401 24.896 34.6107 25.0693 34.8241 25.192C35.0374 25.3147 35.2801 25.376 35.5521 25.376ZM37.0001 26V24.856L37.0481 23.872L36.9681 22.888V20.064H37.7361V26H37.0001ZM41.0052 26.048C40.5785 26.048 40.1998 25.9547 39.8692 25.768C39.5385 25.5813 39.2772 25.3253 39.0852 25C38.8932 24.6693 38.7972 24.296 38.7972 23.88C38.7972 23.4587 38.8932 23.0853 39.0852 22.76C39.2772 22.4347 39.5385 22.1813 39.8692 22C40.1998 21.8133 40.5785 21.72 41.0052 21.72C41.4265 21.72 41.8025 21.8133 42.1332 22C42.4692 22.1813 42.7305 22.4347 42.9172 22.76C43.1092 23.08 43.2052 23.4533 43.2052 23.88C43.2052 24.3013 43.1092 24.6747 42.9172 25C42.7305 25.3253 42.4692 25.5813 42.1332 25.768C41.8025 25.9547 41.4265 26.048 41.0052 26.048ZM41.0052 25.376C41.2772 25.376 41.5198 25.3147 41.7332 25.192C41.9518 25.0693 42.1225 24.896 42.2452 24.672C42.3678 24.4427 42.4292 24.1787 42.4292 23.88C42.4292 23.576 42.3678 23.3147 42.2452 23.096C42.1225 22.872 41.9518 22.6987 41.7332 22.576C41.5198 22.4533 41.2772 22.392 41.0052 22.392C40.7332 22.392 40.4905 22.4533 40.2772 22.576C40.0638 22.6987 39.8932 22.872 39.7652 23.096C39.6372 23.3147 39.5732 23.576 39.5732 23.88C39.5732 24.1787 39.6372 24.4427 39.7652 24.672C39.8932 24.896 40.0638 25.0693 40.2772 25.192C40.4905 25.3147 40.7332 25.376 41.0052 25.376ZM15.5782 36L18.1142 30.4H18.9062L21.4502 36H20.6102L18.3462 30.848H18.6662L16.4022 36H15.5782ZM16.6582 34.6L16.8742 33.96H20.0262L20.2582 34.6H16.6582ZM23.9905 37.6C23.6012 37.6 23.2225 37.544 22.8545 37.432C22.4918 37.3253 22.1958 37.1707 21.9665 36.968L22.3345 36.376C22.5318 36.5467 22.7745 36.68 23.0625 36.776C23.3505 36.8773 23.6518 36.928 23.9665 36.928C24.4678 36.928 24.8358 36.8107 25.0705 36.576C25.3052 36.3413 25.4225 35.984 25.4225 35.504V34.608L25.5025 33.768L25.4625 32.92V31.76H26.1905V35.424C26.1905 36.1707 26.0038 36.72 25.6305 37.072C25.2572 37.424 24.7105 37.6 23.9905 37.6ZM23.8945 35.824C23.4838 35.824 23.1158 35.7387 22.7905 35.568C22.4705 35.392 22.2145 35.1493 22.0225 34.84C21.8358 34.5307 21.7425 34.1733 21.7425 33.768C21.7425 33.3573 21.8358 33 22.0225 32.696C22.2145 32.3867 22.4705 32.1467 22.7905 31.976C23.1158 31.8053 23.4838 31.72 23.8945 31.72C24.2572 31.72 24.5878 31.7947 24.8865 31.944C25.1852 32.088 25.4225 32.312 25.5985 32.616C25.7798 32.92 25.8705 33.304 25.8705 33.768C25.8705 34.2267 25.7798 34.608 25.5985 34.912C25.4225 35.216 25.1852 35.4453 24.8865 35.6C24.5878 35.7493 24.2572 35.824 23.8945 35.824ZM23.9825 35.152C24.2652 35.152 24.5158 35.0933 24.7345 34.976C24.9532 34.8587 25.1238 34.696 25.2465 34.488C25.3745 34.28 25.4385 34.04 25.4385 33.768C25.4385 33.496 25.3745 33.256 25.2465 33.048C25.1238 32.84 24.9532 32.68 24.7345 32.568C24.5158 32.4507 24.2652 32.392 23.9825 32.392C23.6998 32.392 23.4465 32.4507 23.2225 32.568C23.0038 32.68 22.8305 32.84 22.7025 33.048C22.5798 33.256 22.5185 33.496 22.5185 33.768C22.5185 34.04 22.5798 34.28 22.7025 34.488C22.8305 34.696 23.0038 34.8587 23.2225 34.976C23.4465 35.0933 23.6998 35.152 23.9825 35.152ZM29.4739 36.048C29.0473 36.048 28.6686 35.9547 28.3379 35.768C28.0073 35.5813 27.7459 35.3253 27.5539 35C27.3619 34.6693 27.2659 34.296 27.2659 33.88C27.2659 33.4587 27.3619 33.0853 27.5539 32.76C27.7459 32.4347 28.0073 32.1813 28.3379 32C28.6686 31.8133 29.0473 31.72 29.4739 31.72C29.8953 31.72 30.2713 31.8133 30.6019 32C30.9379 32.1813 31.1993 32.4347 31.3859 32.76C31.5779 33.08 31.6739 33.4533 31.6739 33.88C31.6739 34.3013 31.5779 34.6747 31.3859 35C31.1993 35.3253 30.9379 35.5813 30.6019 35.768C30.2713 35.9547 29.8953 36.048 29.4739 36.048ZM29.4739 35.376C29.7459 35.376 29.9886 35.3147 30.2019 35.192C30.4206 35.0693 30.5913 34.896 30.7139 34.672C30.8366 34.4427 30.8979 34.1787 30.8979 33.88C30.8979 33.576 30.8366 33.3147 30.7139 33.096C30.5913 32.872 30.4206 32.6987 30.2019 32.576C29.9886 32.4533 29.7459 32.392 29.4739 32.392C29.2019 32.392 28.9593 32.4533 28.7459 32.576C28.5326 32.6987 28.3619 32.872 28.2339 33.096C28.1059 33.3147 28.0419 33.576 28.0419 33.88C28.0419 34.1787 28.1059 34.4427 28.2339 34.672C28.3619 34.896 28.5326 35.0693 28.7459 35.192C28.9593 35.3147 29.2019 35.376 29.4739 35.376ZM33.9521 36.048C33.6001 36.048 33.2641 36 32.9441 35.904C32.6294 35.808 32.3814 35.6907 32.2001 35.552L32.5201 34.944C32.7014 35.0667 32.9254 35.1707 33.1921 35.256C33.4587 35.3413 33.7307 35.384 34.0081 35.384C34.3654 35.384 34.6214 35.3333 34.7761 35.232C34.9361 35.1307 35.0161 34.9893 35.0161 34.808C35.0161 34.6747 34.9681 34.5707 34.8721 34.496C34.7761 34.4213 34.6481 34.3653 34.4881 34.328C34.3334 34.2907 34.1601 34.2587 33.9681 34.232C33.7761 34.2 33.5841 34.1627 33.3921 34.12C33.2001 34.072 33.0241 34.008 32.8641 33.928C32.7041 33.8427 32.5761 33.728 32.4801 33.584C32.3841 33.4347 32.3361 33.2373 32.3361 32.992C32.3361 32.736 32.4081 32.512 32.5521 32.32C32.6961 32.128 32.8987 31.9813 33.1601 31.88C33.4267 31.7733 33.7414 31.72 34.1041 31.72C34.3814 31.72 34.6614 31.7547 34.9441 31.824C35.2321 31.888 35.4667 31.9813 35.6481 32.104L35.3201 32.712C35.1281 32.584 34.9281 32.496 34.7201 32.448C34.5121 32.4 34.3041 32.376 34.0961 32.376C33.7601 32.376 33.5094 32.432 33.3441 32.544C33.1787 32.6507 33.0961 32.7893 33.0961 32.96C33.0961 33.104 33.1441 33.216 33.2401 33.296C33.3414 33.3707 33.4694 33.4293 33.6241 33.472C33.7841 33.5147 33.9601 33.552 34.1521 33.584C34.3441 33.6107 34.5361 33.648 34.7281 33.696C34.9201 33.7387 35.0934 33.8 35.2481 33.88C35.4081 33.96 35.5361 34.072 35.6321 34.216C35.7334 34.36 35.7841 34.552 35.7841 34.792C35.7841 35.048 35.7094 35.2693 35.5601 35.456C35.4107 35.6427 35.2001 35.7893 34.9281 35.896C34.6561 35.9973 34.3307 36.048 33.9521 36.048ZM38.1999 36.048C37.7732 36.048 37.4425 35.9333 37.2079 35.704C36.9732 35.4747 36.8559 35.1467 36.8559 34.72V30.832H37.6239V34.688C37.6239 34.9173 37.6799 35.0933 37.7919 35.216C37.9092 35.3387 38.0745 35.4 38.2879 35.4C38.5279 35.4 38.7279 35.3333 38.8879 35.2L39.1279 35.752C39.0105 35.8533 38.8692 35.928 38.7039 35.976C38.5439 36.024 38.3759 36.048 38.1999 36.048ZM36.1359 32.392V31.76H38.8399V32.392H36.1359ZM40.0564 36V31.76H40.8244V36H40.0564ZM40.4404 30.944C40.291 30.944 40.1657 30.896 40.0644 30.8C39.9684 30.704 39.9204 30.5867 39.9204 30.448C39.9204 30.304 39.9684 30.184 40.0644 30.088C40.1657 29.992 40.291 29.944 40.4404 29.944C40.5897 29.944 40.7124 29.992 40.8084 30.088C40.9097 30.1787 40.9604 30.2933 40.9604 30.432C40.9604 30.576 40.9124 30.6987 40.8164 30.8C40.7204 30.896 40.595 30.944 40.4404 30.944Z" fill="white"/>
<defs>
<radialGradient id="paint0_radial_418_4600" cx="0" cy="0" r="1" gradientUnits="userSpaceOnUse" gradientTransform="translate(27.996 27.7381) rotate(90) scale(27 28.5806)">
<stop stop-color="#FF0404"/>
<stop offset="1" stop-color="#840D0D"/>
</radialGradient>
<linearGradient id="paint1_linear_418_4600" x1="27.996" y1="0.738055" x2="27.996" y2="54.7381" gradientUnits="userSpaceOnUse">
<stop stop-color="#FF0404"/>
<stop offset="1" stop-color="#4F0000"/>
</linearGradient>
<linearGradient id="paint2_linear_418_4600" x1="21" y1="0" x2="21" y2="35" gradientUnits="userSpaceOnUse">
<stop stop-color="white" stop-opacity="0.5"/>
<stop offset="0.400706" stop-color="white" stop-opacity="0"/>
</linearGradient>
</defs>
</svg>
