<svg width="24" height="24" viewBox="0 0 24 24" fill="none" xmlns="http://www.w3.org/2000/svg">
<path d="M14 22C12.6333 22 11.3417 21.7373 10.125 21.212C8.90833 20.6867 7.84567 19.97 6.937 19.062C6.029 18.154 5.31233 17.0917 4.787 15.875C4.26167 14.6583 3.99933 13.3667 4 12C4 10.6167 4.26267 9.32067 4.788 8.112C5.31333 6.90333 6.03 5.84533 6.938 4.938C7.846 4.02933 8.908 3.31267 10.124 2.788C11.34 2.26333 12.632 2.00067 14 2C15.3833 2 16.6793 2.26267 17.888 2.788C19.0967 3.31333 20.1547 4.03 21.062 4.938C21.9707 5.846 22.6873 6.90433 23.212 8.113C23.7367 9.32167 23.9993 10.6173 24 12C24 13.3667 23.7373 14.6583 23.212 15.875C22.6867 17.0917 21.97 18.1543 21.062 19.063C20.154 19.971 19.0957 20.6877 17.887 21.213C16.6783 21.7383 15.3827 22.0007 14 22ZM14 19.95C14.4333 19.35 14.8083 18.725 15.125 18.075C15.4417 17.425 15.7 16.7333 15.9 16H12.1C12.3 16.7333 12.5583 17.425 12.875 18.075C13.1917 18.725 13.5667 19.35 14 19.95ZM11.4 19.55C11.1 19 10.8373 18.429 10.612 17.837C10.3867 17.245 10.1993 16.6327 10.05 16H7.1C7.58333 16.8333 8.18767 17.5583 8.913 18.175C9.63833 18.7917 10.4673 19.25 11.4 19.55ZM16.6 19.55C17.5333 19.25 18.3627 18.7917 19.088 18.175C19.8133 17.5583 20.4173 16.8333 20.9 16H17.95C17.8 16.6333 17.6127 17.246 17.388 17.838C17.1633 18.43 16.9007 19.0007 16.6 19.55ZM6.25 14H9.65C9.6 13.6667 9.56233 13.3373 9.537 13.012C9.51167 12.6867 9.49933 12.3493 9.5 12C9.5 11.65 9.51267 11.3127 9.538 10.988C9.56333 10.6633 9.60067 10.334 9.65 10H6.25C6.16667 10.3333 6.104 10.6627 6.062 10.988C6.02 11.3133 5.99933 11.6507 6 12C6 12.35 6.021 12.6873 6.063 13.012C6.105 13.3367 6.16733 13.666 6.25 14ZM11.65 14H16.35C16.4 13.6667 16.4377 13.3373 16.463 13.012C16.4883 12.6867 16.5007 12.3493 16.5 12C16.5 11.65 16.4873 11.3127 16.462 10.988C16.4367 10.6633 16.3993 10.334 16.35 10H11.65C11.6 10.3333 11.5623 10.6627 11.537 10.988C11.5117 11.3133 11.4993 11.6507 11.5 12C11.5 12.35 11.5127 12.6873 11.538 13.012C11.5633 13.3367 11.6007 13.666 11.65 14ZM18.35 14H21.75C21.8333 13.6667 21.896 13.3373 21.938 13.012C21.98 12.6867 22.0007 12.3493 22 12C22 11.65 21.979 11.3127 21.937 10.988C21.895 10.6633 21.8327 10.334 21.75 10H18.35C18.4 10.3333 18.4377 10.6627 18.463 10.988C18.4883 11.3133 18.5007 11.6507 18.5 12C18.5 12.35 18.4873 12.6873 18.462 13.012C18.4367 13.3367 18.3993 13.666 18.35 14ZM17.95 8H20.9C20.4167 7.16667 19.8127 6.44167 19.088 5.825C18.3633 5.20833 17.534 4.75 16.6 4.45C16.9 5 17.1627 5.571 17.388 6.163C17.6133 6.755 17.8007 7.36733 17.95 8ZM12.1 8H15.9C15.7 7.26667 15.4417 6.575 15.125 5.925C14.8083 5.275 14.4333 4.65 14 4.05C13.5667 4.65 13.1917 5.275 12.875 5.925C12.5583 6.575 12.3 7.26667 12.1 8ZM7.1 8H10.05C10.2 7.36667 10.3877 6.754 10.613 6.162C10.8383 5.57 11.1007 4.99933 11.4 4.45C10.4667 4.75 9.63733 5.20833 8.912 5.825C8.18667 6.44167 7.58267 7.16667 7.1 8Z" fill="white"/>
</svg>
