<svg width="24" height="24" viewBox="0 0 24 24" fill="none" xmlns="http://www.w3.org/2000/svg">
<path fill-rule="evenodd" clip-rule="evenodd" d="M9.40174 3.25966C9.40174 3.21712 9.44197 3.1813 9.48549 3.1813H10.21C10.2535 3.1813 10.2905 3.21712 10.2905 3.25966V7.78786C10.2905 7.8304 10.2535 7.86622 10.21 7.86622H9.48549C9.44197 7.86622 9.40174 7.8304 9.40174 7.78786V3.25966ZM9.48549 8.30333H10.21C10.5086 8.30333 10.7536 8.0719 10.7536 7.78771L10.7535 3.2597C10.7535 2.97551 10.5087 2.74408 10.21 2.74408H9.48541C9.18337 2.74408 8.93869 2.97551 8.93869 3.2597V7.7879C8.93869 8.07186 9.18369 8.30333 9.48549 8.30333ZM6.81869 4.72066C6.81869 4.67812 6.85572 4.64208 6.90244 4.64208H7.62368C7.6672 4.64208 7.70743 4.6779 7.70743 4.72066V7.78786C7.70743 7.8304 7.6672 7.86645 7.62368 7.86645H6.90244C6.85541 7.86645 6.81869 7.8304 6.81869 7.78786V4.72066ZM6.90244 8.30333H7.62368C7.92572 8.30333 8.1704 8.0719 8.1704 7.78771L8.17048 4.72051C8.17048 4.43609 7.92548 4.20489 7.62376 4.20489H6.90252C6.60048 4.20489 6.3558 4.43632 6.3558 4.72051V7.78771C6.35572 8.07183 6.60072 8.30325 6.90244 8.30325L6.90244 8.30333ZM4.23564 5.9075C4.23564 5.86496 4.27267 5.82913 4.31611 5.82913H5.04065C5.08416 5.82913 5.12112 5.86496 5.12112 5.9075V7.78798C5.12112 7.83052 5.08408 7.86656 5.04065 7.86656H4.31611C4.27259 7.86656 4.23564 7.83052 4.23564 7.78798V5.9075ZM4.31611 8.30333H5.04065C5.33917 8.30333 5.58417 8.0719 5.58417 7.78771V5.90723C5.58417 5.62303 5.33917 5.39161 5.04065 5.39161H4.31611C4.01759 5.39161 3.77259 5.62303 3.77259 5.90723V7.78771C3.77259 8.0719 4.01759 8.30333 4.31611 8.30333ZM17.4659 8.18369C18.5326 8.18369 19.3982 9.00328 19.3982 10.0111C19.3982 11.0189 18.5327 11.8385 17.4659 11.8385C16.3992 11.8385 15.5336 11.0189 15.5336 10.0111C15.5336 9.00328 16.3992 8.18369 17.4659 8.18369ZM17.4659 12.2757C18.7876 12.2757 19.8609 11.2598 19.8609 10.0109C19.8609 8.76236 18.7874 7.74656 17.4659 7.74656C16.1442 7.74656 15.0707 8.76252 15.0707 10.0109C15.0707 11.2597 16.1442 12.2757 17.4659 12.2757ZM2.03171 3.50323V7.76032C2.03171 8.73991 2.87695 9.53713 3.91375 9.53713H10.6127C10.6263 9.53713 10.6395 9.53691 10.6498 9.53668H10.6565C10.7067 9.53668 10.7605 9.5534 10.8007 9.58422L12.4915 10.8543V3.50345C12.4915 2.52355 11.6495 1.72641 10.613 1.72641L3.91378 1.72634C2.8773 1.72611 2.03182 2.52332 2.03182 3.50315L2.03171 3.50323ZM3.91367 9.97426H10.5757L12.5817 11.4776C12.6219 11.5089 12.6721 11.5252 12.7227 11.5252C12.7597 11.5252 12.7932 11.518 12.8235 11.5035C12.9039 11.4672 12.9542 11.3905 12.9542 11.3067L12.9542 3.5032C12.9542 2.2824 11.9042 1.28906 10.6128 1.28906H3.91377C2.62229 1.28906 1.56897 2.28232 1.56897 3.5032V7.76029C1.56874 8.98096 2.62225 9.97424 3.91377 9.97424L3.91367 9.97426ZM21.9677 22.2717H16.2281C16.2583 22.1969 16.2751 22.1167 16.2751 22.0322V21.1619C16.2751 20.7889 15.9563 20.4853 15.5606 20.4853H14.9735L13.615 16.1281C14.192 14.489 15.8558 13.3494 17.6808 13.3494C20.0458 13.3494 21.9678 15.1663 21.9678 17.3995L21.9677 22.2717ZM3.83327 22.2717H15.5609C15.7019 22.2717 15.8123 22.1642 15.8123 22.0322V21.1619C15.8123 21.0298 15.7016 20.9226 15.5609 20.9226H3.83327C3.69577 20.9226 3.58179 21.0301 3.58179 21.1619V22.0322C3.58148 22.1642 3.69577 22.2717 3.83327 22.2717ZM12.6253 14.503H2.38407L4.24907 20.4857H14.4903L12.6253 14.503ZM17.6807 12.9125C16.6542 12.9125 15.6747 13.2208 14.8495 13.8037C14.2357 14.237 13.7392 14.8108 13.407 15.4578L13.0212 14.2229C12.991 14.1297 12.9037 14.066 12.7997 14.066H2.07571C2.00196 14.066 1.93469 14.0984 1.89118 14.1536C1.84766 14.2087 1.83414 14.2802 1.85414 14.3463L3.7696 20.4887C3.40382 20.5205 3.11882 20.8101 3.11882 21.1622V22.0325C3.11882 22.4055 3.44086 22.7091 3.83336 22.7091H22.1994C22.3269 22.7091 22.4308 22.6111 22.4308 22.4905L22.4309 17.3999C22.4309 14.9257 20.3007 12.9124 17.6807 12.9124L17.6807 12.9125Z" fill="white" stroke="white" stroke-width="0.3"/>
</svg>
