<svg width="24" height="24" viewBox="0 0 24 24" fill="none" xmlns="http://www.w3.org/2000/svg">
<path d="M11.4309 10.3308C11.4359 10.4176 11.4061 10.5028 11.3482 10.5676C11.2904 10.6325 11.2091 10.6718 11.1223 10.6767C10.5161 10.7114 9.89406 10.7291 9.27307 10.7291C8.87709 10.7291 8.4783 10.722 8.08752 10.7081C7.8696 10.7003 7.64646 10.6898 7.42412 10.6772H7.42421C7.30709 10.6706 7.20245 10.6019 7.14962 10.4972C7.09686 10.3925 7.10395 10.2675 7.16823 10.1694C7.23259 10.0714 7.34432 10.015 7.46143 10.0217C7.67935 10.0342 7.89779 10.0442 8.11093 10.0518C8.49402 10.0657 8.88506 10.0725 9.2731 10.0725C9.88172 10.0725 10.4914 10.0555 11.0851 10.0217C11.1719 10.0168 11.2572 10.0466 11.3221 10.1046C11.3869 10.1626 11.4261 10.244 11.431 10.3308L11.4309 10.3308ZM7.42419 15.4645C7.64656 15.477 7.86993 15.4875 8.08759 15.4951C8.47828 15.5091 8.87716 15.5164 9.27314 15.5164C9.89404 15.5164 10.5161 15.4988 11.1224 15.464H11.1223C11.2394 15.4573 11.344 15.3887 11.3968 15.284C11.4496 15.1792 11.4425 15.0543 11.3782 14.9562C11.3139 14.8581 11.2022 14.8018 11.085 14.8084C10.4914 14.842 9.88175 14.8593 9.27304 14.8593C8.88491 14.8593 8.49398 14.8522 8.11088 14.8386C7.89765 14.831 7.67921 14.8207 7.46137 14.8084C7.37439 14.8035 7.28912 14.8333 7.22417 14.8913C7.15921 14.9493 7.11995 15.0306 7.115 15.1176C7.11005 15.2045 7.13984 15.2898 7.1978 15.3548C7.25575 15.4197 7.33719 15.459 7.42416 15.464L7.42419 15.4645ZM11.085 19.572C10.4916 19.6058 9.88198 19.6229 9.27303 19.6229C8.88413 19.6229 8.49318 19.616 8.11086 19.6021C7.89687 19.5945 7.67844 19.5845 7.46136 19.5722C7.37148 19.5614 7.28117 19.5882 7.21177 19.6463C7.14229 19.7045 7.10004 19.7886 7.09491 19.879C7.08971 19.9694 7.12214 20.0578 7.18454 20.1235C7.24685 20.189 7.33358 20.226 7.42415 20.2254C7.64575 20.2383 7.86988 20.2485 8.08755 20.2563C8.47747 20.2702 8.87659 20.2773 9.27309 20.2773C9.89458 20.2773 10.5165 20.26 11.1223 20.2249H11.1222C11.2393 20.2182 11.344 20.1496 11.3967 20.0449C11.4496 19.9401 11.4425 19.8153 11.3781 19.7171C11.3138 19.619 11.2021 19.5627 11.085 19.5693L11.085 19.572ZM20.1317 9.50069C20.1317 10.0612 19.909 10.5987 19.5128 10.995C19.1164 11.3913 18.5789 11.6139 18.0185 11.6139C17.458 11.6139 16.9204 11.3913 16.5242 10.995C16.1278 10.5987 15.9051 10.0612 15.9051 9.50069C15.9051 8.94024 16.1278 8.40264 16.5242 8.0064C16.9204 7.61007 17.458 7.38738 18.0185 7.38738C18.5787 7.38807 19.1158 7.61086 19.512 8.00708C19.9082 8.40323 20.131 8.94039 20.1317 9.50069ZM19.4761 9.50069C19.4761 9.11403 19.3226 8.74331 19.0492 8.4699C18.7758 8.19658 18.405 8.04294 18.0185 8.04294C17.6318 8.04294 17.2611 8.19658 16.9877 8.4699C16.7143 8.74331 16.5607 9.11403 16.5607 9.50069C16.5607 9.88728 16.7143 10.258 16.9877 10.5314C17.2611 10.8048 17.6318 10.9584 18.0185 10.9584C18.4049 10.9579 18.7754 10.8042 19.0487 10.531C19.322 10.2576 19.4757 9.8871 19.4761 9.50069ZM23.8 8.75723V10.2595C23.8 10.3388 23.7713 10.4152 23.7192 10.4749C23.6671 10.5346 23.5952 10.5734 23.5167 10.5842L22.3915 10.7392C22.2945 11.0845 22.1565 11.4169 21.9806 11.7296L22.6671 12.6353L22.6672 12.6352C22.715 12.6984 22.7383 12.7767 22.7329 12.8556C22.7275 12.9347 22.6937 13.009 22.6378 13.065L21.5755 14.1273C21.5195 14.1832 21.4451 14.217 21.3661 14.2224C21.2872 14.2279 21.2089 14.2045 21.1457 14.1567L20.24 13.4702H20.2401C19.9273 13.6461 19.5948 13.7839 19.2494 13.8808L19.0944 15.0074C19.0836 15.0858 19.0448 15.1577 18.9851 15.2097C18.9255 15.2618 18.849 15.2905 18.7698 15.2905H18.3457V19.974C18.3457 20.7706 17.3755 21.4503 15.5399 21.9407C13.4877 22.4311 11.3826 22.6642 9.27283 22.6348C7.1631 22.6643 5.05783 22.4311 3.00573 21.9407C1.17017 21.4503 0.199951 20.7706 0.199951 19.974V5.68771C0.199951 4.89106 1.17013 4.21142 3.00573 3.72104C5.05801 3.23099 7.16326 2.99814 9.27283 3.02792C12.43 3.02792 15.2965 3.46975 16.917 4.1935L16.9432 4.00998C16.9541 3.93154 16.9928 3.85966 17.0526 3.80768C17.1123 3.75561 17.1887 3.72702 17.2679 3.72702H18.7702C18.8493 3.72702 18.9258 3.7557 18.9854 3.80768C19.0451 3.85975 19.084 3.93154 19.0948 4.00998L19.2498 5.13544C19.5952 5.23232 19.9278 5.37017 20.2405 5.5461L21.1456 4.8593C21.2087 4.81141 21.2871 4.78802 21.366 4.7934C21.4451 4.79878 21.5194 4.83266 21.5754 4.88866L22.6377 5.95094C22.6935 6.00694 22.7272 6.0812 22.7326 6.16007C22.738 6.23894 22.7147 6.31713 22.6671 6.38021L21.9809 7.28594V7.28586C22.1565 7.59854 22.2944 7.93099 22.3914 8.27627L23.5166 8.43128C23.5953 8.44212 23.6674 8.48113 23.7194 8.54105C23.7715 8.60106 23.8001 8.6778 23.7999 8.75718L23.8 8.75723ZM0.855532 5.6877C0.855532 6.01701 1.4626 6.56383 3.17379 7.02007V7.01999C5.17109 7.4957 7.21988 7.72121 9.27286 7.69134C10.8717 7.70056 12.4682 7.57244 14.0453 7.3085C14.0495 7.30116 14.0534 7.29356 14.0573 7.28622L13.37 6.38022C13.3221 6.31714 13.2988 6.23887 13.3041 6.15982C13.3095 6.08078 13.3434 6.00644 13.3994 5.95044L14.4617 4.88816C14.5177 4.83216 14.592 4.79827 14.6711 4.7929C14.7501 4.78752 14.8284 4.81091 14.8915 4.85879L15.7972 5.54498C16.1098 5.36915 16.4423 5.2313 16.7876 5.13441L16.8238 4.87219C15.353 4.14714 12.4215 3.68271 9.27311 3.68271H9.27303C7.21998 3.65309 5.17122 3.87878 3.17375 4.35456C1.46249 4.81157 0.855485 5.35752 0.855485 5.6877L0.855532 5.6877ZM12.2373 10.2595V8.75723C12.2373 8.6781 12.266 8.60162 12.3179 8.54187C12.3699 8.48212 12.4418 8.44328 12.5202 8.43235L13.6457 8.27734C13.6693 8.19326 13.6955 8.10995 13.7244 8.0274L13.7243 8.02749C12.2508 8.24651 10.7625 8.35321 9.27288 8.34689C7.16315 8.37634 5.05788 8.14314 3.00577 7.65275C2.24028 7.48067 1.51191 7.17227 0.855595 6.74231V10.465C0.896993 11.2954 4.11917 12.4539 9.27292 12.4539V12.454C10.7754 12.4607 12.276 12.3488 13.7608 12.1194L14.0564 11.7295C13.8805 11.4168 13.7427 11.0842 13.6458 10.7388L12.5203 10.5838C12.442 10.573 12.3702 10.5342 12.3181 10.4746C12.2661 10.415 12.2374 10.3386 12.2374 10.2595L12.2373 10.2595ZM0.855532 15.2262V15.232V15.232C0.856556 15.2478 0.858776 15.2635 0.862105 15.2789C0.937646 15.6282 1.62827 16.1553 3.3401 16.5876V16.5877C5.28577 17.0307 7.27693 17.2418 9.27244 17.217C14.3071 17.217 17.4883 16.1157 17.6804 15.2904H17.2676C17.1883 15.2905 17.1119 15.2619 17.0522 15.2098C16.9924 15.1577 16.9537 15.0858 16.9429 15.0073L16.7877 13.8821H16.7878C16.4424 13.7851 16.1099 13.6471 15.7973 13.4712L14.8916 14.1576C14.8284 14.2054 14.7502 14.2288 14.6712 14.2235C14.5923 14.218 14.5178 14.1843 14.4618 14.1283L13.3995 13.066V13.0661C13.3424 13.0086 13.3084 12.932 13.3044 12.8511C11.968 13.0275 10.6212 13.1141 9.27314 13.1104C7.1769 13.1389 5.08502 12.9094 3.04494 12.427C2.26697 12.2497 1.52606 11.9377 0.855602 11.5051L0.855532 15.2262ZM17.6902 19.974V16.2675C17.0232 16.6979 16.2861 17.0085 15.5122 17.1853C13.4686 17.6698 11.373 17.9004 9.27281 17.8717C5.85759 17.8717 2.29028 17.3231 0.855488 16.2653V19.9738C0.855488 20.3031 1.46255 20.8499 3.17375 21.3062C5.17105 21.7819 7.21983 22.0076 9.27281 21.978C11.326 22.0077 13.3748 21.782 15.3723 21.3062C17.0836 20.8499 17.6901 20.304 17.6901 19.9738L17.6902 19.974ZM23.1444 9.04283L22.0835 8.89755C22.0174 8.88851 21.9557 8.85948 21.9065 8.81441C21.8574 8.76934 21.8231 8.71036 21.8084 8.64532C21.7118 8.21785 21.5429 7.81008 21.3088 7.43962C21.2733 7.38311 21.2558 7.31722 21.2587 7.25064C21.2616 7.18397 21.2848 7.11987 21.3251 7.06669L21.972 6.21294L21.3138 5.55474L20.46 6.20192C20.4069 6.24213 20.3427 6.26526 20.2761 6.26808C20.2095 6.27098 20.1435 6.25348 20.0872 6.21789C19.7167 5.98468 19.3092 5.81618 18.8823 5.71964C18.8172 5.70487 18.7583 5.67065 18.7132 5.62148C18.6682 5.57231 18.6392 5.51068 18.6299 5.44461L18.4839 4.38395H17.553L17.4069 5.44488H17.407C17.3979 5.51094 17.3688 5.57257 17.3238 5.62174C17.2787 5.67082 17.2197 5.70497 17.1547 5.71965C16.7277 5.81619 16.3202 5.98469 15.9498 6.21789C15.8935 6.25357 15.8276 6.27107 15.761 6.26825C15.6943 6.26535 15.6302 6.24222 15.5772 6.20193L14.7231 5.55474L14.0649 6.21294L14.712 7.06704L14.7121 7.06696C14.7522 7.12014 14.7752 7.18433 14.7779 7.25099C14.7806 7.31757 14.7628 7.38338 14.7271 7.43963C14.4938 7.81009 14.3253 8.21752 14.2288 8.64457C14.2142 8.7097 14.1801 8.76893 14.1309 8.81417C14.0817 8.85933 14.0199 8.88852 13.9537 8.89757L12.8928 9.04362V9.97267L13.9537 10.1187C14.0198 10.1279 14.0814 10.157 14.1305 10.202C14.1796 10.2471 14.2138 10.306 14.2286 10.371C14.3253 10.7985 14.4942 11.2064 14.7281 11.5772C14.7637 11.6336 14.7812 11.6995 14.7783 11.7661C14.7754 11.8326 14.7523 11.8967 14.7121 11.9498L14.0649 12.8047L14.7231 13.4629L15.5772 12.8157H15.5771C15.6303 12.7755 15.6944 12.7525 15.761 12.7496C15.8275 12.7467 15.8934 12.7642 15.9498 12.7997C16.3205 13.0336 16.7285 13.2026 17.156 13.2995C17.221 13.3143 17.2799 13.3485 17.3249 13.3976C17.3699 13.4467 17.3989 13.5083 17.408 13.5743L17.554 14.6352H18.485L18.6313 13.5743C18.6403 13.5083 18.6693 13.4466 18.7143 13.3974C18.7593 13.3483 18.8183 13.314 18.8833 13.2993C19.3102 13.2027 19.7177 13.0342 20.0882 12.801C20.1446 12.7655 20.2105 12.748 20.2771 12.7508C20.3438 12.7537 20.4079 12.7768 20.461 12.817L21.3148 13.4642L21.9722 12.8047L21.325 11.9498C21.2847 11.8967 21.2616 11.8325 21.2587 11.766C21.2558 11.6993 21.2733 11.6334 21.3088 11.577C21.5429 11.2063 21.7118 10.7983 21.8083 10.3707C21.8231 10.3057 21.8573 10.2467 21.9065 10.2017C21.9557 10.1566 22.0174 10.1276 22.0834 10.1184L23.1444 9.97265L23.1444 9.04283Z" fill="white" stroke="white" stroke-width="0.3"/>
</svg>
