<svg width="24" height="24" viewBox="0 0 24 24" fill="none" xmlns="http://www.w3.org/2000/svg">
<g clip-path="url(#clip0_2745_1668)">
<path d="M23.018 0.778479C22.8781 0.720745 22.7165 0.752229 22.6092 0.859885L18.7494 4.71968V1.87488C18.7494 1.66784 18.5817 1.49988 18.3744 1.49988H2.99939C1.75853 1.49988 0.74939 2.50902 0.74939 3.74988V20.9999C0.74939 22.2407 1.75853 23.2499 2.99939 23.2499H18.3744C18.5817 23.2499 18.7494 23.0819 18.7494 22.8749V12.5301L20.5036 10.7759C22.2744 9.00508 23.2494 6.65086 23.2494 4.14686V1.12466C23.2494 0.973181 23.1583 0.836305 23.018 0.778185L23.018 0.778479ZM17.9994 22.5005H2.99935C2.17209 22.5005 1.49935 21.8277 1.49935 21.0005C1.49935 20.1732 2.17209 19.5005 2.99935 19.5005H17.9994V22.5005ZM17.9994 18.7505H2.99935C2.42263 18.7505 1.89795 18.9702 1.49935 19.328V3.75038C1.49935 2.92312 2.17209 2.25038 2.99935 2.25038H17.9994V5.47018L12.8592 10.6102C12.7887 10.6803 12.7493 10.776 12.7493 10.8753V14.0951L10.6091 16.2353L11.1393 16.7656L13.2795 14.6254H16.4993C16.5991 14.6254 16.6943 14.586 16.7645 14.5155L17.9993 13.2806L17.9994 18.7505ZM22.4993 4.14768C22.4993 6.45168 21.602 8.61728 19.9734 10.2463L16.3442 13.8755H14.0296L20.1394 7.76568L19.6091 7.23544L13.4993 13.3452V11.0306L22.4993 2.03064L22.4993 4.14768Z" fill="white"/>
<path d="M9.75 10.875C11.8178 10.875 13.5 9.19274 13.5 7.125C13.5 5.05726 11.8177 3.375 9.75 3.375C7.68226 3.375 6 5.05726 6 7.125C6 9.19274 7.68226 10.875 9.75 10.875ZM7.9054 9.48602C8.03517 8.57142 8.80916 7.875 9.75 7.875C10.6908 7.875 11.4648 8.5714 11.5946 9.48602C11.085 9.885 10.4456 10.125 9.75 10.125C9.05438 10.125 8.415 9.885 7.9054 9.48602ZM9 6.37502C9 5.96142 9.3364 5.62502 9.75 5.62502C10.1636 5.62502 10.5 5.96142 10.5 6.37502C10.5 6.78862 10.1636 7.12502 9.75 7.12502C9.3364 7.12502 9 6.78862 9 6.37502ZM9.75 4.12502C11.4041 4.12502 12.75 5.47088 12.75 7.12502C12.75 7.76212 12.549 8.35236 12.2089 8.83878C11.9693 8.18854 11.4806 7.66424 10.8608 7.37402C11.1 7.10816 11.25 6.7602 11.25 6.37504C11.25 5.54778 10.5773 4.87504 9.75 4.87504C8.92274 4.87504 8.25 5.54778 8.25 6.37504C8.25 6.7602 8.4 7.10816 8.63922 7.37402C8.01938 7.66426 7.5307 8.18856 7.2911 8.83878C6.95102 8.35238 6.75 7.76214 6.75 7.12502C6.75 5.47088 8.09586 4.12502 9.75 4.12502Z" fill="white"/>
<path d="M6.375 16.125H10.125V16.875H6.375V16.125Z" fill="white"/>
<path d="M6.375 14.25H11.25V15H6.375V14.25Z" fill="white"/>
<path d="M6.375 12.375H12V13.125H6.375V12.375Z" fill="white"/>
</g>
<defs>
<clipPath id="clip0_2745_1668">
<rect width="24" height="24" fill="white"/>
</clipPath>
</defs>
</svg>
