<svg width="24" height="24" viewBox="0 0 24 24" fill="none" xmlns="http://www.w3.org/2000/svg">
<g clip-path="url(#clip0_2747_1679)">
<path d="M23.4452 12.4082L23.6816 12.107C24.0984 11.5766 24.1068 10.829 23.702 10.2894C23.456 9.96143 23.0812 9.74744 22.674 9.70185C22.268 9.65743 21.8544 9.78268 21.5416 10.0483L20.1784 11.2067C20.154 11.1667 20.1296 11.1267 20.102 11.0895C19.856 10.7615 19.4811 10.5475 19.074 10.5019C18.6671 10.4571 18.2539 10.5828 17.9415 10.8483L15.3414 13.0583C15.173 13.2011 15.1526 13.4539 15.2958 13.6219C15.375 13.7151 15.4874 13.7631 15.6006 13.7631C15.6922 13.7631 15.7842 13.7319 15.8595 13.6679L18.4596 11.4579C18.6065 11.3331 18.7932 11.2755 18.9848 11.2975C19.1764 11.3191 19.346 11.4159 19.462 11.5704C19.5008 11.6219 19.5291 11.6795 19.5511 11.7404L15.009 15.6007H14.9506C15.059 15.3718 15.1046 15.1147 15.079 14.8571C15.0082 14.1522 14.371 13.6006 13.6286 13.6006H10.9405C9.60969 13.6006 8.51449 13.8518 7.49283 14.3915L6.65766 14.8351C3.63406 16.4331 1.27947 19.0679 0.0278314 22.2542C-0.0530036 22.4598 0.0482482 22.6922 0.253839 22.7727C0.30184 22.7918 0.351423 22.8007 0.400258 22.8007C0.559843 22.8007 0.710682 22.7043 0.772678 22.5467C1.95428 19.5382 4.17709 17.0507 7.03194 15.5418L7.86711 15.0982C8.76837 14.6222 9.74521 14.4006 10.9404 14.4006H13.6284C13.9653 14.4006 14.2525 14.6358 14.2825 14.9366C14.2996 15.1102 14.246 15.2758 14.1309 15.403C14.0156 15.5306 13.8573 15.6006 13.6844 15.6006H10.2852C10.0643 15.6006 9.88515 15.7798 9.88515 16.0006C9.88515 16.2215 10.0643 16.4006 10.2852 16.4006H17.8844C17.978 16.4006 18.0684 16.3678 18.1404 16.3078L22.0585 13.0414C22.3241 12.823 22.7101 12.8146 22.9373 13.023C23.0722 13.1474 23.1485 13.3138 23.1518 13.4914C23.1549 13.6674 23.0878 13.8326 22.9613 13.9578L21.0253 15.8939C20.8689 16.0503 20.8689 16.303 21.0253 16.4595C21.1817 16.6159 21.4345 16.6159 21.5909 16.4595L23.5254 14.525C23.8034 14.2499 23.9585 13.8678 23.9514 13.4766C23.9442 13.0782 23.7762 12.7081 23.4782 12.4337C23.4681 12.4242 23.4559 12.4178 23.4452 12.4082ZM21.5487 12.4254L17.7398 15.6007H16.2443L22.0602 10.6575C22.207 10.5327 22.3934 10.4755 22.5854 10.4971C22.777 10.5187 22.9466 10.6155 23.0622 10.77C23.2502 11.0204 23.2462 11.3671 23.0531 11.6135L22.6822 12.0856C22.2915 12.0439 21.8792 12.1534 21.5487 12.4254Z" fill="white"/>
<path d="M19.8929 17.0248L19.2529 17.6648C18.5077 18.41 17.5229 18.8952 16.48 19.0308L10.6596 19.7908C9.51271 19.9417 8.53354 20.7017 8.10465 21.774L7.91265 22.25C7.82982 22.4548 7.92907 22.688 8.13382 22.7704C8.18273 22.7905 8.23357 22.7997 8.28315 22.7997C8.44157 22.7997 8.59157 22.7049 8.65431 22.5493L8.84673 22.0724C9.16874 21.2676 9.90317 20.6972 10.7632 20.5844L16.5832 19.8244C17.8 19.666 18.9493 19.1 19.8184 18.2308L20.4584 17.5908C20.6148 17.4344 20.6148 17.1816 20.4584 17.0252C20.3021 16.8688 20.0494 16.8685 19.8929 17.0248Z" fill="white"/>
<path d="M7.59644 8.87147C7.75286 9.02789 8.00562 9.02789 8.16203 8.87147C8.31845 8.71505 8.31845 8.46229 8.16203 8.30587L6.85759 7.00143C6.30442 6.44785 5.99958 5.71225 5.99958 4.92941C5.99958 4.14658 6.30441 3.41098 6.858 2.85739C7.41158 2.30381 8.14719 1.99938 8.92959 1.99938C9.712 1.99938 10.448 2.30421 11.0016 2.8578L11.7168 3.57296C11.8732 3.72938 12.126 3.72938 12.2824 3.57296L12.9975 2.8578C13.5512 2.30421 14.2868 1.99938 15.0696 1.99938C15.8525 1.99938 16.5881 2.30421 17.1417 2.8578C17.6953 3.41138 17.9997 4.14698 17.9997 4.92939C17.9997 5.7118 17.6949 6.44783 17.1413 7.00141L12.894 11.2487C12.4164 11.7263 11.5828 11.7263 11.1048 11.2487L9.29318 9.43711C9.13677 9.28069 8.88401 9.28069 8.72759 9.43711C8.57117 9.59353 8.57117 9.84629 8.72759 10.0027L10.5392 11.8143C10.9292 12.2043 11.4476 12.4192 11.9992 12.4192C12.5508 12.4192 13.0692 12.2043 13.4592 11.8143L17.7065 7.56701C18.4117 6.86257 18.7997 5.92582 18.7997 4.92933C18.7997 3.93284 18.4117 2.99614 17.7073 2.29165C17.0025 1.58721 16.0661 1.19922 15.0696 1.19922C14.0731 1.19922 13.1364 1.58723 12.4319 2.29165L11.9995 2.72408L11.5671 2.29165C10.8626 1.58721 9.92587 1.19922 8.92938 1.19922C7.93289 1.19922 6.9962 1.58723 6.2917 2.29165C5.58727 2.9964 5.19927 3.93284 5.19927 4.92933C5.19927 5.92582 5.58729 6.86251 6.2917 7.56701L7.59644 8.87147Z" fill="white"/>
<path d="M12.7997 4.39925H11.1997C10.9789 4.39925 10.7997 4.57842 10.7997 4.79926V5.59926H9.99971C9.77887 5.59926 9.59971 5.77843 9.59971 5.99927V7.59929C9.59971 7.82013 9.77888 7.99929 9.99971 7.99929H10.7997V8.7993C10.7997 9.02014 10.9789 9.1993 11.1997 9.1993H12.7997C13.0206 9.1993 13.1997 9.02014 13.1997 8.7993V7.99929H13.9998C14.2206 7.99929 14.3998 7.82012 14.3998 7.59929V5.99927C14.3998 5.77842 14.2206 5.59926 13.9998 5.59926H13.1997V4.79926C13.1997 4.57841 13.0206 4.39925 12.7997 4.39925ZM13.5998 6.39927V7.19928H12.7997C12.5789 7.19928 12.3997 7.37845 12.3997 7.59929V8.39929H11.5997V7.59929C11.5997 7.37844 11.4206 7.19928 11.1997 7.19928H10.3997V6.39927H11.1997C11.4206 6.39927 11.5997 6.22011 11.5997 5.99927V5.19926H12.3997V5.99927C12.3997 6.22011 12.5789 6.39927 12.7997 6.39927H13.5998Z" fill="white"/>
<path d="M23.4452 12.4082L23.6816 12.107C24.0984 11.5766 24.1068 10.829 23.702 10.2894C23.456 9.96143 23.0812 9.74744 22.674 9.70185C22.268 9.65743 21.8544 9.78268 21.5416 10.0483L20.1784 11.2067C20.154 11.1667 20.1296 11.1267 20.102 11.0895C19.856 10.7615 19.4811 10.5475 19.074 10.5019C18.6671 10.4571 18.2539 10.5828 17.9415 10.8483L15.3414 13.0583C15.173 13.2011 15.1526 13.4539 15.2958 13.6219C15.375 13.7151 15.4874 13.7631 15.6006 13.7631C15.6922 13.7631 15.7842 13.7319 15.8595 13.6679L18.4596 11.4579C18.6065 11.3331 18.7932 11.2755 18.9848 11.2975C19.1764 11.3191 19.346 11.4159 19.462 11.5704C19.5008 11.6219 19.5291 11.6795 19.5511 11.7404L15.009 15.6007H14.9506C15.059 15.3718 15.1046 15.1147 15.079 14.8571C15.0082 14.1522 14.371 13.6006 13.6286 13.6006H10.9405C9.60969 13.6006 8.51449 13.8518 7.49283 14.3915L6.65766 14.8351C3.63406 16.4331 1.27947 19.0679 0.0278314 22.2542C-0.0530036 22.4598 0.0482482 22.6922 0.253839 22.7727C0.30184 22.7918 0.351423 22.8007 0.400258 22.8007C0.559843 22.8007 0.710682 22.7043 0.772678 22.5467C1.95428 19.5382 4.17709 17.0507 7.03194 15.5418L7.86711 15.0982C8.76837 14.6222 9.74521 14.4006 10.9404 14.4006H13.6284C13.9653 14.4006 14.2525 14.6358 14.2825 14.9366C14.2996 15.1102 14.246 15.2758 14.1309 15.403C14.0156 15.5306 13.8573 15.6006 13.6844 15.6006H10.2852C10.0643 15.6006 9.88515 15.7798 9.88515 16.0006C9.88515 16.2215 10.0643 16.4006 10.2852 16.4006H17.8844C17.978 16.4006 18.0684 16.3678 18.1404 16.3078L22.0585 13.0414C22.3241 12.823 22.7101 12.8146 22.9373 13.023C23.0722 13.1474 23.1485 13.3138 23.1518 13.4914C23.1549 13.6674 23.0878 13.8326 22.9613 13.9578L21.0253 15.8939C20.8689 16.0503 20.8689 16.303 21.0253 16.4595C21.1817 16.6159 21.4345 16.6159 21.5909 16.4595L23.5254 14.525C23.8034 14.2499 23.9585 13.8678 23.9514 13.4766C23.9442 13.0782 23.7762 12.7081 23.4782 12.4337C23.4681 12.4242 23.4559 12.4178 23.4452 12.4082ZM21.5487 12.4254L17.7398 15.6007H16.2443L22.0602 10.6575C22.207 10.5327 22.3934 10.4755 22.5854 10.4971C22.777 10.5187 22.9466 10.6155 23.0622 10.77C23.2502 11.0204 23.2462 11.3671 23.0531 11.6135L22.6822 12.0856C22.2915 12.0439 21.8792 12.1534 21.5487 12.4254Z" stroke="white" stroke-width="0.2"/>
<path d="M19.8929 17.0248L19.2529 17.6648C18.5077 18.41 17.5229 18.8952 16.48 19.0308L10.6596 19.7908C9.51271 19.9417 8.53354 20.7017 8.10465 21.774L7.91265 22.25C7.82982 22.4548 7.92907 22.688 8.13382 22.7704C8.18273 22.7905 8.23357 22.7997 8.28315 22.7997C8.44157 22.7997 8.59157 22.7049 8.65431 22.5493L8.84673 22.0724C9.16874 21.2676 9.90317 20.6972 10.7632 20.5844L16.5832 19.8244C17.8 19.666 18.9493 19.1 19.8184 18.2308L20.4584 17.5908C20.6148 17.4344 20.6148 17.1816 20.4584 17.0252C20.3021 16.8688 20.0494 16.8685 19.8929 17.0248Z" stroke="white" stroke-width="0.2"/>
<path d="M7.59644 8.87147C7.75286 9.02789 8.00562 9.02789 8.16203 8.87147C8.31845 8.71505 8.31845 8.46229 8.16203 8.30587L6.85759 7.00143C6.30442 6.44785 5.99958 5.71225 5.99958 4.92941C5.99958 4.14658 6.30441 3.41098 6.858 2.85739C7.41158 2.30381 8.14719 1.99938 8.92959 1.99938C9.712 1.99938 10.448 2.30421 11.0016 2.8578L11.7168 3.57296C11.8732 3.72938 12.126 3.72938 12.2824 3.57296L12.9975 2.8578C13.5512 2.30421 14.2868 1.99938 15.0696 1.99938C15.8525 1.99938 16.5881 2.30421 17.1417 2.8578C17.6953 3.41138 17.9997 4.14698 17.9997 4.92939C17.9997 5.7118 17.6949 6.44783 17.1413 7.00141L12.894 11.2487C12.4164 11.7263 11.5828 11.7263 11.1048 11.2487L9.29318 9.43711C9.13677 9.28069 8.88401 9.28069 8.72759 9.43711C8.57117 9.59353 8.57117 9.84629 8.72759 10.0027L10.5392 11.8143C10.9292 12.2043 11.4476 12.4192 11.9992 12.4192C12.5508 12.4192 13.0692 12.2043 13.4592 11.8143L17.7065 7.56701C18.4117 6.86257 18.7997 5.92582 18.7997 4.92933C18.7997 3.93284 18.4117 2.99614 17.7073 2.29165C17.0025 1.58721 16.0661 1.19922 15.0696 1.19922C14.0731 1.19922 13.1364 1.58723 12.4319 2.29165L11.9995 2.72408L11.5671 2.29165C10.8626 1.58721 9.92587 1.19922 8.92938 1.19922C7.93289 1.19922 6.9962 1.58723 6.2917 2.29165C5.58727 2.9964 5.19927 3.93284 5.19927 4.92933C5.19927 5.92582 5.58729 6.86251 6.2917 7.56701L7.59644 8.87147Z" stroke="white" stroke-width="0.2"/>
<path d="M12.7997 4.39925H11.1997C10.9789 4.39925 10.7997 4.57842 10.7997 4.79926V5.59926H9.99971C9.77887 5.59926 9.59971 5.77843 9.59971 5.99927V7.59929C9.59971 7.82013 9.77888 7.99929 9.99971 7.99929H10.7997V8.7993C10.7997 9.02014 10.9789 9.1993 11.1997 9.1993H12.7997C13.0206 9.1993 13.1997 9.02014 13.1997 8.7993V7.99929H13.9998C14.2206 7.99929 14.3998 7.82012 14.3998 7.59929V5.99927C14.3998 5.77842 14.2206 5.59926 13.9998 5.59926H13.1997V4.79926C13.1997 4.57841 13.0206 4.39925 12.7997 4.39925ZM13.5998 6.39927V7.19928H12.7997C12.5789 7.19928 12.3997 7.37845 12.3997 7.59929V8.39929H11.5997V7.59929C11.5997 7.37844 11.4206 7.19928 11.1997 7.19928H10.3997V6.39927H11.1997C11.4206 6.39927 11.5997 6.22011 11.5997 5.99927V5.19926H12.3997V5.99927C12.3997 6.22011 12.5789 6.39927 12.7997 6.39927H13.5998Z" stroke="white" stroke-width="0.2"/>
</g>
<defs>
<clipPath id="clip0_2747_1679">
<rect width="24" height="24" fill="white"/>
</clipPath>
</defs>
</svg>
