<svg width="28" height="28" viewBox="0 0 28 28" fill="none" xmlns="http://www.w3.org/2000/svg">
<rect x="0.5" y="0.5" width="27" height="27" rx="4.5" fill="#424242"/>
<path d="M19.5257 20.5427C19.2089 20.8476 18.8283 21 18.3838 21H12.7273V19.4445H18.3838V8.55556H12.7273V7H18.3838C18.8277 6.99948 19.2081 7.15167 19.5248 7.45656C19.8416 7.76145 20 8.12778 20 8.55556V19.4445C20.0005 19.8717 19.8424 20.2378 19.5257 20.5427Z" fill="white"/>
<path d="M12.4196 16.6897L13.5 17.75L17.4286 14.0937L13.5 10.4375L12.4196 11.4978L14.4232 13.3625H8V14.825H14.4232L12.4196 16.6897Z" fill="white"/>
<rect x="0.5" y="0.5" width="27" height="27" rx="4.5" stroke="#595959"/>
</svg>
