<svg width="94" height="35" viewBox="0 0 94 35" fill="none" xmlns="http://www.w3.org/2000/svg">
<g opacity="0.2">
<path d="M27.8859 5.80375C28.5824 6.10725 29.1695 6.50882 29.6471 7.00845C28.8375 6.12014 27.8029 5.36113 26.5434 4.73143L18.1837 0.693256C15.8434 -0.321896 13.4188 -0.222164 10.9098 0.992455C7.38062 2.90488 4.34051 5.23759 1.78952 7.99059C0.0714642 9.84424 -0.409508 12.2631 0.346605 15.2473L2.24258 23.9785C2.58767 25.1125 2.91013 26.0262 3.20996 26.7195C2.62542 25.1646 3.01177 23.0486 4.36898 20.3714C4.68329 19.8471 5.00863 19.3348 5.34501 18.8345C6.67221 16.8566 8.6581 14.6746 11.3027 12.2883C12.6982 11.0287 14.0817 9.93437 15.4531 9.00544C16.9364 8.00009 18.5471 7.08958 20.2853 6.27391C20.7706 6.04573 21.2612 5.85347 21.7572 5.69711C22.1727 5.56714 22.5919 5.46217 23.015 5.38219C23.9066 5.21492 24.7724 5.16889 25.6125 5.2441C26.4396 5.31734 27.1974 5.50389 27.8859 5.80375Z" fill="url(#paint0_linear_418_4557)"/>
<path d="M28.9181 29.7973C29.3127 29.6168 29.668 29.4093 29.9841 29.1747C28.4322 29.877 26.1567 29.4202 23.1576 27.8044L5.399 19C5.06262 19.5004 4.73728 20.0127 4.42297 20.5369C3.06576 23.2141 2.67941 25.3301 3.26395 26.885C3.35555 27.0969 3.45499 27.3019 3.56228 27.5C3.56432 27.5035 3.56688 27.5079 3.56995 27.5133C4.03976 28.372 4.69347 29.1429 5.53108 29.8259C6.63755 30.7248 7.9884 31.5311 9.58362 32.2447C10.792 32.7858 12.3675 33.363 14.3103 33.9764C15.4423 34.3382 16.4232 34.5425 17.2528 34.5895C18.2127 34.6428 19.162 34.506 20.1009 34.179L28.9181 29.7973Z" fill="url(#paint1_linear_418_4557)"/>
<path d="M29.6473 7.00832C29.1697 6.50869 28.5827 6.10713 27.8862 5.80362C27.1977 5.50376 26.4399 5.31722 25.6128 5.24398C24.7727 5.16877 23.9069 5.2148 23.0153 5.38207C22.5922 5.46204 22.1729 5.56702 21.7574 5.69699C24.1486 13.3185 24.5974 20.6324 23.1039 27.6387C26.103 29.2545 28.3785 29.7113 29.9304 29.0091C31.0395 28.1807 31.7367 27.0217 32.022 25.532C32.4557 23.2923 32.5863 20.6064 32.4138 17.4744C32.2623 14.7062 31.926 12.2415 31.405 10.0802C31.3013 9.65076 31.1422 9.23198 30.9279 8.82385C30.7605 8.50325 30.5297 8.13945 30.2356 7.73244C30.0555 7.48186 29.8594 7.24048 29.6473 7.00832Z" fill="url(#paint2_linear_418_4557)"/>
<path d="M19.4887 11.1459C19.1188 11.2829 18.7882 11.4747 18.497 11.7214C18.1956 11.9783 17.9318 12.29 17.7057 12.6566C17.4796 13.0197 17.2758 13.4376 17.0943 13.9103L17.0172 11.4953L16.9144 11.2127L16.6318 11.1356H16.046V22.6353H17.1508V15.2001L17.716 13.823C17.9181 13.4222 18.1545 13.0899 18.4251 12.8261C18.706 12.5555 19.016 12.3534 19.3551 12.2198C19.7011 12.0828 20.0951 12.0143 20.537 12.0143L21.7137 12.1736C21.8164 12.1736 21.8866 12.1136 21.9243 11.9937L22.0168 11.223L21.4054 11.002L20.7065 10.9455C20.2544 10.9455 19.8484 11.0123 19.4887 11.1459ZM31.9493 12.2661C31.5417 11.8344 31.0604 11.5056 30.5054 11.2795C29.9471 11.0637 29.3442 10.9558 28.6967 10.9558C27.8849 10.9558 27.1552 11.0979 26.5078 11.3823C25.8672 11.67 25.3259 12.0657 24.884 12.5692C24.4387 13.0728 24.0996 13.6705 23.8666 14.3625C23.6268 15.0613 23.507 15.8252 23.507 16.6542C23.507 17.6305 23.6337 18.4955 23.8872 19.2491C24.1373 20.0096 24.4918 20.6536 24.9508 21.1811C25.4167 21.7053 25.9734 22.1026 26.6208 22.3733C27.2683 22.6473 27.9825 22.7843 28.7635 22.7843L30.0635 22.6559L31.2608 22.3219L32.273 21.7978C32.5813 21.6025 32.8263 21.3884 33.0078 21.1555L32.7149 20.7855L32.4786 20.6725L31.4149 21.2942L30.3564 21.7207C29.9282 21.8406 29.4281 21.9005 28.856 21.9005C28.2086 21.9005 27.6211 21.7926 27.0935 21.5768C26.5694 21.3507 26.1224 21.015 25.7524 20.5697C25.3825 20.1244 25.0964 19.5745 24.8943 18.9203C24.6991 18.266 24.6014 17.5106 24.6014 16.6542V16.4281H32.9616L33.1979 16.3357L33.2699 15.9862C33.2699 15.1812 33.1534 14.467 32.9205 13.8435C32.6773 13.2201 32.3535 12.6943 31.9493 12.2661ZM31.2813 12.8261C31.5965 13.1653 31.8414 13.5798 32.0161 14.0696C32.1874 14.5595 32.273 15.1127 32.273 15.7293H24.658C24.7265 15.1264 24.8652 14.58 25.0742 14.0902C25.2763 13.6106 25.5503 13.1978 25.8963 12.8518C26.2423 12.5058 26.6499 12.2386 27.1192 12.0502C27.5851 11.8618 28.1144 11.7676 28.707 11.7676C29.2345 11.7676 29.7158 11.8618 30.1509 12.0502C30.5894 12.2318 30.9662 12.4904 31.2813 12.8261ZM35.9316 12.7696L36.1371 13.0985L36.2707 13.2578L36.4762 13.3143C36.5961 13.3143 36.7383 13.2355 36.9027 13.0779L37.5707 12.5692L38.5521 12.0605C38.9427 11.9098 39.4171 11.8344 39.9755 11.8344C40.8696 11.8344 41.5461 12.1205 42.0051 12.6925C42.4642 13.2646 42.6937 14.0816 42.6937 15.1435V16.3511C41.392 16.3785 40.2786 16.4864 39.3537 16.6748C38.4185 16.8563 37.6581 17.1013 37.0723 17.4096C36.4797 17.7179 36.0429 18.0793 35.762 18.4938C35.4845 18.9151 35.3458 19.3673 35.3458 19.8503C35.3458 20.3744 35.4331 20.8249 35.6078 21.2017C35.7791 21.5717 36.0121 21.8765 36.3067 22.1163C36.591 22.3561 36.9181 22.5325 37.2881 22.6456C37.6546 22.7586 38.0349 22.8152 38.4288 22.8152C38.9016 22.8152 39.3332 22.7706 39.7237 22.6816C40.1142 22.5891 40.479 22.4572 40.8182 22.2859L41.7996 21.6642L42.7399 20.8317L42.9095 22.3065C42.9609 22.5257 43.103 22.6353 43.336 22.6353H43.7779V15.1435C43.7779 14.503 43.6991 13.9223 43.5415 13.4016C43.3908 12.8844 43.1613 12.4442 42.853 12.0811C42.5515 11.7145 42.1679 11.4336 41.702 11.2384C41.2429 11.0431 40.7051 10.9455 40.0885 10.9455C39.2458 10.9455 38.4922 11.0996 37.8276 11.4079C37.1665 11.7162 36.5345 12.1701 35.9316 12.7696ZM36.7794 18.7096C37.026 18.391 37.4063 18.1152 37.9201 17.8823C38.4305 17.6494 39.0814 17.4661 39.8727 17.3325C40.6606 17.2023 41.6009 17.115 42.6937 17.0704V20.0867L41.8818 20.8523L40.9775 21.474C40.6623 21.6453 40.3163 21.7806 39.9395 21.88C39.5627 21.9759 39.1533 22.0238 38.7114 22.0238L37.8379 21.8902C37.5604 21.808 37.3172 21.6761 37.1083 21.4946C36.8959 21.313 36.7263 21.0835 36.5996 20.806C36.4728 20.5217 36.4094 20.1877 36.4094 19.8041C36.4094 19.3964 36.5328 19.0316 36.7794 18.7096ZM48.6491 5.81738H47.5443V22.6353H48.6491V5.81738Z" fill="black"/>
<path d="M58.8694 11.1356H57.775V22.6353H58.8694V11.1356ZM53.7516 5.81738H52.6469V22.6353H53.7516V5.81738ZM59.2651 6.77826L59.039 6.43913L58.7101 6.22845L58.3196 6.14624L57.9342 6.22845L57.6054 6.43913L57.3793 6.77826L57.3022 7.17392L57.3793 7.55929L57.6054 7.87274L57.9342 8.09883L58.3196 8.1759L58.7101 8.09883L59.039 7.87274L59.2651 7.55929L59.3422 7.17392L59.2651 6.77826ZM70.9498 11.2127L70.8008 11.4182L66.9881 20.4926L66.6952 21.4946L66.4126 20.4926L62.6205 11.4182L62.4714 11.223L62.2145 11.1356H61.3461L66.1968 22.6353H67.1679L72.0237 11.1356H71.1861L70.9498 11.2127ZM82.1155 12.2661C81.7078 11.8344 81.2265 11.5056 80.6716 11.2795C80.1132 11.0637 79.5103 10.9558 78.8629 10.9558C78.051 10.9558 77.3214 11.0979 76.6739 11.3823C76.0333 11.67 75.4921 12.0657 75.0502 12.5692C74.6049 13.0728 74.2657 13.6705 74.0328 14.3625C73.793 15.0613 73.6731 15.8252 73.6731 16.6542C73.6731 17.6305 73.7999 18.4955 74.0534 19.2491C74.3034 20.0096 74.658 20.6536 75.117 21.1811C75.5829 21.7053 76.1395 22.1026 76.787 22.3733C77.4344 22.6473 78.1486 22.7843 78.9297 22.7843L80.2297 22.6559L81.4269 22.3219L82.4392 21.7978C82.7475 21.6025 82.9924 21.3884 83.174 21.1555L82.8811 20.7855L82.6447 20.6725L81.5811 21.2942L80.5226 21.7207C80.0944 21.8406 79.5942 21.9005 79.0222 21.9005C78.3747 21.9005 77.7873 21.7926 77.2597 21.5768C76.7356 21.3507 76.2886 21.015 75.9186 20.5697C75.5486 20.1244 75.2626 19.5745 75.0605 18.9203C74.8652 18.266 74.7676 17.5106 74.7676 16.6542V16.4281H83.1277L83.3641 16.3357L83.4361 15.9862C83.4361 15.1812 83.3196 14.467 83.0866 13.8435C82.8434 13.2201 82.5197 12.6943 82.1155 12.2661ZM81.4475 12.8261C81.7626 13.1653 82.0076 13.5798 82.1823 14.0696C82.3536 14.5595 82.4392 15.1127 82.4392 15.7293H74.8241C74.8926 15.1264 75.0314 14.58 75.2403 14.0902C75.4424 13.6106 75.7165 13.1978 76.0625 12.8518C76.4085 12.5058 76.8161 12.2386 77.2854 12.0502C77.7513 11.8618 78.2805 11.7676 78.8732 11.7676C79.4007 11.7676 79.882 11.8618 80.317 12.0502C80.7555 12.2318 81.1323 12.4904 81.4475 12.8261ZM87.6187 12.4459C87.8585 12.2404 88.1514 12.0776 88.4974 11.9578C88.8365 11.8379 89.2167 11.7779 89.6381 11.7779C90.0971 11.7779 90.4876 11.8276 90.8096 11.9269L91.6266 12.2506L92.1559 12.5795L92.4796 12.7131C92.5927 12.7131 92.68 12.6617 92.7417 12.5589L92.978 12.1736C92.5258 11.7591 92.0291 11.4508 91.4879 11.2487C90.9467 11.0534 90.3266 10.9558 89.6278 10.9558C89.0386 10.9558 88.5076 11.038 88.0349 11.2024C87.569 11.3771 87.1699 11.6066 86.8377 11.891C86.5157 12.1787 86.2639 12.5093 86.0823 12.8827C85.911 13.2595 85.8254 13.6517 85.8254 14.0593C85.8254 14.5389 85.9145 14.938 86.0926 15.2566C86.281 15.5786 86.5259 15.8492 86.8274 16.0685C87.1288 16.2945 87.468 16.483 87.8448 16.6337L90.193 17.3993L91.2156 17.8515C91.517 18.0296 91.7585 18.2437 91.9401 18.4938C92.1285 18.7507 92.2227 19.071 92.2227 19.4547C92.2227 19.8006 92.1593 20.1312 92.0326 20.4464C91.9024 20.7547 91.714 21.0253 91.4673 21.2582C91.2241 21.4912 90.9193 21.6761 90.5527 21.8132C90.1759 21.9468 89.746 22.0136 89.263 22.0136C88.7457 22.0136 88.3141 21.9502 87.9681 21.8234L87.074 21.4278L86.5139 21.0321C86.3701 20.9054 86.245 20.842 86.1388 20.842L85.9384 20.8883L85.81 21.0321L85.5531 21.4175C86.0189 21.8389 86.5413 22.1763 87.1203 22.4298C87.706 22.6867 88.4066 22.8152 89.2219 22.8152C89.8693 22.8152 90.4414 22.7244 90.9381 22.5428C91.4417 22.3578 91.863 22.1061 92.2021 21.7875C92.5481 21.4723 92.8102 21.1006 92.9883 20.6725C93.163 20.2443 93.2504 19.7767 93.2504 19.2697C93.2504 18.8141 93.1596 18.4236 92.978 18.0981C92.7896 17.7761 92.5481 17.5021 92.2535 17.276C91.9555 17.0499 91.6146 16.8615 91.231 16.7108L88.8827 15.9297L87.8551 15.493C87.5605 15.3251 87.319 15.1213 87.1305 14.8815C86.9524 14.6417 86.8633 14.3402 86.8633 13.9771C86.8633 13.686 86.9267 13.4085 87.0535 13.1447C87.1905 12.8741 87.3789 12.6412 87.6187 12.4459Z" fill="#10DCF6"/>
<path d="M42.425 27.1519C41.8598 27.1519 41.4111 27.342 41.0788 27.7222C40.7431 28.0991 40.5752 28.6078 40.5752 29.2483C40.5752 29.8444 40.7345 30.3205 41.0531 30.6768C41.3682 31.0296 41.7964 31.2061 42.3377 31.2061C42.9851 31.2061 43.4613 31.0057 43.7662 30.6049C44.0745 30.2041 44.2286 29.6988 44.2286 29.089C44.2286 28.4519 44.0539 27.9689 43.7045 27.64C43.3551 27.3146 42.9286 27.1519 42.425 27.1519ZM41.531 28.159C41.7125 27.861 42.0037 27.712 42.4045 27.712C42.8567 27.712 43.1752 27.8867 43.3602 28.2361C43.4767 28.4587 43.5349 28.7482 43.5349 29.1045C43.5349 29.495 43.4544 29.8512 43.2934 30.1732C43.129 30.4953 42.831 30.6563 42.3993 30.6563C42.002 30.6563 41.7125 30.5209 41.531 30.2503C41.3494 29.9797 41.2586 29.6423 41.2586 29.2381C41.2586 28.8167 41.3494 28.457 41.531 28.159ZM39.5424 27.2598L38.4788 30.3634L37.4202 27.2598H36.67L38.1293 31.1855L37.8313 31.8638L37.6823 32.0128C37.6241 32.0505 37.535 32.0693 37.4151 32.0693L37.2764 32.059L37.0246 32.0025V32.5831L37.2096 32.6243L37.4254 32.6345C37.8091 32.6345 38.0797 32.5283 38.2373 32.316C38.3948 32.1001 38.6654 31.5058 39.0491 30.5329L40.2772 27.2598H39.5424ZM48.1492 27.2598H47.4863V29.1353C47.4863 29.5053 47.4435 29.7981 47.3579 30.014C47.1935 30.4113 46.8869 30.61 46.4381 30.61C46.123 30.61 45.9089 30.4953 45.7958 30.2657C45.7342 30.1424 45.7033 29.9848 45.7033 29.793V27.2598H45.0251V29.8495C45.0251 30.175 45.0782 30.4353 45.1843 30.6306C45.3865 30.9937 45.7633 31.1752 46.3148 31.1752C46.6711 31.1752 46.9725 31.0759 47.2191 30.8772C47.3459 30.7779 47.4504 30.6563 47.5326 30.5124L47.5274 31.0725H48.1492V27.2598ZM60.471 27.3677C60.2107 27.2409 59.9418 27.1776 59.6643 27.1776C59.1094 27.1776 58.6623 27.3677 58.3232 27.7479C57.9806 28.1316 57.8094 28.6283 57.8094 29.2381C57.8094 29.8615 57.9789 30.3462 58.3181 30.6922C58.6572 31.0348 59.07 31.2061 59.5564 31.2061C59.7585 31.2061 59.9384 31.1872 60.0959 31.1495C60.3905 31.0845 60.6372 30.956 60.8359 30.7642C60.9558 30.658 61.0654 30.5192 61.1647 30.3479C61.2606 30.1732 61.3172 30.0157 61.3343 29.8752H60.6817C60.6372 30.0431 60.5567 30.1938 60.4402 30.3274C60.2347 30.5466 59.9606 30.6563 59.6181 30.6563C59.2481 30.6563 58.9758 30.5381 58.8011 30.3017C58.6264 30.0688 58.5322 29.7587 58.5185 29.3717H61.3908C61.3908 28.988 61.3703 28.7071 61.3291 28.529C61.2846 28.2755 61.1973 28.0528 61.0671 27.861C60.9301 27.6589 60.7314 27.4944 60.471 27.3677ZM59.6232 27.7325C60.0411 27.7325 60.3409 27.8867 60.5224 28.195C60.6183 28.3628 60.68 28.5855 60.7074 28.863H58.5339C58.5476 28.5341 58.6555 28.2652 58.8576 28.0562C59.0631 27.8404 59.3183 27.7325 59.6232 27.7325ZM53.7911 28.3337C53.7911 28.4433 53.7774 28.5255 53.75 28.5803C53.6986 28.6865 53.5959 28.7482 53.4417 28.7653L52.3832 28.8938C52.0133 28.9383 51.7135 29.0582 51.484 29.2535C51.2579 29.4487 51.1449 29.7211 51.1449 30.0705C51.1449 30.3959 51.2613 30.6665 51.4943 30.8823C51.7238 31.0947 52.0218 31.2009 52.3884 31.2009C52.6932 31.2009 52.9724 31.1375 53.2259 31.0108C53.4794 30.8875 53.673 30.7402 53.8066 30.5689C53.8305 30.7196 53.8682 30.8361 53.9196 30.9183C54.0258 31.0759 54.1919 31.1547 54.418 31.1547L54.639 31.1444L54.8753 31.0879V30.6151L54.7572 30.6357L54.6595 30.6408C54.567 30.6408 54.5071 30.6203 54.4797 30.5792C54.4523 30.5381 54.4386 30.485 54.4386 30.4199V28.2207C54.4386 27.861 54.2947 27.5955 54.007 27.4242C53.7158 27.2529 53.339 27.1673 52.8765 27.1673C52.4791 27.1673 52.128 27.2598 51.8231 27.4448C51.5217 27.6297 51.3641 27.9569 51.3504 28.4262H51.967C51.9944 28.2309 52.0475 28.0819 52.1263 27.9792C52.2736 27.801 52.5202 27.712 52.8662 27.712C53.1608 27.712 53.3903 27.7616 53.5548 27.861C53.7123 27.9569 53.7911 28.1145 53.7911 28.3337ZM53.4623 29.2586C53.589 29.2278 53.6935 29.1867 53.7757 29.1353V29.6491C53.7757 30.0431 53.5907 30.3257 53.2208 30.497C53.0015 30.6032 52.7755 30.6563 52.5425 30.6563C52.3507 30.6563 52.1845 30.6032 52.0441 30.497C51.9071 30.3908 51.8386 30.2452 51.8386 30.0602C51.8386 29.817 51.9413 29.6389 52.1469 29.5258C52.2668 29.4607 52.4466 29.4128 52.6864 29.3819L53.4623 29.2586ZM56.5505 27.455C56.3483 27.6366 56.2216 27.7907 56.1702 27.9175V27.2598H55.5382V31.0725H56.201V28.8784C56.201 28.6078 56.2918 28.3697 56.4734 28.1641C56.6515 27.9552 56.9067 27.8507 57.239 27.8507L57.4599 27.8712V27.193L57.3058 27.1776C57.2887 27.1776 57.2681 27.1776 57.2441 27.1776C56.9804 27.1776 56.7491 27.2701 56.5505 27.455ZM64.4481 26.1961V27.2598H63.9138V27.7839H64.4481V30.3068C64.4481 30.5501 64.5047 30.7487 64.6177 30.9029C64.7273 31.057 64.9363 31.1341 65.2446 31.1341L65.5169 31.1187L65.7533 31.0725V30.5638L65.5169 30.5792C65.397 30.5792 65.3114 30.5655 65.26 30.5381C65.1675 30.4935 65.1213 30.4045 65.1213 30.2709V27.7839H65.7533V27.2598H65.1213V26.1961H64.4481ZM67.079 25.8262H66.4161V31.0725H67.079V29.0531C67.079 28.5427 67.1903 28.1967 67.413 28.0151C67.6357 27.8336 67.884 27.7428 68.1581 27.7428C68.4903 27.7428 68.7164 27.8473 68.8363 28.0562C68.9117 28.1864 68.9494 28.3919 68.9494 28.6728V31.0725H69.6328V28.6266C69.6328 28.2532 69.5763 27.9603 69.4632 27.7479C69.2611 27.3608 68.874 27.1673 68.3019 27.1673C67.9834 27.1673 67.7162 27.2358 67.5003 27.3728C67.377 27.4516 67.2366 27.5869 67.079 27.7788V25.8262ZM73.0447 27.3677C72.7843 27.2409 72.5154 27.1776 72.2379 27.1776C71.683 27.1776 71.236 27.3677 70.8968 27.7479C70.5543 28.1316 70.383 28.6283 70.383 29.2381C70.383 29.8615 70.5525 30.3462 70.8917 30.6922C71.2308 31.0348 71.6436 31.2061 72.13 31.2061C72.3321 31.2061 72.512 31.1872 72.6696 31.1495C72.9642 31.0845 73.2108 30.956 73.4095 30.7642C73.5294 30.658 73.639 30.5192 73.7383 30.3479C73.8343 30.1732 73.8908 30.0157 73.9079 29.8752H73.2553C73.2108 30.0431 73.1303 30.1938 73.0138 30.3274C72.8083 30.5466 72.5342 30.6563 72.1917 30.6563C71.8217 30.6563 71.5494 30.5381 71.3747 30.3017C71.2 30.0688 71.1058 29.7587 71.0921 29.3717H73.9644C73.9644 28.988 73.9439 28.7071 73.9028 28.529C73.8582 28.2755 73.7709 28.0528 73.6407 27.861C73.5037 27.6589 73.305 27.4944 73.0447 27.3677ZM72.1968 27.7325C72.6147 27.7325 72.9145 27.8867 73.096 28.195C73.192 28.3628 73.2536 28.5855 73.281 28.863H71.1075C71.1212 28.5341 71.2291 28.2652 71.4312 28.0562C71.6367 27.8404 71.8919 27.7325 72.1968 27.7325ZM83.9175 27.1519C83.3523 27.1519 82.9035 27.342 82.5712 27.7222C82.2355 28.0991 82.0677 28.6078 82.0677 29.2483C82.0677 29.8444 82.227 30.3205 82.5455 30.6768C82.8607 31.0296 83.2889 31.2061 83.8301 31.2061C84.4776 31.2061 84.9537 31.0057 85.2586 30.6049C85.5669 30.2041 85.7211 29.6988 85.7211 29.089C85.7211 28.4519 85.5463 27.9689 85.1969 27.64C84.8475 27.3146 84.421 27.1519 83.9175 27.1519ZM83.0234 28.159C83.205 27.861 83.4961 27.712 83.8969 27.712C84.3491 27.712 84.6677 27.8867 84.8527 28.2361C84.9691 28.4587 85.0274 28.7482 85.0274 29.1045C85.0274 29.495 84.9469 29.8512 84.7859 30.1732C84.6214 30.4953 84.3234 30.6563 83.8918 30.6563C83.4944 30.6563 83.205 30.5209 83.0234 30.2503C82.8418 29.9797 82.7511 29.6423 82.7511 29.2381C82.7511 28.8167 82.8418 28.457 83.0234 28.159ZM79.4728 27.2598H78.7277L77.9621 30.2657L77.2016 27.2598H76.4771L77.6127 31.0725H78.3012L79.0823 28.123L79.8839 31.0725H80.5724L81.7183 27.2598H81.0554L80.2487 30.2452L79.4728 27.2598ZM88.4701 27.8712V27.193L88.3159 27.1776C88.2988 27.1776 88.2783 27.1776 88.2543 27.1776C87.9905 27.1776 87.7593 27.2701 87.5606 27.455C87.3585 27.6366 87.2317 27.7907 87.1804 27.9175V27.2598H86.5483V31.0725H87.2112V28.8784C87.2112 28.6078 87.302 28.3697 87.4835 28.1641C87.6617 27.9552 87.9169 27.8507 88.2491 27.8507L88.4701 27.8712ZM89.7239 25.8467H89.061V31.0725H89.7239V25.8467ZM93.9219 25.8262H93.2848V27.7531C93.1375 27.5749 93.0039 27.4499 92.884 27.378C92.6819 27.2546 92.4301 27.193 92.1286 27.193C91.5874 27.193 91.1695 27.3968 90.8749 27.8044C90.5837 28.2121 90.4381 28.6934 90.4381 29.2483C90.4381 29.841 90.5991 30.3154 90.9211 30.6717C91.2397 31.0279 91.6182 31.2061 92.0567 31.2061C92.3273 31.2061 92.5688 31.1547 92.7812 31.0519C92.9902 30.9457 93.1717 30.7761 93.3259 30.5432V31.0725H93.9219V25.8262ZM91.4504 28.123C91.6559 27.8764 91.9248 27.7531 92.2571 27.7531C92.5551 27.7531 92.8052 27.8695 93.0073 28.1025C93.2094 28.332 93.3105 28.6865 93.3105 29.1661C93.3105 29.6457 93.2128 30.0122 93.0176 30.2657C92.8223 30.5227 92.5705 30.6511 92.2622 30.6511C91.8683 30.6511 91.584 30.5124 91.4092 30.2349C91.2277 29.9609 91.1369 29.62 91.1369 29.2124C91.1369 28.7328 91.2414 28.3697 91.4504 28.123Z" fill="black"/>
</g>
<defs>
<linearGradient id="paint0_linear_418_4557" x1="2.88136" y1="23.0879" x2="24.0513" y2="5.70977" gradientUnits="userSpaceOnUse">
<stop stop-color="#0C6D7A"/>
<stop offset="0.00784314" stop-color="#0C6F7C"/>
<stop offset="0.239216" stop-color="#14BCD4"/>
<stop offset="0.482353" stop-color="#06DEFC"/>
<stop offset="0.545098" stop-color="#04E0FF"/>
<stop offset="0.831373" stop-color="#0FBBD4"/>
<stop offset="1" stop-color="#0D7684"/>
</linearGradient>
<linearGradient id="paint1_linear_418_4557" x1="0.88381" y1="3.00582" x2="12.5071" y2="39.5468" gradientUnits="userSpaceOnUse">
<stop stop-color="#0C6D7A"/>
<stop offset="0.00784314" stop-color="#0C6F7C"/>
<stop offset="0.239216" stop-color="#14BCD4"/>
<stop offset="0.509804" stop-color="#04E0FF"/>
<stop offset="0.831373" stop-color="#0FBBD4"/>
<stop offset="1" stop-color="#0D7684"/>
</linearGradient>
<linearGradient id="paint2_linear_418_4557" x1="23.0012" y1="-6.93296" x2="27.8842" y2="29.8333" gradientUnits="userSpaceOnUse">
<stop stop-color="#0C6D7A"/>
<stop offset="0.00784314" stop-color="#0C6F7C"/>
<stop offset="0.239216" stop-color="#14BCD4"/>
<stop offset="0.509804" stop-color="#04E0FF"/>
<stop offset="0.831373" stop-color="#0FBBD4"/>
<stop offset="1" stop-color="#0D7684"/>
</linearGradient>
</defs>
</svg>
