<svg width="24" height="24" viewBox="0 0 24 24" fill="none" xmlns="http://www.w3.org/2000/svg">
<path d="M20.6621 9.624L19.3074 9.39419C19.1663 8.9386 18.9849 8.49914 18.7631 8.07984L19.5614 6.96306C19.9001 6.48731 19.8477 5.8382 19.4324 5.42697L18.2309 4.22551C18.0052 3.99974 17.7068 3.87475 17.3883 3.87475C17.1384 3.87475 16.9005 3.95136 16.6989 4.0965L15.5781 4.89478C15.1426 4.66497 14.6871 4.47548 14.2153 4.33437L13.9896 2.99584C13.8928 2.4193 13.3969 2 12.8123 2H11.115C10.5304 2 10.0344 2.4193 9.93769 2.99584L9.70385 4.36662C9.25229 4.50773 8.81283 4.69319 8.39353 4.91897L7.28481 4.12069C7.08322 3.97555 6.84132 3.89894 6.59135 3.89894C6.27285 3.89894 5.97047 4.02393 5.74872 4.2497L4.54324 5.45116C4.132 5.86239 4.07555 6.5115 4.41422 6.98725L5.22057 8.12016C4.99882 8.54349 4.82142 8.98295 4.68435 9.43854L3.34581 9.66431C2.76928 9.76107 2.34998 10.257 2.34998 10.8416V12.5389C2.34998 13.1235 2.76928 13.6194 3.34581 13.7162L4.7166 13.95C4.85771 14.4016 5.04317 14.8411 5.26895 15.2604L4.4747 16.365C4.13603 16.8408 4.18844 17.4899 4.60371 17.9011L5.80517 19.1026C6.03094 19.3284 6.32929 19.4533 6.6478 19.4533C6.89776 19.4533 7.13564 19.3767 7.33722 19.2316L8.47014 18.4253C8.87734 18.6389 9.30471 18.8123 9.74416 18.9494L9.96994 20.304C10.0667 20.8806 10.5626 21.2999 11.1472 21.2999H12.8486C13.4332 21.2999 13.9291 20.8806 14.0259 20.304L14.2557 18.9494C14.7113 18.8083 15.1507 18.6268 15.57 18.4051L16.6868 19.2034C16.8884 19.3485 17.1303 19.4251 17.3803 19.4251C17.6988 19.4251 17.9971 19.3001 18.2229 19.0744L19.4243 17.8729C19.8356 17.4617 19.892 16.8126 19.5534 16.3368L18.7551 15.216C18.9768 14.7927 19.1623 14.3532 19.2994 13.9017L20.654 13.6759C21.2306 13.5791 21.6499 13.0832 21.6499 12.4986V10.8013C21.6579 10.2167 21.2386 9.72076 20.6621 9.624ZM20.5694 12.4986C20.5694 12.551 20.5331 12.5954 20.4807 12.6034L18.7873 12.8857C18.5736 12.9219 18.4043 13.0792 18.3519 13.2848C18.1987 13.8775 17.9649 14.4459 17.6504 14.9741C17.5415 15.1596 17.5496 15.3894 17.6746 15.5668L18.6704 16.9698C18.6986 17.0101 18.6946 17.0706 18.6583 17.1069L17.4569 18.3083C17.4286 18.3366 17.4004 18.3406 17.3803 18.3406C17.3561 18.3406 17.3359 18.3325 17.3198 18.3204L15.9208 17.3246C15.7474 17.1996 15.5136 17.1915 15.3281 17.3004C14.7999 17.6149 14.2315 17.8487 13.6388 18.0019C13.4292 18.0543 13.2719 18.2277 13.2397 18.4374L12.9534 20.1307C12.9454 20.1831 12.901 20.2194 12.8486 20.2194H11.1512C11.0988 20.2194 11.0545 20.1831 11.0464 20.1307L10.7642 18.4374C10.7279 18.2237 10.5707 18.0543 10.3651 18.0019C9.78851 17.8528 9.23213 17.6229 8.71204 17.3246C8.62738 17.2762 8.53061 17.252 8.43788 17.252C8.32903 17.252 8.21614 17.2843 8.12341 17.3528L6.7123 18.3567C6.69215 18.3688 6.67199 18.3769 6.65183 18.3769C6.6357 18.3769 6.60345 18.3728 6.57523 18.3446L5.37377 17.1432C5.33749 17.1069 5.33345 17.0504 5.36168 17.0061L6.35348 15.6151C6.47847 15.4377 6.48653 15.2039 6.37767 15.0184C6.0632 14.4943 5.82129 13.9258 5.66809 13.3332C5.61164 13.1276 5.44231 12.9703 5.23266 12.934L3.52724 12.6438C3.47483 12.6357 3.43854 12.5913 3.43854 12.5389V10.8416C3.43854 10.7892 3.47483 10.7448 3.52724 10.7368L5.20847 10.4545C5.42215 10.4182 5.59552 10.261 5.64793 10.0514C5.7971 9.4587 6.02691 8.88619 6.33735 8.35803C6.44621 8.17257 6.43412 7.94277 6.30913 7.7694L5.30523 6.3583C5.27701 6.31798 5.28104 6.2575 5.31733 6.22122L6.51878 5.01976C6.547 4.99154 6.57523 4.98751 6.59538 4.98751C6.61958 4.98751 6.63973 4.99557 6.65586 5.00767L8.04681 5.99947C8.2242 6.12446 8.45804 6.13252 8.6435 6.02366C9.16763 5.70919 9.7361 5.46729 10.3288 5.31408C10.5344 5.25764 10.6916 5.0883 10.7279 4.87865L11.0182 3.17323C11.0263 3.12082 11.0706 3.08453 11.123 3.08453H12.8204C12.8728 3.08453 12.9171 3.12082 12.9252 3.17323L13.2074 4.85446C13.2437 5.06814 13.4009 5.24151 13.6106 5.29392C14.2194 5.44713 14.8 5.685 15.3402 6.00351C15.5257 6.11236 15.7555 6.1043 15.9329 5.97931L17.3238 4.97945C17.344 4.96735 17.3641 4.95929 17.3843 4.95929C17.4004 4.95929 17.4327 4.96332 17.4609 4.99154L18.6623 6.193C18.6986 6.22928 18.7027 6.28573 18.6744 6.33007L17.6786 7.72908C17.5536 7.90245 17.5456 8.13629 17.6544 8.32175C17.9689 8.8499 18.2027 9.41838 18.3559 10.011C18.4083 10.2207 18.5817 10.3779 18.7914 10.4102L20.4847 10.6964C20.5371 10.7045 20.5734 10.7488 20.5734 10.8013V12.4986H20.5694Z" fill="#1B1B1B"/>
<path d="M12.0019 7.48315C9.70385 7.48315 7.83716 9.34984 7.83716 11.6479C7.83716 13.946 9.70385 15.8127 12.0019 15.8127C14.3 15.8127 16.1667 13.946 16.1667 11.6479C16.1667 9.34984 14.3 7.48315 12.0019 7.48315ZM12.0019 14.7241C10.3046 14.7241 8.92572 13.3453 8.92572 11.6479C8.92572 9.95056 10.3046 8.57171 12.0019 8.57171C13.6993 8.57171 15.0781 9.95056 15.0781 11.6479C15.0781 13.3453 13.6993 14.7241 12.0019 14.7241Z" fill="#1B1B1B"/>
<path d="M12.2808 13.5799C11.8753 13.5799 11.5064 13.5067 11.174 13.3602C10.838 13.2152 10.5695 12.997 10.3686 12.7055C10.1695 12.4141 10.07 12.0556 10.07 11.6301C10.07 11.2747 10.1458 10.9513 10.2974 10.6598C10.4489 10.3715 10.6708 10.1431 10.9631 9.97478C11.2571 9.80489 11.6123 9.71994 12.0287 9.71994C12.2406 9.71994 12.4305 9.7628 12.5986 9.84853C12.7684 9.93269 12.8908 10.0395 12.9657 10.1688L13.078 9.79242H13.93V11.3191H13.0561V11.242C13.0561 11.044 13.0022 10.8819 12.8944 10.7557C12.7885 10.6294 12.6305 10.5663 12.4205 10.5663C12.2799 10.5663 12.1502 10.6123 12.0315 10.7042C11.9146 10.7977 11.8224 10.9201 11.7548 11.0713C11.6872 11.2209 11.6534 11.3752 11.6534 11.5342C11.6534 11.8475 11.7447 12.093 11.9274 12.2707C12.11 12.4468 12.3602 12.5349 12.678 12.5349C12.9027 12.5349 13.1109 12.5029 13.3026 12.439C13.4962 12.3751 13.6551 12.3065 13.7793 12.2333L13.8396 12.2777V13.2737C13.6076 13.3874 13.3629 13.4669 13.1054 13.5121C12.8479 13.5573 12.573 13.5799 12.2808 13.5799Z" fill="#1B1B1B"/>
</svg>
