<svg width="24" height="24" viewBox="0 0 24 24" fill="none" xmlns="http://www.w3.org/2000/svg">
<path d="M7.51409 8.44652V12.5823M9.58197 10.5144H5.44621M20.7619 11.5841C19.9692 8.00064 18.7935 5.71477 16.9092 5.15773C16.5442 5.05127 16.1658 4.99816 15.7856 5.00006C14.6272 5.00006 13.713 5.68935 11.6498 5.68935C9.5867 5.68935 8.67081 5.00006 7.51409 5.00006C7.11806 4.99801 6.72368 5.05107 6.34229 5.15773C4.45535 5.71477 3.28958 8.00279 2.48785 11.5841C1.66931 15.2421 1.81751 18.1324 3.41753 18.6873C4.53763 19.075 5.53926 18.2733 6.4879 17.0933C7.56492 15.7492 8.89138 15.3356 11.6498 15.3356C14.4083 15.3356 15.6831 15.7492 16.7618 17.0933C17.7096 18.2741 18.7483 19.0659 19.8386 18.6942C21.6058 18.0906 21.5808 15.2852 20.7619 11.5841ZM14.0624 10.5144C14.0624 10.9903 13.6766 11.376 13.2008 11.376C12.7249 11.376 12.3391 10.9903 12.3391 10.5144C12.3391 10.0385 12.7249 9.65279 13.2008 9.65279C13.6766 9.65279 14.0624 10.0385 14.0624 10.5144ZM15.0963 13.2716C14.9258 13.2716 14.7591 13.221 14.6174 13.1262C14.4757 13.0314 14.3652 12.8968 14.3001 12.7392C14.2349 12.5816 14.218 12.4083 14.2514 12.2411C14.2848 12.0739 14.3671 11.9204 14.4878 11.7999C14.6085 11.6795 14.7623 11.5976 14.9295 11.5646C15.0968 11.5316 15.2701 11.549 15.4275 11.6145C15.5849 11.6801 15.7194 11.7909 15.8138 11.9328C15.9082 12.0748 15.9584 12.2416 15.9579 12.4121C15.9574 12.6403 15.8663 12.8589 15.7048 13.02C15.5433 13.1811 15.3245 13.2716 15.0963 13.2716ZM15.9579 8.61885C15.9579 9.0947 15.5722 9.48046 15.0963 9.48046C14.6205 9.48046 14.2347 9.0947 14.2347 8.61885C14.2347 8.14299 14.6205 7.75723 15.0963 7.75723C15.5722 7.75723 15.9579 8.14299 15.9579 8.61885ZM17.8535 10.5144C17.8535 10.9903 17.4677 11.376 16.9919 11.376C16.516 11.376 16.1302 10.9903 16.1302 10.5144C16.1302 10.0385 16.516 9.65279 16.9919 9.65279C17.4677 9.65279 17.8535 10.0385 17.8535 10.5144Z" stroke="#1B1B1B" stroke-linecap="round"/>
</svg>
