<svg width="24" height="24" viewBox="0 0 24 24" fill="none" xmlns="http://www.w3.org/2000/svg">
<path d="M20.1647 12.0824H9.37941M17.8941 15.4882L21.3 12.0824L17.8941 8.67647M12.2176 6.40588V5.27059C12.2176 4.66839 11.9784 4.09086 11.5526 3.66504C11.1268 3.23922 10.5493 3 9.94706 3H4.27059C3.66839 3 3.09086 3.23922 2.66504 3.66504C2.23922 4.09086 2 4.66839 2 5.27059V18.8941C2 19.4963 2.23922 20.0738 2.66504 20.4997C3.09086 20.9255 3.66839 21.1647 4.27059 21.1647H9.94706C10.5493 21.1647 11.1268 20.9255 11.5526 20.4997C11.9784 20.0738 12.2176 19.4963 12.2176 18.8941V17.7588" stroke="black" stroke-width="1.5" stroke-linecap="round" stroke-linejoin="round"/>
</svg>
