<svg width="24" height="24" viewBox="0 0 24 24" fill="none" xmlns="http://www.w3.org/2000/svg">
<path d="M16.1834 18.1558V18.1556H16.6834H20.0657C20.5973 18.1556 21.1245 17.8336 21.3666 17.3561C21.6095 16.8769 21.5599 16.2403 21.2465 15.8044L21.2464 15.8043L16.3955 9.05497M16.1834 18.1558L16.3955 9.05497M16.1834 18.1558H16.071C15.2456 18.1558 14.5736 17.4866 14.5736 16.6492C14.5736 15.8096 15.2479 15.1356 16.071 15.1356H16.571V14.6356V11.5064V11.0064H16.071H7.93517H7.43516L7.43517 11.5065L7.43527 14.6356L7.43529 15.1356H7.93527C8.75837 15.1356 9.4327 15.8096 9.4327 16.6492C9.4327 17.4685 8.78799 18.1282 7.98743 18.1561L7.89928 18.1592M16.1834 18.1558L7.89928 18.1592M16.3955 9.05497C16.1285 8.68337 15.6666 8.4493 15.2078 8.4493L8.77731 8.44922C8.32464 8.44922 7.87151 8.68204 7.60349 9.05488M16.3955 9.05497L7.60349 9.05488M7.60349 9.05488C7.60348 9.05489 7.60347 9.0549 7.60347 9.05491M7.60349 9.05488L7.60347 9.05491M7.60347 9.05491L2.75259 15.8042L2.37581 15.5334L2.75259 15.8042C2.44006 16.2391 2.39089 16.8705 2.63285 17.3498C2.87534 17.8303 3.40049 18.1556 3.92641 18.1556H7.39928H7.89928V18.1592M7.60347 9.05491L7.89928 18.1592" stroke="white"/>
<path d="M11.5978 12.8887V14.2673H10.17V15.0215H11.5978V17.8679H12.3789V15.0215H13.8151V14.2673H12.3789V12.8887H11.5978Z" fill="white"/>
<path d="M7.453 18.6237V22.6982H16.5469V18.6237M11.9925 1C10.3848 1 8.92263 2.49729 8.92324 4.14325C8.92387 5.7892 10.3861 7.2865 11.9925 7.2865C13.5989 7.2865 15.0612 5.78859 15.0618 4.14325C15.0624 2.49668 13.6003 1 11.9925 1Z" stroke="white"/>
</svg>
