<svg width="24" height="22" viewBox="0 0 24 22" fill="none" xmlns="http://www.w3.org/2000/svg">
<mask id="path-1-inside-1_2742_1580" fill="white">
<path d="M20.3715 19.4917C21.2009 18.2898 22.3931 17.4014 24 16.7743C22.9633 16.2518 21.8747 16.5131 20.8898 17.6105C21.3045 15.7815 22.0302 14.3183 23.0151 13.0119C21.8747 13.4822 20.838 14.7886 19.905 16.7221C19.8531 15.2067 19.5421 13.9525 19.0756 12.9074V18.9169L20.3715 19.4917ZM2.90281 17.8195C1.91793 16.8266 0.984881 16.5131 0 17.0879C1.50324 17.715 2.59179 18.6033 3.36933 19.8052L4.56156 19.2827V13.2209C4.09503 14.2138 3.83585 15.5202 3.78402 17.0356C2.90281 14.9976 1.91793 13.7957 0.88121 13.2209C1.91793 14.4751 2.53996 16.0428 2.90281 17.8195ZM1.71058 21.4774C1.39957 21.6865 1.08855 21.791 0.88121 22H23.6371C23.3261 21.791 23.0151 21.5819 22.7559 21.4774C19.8531 19.6485 16.3283 18.7601 12.2333 18.7601C8.13823 18.7601 4.61339 19.6485 1.71058 21.4774ZM18.2981 7.15914C18.2981 5.1734 17.6242 3.50119 16.3801 2.09026C15.1361 0.679335 13.6328 0 11.8186 0C10.0043 0 8.50108 0.731591 7.25702 2.14252C6.01296 3.55344 5.39093 5.27791 5.39093 7.2114V18.9169C7.41253 18.2375 9.6933 17.924 12.2333 17.924C14.4622 17.924 16.4838 18.1853 18.3499 18.7601V7.15914M13.581 5.69596H14.9806C15.2916 5.69596 15.4989 5.74822 15.7581 5.85273C16.0173 5.90499 16.1728 6.06176 16.2765 6.16627C16.432 6.32304 16.5875 6.47981 16.6393 6.68884C16.6911 6.89786 16.743 7.10689 16.743 7.36817C16.743 7.5772 16.6911 7.83848 16.6393 8.04751C16.5875 8.25653 16.4838 8.46556 16.2765 8.57007C16.1209 8.72684 15.9136 8.83135 15.7581 8.88361C15.4989 8.93587 15.2916 9.04038 14.9806 9.04038H14.2549V11.0261H13.581V5.69596ZM15.2397 14.2138V14.8931H8.50108V14.2138H15.2397ZM17.2095 12.8028V13.4822H6.53132V12.8028H17.2095ZM12.4406 5.69596V10.9739H11.7667V5.69596H12.4406ZM7.67171 5.69596H8.9676C9.27862 5.69596 9.48596 5.74822 9.74514 5.85273C9.90065 5.90499 10.108 6.0095 10.2635 6.11401C10.419 6.21853 10.5745 6.3753 10.5745 6.53207C10.6263 6.74109 10.6263 6.95012 10.6263 7.15914C10.6263 7.36817 10.6263 7.47268 10.5745 7.68171C10.5745 7.89074 10.5227 7.99525 10.3153 8.09976C10.2635 8.20428 10.1598 8.30879 10.0043 8.4133C9.90065 8.46556 9.6933 8.57007 9.5378 8.62233C9.58963 8.67458 9.64147 8.7791 9.79698 8.83135L11.1447 10.9216H10.6263C10.5227 10.9216 10.3672 10.8694 10.3153 10.7648L9.12311 8.88361L8.91577 8.72684C8.86393 8.72684 8.81209 8.67458 8.76026 8.67458H8.29374V10.8171H7.67171V5.69596ZM8.34557 6.27078V8.25653H8.9676C9.12311 8.25653 9.33045 8.25653 9.48596 8.20428C9.58963 8.15202 9.74514 8.04751 9.79698 7.99525C9.90065 7.94299 9.95248 7.78622 10.0562 7.68171C10.108 7.52494 10.108 7.42043 10.108 7.26366C10.108 6.95012 10.0562 6.74109 9.84881 6.53207C9.6933 6.3753 9.38229 6.32304 9.01944 6.32304L8.34557 6.27078ZM14.9287 6.27078H14.203V8.36104H14.9287C15.0842 8.36104 15.2916 8.36104 15.4471 8.30879C15.6026 8.25653 15.7063 8.20428 15.8099 8.09976C15.9136 7.94299 15.9654 7.89074 16.0691 7.78622C16.121 7.62945 16.1209 7.47268 16.1209 7.31591C16.1209 7.00237 16.0691 6.68884 15.8099 6.47981C15.6544 6.3753 15.3434 6.27078 14.9287 6.27078Z"/>
</mask>
<path d="M20.3715 19.4917L20.1688 19.9487L20.5476 20.1168L20.783 19.7757L20.3715 19.4917ZM24 16.7743L24.1818 17.2401L25.2263 16.8325L24.2251 16.3279L24 16.7743ZM20.8898 17.6105L20.4022 17.4999L19.9768 19.3764L21.262 17.9444L20.8898 17.6105ZM23.0151 13.0119L23.4144 13.3129L24.5155 11.8522L22.8245 12.5496L23.0151 13.0119ZM19.905 16.7221L19.4053 16.7392L20.3553 16.9394L19.905 16.7221ZM19.0756 12.9074L19.5322 12.7036L18.5756 12.9074H19.0756ZM19.0756 18.9169H18.5756V19.2421L18.8729 19.3739L19.0756 18.9169ZM2.90281 17.8195L2.54783 18.1716L3.72802 19.3614L3.3927 17.7194L2.90281 17.8195ZM0 17.0879L-0.252036 16.6561L-1.1198 17.1625L-0.192498 17.5493L0 17.0879ZM3.36933 19.8052L2.94952 20.0768L3.18053 20.4339L3.57005 20.2632L3.36933 19.8052ZM4.56156 19.2827L4.76228 19.7406L5.06156 19.6094V19.2827H4.56156ZM4.56156 13.2209H5.06156L4.10902 13.0083L4.56156 13.2209ZM3.78402 17.0356L3.32508 17.2341L4.28373 17.0527L3.78402 17.0356ZM0.88121 13.2209L1.12367 12.7836L0.49583 13.5395L0.88121 13.2209ZM1.71058 21.4774L1.44404 21.0544L1.4378 21.0583L1.43168 21.0625L1.71058 21.4774ZM0.88121 22L0.52623 21.6479L-0.319032 22.5H0.88121V22ZM23.6371 22V22.5H25.2775L23.9161 21.585L23.6371 22ZM22.7559 21.4774L22.4894 21.9005L22.5273 21.9244L22.5689 21.9412L22.7559 21.4774ZM5.39093 18.9169H4.89093V19.6124L5.5502 19.3908L5.39093 18.9169ZM18.3499 18.7601L18.2027 19.2379L18.8499 19.4373V18.7601H18.3499ZM13.581 5.69596V5.19596H13.081V5.69596H13.581ZM15.7581 5.85273L15.5711 6.31645L15.614 6.33373L15.6593 6.34287L15.7581 5.85273ZM16.2765 6.16627L16.6314 5.81415L16.2765 6.16627ZM16.2765 8.57007L16.0514 8.12358L15.9788 8.1602L15.9215 8.21795L16.2765 8.57007ZM15.7581 8.88361L15.8569 9.37375L15.8877 9.36755L15.9174 9.35757L15.7581 8.88361ZM14.2549 9.04038V8.54038H13.7549V9.04038H14.2549ZM14.2549 11.0261V11.5261H14.7549V11.0261H14.2549ZM13.581 11.0261H13.081V11.5261H13.581V11.0261ZM15.2397 14.2138H15.7397V13.7138H15.2397V14.2138ZM15.2397 14.8931V15.3931H15.7397V14.8931H15.2397ZM8.50108 14.8931H8.00108V15.3931H8.50108V14.8931ZM8.50108 14.2138V13.7138H8.00108V14.2138H8.50108ZM17.2095 12.8028H17.7095V12.3028H17.2095V12.8028ZM17.2095 13.4822V13.9822H17.7095V13.4822H17.2095ZM6.53132 13.4822H6.03132V13.9822H6.53132V13.4822ZM6.53132 12.8028V12.3028H6.03132V12.8028H6.53132ZM12.4406 5.69596H12.9406V5.19596H12.4406V5.69596ZM12.4406 10.9739V11.4739H12.9406V10.9739H12.4406ZM11.7667 10.9739H11.2667V11.4739H11.7667V10.9739ZM11.7667 5.69596V5.19596H11.2667V5.69596H11.7667ZM7.67171 5.69596V5.19596H7.17171V5.69596H7.67171ZM9.74514 5.85273L9.55815 6.31645L9.57186 6.32198L9.58587 6.32669L9.74514 5.85273ZM10.5745 6.53207H10.0745V6.59314L10.0892 6.65241L10.5745 6.53207ZM10.5745 7.68171L10.0892 7.56136L10.0745 7.62064V7.68171H10.5745ZM10.3153 8.09976L10.0903 7.65328L9.94145 7.72829L9.8674 7.8776L10.3153 8.09976ZM10.0043 8.4133L10.2294 8.85979L10.2573 8.84572L10.2832 8.82829L10.0043 8.4133ZM9.5378 8.62233L9.37853 8.14837L8.61718 8.40422L9.18282 8.97445L9.5378 8.62233ZM9.79698 8.83135L10.2172 8.56041L10.1223 8.41319L9.95624 8.3574L9.79698 8.83135ZM11.1447 10.9216V11.4216H12.062L11.5649 10.6507L11.1447 10.9216ZM10.3153 10.7648L10.7633 10.5427L10.7517 10.5193L10.7377 10.4972L10.3153 10.7648ZM9.12311 8.88361L9.54544 8.61596L9.49694 8.53942L9.42466 8.48478L9.12311 8.88361ZM8.91577 8.72684L9.21732 8.32801L9.08351 8.22684H8.91577V8.72684ZM8.29374 8.67458V8.17458H7.79374V8.67458H8.29374ZM8.29374 10.8171V11.3171H8.79374V10.8171H8.29374ZM7.67171 10.8171H7.17171V11.3171H7.67171V10.8171ZM8.34557 6.27078L8.38423 5.77228L7.84557 5.73051V6.27078H8.34557ZM8.34557 8.25653H7.84557V8.75653H8.34557V8.25653ZM9.48596 8.20428L9.64523 8.67823L9.6791 8.66685L9.71102 8.65076L9.48596 8.20428ZM9.79698 7.99525L9.57192 7.54876L9.49928 7.58538L9.442 7.64313L9.79698 7.99525ZM10.0562 7.68171L10.4111 8.03383L10.494 7.95034L10.5309 7.83868L10.0562 7.68171ZM9.84881 6.53207L9.49383 6.88419L9.84881 6.53207ZM9.01944 6.32304L8.98078 6.82154L9.00008 6.82304H9.01944V6.32304ZM14.203 6.27078V5.77078H13.703V6.27078H14.203ZM14.203 8.36104H13.703V8.86104H14.203V8.36104ZM15.8099 8.09976L16.1649 8.45188L16.1997 8.41679L16.227 8.37556L15.8099 8.09976ZM16.0691 7.78622L16.4241 8.13834L16.5069 8.05485L16.5438 7.94319L16.0691 7.78622ZM15.8099 6.47981L16.1238 6.09061L16.1069 6.07696L16.0888 6.06482L15.8099 6.47981ZM20.783 19.7757C21.5454 18.6709 22.6494 17.8381 24.1818 17.2401L23.8182 16.3086C22.1368 16.9647 20.8564 17.9087 19.96 19.2077L20.783 19.7757ZM24.2251 16.3279C23.6076 16.0166 22.9517 15.9306 22.2991 16.1012C21.6548 16.2695 21.0563 16.6764 20.5177 17.2765L21.262 17.9444C21.7083 17.4471 22.1465 17.1746 22.5519 17.0687C22.949 16.9649 23.3557 17.0095 23.7749 17.2208L24.2251 16.3279ZM21.3775 17.721C21.7757 15.9644 22.47 14.5656 23.4144 13.3129L22.6159 12.7109C21.5905 14.071 20.8333 15.5985 20.4022 17.4999L21.3775 17.721ZM22.8245 12.5496C21.5021 13.095 20.3966 14.5528 19.4547 16.5048L20.3553 16.9394C21.2794 15.0244 22.2474 13.8693 23.2057 13.4741L22.8245 12.5496ZM20.4047 16.705C20.3508 15.1291 20.0265 13.8111 19.5322 12.7036L18.619 13.1112C19.0577 14.0939 19.3555 15.2842 19.4053 16.7392L20.4047 16.705ZM18.5756 12.9074V18.9169H19.5756V12.9074H18.5756ZM18.8729 19.3739L20.1688 19.9487L20.5742 19.0346L19.2783 18.4598L18.8729 19.3739ZM3.25779 17.4674C2.73465 16.94 2.18128 16.5464 1.58284 16.3834C0.962568 16.2144 0.345689 16.3072 -0.252036 16.6561L0.252036 17.5197C0.639192 17.2938 0.981276 17.2559 1.31996 17.3482C1.68049 17.4464 2.08609 17.7061 2.54783 18.1716L3.25779 17.4674ZM-0.192498 17.5493C1.22796 18.1419 2.23267 18.9687 2.94952 20.0768L3.78914 19.5336C2.95091 18.2379 1.77852 17.288 0.192498 16.6264L-0.192498 17.5493ZM3.57005 20.2632L4.76228 19.7406L4.36083 18.8247L3.16861 19.3473L3.57005 20.2632ZM5.06156 19.2827V13.2209H4.06156V19.2827H5.06156ZM4.10902 13.0083C3.60395 14.0832 3.33752 15.4628 3.28431 17.0185L4.28373 17.0527C4.33418 15.5776 4.58611 14.3444 5.01409 13.4335L4.10902 13.0083ZM4.24295 16.8372C3.34188 14.7532 2.29897 13.4353 1.12367 12.7836L0.638753 13.6582C1.53688 14.1562 2.46374 15.242 3.32508 17.2341L4.24295 16.8372ZM0.49583 13.5395C1.46382 14.7105 2.06036 16.1932 2.41292 17.9195L3.3927 17.7194C3.01956 15.8923 2.37203 14.2396 1.26659 12.9023L0.49583 13.5395ZM1.43168 21.0625C1.30059 21.1506 1.17792 21.2116 1.0161 21.3006C0.869719 21.3811 0.684528 21.4883 0.52623 21.6479L1.23619 22.3521C1.28523 22.3027 1.35922 22.2531 1.49794 22.1768C1.62122 22.1091 1.80956 22.0133 1.98949 21.8924L1.43168 21.0625ZM0.88121 22.5H23.6371V21.5H0.88121V22.5ZM23.9161 21.585C23.6216 21.3871 23.2617 21.1422 22.9429 21.0137L22.5689 21.9412C22.7686 22.0216 23.0306 22.1948 23.3582 22.415L23.9161 21.585ZM23.0225 21.0544C20.0232 19.1647 16.4008 18.2601 12.2333 18.2601V19.2601C16.2558 19.2601 19.683 20.1322 22.4894 21.9005L23.0225 21.0544ZM12.2333 18.2601C8.06569 18.2601 4.44328 19.1647 1.44404 21.0544L1.97712 21.9005C4.7835 20.1322 8.21076 19.2601 12.2333 19.2601V18.2601ZM18.7981 7.15914C18.7981 5.04757 18.077 3.25875 16.7552 1.75958L16.0051 2.42094C17.1713 3.74362 17.7981 5.29922 17.7981 7.15914H18.7981ZM16.7552 1.75958C15.4183 0.243378 13.7795 -0.5 11.8186 -0.5V0.5C13.4862 0.5 14.8539 1.11529 16.0051 2.42094L16.7552 1.75958ZM11.8186 -0.5C9.84757 -0.5 8.21185 0.303602 6.88199 1.81184L7.63205 2.4732C8.79031 1.15958 10.1611 0.5 11.8186 0.5V-0.5ZM6.88199 1.81184C5.55264 3.31949 4.89093 5.16353 4.89093 7.2114H5.89093C5.89093 5.39229 6.47328 3.7874 7.63205 2.4732L6.88199 1.81184ZM4.89093 7.2114V18.9169H5.89093V7.2114H4.89093ZM5.5502 19.3908C7.50852 18.7327 9.73322 18.424 12.2333 18.424V17.424C9.65338 17.424 7.31653 17.7423 5.23166 18.4429L5.5502 19.3908ZM12.2333 18.424C14.4232 18.424 16.3937 18.6807 18.2027 19.2379L18.4971 18.2823C16.5739 17.6898 14.5012 17.424 12.2333 17.424V18.424ZM18.8499 18.7601V7.15914H17.8499V18.7601H18.8499ZM13.581 6.19596H14.9806V5.19596H13.581V6.19596ZM14.9806 6.19596C15.2162 6.19596 15.3599 6.23126 15.5711 6.31645L15.9451 5.38901C15.638 5.26518 15.367 5.19596 14.9806 5.19596V6.19596ZM15.6593 6.34287C15.7577 6.36271 15.8206 6.41666 15.9215 6.51839L16.6314 5.81415C16.525 5.70686 16.2769 5.44727 15.8569 5.36259L15.6593 6.34287ZM15.9215 6.51839C16.0983 6.6967 16.1412 6.75748 16.154 6.80918L17.1246 6.56849C17.0338 6.20214 16.7656 5.94938 16.6314 5.81415L15.9215 6.51839ZM16.154 6.80918C16.2062 7.01971 16.243 7.17483 16.243 7.36817H17.243C17.243 7.03894 17.1761 6.77602 17.1246 6.56849L16.154 6.80918ZM16.243 7.36817C16.243 7.51315 16.2041 7.72516 16.154 7.92716L17.1246 8.16785C17.1782 7.9518 17.243 7.64124 17.243 7.36817H16.243ZM16.154 7.92716C16.1368 7.9966 16.1154 8.04651 16.0946 8.07915C16.0758 8.10866 16.0613 8.11861 16.0514 8.12358L16.5015 9.01656C16.9002 8.8156 17.0585 8.43444 17.1246 8.16785L16.154 7.92716ZM15.9215 8.21795C15.8361 8.304 15.7043 8.37421 15.5988 8.40965L15.9174 9.35757C16.1229 9.28849 16.4058 9.14969 16.6314 8.92219L15.9215 8.21795ZM15.6593 8.39347C15.5127 8.42303 15.3412 8.47691 15.2606 8.49831C15.16 8.525 15.0765 8.54038 14.9806 8.54038V9.54038C15.1956 9.54038 15.3714 9.50351 15.517 9.46487C15.6826 9.42095 15.7444 9.39644 15.8569 9.37375L15.6593 8.39347ZM14.9806 8.54038H14.2549V9.54038H14.9806V8.54038ZM13.7549 9.04038V11.0261H14.7549V9.04038H13.7549ZM14.2549 10.5261H13.581V11.5261H14.2549V10.5261ZM14.081 11.0261V5.69596H13.081V11.0261H14.081ZM14.7397 14.2138V14.8931H15.7397V14.2138H14.7397ZM15.2397 14.3931H8.50108V15.3931H15.2397V14.3931ZM9.00108 14.8931V14.2138H8.00108V14.8931H9.00108ZM8.50108 14.7138H15.2397V13.7138H8.50108V14.7138ZM16.7095 12.8028V13.4822H17.7095V12.8028H16.7095ZM17.2095 12.9822H6.53132V13.9822H17.2095V12.9822ZM7.03132 13.4822V12.8028H6.03132V13.4822H7.03132ZM6.53132 13.3028H17.2095V12.3028H6.53132V13.3028ZM11.9406 5.69596V10.9739H12.9406V5.69596H11.9406ZM12.4406 10.4739H11.7667V11.4739H12.4406V10.4739ZM12.2667 10.9739V5.69596H11.2667V10.9739H12.2667ZM11.7667 6.19596H12.4406V5.19596H11.7667V6.19596ZM7.67171 6.19596H8.9676V5.19596H7.67171V6.19596ZM8.9676 6.19596C9.2032 6.19596 9.34689 6.23126 9.55815 6.31645L9.93213 5.38901C9.62503 5.26518 9.35403 5.19596 8.9676 5.19596V6.19596ZM9.58587 6.32669C9.69354 6.36287 9.861 6.44594 9.9846 6.529L10.5424 5.69903C10.355 5.57307 10.1078 5.44711 9.90441 5.37878L9.58587 6.32669ZM9.9846 6.529C10.0079 6.54464 10.0298 6.56134 10.0487 6.57791C10.068 6.59473 10.0812 6.60874 10.0891 6.61853C10.0975 6.62885 10.0956 6.62899 10.0907 6.6179C10.0855 6.6062 10.0745 6.57625 10.0745 6.53207H11.0745C11.0745 6.29082 10.9585 6.10293 10.8656 5.98836C10.7672 5.86717 10.648 5.76997 10.5424 5.69903L9.9846 6.529ZM10.0892 6.65241C10.124 6.79271 10.1263 6.94089 10.1263 7.15914H11.1263C11.1263 6.95935 11.1287 6.68948 11.0598 6.41172L10.0892 6.65241ZM10.1263 7.15914C10.1263 7.35803 10.126 7.41309 10.0892 7.56136L11.0598 7.80206C11.1267 7.53227 11.1263 7.37831 11.1263 7.15914H10.1263ZM10.0745 7.68171C10.0745 7.69778 10.074 7.7088 10.0734 7.71602C10.0729 7.72317 10.0724 7.72512 10.0727 7.72322C10.0731 7.72112 10.0746 7.71483 10.0779 7.70569C10.0814 7.69632 10.0863 7.6855 10.093 7.67421C10.0997 7.6629 10.107 7.65331 10.1137 7.64568C10.1203 7.6382 10.1253 7.63386 10.1272 7.63237C10.1289 7.63099 10.1274 7.63236 10.1213 7.63619C10.1151 7.64005 10.1052 7.64576 10.0903 7.65328L10.5404 8.54625C10.6835 8.47409 10.844 8.3676 10.9523 8.18565C11.0595 8.00557 11.0745 7.81948 11.0745 7.68171H10.0745ZM9.8674 7.8776C9.8706 7.87115 9.86724 7.88071 9.84372 7.90441C9.82039 7.92793 9.78282 7.95974 9.72542 7.99831L10.2832 8.82829C10.4715 8.70173 10.6561 8.53794 10.7633 8.32193L9.8674 7.8776ZM9.77926 7.96681C9.66633 8.02374 9.49325 8.10982 9.37853 8.14837L9.69706 9.09628C9.89336 9.03032 10.135 8.90738 10.2294 8.85979L9.77926 7.96681ZM9.18282 8.97445C9.12342 8.91457 9.33248 9.20274 9.63771 9.30531L9.95624 8.3574C9.95803 8.358 9.96385 8.36033 9.97134 8.36522C9.97859 8.36995 9.98292 8.37415 9.98349 8.37472C9.98352 8.37475 9.9824 8.37363 9.97968 8.37048C9.9767 8.36704 9.97303 8.36261 9.96652 8.3546C9.96165 8.3486 9.95059 8.33484 9.94041 8.32272C9.92956 8.30979 9.91309 8.29069 9.89278 8.27021L9.18282 8.97445ZM9.37675 9.1023L10.7245 11.1926L11.5649 10.6507L10.2172 8.56041L9.37675 9.1023ZM11.1447 10.4216H10.6263V11.4216H11.1447V10.4216ZM10.6263 10.4216C10.6405 10.4216 10.6472 10.4232 10.6478 10.4233C10.6489 10.4235 10.6512 10.4241 10.6558 10.4261C10.66 10.428 10.6734 10.4344 10.6915 10.4495C10.7098 10.4647 10.7393 10.4944 10.7633 10.5427L9.8674 10.987C9.96485 11.1835 10.1328 11.2876 10.247 11.3387C10.3671 11.3925 10.5013 11.4216 10.6263 11.4216V10.4216ZM10.7377 10.4972L9.54544 8.61596L8.70078 9.15126L9.893 11.0325L10.7377 10.4972ZM9.42466 8.48478L9.21732 8.32801L8.61422 9.12567L8.82156 9.28244L9.42466 8.48478ZM8.91577 8.22684C8.98538 8.22684 9.03548 8.24409 9.0537 8.25098C9.06982 8.25708 9.0808 8.26317 9.06307 8.25423C9.05489 8.2501 9.01798 8.23095 8.97595 8.21506C8.9318 8.19837 8.85579 8.17458 8.76026 8.17458V9.17458C8.69064 9.17458 8.64055 9.15733 8.62232 9.15044C8.6062 9.14435 8.59522 9.13826 8.61295 9.1472C8.62114 9.15132 8.65804 9.17048 8.70008 9.18637C8.74422 9.20306 8.82023 9.22684 8.91577 9.22684V8.22684ZM8.76026 8.17458H8.29374V9.17458H8.76026V8.17458ZM7.79374 8.67458V10.8171H8.79374V8.67458H7.79374ZM8.29374 10.3171H7.67171V11.3171H8.29374V10.3171ZM8.17171 10.8171V5.69596H7.17171V10.8171H8.17171ZM7.84557 6.27078V8.25653H8.84557V6.27078H7.84557ZM8.34557 8.75653H8.9676V7.75653H8.34557V8.75653ZM8.9676 8.75653C9.09961 8.75653 9.39663 8.76177 9.64523 8.67823L9.32669 7.73032C9.26428 7.75129 9.14661 7.75653 8.9676 7.75653V8.75653ZM9.71102 8.65076C9.78726 8.61233 9.87064 8.56123 9.93981 8.51475C10.0006 8.47392 10.0884 8.41143 10.152 8.34737L9.442 7.64313C9.45286 7.63217 9.45443 7.63238 9.43735 7.64544C9.42359 7.65597 9.4046 7.66959 9.382 7.68478C9.33454 7.71668 9.28833 7.74397 9.26091 7.75779L9.71102 8.65076ZM10.022 8.44174C10.1224 8.39113 10.1934 8.32386 10.2403 8.27118C10.2861 8.21963 10.3216 8.16717 10.3436 8.13387C10.3727 8.08991 10.3797 8.07774 10.3967 8.05336C10.4094 8.03513 10.4135 8.03145 10.4111 8.03383L9.70118 7.32959C9.64698 7.38422 9.60573 7.43933 9.57632 7.48153C9.55119 7.51757 9.51931 7.56746 9.50951 7.58228C9.49265 7.60777 9.48927 7.61083 9.49301 7.60664C9.49774 7.60132 9.52336 7.57324 9.57192 7.54876L10.022 8.44174ZM10.5309 7.83868C10.6099 7.59967 10.608 7.42499 10.608 7.26366H9.60799C9.60799 7.41586 9.60608 7.45021 9.58143 7.52474L10.5309 7.83868ZM10.608 7.26366C10.608 7.08331 10.5938 6.89203 10.5309 6.7017C10.4651 6.50263 10.3556 6.33302 10.2038 6.17994L9.49383 6.88419C9.54934 6.94014 9.5695 6.97955 9.58143 7.01564C9.59626 7.06047 9.60799 7.13047 9.60799 7.26366H10.608ZM10.2038 6.17994C10.0317 6.00644 9.81058 5.92425 9.62354 5.88139C9.43039 5.83714 9.22072 5.82304 9.01944 5.82304V6.82304C9.18101 6.82304 9.30827 6.83507 9.40021 6.85614C9.49828 6.8786 9.51043 6.90092 9.49383 6.88419L10.2038 6.17994ZM9.0581 5.82454L8.38423 5.77228L8.30691 6.76929L8.98078 6.82154L9.0581 5.82454ZM14.9287 5.77078H14.203V6.77078H14.9287V5.77078ZM13.703 6.27078V8.36104H14.703V6.27078H13.703ZM14.203 8.86104H14.9287V7.86104H14.203V8.86104ZM14.9287 8.86104C15.0607 8.86104 15.3578 8.86628 15.6064 8.78274L15.2878 7.83483C15.2254 7.85581 15.1077 7.86104 14.9287 7.86104V8.86104ZM15.6064 8.78274C15.8027 8.71676 15.9862 8.632 16.1649 8.45188L15.455 7.74764C15.4263 7.77655 15.4025 7.79631 15.2878 7.83483L15.6064 8.78274ZM16.227 8.37556C16.3054 8.25706 16.3321 8.23104 16.4241 8.13834L15.7141 7.4341C15.5987 7.55043 15.5219 7.62893 15.3929 7.82396L16.227 8.37556ZM16.5438 7.94319C16.6248 7.69819 16.6209 7.46145 16.6209 7.31591H15.6209C15.6209 7.48391 15.6171 7.56071 15.5944 7.62926L16.5438 7.94319ZM16.6209 7.31591C16.6209 6.96973 16.5693 6.44991 16.1238 6.09061L15.496 6.86901C15.5689 6.92776 15.6209 7.03502 15.6209 7.31591H16.6209ZM16.0888 6.06482C15.8299 5.8908 15.4141 5.77078 14.9287 5.77078V6.77078C15.2727 6.77078 15.4789 6.85979 15.531 6.8948L16.0888 6.06482Z" fill="white" mask="url(#path-1-inside-1_2742_1580)"/>
</svg>
