<svg width="24" height="24" viewBox="0 0 24 24" fill="none" xmlns="http://www.w3.org/2000/svg">
<circle cx="12" cy="12" r="11.5" stroke="#00242F"/>
<path d="M14.6207 9H16.4829L17.9409 11.8858H18.0015L19.4596 9H21.3217L18.7996 13.5931V15.8963H17.1429V13.5931L14.6207 9Z" fill="#00242F"/>
<path d="M9.84416 15.8963H8.05273L10.3796 9H12.5987L14.9255 15.8963H13.1341L11.5144 10.7376H11.4605L9.84416 15.8963ZM9.60508 13.1822H13.3496V14.4484H9.60508V13.1822Z" fill="#00242F"/>
<path d="M3 15.8963V9H5.84878C6.3651 9 6.81071 9.10102 7.18561 9.30306C7.56276 9.50286 7.85347 9.78235 8.05776 10.1415C8.26204 10.4985 8.36418 10.9138 8.36418 11.3874C8.36418 11.8634 8.2598 12.2798 8.05102 12.6367C7.84449 12.9914 7.54929 13.2664 7.16541 13.4617C6.78153 13.657 6.32582 13.7547 5.79827 13.7547H4.04051V12.4414H5.48847C5.7399 12.4414 5.9498 12.3977 6.11816 12.3101C6.28878 12.2226 6.41786 12.1002 6.50541 11.9431C6.59296 11.7837 6.63673 11.5985 6.63673 11.3874C6.63673 11.1742 6.59296 10.9901 6.50541 10.8352C6.41786 10.6781 6.28878 10.5568 6.11816 10.4715C5.94755 10.3862 5.73765 10.3436 5.48847 10.3436H4.66684V15.8963H3Z" fill="#00242F"/>
</svg>
