<svg width="80" height="80" viewBox="0 0 80 80" fill="none" xmlns="http://www.w3.org/2000/svg">
<path d="M40 0C17.9086 0 0 17.9086 0 40C0 62.0914 17.9086 80 40 80C62.0914 80 80 62.0914 80 40C80 17.9086 62.0914 0 40 0Z" fill="url(#paint0_linear_1316_1787)"/>
<path d="M40 3.30582C19.004 3.30582 1.98343 20.3264 1.98343 41.3223C1.98343 62.3183 19.004 79.3389 40 79.3389C60.9959 79.3389 78.0165 62.3183 78.0165 41.3223C78.0165 20.3264 60.9959 3.30582 40 3.30582Z" fill="url(#paint1_linear_1316_1787)"/>
<g filter="url(#filter0_d_1316_1787)">
<path d="M73.0476 40.2413C74.3175 41.0229 74.3175 42.9771 73.0476 43.7587L56.8571 53.7249C55.5873 54.5066 54 53.5295 54 51.9662L54 32.0338C54 30.4705 55.5873 29.4934 56.8571 30.2751L73.0476 40.2413Z" fill="white" fill-opacity="0.1" shape-rendering="crispEdges"/>
</g>
<path d="M22.5763 25.9998V12.1816H25.0795V23.9015H31.1654V25.9998H22.5763Z" fill="white"/>
<path d="M33.2301 25.9998V15.6362H35.6725V25.9998H33.2301ZM34.458 14.1653C34.0712 14.1653 33.7383 14.0371 33.4595 13.7807C33.1806 13.5198 33.0411 13.2072 33.0411 12.8429C33.0411 12.474 33.1806 12.1614 33.4595 11.905C33.7383 11.6441 34.0712 11.5137 34.458 11.5137C34.8494 11.5137 35.1822 11.6441 35.4566 11.905C35.7355 12.1614 35.8749 12.474 35.8749 12.8429C35.8749 13.2072 35.7355 13.5198 35.4566 13.7807C35.1822 14.0371 34.8494 14.1653 34.458 14.1653Z" fill="white"/>
<path d="M47.4413 15.6362L43.7506 25.9998H41.0517L37.361 15.6362H39.9654L42.3472 23.3347H42.4551L44.8436 15.6362H47.4413Z" fill="white"/>
<path d="M53.367 26.2022C52.3279 26.2022 51.4305 25.9863 50.6748 25.5545C49.9237 25.1182 49.3456 24.502 48.9408 23.7058C48.536 22.9051 48.3336 21.9628 48.3336 20.8787C48.3336 19.8127 48.536 18.8771 48.9408 18.0719C49.3501 17.2623 49.9214 16.6325 50.6546 16.1827C51.3878 15.7284 52.2492 15.5012 53.2388 15.5012C53.8775 15.5012 54.4802 15.6047 55.047 15.8116C55.6183 16.014 56.122 16.3289 56.5584 16.7562C56.9992 17.1835 57.3455 17.7278 57.5974 18.389C57.8493 19.0458 57.9753 19.8284 57.9753 20.737V21.486H49.4806V19.8397H55.634C55.6295 19.3719 55.5283 18.9558 55.3304 18.5914C55.1325 18.2226 54.8558 17.9325 54.5005 17.7211C54.1496 17.5096 53.7403 17.4039 53.2725 17.4039C52.7732 17.4039 52.3346 17.5254 51.9568 17.7683C51.579 18.0067 51.2843 18.3216 51.0729 18.7129C50.866 19.0997 50.7603 19.5248 50.7558 19.9881V21.4252C50.7558 22.028 50.866 22.5453 51.0864 22.9771C51.3068 23.4044 51.6149 23.7328 52.0108 23.9622C52.4066 24.1871 52.8699 24.2995 53.4007 24.2995C53.756 24.2995 54.0777 24.2501 54.3655 24.1511C54.6534 24.0476 54.9031 23.897 55.1145 23.699C55.3259 23.5011 55.4856 23.256 55.5935 22.9636L57.8741 23.22C57.7301 23.8227 57.4557 24.349 57.0509 24.7988C56.6506 25.2441 56.1378 25.5905 55.5126 25.8379C54.8873 26.0808 54.1721 26.2022 53.367 26.2022Z" fill="white"/>
<path d="M38.7821 47.209C38.1254 47.209 37.5339 47.092 37.0076 46.8581C36.4858 46.6197 36.072 46.2689 35.7661 45.8056C35.4648 45.3423 35.3141 44.771 35.3141 44.0918C35.3141 43.507 35.422 43.0235 35.6379 42.6412C35.8539 42.2588 36.1485 41.9529 36.5218 41.7235C36.8952 41.4941 37.3157 41.321 37.7835 41.204C38.2558 41.0826 38.7439 40.9949 39.2477 40.9409C39.8549 40.8779 40.3475 40.8217 40.7253 40.7722C41.1031 40.7182 41.3775 40.6373 41.5485 40.5293C41.7239 40.4168 41.8116 40.2437 41.8116 40.0098V39.9693C41.8116 39.461 41.6609 39.0674 41.3595 38.7885C41.0582 38.5096 40.6241 38.3702 40.0573 38.3702C39.4591 38.3702 38.9845 38.5007 38.6337 38.7615C38.2873 39.0224 38.0534 39.3306 37.932 39.6859L35.6514 39.362C35.8314 38.7323 36.1282 38.206 36.5421 37.7832C36.9559 37.3559 37.4619 37.0365 38.0602 36.8251C38.6584 36.6092 39.3197 36.5012 40.0438 36.5012C40.5431 36.5012 41.0402 36.5597 41.535 36.6767C42.0298 36.7936 42.4818 36.987 42.8911 37.2569C43.3005 37.5223 43.6288 37.8844 43.8762 38.3432C44.1281 38.802 44.2541 39.3755 44.2541 40.0637V46.9998H41.9061V45.5762H41.8251C41.6767 45.8641 41.4675 46.1339 41.1976 46.3858C40.9322 46.6332 40.5971 46.8334 40.1923 46.9863C39.792 47.1348 39.3219 47.209 38.7821 47.209ZM39.4164 45.4142C39.9067 45.4142 40.3317 45.3175 40.6916 45.1241C41.0514 44.9262 41.3281 44.6653 41.5215 44.3414C41.7194 44.0176 41.8183 43.6645 41.8183 43.2821V42.0609C41.7419 42.1239 41.6114 42.1823 41.427 42.2363C41.2471 42.2903 41.0447 42.3375 40.8198 42.378C40.5949 42.4185 40.3722 42.4545 40.1518 42.486C39.9314 42.5175 39.7402 42.5444 39.5783 42.5669C39.2139 42.6164 38.8878 42.6974 38.6 42.8098C38.3121 42.9223 38.0849 43.0797 37.9185 43.2821C37.7521 43.4801 37.6688 43.7364 37.6688 44.0513C37.6688 44.5011 37.833 44.8407 38.1614 45.0701C38.4898 45.2995 38.9081 45.4142 39.4164 45.4142Z" fill="white"/>
<path d="M24.4874 67.9998V54.1816H26.9906V65.9015H33.0766V67.9998H24.4874Z" fill="white"/>
<path d="M35.1412 67.9998V57.6362H37.5837V67.9998H35.1412ZM36.3692 56.1653C35.9823 56.1653 35.6495 56.0371 35.3706 55.7807C35.0917 55.5198 34.9523 55.2072 34.9523 54.8429C34.9523 54.474 35.0917 54.1614 35.3706 53.905C35.6495 53.6441 35.9823 53.5137 36.3692 53.5137C36.7605 53.5137 37.0934 53.6441 37.3678 53.905C37.6466 54.1614 37.7861 54.474 37.7861 54.8429C37.7861 55.2072 37.6466 55.5198 37.3678 55.7807C37.0934 56.0371 36.7605 56.1653 36.3692 56.1653Z" fill="white"/>
<path d="M45.3446 57.6362V59.5254H39.2182V57.6362H45.3446ZM40.7498 67.9998V56.6578C40.7498 55.9606 40.8937 55.3804 41.1816 54.9171C41.474 54.4538 41.8653 54.1074 42.3556 53.878C42.8459 53.6486 43.3902 53.5339 43.9884 53.5339C44.4112 53.5339 44.7868 53.5677 45.1152 53.6351C45.4435 53.7026 45.6864 53.7633 45.8439 53.8173L45.3581 55.7065C45.2546 55.675 45.1242 55.6435 44.9667 55.612C44.8093 55.5761 44.6339 55.5581 44.4405 55.5581C43.9862 55.5581 43.6645 55.6683 43.4756 55.8887C43.2912 56.1046 43.199 56.415 43.199 56.8198V67.9998H40.7498Z" fill="white"/>
<path d="M51.4558 68.2022C50.4168 68.2022 49.5194 67.9863 48.7637 67.5545C48.0125 67.1182 47.4345 66.502 47.0297 65.7058C46.6249 64.9051 46.4224 63.9628 46.4224 62.8787C46.4224 61.8127 46.6249 60.8771 47.0297 60.0719C47.439 59.2623 48.0103 58.6325 48.7435 58.1827C49.4767 57.7284 50.338 57.5012 51.3276 57.5012C51.9664 57.5012 52.5691 57.6047 53.1359 57.8116C53.7071 58.014 54.2109 58.3289 54.6472 58.7562C55.088 59.1835 55.4344 59.7278 55.6863 60.389C55.9382 61.0458 56.0641 61.8284 56.0641 62.737V63.486H47.5695V61.8397H53.7229C53.7184 61.3719 53.6172 60.9558 53.4192 60.5914C53.2213 60.2226 52.9447 59.9325 52.5893 59.7211C52.2385 59.5097 51.8292 59.4039 51.3614 59.4039C50.8621 59.4039 50.4235 59.5254 50.0457 59.7683C49.6678 60.0067 49.3732 60.3216 49.1618 60.7129C48.9549 61.0997 48.8492 61.5248 48.8447 61.9881V63.4253C48.8447 64.028 48.9549 64.5453 49.1753 64.9771C49.3957 65.4044 49.7038 65.7328 50.0996 65.9622C50.4955 66.1871 50.9588 66.2995 51.4896 66.2995C51.8449 66.2995 52.1665 66.2501 52.4544 66.1511C52.7423 66.0476 52.9919 65.897 53.2033 65.699C53.4147 65.5011 53.5744 65.256 53.6824 64.9636L55.9629 65.22C55.819 65.8227 55.5446 66.349 55.1398 66.7988C54.7394 67.2441 54.2267 67.5905 53.6014 67.8379C52.9762 68.0808 52.261 68.2022 51.4558 68.2022Z" fill="white"/>
<defs>
<filter id="filter0_d_1316_1787" x="52" y="30" width="24" height="28" filterUnits="userSpaceOnUse" color-interpolation-filters="sRGB">
<feFlood flood-opacity="0" result="BackgroundImageFix"/>
<feColorMatrix in="SourceAlpha" type="matrix" values="0 0 0 0 0 0 0 0 0 0 0 0 0 0 0 0 0 0 127 0" result="hardAlpha"/>
<feOffset dy="2"/>
<feGaussianBlur stdDeviation="1"/>
<feComposite in2="hardAlpha" operator="out"/>
<feColorMatrix type="matrix" values="0 0 0 0 0 0 0 0 0 0 0 0 0 0 0 0 0 0 0.13 0"/>
<feBlend mode="normal" in2="BackgroundImageFix" result="effect1_dropShadow_1316_1787"/>
<feBlend mode="normal" in="SourceGraphic" in2="effect1_dropShadow_1316_1787" result="shape"/>
</filter>
<linearGradient id="paint0_linear_1316_1787" x1="-23.28" y1="9.44" x2="85.12" y2="66.56" gradientUnits="userSpaceOnUse">
<stop stop-color="#055782"/>
<stop offset="1" stop-color="#032C41"/>
</linearGradient>
<linearGradient id="paint1_linear_1316_1787" x1="40" y1="79.3389" x2="32.5487" y2="-3.30906" gradientUnits="userSpaceOnUse">
<stop stop-color="#0897E3"/>
<stop offset="1" stop-color="#044C72"/>
</linearGradient>
</defs>
</svg>
