<svg width="60" height="84" viewBox="0 0 60 84" fill="none" xmlns="http://www.w3.org/2000/svg">
<path d="M2.07033 28H0V84H60V28H57.9297C56.9042 42.5306 44.7915 54 30 54C15.2085 54 3.09582 42.5306 2.07033 28Z" fill="#343434"/>
<circle cx="30" cy="26" r="25.5" fill="url(#paint0_radial_3_97)" stroke="url(#paint1_linear_3_97)"/>
<circle cx="30" cy="26" r="23" fill="url(#paint2_linear_3_97)"/>
<path d="M43 24.668C44.3333 25.4822 44.3333 27.5178 43 28.332L26 38.7134C24.6667 39.5277 23 38.5099 23 36.8814L23 16.1186C23 14.4901 24.6667 13.4723 26 14.2866L43 24.668Z" fill="white"/>
<path d="M1.29516 72V63.6H2.49516V70.956H7.04316V72H1.29516ZM8.25216 72V65.64H9.40416V72H8.25216ZM8.82816 64.416C8.60416 64.416 8.41616 64.344 8.26416 64.2C8.12016 64.056 8.04816 63.88 8.04816 63.672C8.04816 63.456 8.12016 63.276 8.26416 63.132C8.41616 62.988 8.60416 62.916 8.82816 62.916C9.05216 62.916 9.23616 62.988 9.38016 63.132C9.53216 63.268 9.60816 63.44 9.60816 63.648C9.60816 63.864 9.53616 64.048 9.39216 64.2C9.24816 64.344 9.06016 64.416 8.82816 64.416ZM13.2717 72L10.4877 65.64H11.6877L14.1597 71.4H13.5837L16.1037 65.64H17.2317L14.4477 72H13.2717ZM20.9631 72.072C20.2831 72.072 19.6831 71.932 19.1631 71.652C18.6511 71.372 18.2511 70.988 17.9631 70.5C17.6831 70.012 17.5431 69.452 17.5431 68.82C17.5431 68.188 17.6791 67.628 17.9511 67.14C18.2311 66.652 18.6111 66.272 19.0911 66C19.5791 65.72 20.1271 65.58 20.7351 65.58C21.3511 65.58 21.8951 65.716 22.3671 65.988C22.8391 66.26 23.2071 66.644 23.4711 67.14C23.7431 67.628 23.8791 68.2 23.8791 68.856C23.8791 68.904 23.8751 68.96 23.8671 69.024C23.8671 69.088 23.8631 69.148 23.8551 69.204H18.4431V68.376H23.2551L22.7871 68.664C22.7951 68.256 22.7111 67.892 22.5351 67.572C22.3591 67.252 22.1151 67.004 21.8031 66.828C21.4991 66.644 21.1431 66.552 20.7351 66.552C20.3351 66.552 19.9791 66.644 19.6671 66.828C19.3551 67.004 19.1111 67.256 18.9351 67.584C18.7591 67.904 18.6711 68.272 18.6711 68.688V68.88C18.6711 69.304 18.7671 69.684 18.9591 70.02C19.1591 70.348 19.4351 70.604 19.7871 70.788C20.1391 70.972 20.5431 71.064 20.9991 71.064C21.3751 71.064 21.7151 71 22.0191 70.872C22.3311 70.744 22.6031 70.552 22.8351 70.296L23.4711 71.04C23.1831 71.376 22.8231 71.632 22.3911 71.808C21.9671 71.984 21.4911 72.072 20.9631 72.072ZM32.6494 72V70.656L32.5894 70.404V68.112C32.5894 67.624 32.4454 67.248 32.1574 66.984C31.8774 66.712 31.4534 66.576 30.8854 66.576C30.5094 66.576 30.1414 66.64 29.7814 66.768C29.4214 66.888 29.1174 67.052 28.8694 67.26L28.3894 66.396C28.7174 66.132 29.1094 65.932 29.5654 65.796C30.0294 65.652 30.5134 65.58 31.0174 65.58C31.8894 65.58 32.5614 65.792 33.0334 66.216C33.5054 66.64 33.7414 67.288 33.7414 68.16V72H32.6494ZM30.5614 72.072C30.0894 72.072 29.6734 71.992 29.3134 71.832C28.9614 71.672 28.6894 71.452 28.4974 71.172C28.3054 70.884 28.2094 70.56 28.2094 70.2C28.2094 69.856 28.2894 69.544 28.4494 69.264C28.6174 68.984 28.8854 68.76 29.2534 68.592C29.6294 68.424 30.1334 68.34 30.7654 68.34H32.7814V69.168H30.8134C30.2374 69.168 29.8494 69.264 29.6494 69.456C29.4494 69.648 29.3494 69.88 29.3494 70.152C29.3494 70.464 29.4734 70.716 29.7214 70.908C29.9694 71.092 30.3134 71.184 30.7534 71.184C31.1854 71.184 31.5614 71.088 31.8814 70.896C32.2094 70.704 32.4454 70.424 32.5894 70.056L32.8174 70.848C32.6654 71.224 32.3974 71.524 32.0134 71.748C31.6294 71.964 31.1454 72.072 30.5614 72.072Z" fill="white"/>
<path d="M39.2639 72V63.6H40.4639V70.956H45.0119V72H39.2639ZM46.2209 72V65.64H47.3729V72H46.2209ZM46.7969 64.416C46.5729 64.416 46.3849 64.344 46.2329 64.2C46.0889 64.056 46.0169 63.88 46.0169 63.672C46.0169 63.456 46.0889 63.276 46.2329 63.132C46.3849 62.988 46.5729 62.916 46.7969 62.916C47.0209 62.916 47.2049 62.988 47.3489 63.132C47.5009 63.268 47.5769 63.44 47.5769 63.648C47.5769 63.864 47.5049 64.048 47.3609 64.2C47.2169 64.344 47.0289 64.416 46.7969 64.416ZM49.7405 72V65.076C49.7405 64.452 49.9205 63.956 50.2805 63.588C50.6485 63.212 51.1685 63.024 51.8405 63.024C52.0885 63.024 52.3245 63.056 52.5485 63.12C52.7805 63.176 52.9765 63.268 53.1365 63.396L52.7885 64.272C52.6685 64.176 52.5325 64.104 52.3805 64.056C52.2285 64 52.0685 63.972 51.9005 63.972C51.5645 63.972 51.3085 64.068 51.1325 64.26C50.9565 64.444 50.8685 64.72 50.8685 65.088V65.94L50.8925 66.468V72H49.7405ZM48.6605 66.588V65.64H52.7165V66.588H48.6605ZM56.5412 72.072C55.8612 72.072 55.2612 71.932 54.7412 71.652C54.2292 71.372 53.8292 70.988 53.5412 70.5C53.2612 70.012 53.1212 69.452 53.1212 68.82C53.1212 68.188 53.2572 67.628 53.5292 67.14C53.8092 66.652 54.1892 66.272 54.6692 66C55.1572 65.72 55.7052 65.58 56.3132 65.58C56.9292 65.58 57.4732 65.716 57.9452 65.988C58.4172 66.26 58.7852 66.644 59.0492 67.14C59.3212 67.628 59.4572 68.2 59.4572 68.856C59.4572 68.904 59.4532 68.96 59.4452 69.024C59.4452 69.088 59.4412 69.148 59.4332 69.204H54.0212V68.376H58.8332L58.3652 68.664C58.3732 68.256 58.2892 67.892 58.1132 67.572C57.9372 67.252 57.6932 67.004 57.3812 66.828C57.0772 66.644 56.7212 66.552 56.3132 66.552C55.9132 66.552 55.5572 66.644 55.2452 66.828C54.9332 67.004 54.6892 67.256 54.5132 67.584C54.3372 67.904 54.2492 68.272 54.2492 68.688V68.88C54.2492 69.304 54.3452 69.684 54.5372 70.02C54.7372 70.348 55.0132 70.604 55.3652 70.788C55.7172 70.972 56.1212 71.064 56.5772 71.064C56.9532 71.064 57.2932 71 57.5972 70.872C57.9092 70.744 58.1812 70.552 58.4132 70.296L59.0492 71.04C58.7612 71.376 58.4012 71.632 57.9692 71.808C57.5452 71.984 57.0692 72.072 56.5412 72.072Z" fill="#00B2FF"/>
<defs>
<radialGradient id="paint0_radial_3_97" cx="0" cy="0" r="1" gradientUnits="userSpaceOnUse" gradientTransform="translate(29.9997 25.9998) rotate(90) scale(26 27.522)">
<stop stop-color="#04E0FF"/>
<stop offset="1" stop-color="#0D7684"/>
</radialGradient>
<linearGradient id="paint1_linear_3_97" x1="29.9997" y1="-0.000217678" x2="29.9997" y2="51.9998" gradientUnits="userSpaceOnUse">
<stop stop-color="#04E0FF"/>
<stop offset="1" stop-color="#0D7684"/>
</linearGradient>
<linearGradient id="paint2_linear_3_97" x1="30" y1="3" x2="30" y2="49" gradientUnits="userSpaceOnUse">
<stop stop-color="white" stop-opacity="0.5"/>
<stop offset="0.400706" stop-color="white" stop-opacity="0"/>
</linearGradient>
</defs>
</svg>
