<svg width="16" height="15" viewBox="0 0 16 15" fill="none" xmlns="http://www.w3.org/2000/svg">
<path d="M7.37327 11.8885H1.47466C1.06913 11.8885 0.721844 11.7429 0.432812 11.4516C0.14378 11.1604 -0.0004903 10.8107 1.25183e-06 10.4025V1.48607C1.25183e-06 1.0774 0.144517 0.727431 0.43355 0.436162C0.722582 0.144893 1.06962 -0.000494095 1.47466 1.26152e-06H13.2719C13.6774 1.26152e-06 14.0247 0.145636 14.3137 0.436905C14.6028 0.728174 14.747 1.0779 14.7465 1.48607V5.20124H13.2719V1.48607H1.47466V10.4025H7.37327V11.8885ZM5.52995 9.28793V2.60062L10.6912 5.94427L5.52995 9.28793ZM11.6866 14.1176L11.4654 13.0031C11.318 12.9412 11.1796 12.876 11.0503 12.8077C10.921 12.7393 10.7891 12.6559 10.6544 12.5573L9.58525 12.8916L8.84793 11.6285L9.69585 10.8854C9.67128 10.7121 9.65899 10.5511 9.65899 10.4025C9.65899 10.2539 9.67128 10.0929 9.69585 9.91951L8.84793 9.17647L9.58525 7.91331L10.6544 8.24768C10.7896 8.14861 10.9215 8.06514 11.0503 7.99728C11.1791 7.92941 11.3175 7.86427 11.4654 7.80186L11.6866 6.68731H13.1613L13.3825 7.80186C13.53 7.86378 13.6683 7.93189 13.7976 8.00619C13.9269 8.0805 14.0589 8.17338 14.1935 8.28483L15.2627 7.91331L16 9.21362L15.1521 9.95666C15.1767 10.1053 15.1889 10.2601 15.1889 10.4211C15.1889 10.582 15.1767 10.7368 15.1521 10.8854L16 11.6285L15.2627 12.8916L14.1935 12.5573C14.0584 12.6563 13.9264 12.7401 13.7976 12.8084C13.6688 12.8768 13.5304 12.9417 13.3825 13.0031L13.1613 14.1176H11.6866ZM12.424 11.8885C12.8295 11.8885 13.1768 11.7429 13.4658 11.4516C13.7548 11.1604 13.8991 10.8107 13.8986 10.4025C13.8986 9.99381 13.7541 9.64384 13.4651 9.35257C13.176 9.0613 12.829 8.91591 12.424 8.91641C12.0184 8.91641 11.6712 9.06204 11.3821 9.35331C11.0931 9.64458 10.9488 9.9943 10.9493 10.4025C10.9493 10.8111 11.0938 11.1611 11.3829 11.4524C11.6719 11.7437 12.0189 11.889 12.424 11.8885Z" fill="#AAAAAA"/>
</svg>
