<svg width="16" height="16" viewBox="0 0 16 16" fill="none" xmlns="http://www.w3.org/2000/svg">
<path d="M9.38599 15C9.49184 15 9.59497 14.9664 9.68051 14.904C9.76605 14.8417 9.82959 14.7538 9.86199 14.653L10.412 12.944C10.643 12.831 10.864 12.704 11.075 12.561L12.831 12.939C12.9345 12.9611 13.0424 12.9498 13.1391 12.9066C13.2358 12.8635 13.3163 12.7908 13.369 12.699L14.755 10.3C14.8079 10.2082 14.8303 10.102 14.819 9.99673C14.8077 9.89141 14.7632 9.79241 14.692 9.714L13.487 8.384C13.5045 8.12897 13.5045 7.87303 13.487 7.618L14.692 6.286C14.7632 6.20759 14.8077 6.10859 14.819 6.00327C14.8303 5.89795 14.8079 5.79176 14.755 5.7L13.369 3.3C13.3161 3.20837 13.2356 3.13587 13.1389 3.09293C13.0422 3.04998 12.9344 3.0388 12.831 3.061L11.075 3.439C10.865 3.297 10.643 3.169 10.413 3.056L9.86199 1.347C9.82959 1.24622 9.76605 1.15832 9.68051 1.09596C9.59497 1.0336 9.49184 1 9.38599 1H6.61399C6.50813 1 6.405 1.0336 6.31946 1.09596C6.23392 1.15832 6.17038 1.24622 6.13799 1.347L5.58899 3.055C5.35861 3.16766 5.1364 3.2963 4.92399 3.44L3.16899 3.061C3.06545 3.03889 2.95757 3.05022 2.86089 3.09335C2.7642 3.13648 2.6837 3.20919 2.63099 3.301L1.24499 5.7C1.19206 5.79176 1.16964 5.89795 1.18097 6.00327C1.19229 6.10859 1.23677 6.20759 1.30799 6.286L2.51299 7.618C2.49553 7.87237 2.49553 8.12763 2.51299 8.382L1.30799 9.714C1.23677 9.79241 1.19229 9.89141 1.18097 9.99673C1.16964 10.102 1.19206 10.2082 1.24499 10.3L2.63099 12.7C2.68385 12.7916 2.76441 12.8641 2.86108 12.9071C2.95776 12.95 3.06556 12.9612 3.16899 12.939L4.92399 12.56C5.13599 12.703 5.35799 12.832 5.58899 12.945L6.13899 14.653C6.17127 14.7535 6.23451 14.8411 6.31965 14.9035C6.40479 14.9658 6.50747 14.9996 6.61299 15H9.38499H9.38599ZM9.01999 14H6.97999L6.41199 12.233L6.02899 12.046C5.8407 11.9539 5.65895 11.849 5.48499 11.732L5.13099 11.492L3.31499 11.884L2.29499 10.116L3.53999 8.738L3.50999 8.314C3.49562 8.10491 3.49562 7.89509 3.50999 7.686L3.53999 7.262L2.29299 5.884L3.31399 4.116L5.12999 4.507L5.48399 4.268C5.65795 4.15105 5.8397 4.04614 6.02799 3.954L6.41099 3.767L6.97999 2H9.02199L9.59199 3.768L9.97399 3.954C10.1621 4.04592 10.3435 4.15084 10.517 4.268L10.87 4.507L12.687 4.116L13.707 5.884L12.461 7.262L12.491 7.686C12.5054 7.89542 12.5054 8.10558 12.491 8.315L12.461 8.739L13.708 10.116L12.687 11.884L10.87 11.494L10.517 11.732C10.3435 11.8492 10.1621 11.9541 9.97399 12.046L9.59199 12.232L9.02099 14H9.01999ZM7.99999 11C8.79564 11 9.5587 10.6839 10.1213 10.1213C10.6839 9.55871 11 8.79565 11 8C11 7.20435 10.6839 6.44129 10.1213 5.87868C9.5587 5.31607 8.79564 5 7.99999 5C7.20434 5 6.44128 5.31607 5.87867 5.87868C5.31606 6.44129 4.99999 7.20435 4.99999 8C4.99999 8.79565 5.31606 9.55871 5.87867 10.1213C6.44128 10.6839 7.20434 11 7.99999 11ZM7.99999 10C7.46955 10 6.96085 9.78929 6.58577 9.41421C6.2107 9.03914 5.99999 8.53043 5.99999 8C5.99999 7.46957 6.2107 6.96086 6.58577 6.58579C6.96085 6.21071 7.46955 6 7.99999 6C8.53042 6 9.03913 6.21071 9.4142 6.58579C9.78927 6.96086 9.99999 7.46957 9.99999 8C9.99999 8.53043 9.78927 9.03914 9.4142 9.41421C9.03913 9.78929 8.53042 10 7.99999 10Z" fill="#AAAAAA"/>
</svg>
