<svg width="22" height="35" viewBox="0 0 22 35" fill="none" xmlns="http://www.w3.org/2000/svg">
<path fill-rule="evenodd" clip-rule="evenodd" d="M11.3814 9.03254C11.2805 9.07377 11.1728 9.09591 11.0639 9.09785C10.9365 9.09716 10.8111 9.06635 10.6978 9.00792C10.2343 8.77081 6.17404 6.63726 5.6125 4.14452C5.46936 3.64184 5.44707 3.1122 5.54748 2.59918C5.64789 2.08616 5.86811 1.60442 6.19004 1.19362C6.50303 0.823017 6.89187 0.524555 7.33005 0.318574C7.76823 0.112593 8.24546 0.00393321 8.72922 0C9.70578 0 10.6328 0.719388 11.2354 1.3162C11.6976 0.964917 12.1936 0.660978 12.716 0.408926C12.7785 0.379851 12.8441 0.357944 12.9115 0.343618C13.5266 0.182725 14.1729 0.185526 14.7866 0.351743C15.4004 0.51796 15.9604 0.841867 16.4117 1.29158C16.8046 1.73805 17.0702 2.2828 17.1805 2.86833C17.2908 3.45386 17.2416 4.05844 17.0383 4.61825C16.3037 6.86634 11.8859 8.82004 11.3814 9.03254ZM15.2217 2.34605C15.0436 2.16607 14.8299 2.02573 14.5944 1.93416C14.3589 1.84259 14.1068 1.80184 13.8546 1.81455C13.6771 1.81577 13.5001 1.83258 13.3255 1.86478C12.8322 2.09642 12.3769 2.40236 11.9754 2.77206C11.925 2.90574 11.84 3.02355 11.7294 3.11345C11.6187 3.20335 11.4863 3.26212 11.3456 3.28373C11.2049 3.30534 11.0611 3.28904 10.9287 3.23647C10.7964 3.18391 10.6803 3.09697 10.5923 2.98456C10.1288 2.39578 9.21725 1.5704 8.72121 1.5704C8.47474 1.57497 8.23203 1.63195 8.00906 1.73759C7.78609 1.84323 7.58793 1.99513 7.42763 2.18328C7.25743 2.41503 7.14435 2.68402 7.09767 2.96819C7.051 3.25235 7.07205 3.54358 7.15911 3.81798C7.44363 5.06887 9.59177 6.62169 11.0889 7.45561C11.7461 7.14862 12.387 6.80756 13.009 6.4338C14.4001 5.59184 15.3092 4.76645 15.5152 4.1616C15.6309 3.86015 15.665 3.53321 15.6137 3.21423C15.5625 2.89524 15.4279 2.59564 15.2237 2.34605H15.2217Z" fill="#0D7684"/>
<path fill-rule="evenodd" clip-rule="evenodd" d="M0.0792656 22.11C0.421789 20.9837 1.38885 19.6987 2.93396 18.3036C3.63401 17.6656 4.29655 17.1547 4.70008 16.8543C4.65154 16.6463 4.58908 16.3796 4.51915 16.0809L4.51888 16.0797C4.23796 14.88 3.83667 13.1662 3.73301 12.6796C3.5997 12.2672 3.5646 11.8291 3.63053 11.4005C3.69645 10.972 3.86157 10.5649 4.11259 10.2122C4.36362 9.8594 4.69355 9.57075 5.07584 9.36943C5.45813 9.16811 5.88212 9.05974 6.31369 9.05303C8.72686 8.73001 10.3715 11.1705 10.805 11.8834L13.1727 9.92413C14.1092 9.00832 16.3014 7.67906 18.1285 9.05303C18.4457 9.27513 18.7039 9.57198 18.8804 9.91757C19.0569 10.2632 19.1464 10.647 19.1411 11.0354C19.1261 12.5821 17.7555 14.046 17.2609 14.4012C17.0934 14.5213 16.3929 15.1297 15.4338 15.9781C16.026 16.1763 16.5491 16.541 16.9409 17.0291C17.2417 17.3521 17.4495 17.7511 17.542 18.1835C17.6346 18.6159 17.6085 19.0655 17.4665 19.4842C17.55 19.4917 17.6265 19.4992 17.71 19.5143C18.5558 19.6649 19.3095 20.1417 19.8101 20.8431C20.1487 21.3316 20.3263 21.9145 20.3182 22.5097C20.31 23.105 20.1164 23.6827 19.7646 24.1617C19.674 24.2769 19.5774 24.3873 19.4751 24.4922C20.2171 24.5863 20.8939 24.9657 21.3632 25.5507C21.5946 25.8053 21.7697 26.1061 21.8773 26.4335C21.9848 26.7608 22.0223 27.1073 21.9873 27.4502C21.8273 29.0718 20.3926 30.6427 20.1566 30.8376C20.1566 30.8376 16.6444 34.3477 16.3639 34.6214C16.1776 34.8321 15.9201 34.9656 15.6413 34.9962C15.6218 34.9963 15.6022 34.9956 15.5828 34.9942C15.5619 34.996 15.5409 34.9969 15.5196 34.9969H5.69635C5.58498 35.0011 5.47358 35.001 5.36238 34.9969H5.26891C5.21498 34.9969 5.16237 34.9911 5.11165 34.9803C4.91159 34.9613 4.71276 34.9287 4.51657 34.8827C2.55793 34.2296 2.13491 33.039 0.89382 28.3519C0.193272 25.6462 -0.171752 22.9208 0.0792656 22.11ZM5.18081 33.4949C5.20971 33.4915 5.23911 33.4898 5.26891 33.4898H15.4025L19.1751 29.7636C19.1771 29.7615 19.1792 29.76 19.1813 29.7587C19.183 29.7577 19.1848 29.7568 19.1866 29.7559C19.1903 29.7541 19.1941 29.7522 19.1981 29.7485C19.8654 29.0924 20.3202 28.2494 20.5032 27.3296C20.5196 27.1767 20.5022 27.0219 20.4521 26.8766C20.4021 26.7312 20.3206 26.5987 20.2136 26.4886C19.6426 25.8356 18.7975 25.3332 15.9883 27.4572C15.7598 27.6376 15.5773 27.7802 15.4708 27.8626C15.3165 27.9824 15.1225 28.0383 14.9285 28.0187C14.7345 27.9992 14.5553 27.9058 14.4277 27.7576C14.3668 27.6859 14.3208 27.6025 14.2928 27.5125C14.2647 27.4225 14.255 27.3277 14.2644 27.2338C14.2737 27.1399 14.3019 27.049 14.3471 26.9663C14.3924 26.8837 14.4538 26.8111 14.5278 26.7529C14.7028 26.6102 14.8778 26.4751 15.0453 26.3475C16.2718 25.4268 17.4389 24.4287 18.5395 23.3594C18.7154 23.12 18.8153 22.8328 18.8262 22.5354C18.8371 22.2381 18.7585 21.9443 18.6005 21.6926C18.3293 21.3085 17.9247 21.0405 17.4665 20.9415C16.903 20.8952 16.3437 21.07 15.9058 21.4293C15.4338 21.7599 14.9773 22.0824 14.5658 22.3903L12.5866 23.8844C12.4297 24.0002 12.2351 24.0522 12.0416 24.0299C11.8482 24.0076 11.6703 23.9128 11.5435 23.7643C11.4828 23.6919 11.4374 23.6079 11.4101 23.5172C11.3828 23.4266 11.3742 23.3313 11.3849 23.2372C11.3956 23.1432 11.4253 23.0523 11.4722 22.9701C11.519 22.888 11.5821 22.8164 11.6576 22.7596C11.6609 22.7579 11.7064 22.7228 11.7881 22.6597C12.0675 22.4439 12.77 21.9014 13.6577 21.2525L15.6978 19.7132C15.9258 19.4854 16.0625 19.1814 16.0821 18.859C16.1018 18.5365 16.0029 18.2181 15.8043 17.964C15.5759 17.6325 15.2273 17.404 14.8333 17.3275C14.2797 17.3661 13.7583 17.6032 13.3642 17.9956C12.0952 19.0237 10.677 20.2498 10.1093 20.7407C9.95167 20.877 9.85943 20.9568 9.85443 20.9596C9.70631 21.0872 9.51546 21.1535 9.32051 21.1451C9.12556 21.1368 8.94107 21.0543 8.80436 20.9144C8.73885 20.8462 8.68772 20.7655 8.65405 20.677C8.62037 20.5885 8.60484 20.4941 8.60839 20.3994C8.61194 20.3047 8.63449 20.2117 8.6747 20.126C8.71491 20.0403 8.77193 19.9636 8.84236 19.9006C9.54241 19.2701 15.7318 13.7215 16.3639 13.2634C16.6684 13.0458 17.643 11.9497 17.6505 11.0258C17.6536 10.8606 17.6146 10.6974 17.5374 10.5515C17.4601 10.4057 17.3471 10.2821 17.2089 10.1924L17.2054 10.1898C17.0193 10.0519 16.4634 9.64013 15.3668 10.1623C14.9474 10.3706 14.56 10.6386 14.2167 10.958C14.2005 10.9749 14.1826 10.9901 14.1632 11.0032L6.11667 17.6706C6.05548 17.7221 5.98598 17.7627 5.91116 17.7907C4.82259 18.5487 2.0364 20.7863 1.50336 22.536C1.41986 22.8877 1.54886 25.0514 2.36342 28.0771C3.41199 31.9865 3.69466 32.7911 5.18081 33.4949ZM9.58741 12.7158L9.58203 12.7066C9.48666 12.5416 8.16381 10.2527 6.5192 10.4707C6.299 10.4781 6.0825 10.5298 5.88249 10.6226C5.68247 10.7155 5.50299 10.8476 5.35463 11.0113C5.23734 11.2205 5.16277 11.4511 5.1353 11.6896C5.10782 11.9281 5.12799 12.1697 5.19461 12.4003C5.29462 12.8811 5.71215 14.6609 5.99467 15.8616L9.65642 12.8283L9.58741 12.7158Z" fill="#0D7684"/>
</svg>
