<svg width="24" height="24" viewBox="0 0 24 24" fill="none" xmlns="http://www.w3.org/2000/svg">
<path d="M19.875 2.8125H18.8906V2.15625C18.8906 1.98221 18.8215 1.81528 18.6984 1.69222C18.5754 1.5691 18.4084 1.5 18.2344 1.5H4.125C3.95096 1.5 3.78403 1.56911 3.66097 1.69222C3.53785 1.81527 3.46875 1.9822 3.46875 2.15625V21.8438C3.46875 22.0178 3.53786 22.1847 3.66097 22.3078C3.78402 22.4309 3.95095 22.5 4.125 22.5H18.2344C18.4084 22.5 18.5753 22.4309 18.6984 22.3078C18.8215 22.1847 18.8906 22.0178 18.8906 21.8438V21.1875H19.875C20.049 21.1875 20.216 21.1184 20.339 20.9953C20.4621 20.8722 20.5313 20.7053 20.5313 20.5313V3.46875C20.5313 3.29471 20.4621 3.12778 20.339 3.00472C20.216 2.8816 20.0491 2.8125 19.875 2.8125ZM4.125 2.15625H18.2344V2.8125H5.4375C5.26346 2.8125 5.09653 2.88161 4.97347 3.00472C4.85035 3.12777 4.78125 3.2947 4.78125 3.46875V4.94531H4.125V2.15625ZM4.125 5.60165H4.78125V6.58603H4.125V5.60165ZM4.125 7.24228H4.78125V8.22665H4.125V7.24228ZM4.125 8.8829H4.78125V9.86728H4.125V8.8829ZM4.125 10.5235H4.78125V11.5079H4.125V10.5235ZM4.125 12.1642H4.78125V13.1485H4.125V12.1642ZM4.125 13.8048H4.78125V14.7892H4.125V13.8048ZM4.125 15.4454H4.78125V16.4298H4.125V15.4454ZM4.125 17.086H4.78125V18.0704H4.125V17.086ZM4.125 21.8439V18.7268H4.78125V20.5314C4.78125 20.7055 4.85036 20.8724 4.97347 20.9955C5.09652 21.1186 5.26345 21.1877 5.4375 21.1877H18.2344V21.8439H4.125ZM5.4375 20.5314V18.7268H6.09375C6.21099 18.7268 6.31927 18.6643 6.37792 18.5628C6.4365 18.4612 6.4365 18.3362 6.37792 18.2346C6.31926 18.1331 6.21098 18.0706 6.09375 18.0706H5.4375V17.0862H6.09375C6.21099 17.0862 6.31927 17.0237 6.37792 16.9221C6.4365 16.8206 6.4365 16.6955 6.37792 16.594C6.31926 16.4925 6.21098 16.43 6.09375 16.43H5.4375V15.4456H6.09375C6.21099 15.4456 6.31927 15.383 6.37792 15.2815C6.4365 15.18 6.4365 15.0549 6.37792 14.9534C6.31926 14.8519 6.21098 14.7893 6.09375 14.7893H5.4375V13.805H6.09375C6.21099 13.805 6.31927 13.7424 6.37792 13.6409C6.4365 13.5394 6.4365 13.4143 6.37792 13.3128C6.31926 13.2112 6.21098 13.1487 6.09375 13.1487H5.4375V12.1643H6.09375C6.21099 12.1643 6.31927 12.1018 6.37792 12.0003C6.4365 11.8987 6.4365 11.7737 6.37792 11.6721C6.31926 11.5706 6.21098 11.5081 6.09375 11.5081H5.4375V10.5237H6.09375C6.21099 10.5237 6.31927 10.4612 6.37792 10.3596C6.4365 10.2581 6.4365 10.133 6.37792 10.0315C6.31926 9.93 6.21098 9.86745 6.09375 9.86745H5.4375V8.88308H6.09375C6.21099 8.88308 6.31927 8.82053 6.37792 8.71901C6.4365 8.6175 6.4365 8.49241 6.37792 8.39089C6.31926 8.28937 6.21098 8.22683 6.09375 8.22683H5.4375V7.24245H6.09375C6.21099 7.24245 6.31927 7.1799 6.37792 7.07839C6.4365 6.97687 6.4365 6.85178 6.37792 6.75026C6.31926 6.64875 6.21098 6.5862 6.09375 6.5862H5.4375V5.60183H6.09375C6.21099 5.60183 6.31927 5.53928 6.37792 5.43776C6.4365 5.33625 6.4365 5.21116 6.37792 5.10964C6.31926 5.00812 6.21098 4.94558 6.09375 4.94558H5.4375V3.46901H19.875V20.5315L5.4375 20.5314Z" fill="white" stroke="white" stroke-width="0.2"/>
<path d="M18.8906 17.4141H7.40623C7.28899 17.4141 7.18071 17.4766 7.12206 17.5781C7.06348 17.6796 7.06348 17.8047 7.12206 17.9063C7.18072 18.0078 7.289 18.0703 7.40623 18.0703H18.8906C19.0078 18.0703 19.1161 18.0078 19.1748 17.9063C19.2334 17.8047 19.2334 17.6796 19.1748 17.5781C19.1161 17.4766 19.0078 17.4141 18.8906 17.4141Z" fill="white" stroke="white" stroke-width="0.2"/>
<path d="M18.8906 5.92969H7.40623C7.28899 5.92969 7.18071 5.99224 7.12206 6.09375C7.06348 6.19526 7.06348 6.32036 7.12206 6.42188C7.18072 6.52339 7.289 6.58594 7.40623 6.58594H18.8906C19.0078 6.58594 19.1161 6.52339 19.1748 6.42188C19.2334 6.32036 19.2334 6.19527 19.1748 6.09375C19.1161 5.99224 19.0078 5.92969 18.8906 5.92969Z" fill="white" stroke="white" stroke-width="0.2"/>
<path d="M7.07816 7.89843C7.07816 7.98546 7.11275 8.06892 7.17427 8.13045C7.2358 8.19197 7.31926 8.22656 7.40629 8.22656H9.63089C9.96059 7.96167 10.3235 7.74101 10.7104 7.57031H7.40625C7.31923 7.57031 7.23577 7.6049 7.17424 7.66643C7.11272 7.72795 7.07812 7.81142 7.07812 7.89844L7.07816 7.89843Z" fill="white" stroke="white" stroke-width="0.2"/>
<path d="M18.8906 7.57031H14.6036C14.9905 7.74101 15.3535 7.96167 15.6832 8.22656H18.8906C19.0078 8.22656 19.1161 8.16401 19.1747 8.0625C19.2333 7.96099 19.2333 7.83589 19.1747 7.73438C19.1161 7.63286 19.0078 7.57031 18.8906 7.57031H18.8906Z" fill="white" stroke="white" stroke-width="0.2"/>
<path d="M7.40623 9.86719H8.3135C8.4267 9.63846 8.55782 9.41903 8.7056 9.21094H7.40623C7.28899 9.21094 7.18071 9.27349 7.12206 9.375C7.06348 9.47651 7.06348 9.60161 7.12206 9.70313C7.18072 9.80464 7.289 9.86719 7.40623 9.86719Z" fill="white" stroke="white" stroke-width="0.2"/>
<path d="M18.8907 9.21094H16.6085C16.7563 9.41903 16.8874 9.63846 17.0006 9.86719H18.8906C19.0079 9.86719 19.1161 9.80464 19.1748 9.70313C19.2334 9.60161 19.2334 9.47652 19.1748 9.375C19.1161 9.27349 19.0079 9.21094 18.8906 9.21094H18.8907Z" fill="white" stroke="white" stroke-width="0.2"/>
<path d="M18.8907 10.8516H17.3567C17.4095 11.0674 17.4474 11.2867 17.4699 11.5078H18.8907C19.0079 11.5078 19.1162 11.4453 19.1748 11.3438C19.2334 11.2422 19.2334 11.1171 19.1748 11.0156C19.1162 10.9141 19.0079 10.8516 18.8907 10.8516Z" fill="white" stroke="white" stroke-width="0.2"/>
<path d="M7.40621 11.5078H7.84098C7.86348 11.2867 7.90135 11.0674 7.95419 10.8516H7.40623C7.28899 10.8516 7.18071 10.9141 7.12206 11.0156C7.06348 11.1171 7.06348 11.2422 7.12206 11.3438C7.18072 11.4453 7.28898 11.5078 7.40621 11.5078Z" fill="white" stroke="white" stroke-width="0.2"/>
<path d="M18.8906 12.4922H17.4715C17.449 12.7133 17.4111 12.9326 17.3583 13.1484H18.8906C19.0078 13.1484 19.1161 13.0859 19.1748 12.9844C19.2334 12.8829 19.2334 12.7578 19.1748 12.6563C19.1161 12.5547 19.0079 12.4922 18.8906 12.4922Z" fill="white" stroke="white" stroke-width="0.2"/>
<path d="M7.40624 13.1484H7.95585C7.90301 12.9326 7.86513 12.7133 7.84264 12.4922H7.40623C7.28899 12.4922 7.18071 12.5547 7.12206 12.6563C7.06348 12.7578 7.06348 12.8829 7.12206 12.9844C7.18072 13.0859 7.28901 13.1484 7.40624 13.1484Z" fill="white" stroke="white" stroke-width="0.2"/>
<path d="M18.8906 14.1328H16.999C16.8858 14.3615 16.7547 14.581 16.6069 14.7891H18.8907C19.0079 14.7891 19.1162 14.7265 19.1748 14.625C19.2334 14.5235 19.2334 14.3984 19.1748 14.2969C19.1162 14.1954 19.0079 14.1328 18.8907 14.1328H18.8906Z" fill="white" stroke="white" stroke-width="0.2"/>
<path d="M7.40623 14.7891H8.70396C8.55617 14.581 8.42504 14.3615 8.31185 14.1328H7.40623C7.28899 14.1328 7.18071 14.1954 7.12206 14.2969C7.06348 14.3984 7.06348 14.5235 7.12206 14.625C7.18072 14.7265 7.289 14.7891 7.40623 14.7891Z" fill="white" stroke="white" stroke-width="0.2"/>
<path d="M7.40632 16.4297H10.7089C10.322 16.259 9.95908 16.0383 9.62938 15.7734H7.40635C7.28911 15.7734 7.18083 15.836 7.12219 15.9375C7.0636 16.039 7.0636 16.1641 7.12219 16.2656C7.18084 16.3671 7.28912 16.4297 7.40635 16.4297H7.40632Z" fill="white" stroke="white" stroke-width="0.2"/>
<path d="M18.8906 15.7734H15.6815C15.3518 16.0383 14.9889 16.259 14.6019 16.4297H18.8905C19.0077 16.4297 19.116 16.3671 19.1746 16.2656C19.2332 16.1641 19.2332 16.039 19.1746 15.9375C19.116 15.836 19.0077 15.7734 18.8905 15.7734H18.8906Z" fill="white" stroke="white" stroke-width="0.2"/>
<path d="M10.1526 12.4921L11.4963 13.8358C11.5578 13.8974 11.6414 13.9321 11.7285 13.9321C11.8155 13.9321 11.8991 13.8974 11.9606 13.8358L15.1598 10.6366C15.2427 10.5537 15.2751 10.4328 15.2448 10.3195C15.2144 10.2062 15.1259 10.1177 15.0126 10.0874C14.8993 10.057 14.7784 10.0894 14.6955 10.1723L11.7277 13.1353L10.6169 12.0246C10.5334 11.9416 10.412 11.9095 10.2984 11.9404C10.1848 11.9712 10.0963 12.0604 10.0662 12.1742C10.0362 12.288 10.0691 12.4092 10.1526 12.4921L10.1526 12.4921Z" fill="white" stroke="white" stroke-width="0.2"/>
<path d="M12.6562 16.1835C13.7657 16.1835 14.8299 15.7427 15.6144 14.9582C16.3989 14.1736 16.8398 13.1095 16.8398 12C16.8398 10.8905 16.399 9.82628 15.6144 9.04176C14.8298 8.25723 13.7657 7.81641 12.6562 7.81641C11.5467 7.81641 10.4825 8.2572 9.69801 9.04176C8.91348 9.82632 8.47266 10.8905 8.47266 12C8.47396 13.1091 8.91514 14.1724 9.69944 14.9568C10.4837 15.741 11.5471 16.1822 12.6562 16.1835L12.6562 16.1835ZM12.6562 8.47266C13.5917 8.47266 14.489 8.84425 15.1505 9.50577C15.812 10.1673 16.1836 11.0645 16.1836 12C16.1836 12.9356 15.812 13.8328 15.1505 14.4943C14.489 15.1558 13.5918 15.5274 12.6562 15.5274C11.7207 15.5274 10.8234 15.1558 10.1619 14.4943C9.50041 13.8328 9.12882 12.9356 9.12882 12C9.12971 11.0648 9.50159 10.1681 10.1629 9.50682C10.8242 8.84551 11.7209 8.47364 12.6561 8.47274L12.6562 8.47266Z" fill="white" stroke="white" stroke-width="0.2"/>
</svg>
