<svg width="38" height="40" viewBox="0 0 38 40" fill="none" xmlns="http://www.w3.org/2000/svg">
<circle cx="18.5" cy="15.5" r="15" fill="url(#paint0_radial_1_15522)" stroke="url(#paint1_linear_1_15522)"/>
<ellipse cx="12.0556" cy="10.0463" rx="12.0556" ry="10.0463" transform="matrix(-1 -8.74228e-08 -8.74228e-08 1 30.5547 2.29688)" fill="url(#paint2_linear_1_15522)"/>
<path d="M24.3703 14.6983C24.9618 15.0549 24.9618 15.9462 24.3703 16.3027L16.3855 21.1158C15.794 21.4723 15.0547 21.0266 15.0547 20.3136L15.0547 10.6874C15.0547 9.97438 15.794 9.52872 16.3855 9.88525L24.3703 14.6983Z" fill="white"/>
<path d="M0.844844 34.8H1.44484V38.478H3.71884V39H0.844844V34.8ZM5.64433 39.036C5.32833 39.036 5.04433 38.966 4.79233 38.826C4.54033 38.686 4.34233 38.494 4.19833 38.25C4.05833 38.002 3.98833 37.722 3.98833 37.41C3.98833 37.098 4.05833 36.82 4.19833 36.576C4.34233 36.328 4.54033 36.136 4.79233 36C5.04433 35.86 5.32833 35.79 5.64433 35.79C5.96033 35.79 6.24233 35.86 6.49033 36C6.74233 36.136 6.93833 36.328 7.07833 36.576C7.22233 36.82 7.29433 37.098 7.29433 37.41C7.29433 37.722 7.22233 38.002 7.07833 38.25C6.93833 38.494 6.74233 38.686 6.49033 38.826C6.24233 38.966 5.96033 39.036 5.64433 39.036ZM5.64433 38.532C5.84833 38.532 6.03033 38.486 6.19033 38.394C6.35433 38.298 6.48233 38.166 6.57433 37.998C6.66633 37.826 6.71233 37.63 6.71233 37.41C6.71233 37.19 6.66633 36.996 6.57433 36.828C6.48233 36.656 6.35433 36.524 6.19033 36.432C6.03033 36.34 5.84833 36.294 5.64433 36.294C5.44033 36.294 5.25633 36.34 5.09233 36.432C4.93233 36.524 4.80433 36.656 4.70833 36.828C4.61633 36.996 4.57033 37.19 4.57033 37.41C4.57033 37.63 4.61633 37.826 4.70833 37.998C4.80433 38.166 4.93233 38.298 5.09233 38.394C5.25633 38.486 5.44033 38.532 5.64433 38.532ZM9.21963 35.79C9.65963 35.79 9.99563 35.898 10.2276 36.114C10.4636 36.33 10.5816 36.652 10.5816 37.08V39H10.0356V38.58C9.93963 38.728 9.80163 38.842 9.62163 38.922C9.44563 38.998 9.23563 39.036 8.99163 39.036C8.63563 39.036 8.34963 38.95 8.13363 38.778C7.92163 38.606 7.81563 38.38 7.81563 38.1C7.81563 37.82 7.91763 37.596 8.12163 37.428C8.32563 37.256 8.64963 37.17 9.09363 37.17H10.0056V37.056C10.0056 36.808 9.93363 36.618 9.78963 36.486C9.64563 36.354 9.43363 36.288 9.15363 36.288C8.96563 36.288 8.78163 36.32 8.60163 36.384C8.42163 36.444 8.26963 36.526 8.14563 36.63L7.90563 36.198C8.06963 36.066 8.26563 35.966 8.49363 35.898C8.72163 35.826 8.96363 35.79 9.21963 35.79ZM9.08763 38.592C9.30763 38.592 9.49763 38.544 9.65763 38.448C9.81763 38.348 9.93363 38.208 10.0056 38.028V37.584H9.11763C8.62963 37.584 8.38563 37.748 8.38563 38.076C8.38563 38.236 8.44763 38.362 8.57163 38.454C8.69563 38.546 8.86763 38.592 9.08763 38.592ZM14.6651 34.548V39H14.1131V38.496C13.9851 38.672 13.8231 38.806 13.6271 38.898C13.4311 38.99 13.2151 39.036 12.9791 39.036C12.6711 39.036 12.3951 38.968 12.1511 38.832C11.9071 38.696 11.7151 38.506 11.5751 38.262C11.4391 38.014 11.3711 37.73 11.3711 37.41C11.3711 37.09 11.4391 36.808 11.5751 36.564C11.7151 36.32 11.9071 36.13 12.1511 35.994C12.3951 35.858 12.6711 35.79 12.9791 35.79C13.2071 35.79 13.4171 35.834 13.6091 35.922C13.8011 36.006 13.9611 36.132 14.0891 36.3V34.548H14.6651ZM13.0271 38.532C13.2271 38.532 13.4091 38.486 13.5731 38.394C13.7371 38.298 13.8651 38.166 13.9571 37.998C14.0491 37.826 14.0951 37.63 14.0951 37.41C14.0951 37.19 14.0491 36.996 13.9571 36.828C13.8651 36.656 13.7371 36.524 13.5731 36.432C13.4091 36.34 13.2271 36.294 13.0271 36.294C12.8231 36.294 12.6391 36.34 12.4751 36.432C12.3151 36.524 12.1871 36.656 12.0911 36.828C11.9991 36.996 11.9531 37.19 11.9531 37.41C11.9531 37.63 11.9991 37.826 12.0911 37.998C12.1871 38.166 12.3151 38.298 12.4751 38.394C12.6391 38.486 12.8231 38.532 13.0271 38.532ZM19.1543 38.814C19.0703 38.886 18.9663 38.942 18.8423 38.982C18.7183 39.018 18.5903 39.036 18.4583 39.036C18.1383 39.036 17.8903 38.95 17.7143 38.778C17.5383 38.606 17.4503 38.36 17.4503 38.04V36.294H16.9103V35.82H17.4503V35.124H18.0263V35.82H18.9383V36.294H18.0263V38.016C18.0263 38.188 18.0683 38.32 18.1523 38.412C18.2403 38.504 18.3643 38.55 18.5243 38.55C18.7003 38.55 18.8503 38.5 18.9743 38.4L19.1543 38.814ZM21.5487 35.79C21.9527 35.79 22.2727 35.908 22.5087 36.144C22.7487 36.376 22.8687 36.718 22.8687 37.17V39H22.2927V37.236C22.2927 36.928 22.2187 36.696 22.0707 36.54C21.9227 36.384 21.7107 36.306 21.4347 36.306C21.1227 36.306 20.8767 36.398 20.6967 36.582C20.5167 36.762 20.4267 37.022 20.4267 37.362V39H19.8507V34.548H20.4267V36.27C20.5467 36.118 20.7027 36 20.8947 35.916C21.0907 35.832 21.3087 35.79 21.5487 35.79ZM26.8263 37.428C26.8263 37.472 26.8223 37.53 26.8143 37.602H24.2343C24.2703 37.882 24.3923 38.108 24.6003 38.28C24.8123 38.448 25.0743 38.532 25.3863 38.532C25.7663 38.532 26.0723 38.404 26.3043 38.148L26.6223 38.52C26.4783 38.688 26.2983 38.816 26.0823 38.904C25.8703 38.992 25.6323 39.036 25.3683 39.036C25.0323 39.036 24.7343 38.968 24.4743 38.832C24.2143 38.692 24.0123 38.498 23.8683 38.25C23.7283 38.002 23.6583 37.722 23.6583 37.41C23.6583 37.102 23.7263 36.824 23.8623 36.576C24.0023 36.328 24.1923 36.136 24.4323 36C24.6763 35.86 24.9503 35.79 25.2543 35.79C25.5583 35.79 25.8283 35.86 26.0643 36C26.3043 36.136 26.4903 36.328 26.6223 36.576C26.7583 36.824 26.8263 37.108 26.8263 37.428ZM25.2543 36.276C24.9783 36.276 24.7463 36.36 24.5583 36.528C24.3743 36.696 24.2663 36.916 24.2343 37.188H26.2743C26.2423 36.92 26.1323 36.702 25.9443 36.534C25.7603 36.362 25.5303 36.276 25.2543 36.276ZM29.2374 34.548H29.8134V39H29.2374V34.548ZM30.9132 35.82H31.4892V39H30.9132V35.82ZM31.2012 35.208C31.0892 35.208 30.9952 35.172 30.9192 35.1C30.8472 35.028 30.8112 34.94 30.8112 34.836C30.8112 34.732 30.8472 34.644 30.9192 34.572C30.9952 34.496 31.0892 34.458 31.2012 34.458C31.3132 34.458 31.4052 34.494 31.4772 34.566C31.5532 34.634 31.5912 34.72 31.5912 34.824C31.5912 34.932 31.5532 35.024 31.4772 35.1C31.4052 35.172 31.3132 35.208 31.2012 35.208ZM33.753 34.986C33.409 34.986 33.237 35.172 33.237 35.544V35.82H34.161V36.294H33.249V39H32.673V36.294H32.133V35.82H32.673V35.538C32.673 35.222 32.765 34.972 32.949 34.788C33.133 34.604 33.391 34.512 33.723 34.512C33.851 34.512 33.971 34.528 34.083 34.56C34.195 34.592 34.291 34.638 34.371 34.698L34.197 35.136C34.065 35.036 33.917 34.986 33.753 34.986ZM37.5313 37.428C37.5313 37.472 37.5273 37.53 37.5193 37.602H34.9393C34.9753 37.882 35.0973 38.108 35.3053 38.28C35.5173 38.448 35.7793 38.532 36.0913 38.532C36.4713 38.532 36.7773 38.404 37.0093 38.148L37.3273 38.52C37.1833 38.688 37.0033 38.816 36.7873 38.904C36.5753 38.992 36.3373 39.036 36.0733 39.036C35.7373 39.036 35.4393 38.968 35.1793 38.832C34.9193 38.692 34.7173 38.498 34.5733 38.25C34.4333 38.002 34.3633 37.722 34.3633 37.41C34.3633 37.102 34.4313 36.824 34.5673 36.576C34.7073 36.328 34.8973 36.136 35.1373 36C35.3813 35.86 35.6553 35.79 35.9593 35.79C36.2633 35.79 36.5333 35.86 36.7693 36C37.0093 36.136 37.1953 36.328 37.3273 36.576C37.4633 36.824 37.5313 37.108 37.5313 37.428ZM35.9593 36.276C35.6833 36.276 35.4513 36.36 35.2633 36.528C35.0793 36.696 34.9713 36.916 34.9393 37.188H36.9793C36.9473 36.92 36.8373 36.702 36.6493 36.534C36.4653 36.362 36.2353 36.276 35.9593 36.276Z" fill="url(#paint3_linear_1_15522)"/>
<defs>
<radialGradient id="paint0_radial_1_15522" cx="0" cy="0" r="1" gradientUnits="userSpaceOnUse" gradientTransform="translate(18.4998 15.4999) rotate(90) scale(15.5 16.4074)">
<stop stop-color="#04E0FF"/>
<stop offset="1" stop-color="#0D7684"/>
</radialGradient>
<linearGradient id="paint1_linear_1_15522" x1="18.4998" y1="-0.000129769" x2="18.4998" y2="30.9999" gradientUnits="userSpaceOnUse">
<stop stop-color="#04E0FF"/>
<stop offset="1" stop-color="#0D7684"/>
</linearGradient>
<linearGradient id="paint2_linear_1_15522" x1="12.0556" y1="0" x2="12.0556" y2="20.0926" gradientUnits="userSpaceOnUse">
<stop stop-color="white" stop-opacity="0.5"/>
<stop offset="0.400706" stop-color="white" stop-opacity="0"/>
</linearGradient>
<linearGradient id="paint3_linear_1_15522" x1="19" y1="33" x2="19" y2="47.9459" gradientUnits="userSpaceOnUse">
<stop stop-color="white"/>
<stop offset="0.0001" stop-color="#04DDFC"/>
<stop offset="1" stop-color="#0D7B89"/>
</linearGradient>
</defs>
</svg>
