<svg width="36" height="36" viewBox="0 0 36 36" fill="none" xmlns="http://www.w3.org/2000/svg">
<rect width="36" height="36" rx="8" fill="url(#paint0_linear_1_215)"/>
<path d="M25 10C25 13.866 21.866 17 18 17C14.134 17 11 13.866 11 10C11 6.134 14.134 3 18 3C21.866 3 25 6.134 25 10Z" fill="white" fill-opacity="0.2"/>
<path d="M24.8829 20.4393C27.0532 21.3896 29.0031 22.779 30.61 24.52C30.8536 24.7892 30.992 25.1371 31 25.5V31.5C31 31.8978 30.842 32.2794 30.5607 32.5607C30.2794 32.842 29.8978 33 29.5 33H6.5C6.10562 33 5.72709 32.8447 5.44635 32.5678C5.16561 32.2908 5.00526 31.9143 5 31.52V25.52C5.00314 25.1502 5.14192 24.7943 5.39 24.52C6.99685 22.779 8.94681 21.3896 11.1171 20.4393C13.2873 19.4891 15.6308 18.9985 18 18.9985C20.3692 18.9985 22.7127 19.4891 24.8829 20.4393Z" fill="white" fill-opacity="0.2"/>
<path d="M10.3915 16V12.784L10.6675 13.528L7.05552 7.6H8.33952L11.3755 12.604H10.6795L13.7275 7.6H14.9155L11.3155 13.528L11.5795 12.784V16H10.3915ZM17.9742 16.072C17.3342 16.072 16.7662 15.932 16.2702 15.652C15.7742 15.372 15.3822 14.988 15.0942 14.5C14.8062 14.004 14.6622 13.444 14.6622 12.82C14.6622 12.188 14.8062 11.628 15.0942 11.14C15.3822 10.652 15.7742 10.272 16.2702 10C16.7662 9.72 17.3342 9.58 17.9742 9.58C18.6062 9.58 19.1702 9.72 19.6662 10C20.1702 10.272 20.5622 10.652 20.8422 11.14C21.1302 11.62 21.2742 12.18 21.2742 12.82C21.2742 13.452 21.1302 14.012 20.8422 14.5C20.5622 14.988 20.1702 15.372 19.6662 15.652C19.1702 15.932 18.6062 16.072 17.9742 16.072ZM17.9742 15.064C18.3822 15.064 18.7462 14.972 19.0662 14.788C19.3942 14.604 19.6502 14.344 19.8342 14.008C20.0182 13.664 20.1102 13.268 20.1102 12.82C20.1102 12.364 20.0182 11.972 19.8342 11.644C19.6502 11.308 19.3942 11.048 19.0662 10.864C18.7462 10.68 18.3822 10.588 17.9742 10.588C17.5662 10.588 17.2022 10.68 16.8822 10.864C16.5622 11.048 16.3062 11.308 16.1142 11.644C15.9222 11.972 15.8262 12.364 15.8262 12.82C15.8262 13.268 15.9222 13.664 16.1142 14.008C16.3062 14.344 16.5622 14.604 16.8822 14.788C17.2022 14.972 17.5662 15.064 17.9742 15.064ZM25.5434 16.072C24.9994 16.072 24.5194 15.972 24.1034 15.772C23.6954 15.572 23.3754 15.268 23.1434 14.86C22.9194 14.444 22.8074 13.924 22.8074 13.3V9.64H23.9594V13.168C23.9594 13.792 24.1074 14.26 24.4034 14.572C24.7074 14.884 25.1314 15.04 25.6754 15.04C26.0754 15.04 26.4234 14.96 26.7194 14.8C27.0154 14.632 27.2434 14.392 27.4034 14.08C27.5634 13.76 27.6434 13.376 27.6434 12.928V9.64H28.7954V16H27.7034V14.284L27.8834 14.74C27.6754 15.164 27.3634 15.492 26.9474 15.724C26.5314 15.956 26.0634 16.072 25.5434 16.072ZM8.02902 29L11.833 20.6H13.021L16.837 29H15.577L12.181 21.272H12.661L9.26502 29H8.02902ZM9.64902 26.9L9.97302 25.94H14.701L15.049 26.9H9.64902ZM17.9221 29V22.64H19.0261V24.368L18.9181 23.936C19.0941 23.496 19.3901 23.16 19.8061 22.928C20.2221 22.696 20.7341 22.58 21.3421 22.58V23.696C21.2941 23.688 21.2461 23.684 21.1981 23.684C21.1581 23.684 21.1181 23.684 21.0781 23.684C20.4621 23.684 19.9741 23.868 19.6141 24.236C19.2541 24.604 19.0741 25.136 19.0741 25.832V29H17.9221ZM25.5353 29.072C24.8553 29.072 24.2553 28.932 23.7353 28.652C23.2233 28.372 22.8233 27.988 22.5353 27.5C22.2553 27.012 22.1153 26.452 22.1153 25.82C22.1153 25.188 22.2513 24.628 22.5233 24.14C22.8033 23.652 23.1833 23.272 23.6633 23C24.1513 22.72 24.6993 22.58 25.3073 22.58C25.9233 22.58 26.4673 22.716 26.9393 22.988C27.4113 23.26 27.7793 23.644 28.0433 24.14C28.3153 24.628 28.4513 25.2 28.4513 25.856C28.4513 25.904 28.4473 25.96 28.4393 26.024C28.4393 26.088 28.4353 26.148 28.4273 26.204H23.0153V25.376H27.8273L27.3593 25.664C27.3673 25.256 27.2833 24.892 27.1073 24.572C26.9313 24.252 26.6873 24.004 26.3753 23.828C26.0713 23.644 25.7153 23.552 25.3073 23.552C24.9073 23.552 24.5513 23.644 24.2393 23.828C23.9273 24.004 23.6833 24.256 23.5073 24.584C23.3313 24.904 23.2433 25.272 23.2433 25.688V25.88C23.2433 26.304 23.3393 26.684 23.5313 27.02C23.7313 27.348 24.0073 27.604 24.3593 27.788C24.7113 27.972 25.1153 28.064 25.5713 28.064C25.9473 28.064 26.2873 28 26.5913 27.872C26.9033 27.744 27.1753 27.552 27.4073 27.296L28.0433 28.04C27.7553 28.376 27.3953 28.632 26.9633 28.808C26.5393 28.984 26.0633 29.072 25.5353 29.072Z" fill="white"/>
<defs>
<linearGradient id="paint0_linear_1_215" x1="18" y1="0" x2="18" y2="36" gradientUnits="userSpaceOnUse">
<stop stop-color="#0072E0"/>
<stop offset="1" stop-color="#00376C"/>
</linearGradient>
</defs>
</svg>
