<svg width="24" height="24" viewBox="0 0 24 24" fill="none" xmlns="http://www.w3.org/2000/svg">
<path d="M22.4999 7.04299C22.5 6.80975 22.4072 6.58617 22.2417 6.42174L21.5374 5.71735C21.373 5.55174 21.1494 5.45849 20.9161 5.45849C20.6828 5.45849 20.4592 5.55173 20.2949 5.71735L19.1267 6.87674L17.2499 8.75362V6.31249C17.2505 6.19619 17.2048 6.08445 17.123 6.00188L12.748 1.62688C12.6654 1.54503 12.5537 1.49937 12.4374 1.50001H1.93738C1.82135 1.50001 1.71006 1.54613 1.62803 1.62816C1.546 1.71019 1.49988 1.82148 1.49988 1.93751V22.0625C1.49988 22.1785 1.546 22.2898 1.62803 22.3718C1.71006 22.4539 1.82135 22.5 1.93738 22.5H16.8124C16.9284 22.5 17.0397 22.4539 17.1217 22.3718C17.2038 22.2898 17.2499 22.1785 17.2499 22.0625V12.6475L20.7499 9.14751L21.1174 9.51062C21.2002 9.59274 21.2468 9.70458 21.2468 9.82123C21.2468 9.93789 21.2002 10.0497 21.1174 10.1318L18.2343 13.0107C18.1233 13.1217 18.08 13.2834 18.1206 13.435C18.1612 13.5867 18.2796 13.7051 18.4313 13.7456C18.5828 13.7863 18.7445 13.743 18.8556 13.632L21.7344 10.7489C21.9802 10.5028 22.1182 10.1692 22.1182 9.82139C22.1182 9.47359 21.9802 9.13999 21.7344 8.89389L21.3888 8.50014L22.2419 7.6514C22.4042 7.49025 22.4968 7.27195 22.5 7.04328L22.4999 7.04299ZM11.3654 17.2849L10.4117 17.5255L10.6523 16.5761L15.9373 11.3042L16.646 11.9998L11.3654 17.2849ZM12.8748 2.99186L15.7579 5.87492H12.8748V2.99186ZM16.3748 21.6249H2.37482V2.37492H11.9998V6.31242C11.9998 6.42845 12.0459 6.53974 12.128 6.62177C12.21 6.70381 12.3213 6.74993 12.4373 6.74993H16.3748V9.62879L9.94789 16.0427C9.89102 16.0978 9.85018 16.1673 9.82976 16.2439L9.41851 17.902L9.06413 18.252C8.95311 18.363 8.90982 18.5247 8.95047 18.6763C8.99103 18.828 9.10943 18.9464 9.26108 18.9869C9.41266 19.0276 9.57436 18.9843 9.68538 18.8733L10.0354 18.5189L11.6935 18.1251C11.7694 18.1032 11.8386 18.0626 11.8947 18.007L16.3747 13.5226L16.3748 21.6249ZM17.2498 11.3961L16.5542 10.6873L19.4373 7.80844L20.1504 8.49969L17.2498 11.3961ZM20.7498 7.89605L20.0586 7.1873L20.9117 6.33855L21.6248 7.0473L20.7498 7.89605Z" fill="white"/>
<path d="M4.56235 5.875H9.81234C9.96866 5.875 10.113 5.7916 10.1912 5.65625C10.2693 5.5209 10.2693 5.35411 10.1912 5.21875C10.113 5.0834 9.96865 5 9.81234 5H4.56235C4.40603 5 4.26165 5.0834 4.18346 5.21875C4.10535 5.3541 4.10535 5.52089 4.18346 5.65625C4.26167 5.7916 4.40604 5.875 4.56235 5.875Z" fill="white"/>
<path d="M4.56235 8.5H14.1873C14.3437 8.5 14.488 8.4166 14.5662 8.28125C14.6443 8.1459 14.6443 7.97911 14.5662 7.84375C14.488 7.7084 14.3436 7.625 14.1873 7.625H4.56235C4.40603 7.625 4.26165 7.7084 4.18346 7.84375C4.10535 7.9791 4.10535 8.14589 4.18346 8.28125C4.26167 8.4166 4.40604 8.5 4.56235 8.5Z" fill="white"/>
<path d="M4.56235 11.125H13.3123C13.4687 11.125 13.613 11.0416 13.6912 10.9062C13.7693 10.7709 13.7693 10.6041 13.6912 10.4687C13.613 10.3334 13.4686 10.25 13.3123 10.25H4.56235C4.40603 10.25 4.26165 10.3334 4.18346 10.4687C4.10535 10.6041 4.10535 10.7709 4.18346 10.9062C4.26167 11.0416 4.40604 11.125 4.56235 11.125Z" fill="white"/>
<path d="M4.56235 13.75H10.6873C10.8437 13.75 10.988 13.6666 11.0662 13.5312C11.1443 13.3959 11.1443 13.2291 11.0662 13.0937C10.988 12.9584 10.8437 12.875 10.6873 12.875H4.56235C4.40603 12.875 4.26165 12.9584 4.18346 13.0937C4.10535 13.2291 4.10535 13.3959 4.18346 13.5312C4.26167 13.6666 4.40604 13.75 4.56235 13.75Z" fill="white"/>
<path d="M8.06235 15.5H4.56235C4.40603 15.5 4.26165 15.5834 4.18346 15.7187C4.10535 15.8541 4.10535 16.0209 4.18346 16.1562C4.26167 16.2916 4.40604 16.375 4.56235 16.375H8.06235C8.21866 16.375 8.36304 16.2916 8.44123 16.1562C8.51935 16.0209 8.51935 15.8541 8.44123 15.7187C8.36303 15.5834 8.21865 15.5 8.06235 15.5Z" fill="white"/>
<path d="M6.74985 18.125H4.56235C4.40603 18.125 4.26165 18.2084 4.18346 18.3437C4.10535 18.4791 4.10535 18.6459 4.18346 18.7812C4.26167 18.9166 4.40604 19 4.56235 19H6.74985C6.90616 19 7.05054 18.9166 7.12873 18.7812C7.20685 18.6459 7.20685 18.4791 7.12873 18.3437C7.05053 18.2084 6.90615 18.125 6.74985 18.125Z" fill="white"/>
</svg>
