<svg width="24" height="24" viewBox="0 0 24 24" fill="none" xmlns="http://www.w3.org/2000/svg">
<path d="M20.9172 9.94556H20.9054L19.0619 8.42422V5.70501C19.0619 5.6988 19.0588 5.6935 19.0583 5.68729C19.0566 5.66117 19.0515 5.63623 19.0428 5.61121C19.0397 5.60225 19.0375 5.59294 19.0336 5.58426C19.0198 5.55448 19.0024 5.52617 18.9783 5.50178L18.9772 5.50069L15.2194 1.70119C15.2194 1.70119 15.2188 1.70091 15.2188 1.70064C15.2174 1.69927 15.2157 1.69863 15.2143 1.69726C15.191 1.67479 15.1646 1.65771 15.1361 1.64446C15.1271 1.64026 15.1181 1.6377 15.1086 1.63432C15.0836 1.62565 15.0583 1.62053 15.0319 1.61889C15.0257 1.61861 15.0204 1.61523 15.0142 1.61523L4.95345 1.61533C4.79406 1.61533 4.66499 1.74439 4.66499 1.90378V8.6486L3.09394 9.94498H3.08215C2.92277 9.94498 2.7937 10.074 2.7937 10.2334V22.0968C2.7937 22.2562 2.92276 22.3852 3.08215 22.3852H20.9178C21.0771 22.3852 21.2062 22.2562 21.2062 22.0968V10.2334C21.2062 10.074 21.0771 9.94498 20.9178 9.94498L20.9172 9.94556ZM20.6288 10.7739V21.5874L14.2536 16.4438L20.6288 10.7739ZM20.3586 10.2422L19.0619 11.3955V9.17238L20.3586 10.2423V10.2422ZM15.2915 2.59484L18.0654 5.3994L15.2463 5.33153L15.2916 2.59479L15.2915 2.59484ZM14.721 2.19303L14.6647 5.60835C14.6621 5.76691 14.7879 5.89762 14.9461 5.90154L18.4849 5.98685V11.9086L13.7982 16.0766L12.1803 14.7713C12.0746 14.686 11.9238 14.686 11.8181 14.7713L10.2002 16.0766L5.24137 11.6661L5.24127 2.19297H14.7205L14.721 2.19303ZM3.37024 10.7739L9.74538 16.4436L3.37024 21.5871V10.7739ZM4.66461 11.1529L3.64041 10.2421L4.66461 9.39693V11.1529ZM4.01419 21.8088L11.9995 15.3661L19.9848 21.8088L4.01442 21.8087L4.01419 21.8088ZM16.0824 10.3357C16.2418 10.3357 16.3708 10.4648 16.3708 10.6242C16.3708 10.7835 16.2418 10.9126 16.0824 10.9126H7.67526C7.51587 10.9126 7.38681 10.7835 7.38681 10.6242C7.38681 10.4648 7.51587 10.3357 7.67526 10.3357H16.0824ZM7.25039 8.19845C7.25039 8.03907 7.37945 7.91 7.53884 7.91H15.946C16.1053 7.91 16.2344 8.03906 16.2344 8.19845C16.2344 8.35784 16.1054 8.48691 15.946 8.48691H7.53884C7.37946 8.48691 7.25039 8.35784 7.25039 8.19845ZM16.3807 13.0939C16.3807 13.2533 16.2517 13.3824 16.0923 13.3824H7.82687C7.66749 13.3824 7.53842 13.2533 7.53842 13.0939C7.53842 12.9345 7.66748 12.8055 7.82687 12.8055H16.0923C16.2517 12.8055 16.3807 12.9345 16.3807 13.0939ZM7.42342 5.69437C7.42342 5.53498 7.55249 5.40592 7.71188 5.40592H13.7084C13.8678 5.40592 13.9969 5.53498 13.9969 5.69437C13.9969 5.85376 13.8678 5.98282 13.7084 5.98282H7.71188C7.55249 5.98282 7.42342 5.85376 7.42342 5.69437Z" fill="white" stroke="white" stroke-width="0.3"/>
</svg>
