<svg width="24" height="24" viewBox="0 0 24 24" fill="none" xmlns="http://www.w3.org/2000/svg">
<path d="M20.3715 20.4917C21.2009 19.2898 22.3931 18.4014 24 17.7743C22.9633 17.2518 21.8747 17.5131 20.8898 18.6105C21.3045 16.7815 22.0302 15.3183 23.0151 14.0119C21.8747 14.4822 20.838 15.7886 19.905 17.7221C19.8531 16.2067 19.5421 14.9525 19.0756 13.9074V19.9169L20.3715 20.4917ZM2.90281 18.8195C1.91793 17.8266 0.984881 17.5131 0 18.0879C1.50324 18.715 2.59179 19.6033 3.36933 20.8052L4.56156 20.2827V14.2209C4.09503 15.2138 3.83585 16.5202 3.78402 18.0356C2.90281 15.9976 1.91793 14.7957 0.88121 14.2209C1.91793 15.4751 2.53996 17.0428 2.90281 18.8195ZM1.71058 22.4774C1.39957 22.6865 1.08855 22.791 0.88121 23H23.6371C23.3261 22.791 23.0151 22.5819 22.7559 22.4774C19.8531 20.6485 16.3283 19.7601 12.2333 19.7601C8.13823 19.7601 4.61339 20.6485 1.71058 22.4774ZM18.2981 8.15914C18.2981 6.1734 17.6242 4.50119 16.3801 3.09026C15.1361 1.67933 13.6328 1 11.8186 1C10.0043 1 8.50108 1.73159 7.25702 3.14252C6.01296 4.55344 5.39093 6.27791 5.39093 8.2114V19.9169C7.41253 19.2375 9.6933 18.924 12.2333 18.924C14.4622 18.924 16.4838 19.1853 18.3499 19.7601V8.15914M13.581 6.69596H14.9806C15.2916 6.69596 15.4989 6.74822 15.7581 6.85273C16.0173 6.90499 16.1728 7.06176 16.2765 7.16627C16.432 7.32304 16.5875 7.47981 16.6393 7.68884C16.6911 7.89786 16.743 8.10689 16.743 8.36817C16.743 8.5772 16.6911 8.83848 16.6393 9.04751C16.5875 9.25653 16.4838 9.46556 16.2765 9.57007C16.1209 9.72684 15.9136 9.83135 15.7581 9.88361C15.4989 9.93587 15.2916 10.0404 14.9806 10.0404H14.2549V12.0261H13.581V6.69596ZM15.2397 15.2138V15.8931H8.50108V15.2138H15.2397ZM17.2095 13.8028V14.4822H6.53132V13.8028H17.2095ZM12.4406 6.69596V11.9739H11.7667V6.69596H12.4406ZM7.67171 6.69596H8.9676C9.27862 6.69596 9.48596 6.74822 9.74514 6.85273C9.90065 6.90499 10.108 7.0095 10.2635 7.11401C10.419 7.21853 10.5745 7.3753 10.5745 7.53207C10.6263 7.74109 10.6263 7.95012 10.6263 8.15914C10.6263 8.36817 10.6263 8.47268 10.5745 8.68171C10.5745 8.89074 10.5227 8.99525 10.3153 9.09976C10.2635 9.20428 10.1598 9.30879 10.0043 9.4133C9.90065 9.46556 9.6933 9.57007 9.5378 9.62233C9.58963 9.67458 9.64147 9.7791 9.79698 9.83135L11.1447 11.9216H10.6263C10.5227 11.9216 10.3672 11.8694 10.3153 11.7648L9.12311 9.88361L8.91577 9.72684C8.86393 9.72684 8.81209 9.67458 8.76026 9.67458H8.29374V11.8171H7.67171V6.69596ZM8.34557 7.27078V9.25653H8.9676C9.12311 9.25653 9.33045 9.25653 9.48596 9.20428C9.58963 9.15202 9.74514 9.04751 9.79698 8.99525C9.90065 8.94299 9.95248 8.78622 10.0562 8.68171C10.108 8.52494 10.108 8.42043 10.108 8.26366C10.108 7.95012 10.0562 7.74109 9.84881 7.53207C9.6933 7.3753 9.38229 7.32304 9.01944 7.32304L8.34557 7.27078ZM14.9287 7.27078H14.203V9.36104H14.9287C15.0842 9.36104 15.2916 9.36104 15.4471 9.30879C15.6026 9.25653 15.7063 9.20428 15.8099 9.09976C15.9136 8.94299 15.9654 8.89074 16.0691 8.78622C16.121 8.62945 16.1209 8.47268 16.1209 8.31591C16.1209 8.00238 16.0691 7.68884 15.8099 7.47981C15.6544 7.3753 15.3434 7.27078 14.9287 7.27078Z" fill="white"/>
</svg>
