<svg width="24" height="24" viewBox="0 0 24 24" fill="none" xmlns="http://www.w3.org/2000/svg">
<path d="M12.6138 12.3614L11.4752 15.9036L14.3217 13.9518L12.6138 12.3614ZM17.6664 5.27711C17.3818 5.63855 17.0259 6.07229 16.7413 6.43373C16.3855 6.86747 16.0297 7.37349 15.6738 7.87952C15.4603 8.16867 15.2469 8.45783 14.9622 8.74699L14.891 8.81928C14.6064 9.18072 14.3929 9.46988 14.1082 9.83133C13.8236 10.1928 13.5389 10.4819 13.3254 10.8434C13.3254 10.9157 13.2543 10.9157 13.2543 10.9157L12.685 11.5663C14.3217 12.7229 15.1045 13.3012 15.1045 13.1566L15.8873 12.1446C16.2431 11.7108 16.599 11.2048 16.9548 10.7711C17.0971 10.5542 17.2394 10.3373 17.3818 10.1205C17.8087 9.54217 18.1646 8.96386 18.6627 8.38554C19.232 7.59036 19.8725 6.86747 20.4418 6.07229C20.1572 5.85542 19.8013 5.56627 19.4455 5.3494C19.0185 4.98795 18.5204 4.6988 18.0934 4.40964C18.0222 4.77108 17.8799 4.98795 17.6664 5.27711ZM17.5953 3.75904C17.4529 2.38554 17.2394 1.15663 16.9548 0.0722892H0.017791C0.37361 1.15663 0.658265 2.38554 0.800593 3.75904C0.800593 3.9759 0.871757 4.12048 0.871757 4.33735C0.871757 4.48193 0.942921 4.69879 0.942921 4.84337C0.942921 5.20482 1.01408 5.56627 1.01408 5.92771C1.01408 6.07229 1.01408 6.28916 1.01408 6.50602C1.01408 6.6506 1.01408 6.79518 1.08525 6.93976C1.08525 7.30121 1.08525 7.59036 1.08525 7.95181C1.08525 8.31325 1.01408 8.60241 1.01408 8.96385C1.01408 9.3253 0.942921 9.61446 0.942921 9.9759C0.942921 10.1928 0.942921 10.3373 0.871757 10.5542C0.871757 10.6988 0.871757 10.8434 0.871757 10.988C0.871757 11.3494 0.800593 11.6386 0.800593 12C0.800593 12.0723 0.729429 12.1446 0.729429 12.2169C0.729429 12.2892 0.729429 12.3614 0.729429 12.3614C0.729429 12.5783 0.658265 12.7952 0.658265 13.012C0.587102 13.3012 0.587102 13.6627 0.587102 14.0241C0.587102 14.0964 0.587102 14.1687 0.587102 14.3133C0.587102 14.5301 0.515938 14.8193 0.444774 15.1084C0.444774 15.3976 0.37361 15.759 0.37361 16.1205C0.37361 16.3373 0.302446 16.5542 0.302446 16.7711C0.302446 16.8434 0.302446 16.988 0.302446 17.1325C0.231282 17.494 0.231282 17.9277 0.160119 18.3614C-0.0533729 20.6024 -0.0533729 22.4819 0.160119 24H16.9548C16.599 22.4819 16.5278 20.6747 16.6701 18.506C16.6701 17.9277 16.8125 16.7711 16.9548 15.1084C17.0259 14.747 17.0259 14.4578 17.0971 14.0964C17.1683 13.7349 17.1683 13.4458 17.2394 13.0843C17.2394 12.8675 17.2394 12.7229 17.3106 12.506C17.3106 12.3614 17.3106 12.2169 17.3106 12.0723L17.4529 11.2771L15.3892 14.0964H15.745L15.6738 15.1084H14.6775H14.1082C12.1156 16.3373 10.9059 17.0602 10.4789 17.2048L10.6212 16.5542C10.7635 16.0482 10.9059 15.5422 11.0482 15.1084H11.1193H2.79318H2.15271H1.86805C1.86805 14.8193 1.93921 14.6024 1.93921 14.3133C1.93921 14.241 1.93921 14.1687 1.93921 14.0241H2.08154H2.72202H11.404C11.5463 13.6627 11.6175 13.3735 11.6887 13.012H2.15271V12.7229C2.15271 12.5783 2.22387 12.506 2.22387 12.3614C2.22387 12.2892 2.22387 12.2892 2.22387 12.2169C2.22387 12.1446 2.22387 12.0723 2.22387 12H11.9733C12.258 11.6386 12.5426 11.3494 12.8273 10.988H2.29503C2.29503 10.8434 2.3662 10.6988 2.3662 10.5542C2.3662 10.3373 2.3662 10.1928 2.3662 9.9759H13.5389C13.6101 9.90361 13.6812 9.83133 13.7524 9.68675C13.8947 9.39759 14.1082 9.18072 14.3217 8.89157H2.43736C2.43736 8.53012 2.50852 8.24096 2.50852 7.87952H14.6775H15.1757C15.318 7.66265 15.4603 7.51807 15.5315 7.30121C15.6738 7.15663 15.8162 7.01205 15.8873 6.79518H14.6064H2.50852C2.50852 6.6506 2.50852 6.50602 2.50852 6.36145C2.50852 6.14458 2.50852 6 2.43736 5.78313H14.6775H16.3855V6.21687C16.6701 5.78313 17.0259 5.42169 17.3106 4.98795C17.4529 4.84337 17.5241 4.6988 17.6664 4.55422C17.6664 4.26506 17.5953 3.9759 17.5953 3.75904ZM14.6775 3.75904H16.2431L16.3143 4.77108H14.6064H2.43736C2.43736 4.62651 2.43736 4.48193 2.43736 4.26506C2.43736 4.12048 2.3662 3.90361 2.3662 3.68675H14.6775M1.79689 16.2651C1.79689 16.1928 1.79689 16.0482 1.79689 15.9759H1.93921H2.57969H8.34396H9.48258L9.34025 16.988H8.34396H2.57969H1.93921H1.65456C1.72572 16.6988 1.72572 16.4819 1.79689 16.2651ZM18.7339 3.83133C18.7339 3.90361 18.8762 3.9759 19.1609 4.19277C19.3032 4.26506 19.5167 4.40964 19.8013 4.62651C20.2283 4.98795 20.6553 5.3494 21.0823 5.71084V5.63855C21.3669 5.27711 21.6516 4.91566 21.9362 4.48193C21.6516 4.19277 21.2958 3.9759 20.94 3.75904C20.6553 3.54217 20.4418 3.3253 20.1572 3.10843C20.0148 2.96386 19.8013 2.89157 19.659 2.81928C19.4455 3.10843 19.232 3.39759 18.9474 3.61446C18.805 3.68675 18.805 3.75904 18.7339 3.83133ZM23.9288 1.51807C23.9288 1.44578 23.9288 1.37349 23.9288 1.37349L22.5767 0.0722892C22.3632 0.0722892 22.2209 0 22.1497 0C21.9362 0 21.7939 0.0722892 21.6516 0.216867L21.5804 0.289157C21.5093 0.361446 21.5093 0.361446 21.5093 0.433735C21.0111 0.939759 20.5841 1.51807 20.1572 2.0241C20.1572 2.09639 20.2995 2.16867 20.5841 2.38554C20.7976 2.60241 21.0111 2.74699 21.1534 2.81928C21.5804 3.18072 22.0786 3.54217 22.5056 3.83133C22.5767 3.75904 22.5767 3.68675 22.6479 3.68675V3.61446C22.9325 3.18072 23.2172 2.89157 23.4307 2.6747C23.4307 2.60241 23.5019 2.60241 23.5019 2.53012C23.6442 2.31325 23.7153 2.24096 23.7865 2.16867C23.9288 2.0241 24 1.87952 24 1.59036C23.9288 1.59036 23.9288 1.59036 23.9288 1.51807Z" fill="white"/>
</svg>
