<svg width="24" height="24" viewBox="0 0 24 24" fill="none" xmlns="http://www.w3.org/2000/svg">
<path d="M24 3.19335C24 1.73112 23.2687 1 21.8726 1H2.19391C0.731302 1 0 1.73112 0 3.19335V16.6858C0 18.148 0.731302 18.8127 2.19391 18.8792H10.2382L6.38227 23L15.5568 18.8792H21.8726C23.3352 18.8792 24 18.148 24 16.6858V3.19335ZM20.0776 4.85499V5.98489H3.92244V4.85499H20.0776ZM20.0776 7.04834V8.11178H3.92244V7.04834H20.0776ZM20.0776 11.3686V12.432H3.92244V11.3686H20.0776ZM20.0776 13.4955V14.5589H3.92244V13.4955H20.0776ZM20.0776 9.17523V10.3051H3.92244V9.17523H20.0776Z" fill="white"/>
</svg>
