<svg width="24" height="24" viewBox="0 0 24 24" fill="none" xmlns="http://www.w3.org/2000/svg">
<path d="M18.1822 6.15053C16.527 4.48518 14.5068 3.6525 12.1457 3.6525C9.80903 3.6525 7.78877 4.48518 6.13362 6.15053C4.47846 7.84038 3.65088 9.8486 3.65088 12.2242C3.65088 14.5998 4.47846 16.608 6.15796 18.2733C7.81311 19.9387 9.83337 20.7714 12.1701 20.7714C14.5311 20.7714 16.527 19.9387 18.2065 18.2733C19.8617 16.608 20.6892 14.5998 20.6892 12.2242C20.6892 9.8486 19.8617 7.84038 18.1822 6.15053ZM10.5636 1.081C12.097 0.836095 13.7522 0.836095 15.5047 1.10549C16.6974 1.27692 17.7927 1.5953 18.815 2.06062C17.3546 1.081 15.6994 0.444247 13.8009 0.150361C10.5392 -0.339449 7.56971 0.370775 4.91659 2.23205C2.23913 4.09333 0.657 6.59136 0.145849 9.72615C-0.340961 12.8609 0.389254 15.7018 2.36084 18.2733C2.99369 19.0815 3.67522 19.7917 4.42978 20.404C5.18434 21.0163 6.01191 21.5061 6.91251 21.8979C6.62043 21.702 6.32834 21.5061 6.06059 21.2857C7.64273 22.4367 9.46827 23 11.5372 23C14.0686 23 16.2593 22.1428 18.0605 20.404C18.1335 20.3305 18.2065 20.2571 18.2795 20.1836C19.4722 18.9836 20.2755 17.6366 20.7136 16.1427C20.2511 17.0733 19.6183 17.9305 18.8394 18.7387C18.1578 19.4244 17.452 19.9632 16.6731 20.404C15.3343 21.1632 13.8009 21.5551 12.1214 21.5551C10.4419 21.5551 8.90843 21.1632 7.54537 20.404C6.76647 19.9632 6.06059 19.4244 5.37906 18.7387C3.52918 16.8774 2.5799 14.5998 2.5799 11.9548C2.5799 10.9752 2.7016 10.069 2.94501 9.21185C2.31215 10.4854 1.99573 11.8813 1.99573 13.4242C1.99573 14.5508 2.16611 15.6284 2.50688 16.608C2.09309 15.6284 1.801 14.5753 1.63062 13.4242C1.46024 12.1752 1.4359 11.0486 1.60628 10.0445C1.84969 8.47713 2.3365 7.10566 3.04237 5.9791C3.74825 4.82805 4.77055 3.77496 6.10928 2.84432C7.35064 1.93817 8.83541 1.37489 10.5636 1.081ZM20.957 19.6938C22.9529 17.6611 23.9752 15.2365 23.9996 12.3956C24.0239 9.55471 23.0503 7.13015 21.0787 5.12193C19.0828 3.16269 16.6731 2.15858 13.8496 2.18307C12.0484 2.20756 10.4175 2.6239 8.93278 3.45658C9.97942 3.08922 11.1234 2.91779 12.3161 2.8933C15.1396 2.86881 17.5493 3.84843 19.5209 5.83216C21.4925 7.81589 22.4904 10.2404 22.4661 13.1058C22.4418 15.9222 21.4195 18.3713 19.3992 20.3795V20.404C18.669 21.1387 17.8657 21.751 17.0382 22.2163C18.1578 21.8245 19.2045 21.2122 20.1781 20.404C20.4458 20.1836 20.7136 19.9387 20.957 19.6938Z" fill="white"/>
</svg>
