<svg width="24" height="24" viewBox="0 0 24 24" fill="none" xmlns="http://www.w3.org/2000/svg">
<path d="M15.964 21.5927L17.982 24L20 21.6657V0H4V21.5927L6.01802 24L8.03604 21.5927L10.0541 24L12.0721 21.5927L14.0901 24L15.964 21.5927ZM17.5495 2.91793V3.93921H6.66667V2.91793H17.5495ZM17.5495 4.96049V5.98176H6.66667V4.96049H17.5495ZM17.5495 6.93009V7.95137H6.66667V6.93009H17.5495ZM6.66667 16.0486V15.0274H12.4324V16.0486H6.66667ZM6.66667 12.0365V11.0152H17.5495V12.0365H6.66667ZM6.66667 14.0061V12.9848H17.5495V14.0061H6.66667ZM6.66667 8.97264H17.5495V9.99392H6.66667V8.97264Z" fill="white"/>
</svg>
