<svg width="32" height="32" viewBox="0 0 32 32" fill="none" xmlns="http://www.w3.org/2000/svg">
<rect width="31.5998" height="31.5856" rx="5" fill="white"/>
<path d="M12.3247 14.72H14.3599V6.43999C14.3599 5.92553 14.6344 5.45015 15.0799 5.19295C15.5255 4.93569 16.0744 4.93569 16.5199 5.19295C16.9655 5.45013 17.2399 5.92553 17.2399 6.43999V14.72H19.2751C19.5807 14.7207 19.8743 14.8396 20.0943 15.0519C20.3142 15.2641 20.4434 15.5533 20.4549 15.8587C20.4664 16.1642 20.3593 16.4623 20.1559 16.6904L16.8967 20.3456C16.6176 20.657 16.2193 20.8349 15.8011 20.8349C15.383 20.8349 14.9846 20.657 14.7055 20.3456L11.4439 16.6904C11.2406 16.4623 11.1334 16.1642 11.145 15.8587C11.1564 15.5533 11.2857 15.2641 11.5056 15.0519C11.7256 14.8396 12.0191 14.7207 12.3247 14.72ZM7.87992 26.5856H23.7199C24.4837 26.5856 25.2162 26.2821 25.7563 25.7421C26.2964 25.2019 26.5998 24.4694 26.5998 23.7057V11.8257C26.5998 11.0618 26.2964 10.3293 25.7563 9.78927C25.2162 9.24919 24.4837 8.94575 23.7199 8.94575H20.1199V11.8257H23.7199V23.7057H7.87992V11.8257H11.4799V8.94575H7.87992C7.1161 8.94575 6.3836 9.24919 5.84352 9.78927C5.30344 10.3294 5 11.0619 5 11.8257V23.7057C5 24.4695 5.30344 25.202 5.84352 25.7421C6.38368 26.2821 7.11618 26.5856 7.87992 26.5856Z" fill="url(#paint0_linear_38_3)"/>
<defs>
<linearGradient id="paint0_linear_38_3" x1="15.7999" y1="5" x2="15.7999" y2="26.5856" gradientUnits="userSpaceOnUse">
<stop stop-color="#0072E0"/>
<stop offset="1" stop-color="#00376C"/>
</linearGradient>
</defs>
</svg>
